<svg width="144" height="48" viewBox="0 0 144 48" fill="none" xmlns="http://www.w3.org/2000/svg">
<path d="M62.4611 29.1074C63.0484 29.698 63.7424 29.9933 64.5432 29.9933C65.3707 29.9933 66.0647 29.7114 66.6386 29.1342C67.2258 28.5436 67.5195 27.8456 67.5195 27V15H70.5358V27.0134C70.5358 28.6644 69.9485 30.0738 68.7874 31.2685C67.5862 32.4228 66.1715 33.0134 64.5565 33.0134C62.9016 33.0134 61.5002 32.4362 60.3257 31.2685L62.4611 29.1074Z" fill="#F6F7EB"/>
<path d="M76.6753 15H79.6382V33H76.6753V15Z" fill="#F6F7EB"/>
<path d="M97.9495 28.2617C96.7751 29.4161 95.3737 29.9933 93.7454 29.9933C92.1171 29.9933 90.7024 29.4161 89.5145 28.2617C88.3667 27.0671 87.7928 25.6443 87.7928 24.0067C87.7928 22.3691 88.3667 20.9597 89.5145 19.7785C90.7024 18.5973 92.1171 18.0201 93.7454 18.0201C95.3737 18.0201 96.7751 18.6107 97.9495 19.7785C99.1107 20.9597 99.6979 22.3691 99.6979 24.0067C99.6979 25.6443 99.1107 27.0671 97.9495 28.2617ZM100.058 17.6443C98.3232 15.8859 96.2145 15 93.7454 15C91.2496 15 89.1408 15.8859 87.4325 17.6443C85.6841 19.4161 84.8032 21.5235 84.8032 24.0067C84.8032 26.4899 85.6841 28.6107 87.4325 30.3557C89.1675 32.1275 91.2763 33 93.7454 33C96.2145 33 98.3232 32.1141 100.058 30.3557C101.833 28.6242 102.714 26.5034 102.714 24.0067C102.714 21.5235 101.833 19.4161 100.058 17.6443Z" fill="#F6F7EB"/>
<path d="M47.3262 26.9983H52.5848L49.9555 21.7097L47.3262 26.9983ZM54.0796 29.9916H45.8448L44.3233 32.9983H41L49.9555 14.9849L58.911 32.9983H55.5877L54.0796 29.9916Z" fill="#F6F7EB"/>
</svg>
