<svg width="144" height="48" viewBox="0 0 144 48" fill="none" xmlns="http://www.w3.org/2000/svg">
<path fill-rule="evenodd" clip-rule="evenodd" d="M41.8672 30.4547H36.6464C37.3215 29.8454 37.5065 27.6558 37.7515 23.7L37.8141 22.786C37.9991 20.5938 38.0591 18.8302 38.0591 17.6141C38.0591 16.5787 37.9366 15.9099 37.629 15.6672H43.465C44.8778 15.6672 47.6433 15.7292 47.6433 18.5875C47.6433 20.5344 45.8604 21.6912 44.2027 22.1172C46.5381 22.3005 48.2584 23.4547 48.2584 25.8302C48.3184 28.3865 45.8604 30.4547 41.8672 30.4547ZM41.6848 23.274H40.6396L40.4545 25.4662C40.3919 26.4396 40.332 27.2323 40.332 28.2057C40.332 28.3271 40.7621 28.6318 41.7447 28.6318C43.8326 28.6318 45.1853 27.5964 45.1853 25.8922C45.2479 24.0047 43.5875 23.274 41.6848 23.274ZM42.1149 17.4308C41.8073 17.4308 41.4398 17.4308 41.0696 17.4927C40.8846 18.5281 40.8246 19.5016 40.7621 20.6583C40.7621 20.6583 40.6995 21.5724 40.6995 21.5104H41.067C42.9724 21.5104 44.6927 20.8417 44.6927 19.1375C44.7553 18.1615 43.8951 17.4308 42.1149 17.4308ZM60.543 30.5761C59.2528 30.5761 59.1303 30.5141 58.1476 27.0464L57.7801 25.7683C57.1649 26.073 56.0598 26.1943 54.3395 26.1943H52.5566L52.249 26.8631C51.9415 27.5318 51.2038 28.9313 51.2038 29.7834C51.2038 29.9667 51.2038 30.1475 51.2664 30.4522H47.7033C48.6859 29.4787 50.0387 27.1058 51.819 23.3308L52.8642 21.1386C53.7869 19.1298 54.8295 16.8782 54.8295 16.5735C54.8295 16.2688 54.7669 16.0261 54.6444 15.7214H57.9C57.9 15.7214 58.7601 18.887 59.4978 21.5647L60.1129 23.8782C61.2181 27.8339 61.9557 29.7214 62.8159 30.4522C61.9584 30.5167 60.9131 30.5761 60.543 30.5761ZM55.8747 19.1349L53.4168 24.3094H57.35L55.8747 19.1349ZM74.673 31.0641C73.5678 31.0641 73.3228 30.8808 72.9527 30.3953L68.7145 24.6735C68.4069 24.188 68.0993 23.8834 67.6093 23.8834H67.5494L67.4868 25.0401C67.4268 26.561 67.3017 27.7797 67.3017 28.6912C67.3017 29.6646 67.4242 30.274 67.7318 30.5167H63.6761C64.2912 30.0287 64.4737 28.3245 64.8438 23.762L64.9063 22.8479C65.0914 20.6558 65.1514 18.8922 65.1514 17.676C65.1514 16.6406 65.0288 15.9719 64.7213 15.7292H70.1898C72.0326 15.7292 74.428 16.0339 74.428 18.8948C74.428 21.2677 72.8302 22.5458 70.8649 23.1552C71.0499 23.3385 71.4174 23.7646 71.6025 24.0073L74.613 27.963C76.5184 30.4573 76.6409 30.5813 77.316 30.8834C76.5184 31.0021 75.4106 31.0641 74.673 31.0641ZM69.2671 17.4927C68.8969 17.4927 68.4669 17.4927 68.0993 17.5547C67.9768 18.1641 67.9143 19.2589 67.7918 21.0224L67.7318 22.0578C67.9169 22.1198 68.2244 22.1198 68.4069 22.1198C70.2497 22.1198 71.5399 20.963 71.5399 19.3208C71.48 18.1615 70.6798 17.4927 69.2671 17.4927ZM82.5994 30.7594C78.7288 30.7594 76.5184 27.5938 76.5184 24.1261C76.5184 19.2589 79.2214 15.4219 84.3198 15.4219C85.9176 15.4219 86.6552 15.7266 88.0054 15.7266L87.6379 19.499C86.9002 18.1589 85.6725 17.3068 84.0747 17.3068C80.8791 17.3068 79.5915 20.7151 79.5915 23.6355C79.5915 26.8011 81.4343 28.5647 83.7698 28.5647C85.06 28.5647 86.2277 28.26 88.1305 26.9225C87.3303 29.2386 85.5474 30.7594 82.5994 30.7594ZM108.894 30.5761C107.604 30.5761 107.544 30.5141 106.499 27.0464L106.131 25.7683C105.516 26.073 104.411 26.1943 102.691 26.1943H100.848L100.54 26.8631C100.048 27.8365 99.495 28.9933 99.495 29.7834C99.495 29.9667 99.5575 30.2094 99.5575 30.4522H88.9907C89.6058 29.7834 89.7882 27.5912 90.0958 23.6974L90.1584 22.7834C90.3434 20.5318 90.4034 18.8277 90.4034 17.6115C90.4034 16.6381 90.2809 15.9693 90.0359 15.6646H94.1516C93.5364 16.0907 93.354 18.4636 93.1064 22.4193L93.0464 23.3334C92.9839 24.7948 92.7388 26.3157 92.7388 27.7152C92.7388 28.3839 92.9839 28.5672 93.7215 28.5672C96.2394 28.5672 96.792 28.5053 97.9597 27.7771C98.6974 26.499 99.435 24.9162 100.233 23.274L101.278 21.0818C102.26 19.0136 103.243 16.8834 103.243 16.5167C103.243 16.212 103.183 15.9693 103.058 15.6646H106.314C106.314 15.6646 107.604 20.4724 107.911 21.5078L108.527 23.8214C109.632 27.7771 110.309 29.6646 111.292 30.3953C110.429 30.5167 109.262 30.5761 108.894 30.5761ZM104.223 19.1349L101.828 24.3094H105.698L104.223 19.1349ZM118.231 22.4839C117.923 23.0932 117.43 23.8214 117.185 24.4308C116.94 25.5256 116.878 26.987 116.878 28.5698C116.878 29.2386 117 30.1526 117.308 30.4573H113.252C113.99 29.7886 114.235 25.7115 114.235 24.3714C113.682 22.5458 112.945 20.7203 111.839 18.5281C111.102 17.188 110.304 15.9099 109.752 15.6672C110.674 15.6052 111.839 15.5458 112.395 15.5458C113.377 15.5458 113.685 15.6672 114.3 17.0073C115.283 19.1969 115.958 20.8417 116.388 21.9984C117.371 20.4156 118.108 19.3208 119.031 17.8C119.216 17.4359 119.461 16.9479 119.461 16.5219C119.461 16.2172 119.401 15.7911 119.276 15.6698H123.269C122.409 15.8505 118.968 21.2651 118.231 22.4839ZM131.748 19.1349C131.133 18.0401 129.783 17.188 128.308 17.188C127.017 17.188 125.912 17.6735 125.912 19.0136C125.912 20.1703 127.325 20.9011 128.8 21.8745C130.398 22.8479 132.056 24.0667 132.056 26.1969C132.056 28.9365 129.353 30.7 126.157 30.7C124.867 30.7 123.517 30.4573 121.979 29.9099L122.224 26.2589C122.962 27.7203 124.312 28.8745 126.34 28.8745C127.875 28.8745 129.105 28.1438 129.105 26.8063C129.105 25.7115 128.182 24.9807 127.017 24.312C124.559 22.8505 123.024 21.6963 123.024 19.5661C123.024 16.4005 125.664 15.3677 128.493 15.3677C130.09 15.3677 131.136 15.6724 132.118 15.6724L131.748 19.1349Z" fill="#F6F7EB"/>
<path fill-rule="evenodd" clip-rule="evenodd" d="M30.6865 17.7973C30.5014 17.3713 30.1939 16.8833 29.6413 16.5192C29.3963 16.3359 29.0887 16.1551 28.7811 16.0312C28.5361 15.9692 28.2885 15.9099 27.9835 15.9099H27.921C27.5508 15.9099 26.8758 15.9718 26.5082 16.5192C26.3232 16.7025 26.2632 17.0666 26.3232 17.3713C26.3857 17.614 26.5682 17.8593 26.8158 17.9187C26.8158 17.9187 26.8784 17.9807 27.0009 17.9807C27.0009 18.0426 26.9383 18.164 26.9383 18.164C26.7533 18.3473 26.4457 18.6494 25.5256 18.6494H25.463C24.9704 18.5875 24.6029 18.4661 24.0503 17.9187C23.7427 17.5546 23.5576 16.8833 23.5576 15.8505C23.5576 15.3031 23.4951 14.877 23.3726 14.513C23.31 14.2702 23.065 14.0249 22.88 13.9036C22.6949 13.7822 22.5724 13.7203 22.2648 13.5989C21.8947 13.5369 21.5272 13.4775 21.2196 13.4775C20.8521 13.4775 20.6045 13.5395 20.4819 13.7203H20.1144L19.4993 13.7822C19.1292 13.8442 18.8841 14.0249 18.6391 14.2083C18.5766 14.2702 18.3316 14.513 18.2716 14.7557C18.2716 14.939 18.3342 15.1197 18.3342 15.1817L18.3967 15.2437C18.5192 15.1223 18.7642 15.0603 19.0718 15.0603C19.5019 15.0603 20.117 15.2437 20.2395 15.5458C20.5471 16.0338 20.4246 16.3979 20.4246 16.8239C20.2395 17.9807 19.8095 18.5281 18.8894 18.6494C18.7043 18.7114 18.5218 18.7114 18.3967 18.7114C17.7216 18.7114 17.229 18.5281 16.984 18.102V17.9807C16.984 17.9807 17.0465 17.9807 17.1065 17.9187C17.3515 17.7973 17.5366 17.614 17.5991 17.3713C17.6617 17.0666 17.5991 16.7619 17.4141 16.5192C17.0465 16.1551 16.5539 15.9099 16.0013 15.9099C15.6338 15.9099 15.3862 15.9718 15.1412 16.0312C14.4035 16.2145 13.7284 16.8213 13.2358 17.7973C12.8683 18.5281 12.6207 19.3802 12.5607 20.3536C12.4982 21.327 12.4982 22.1197 12.5607 22.8479C12.6233 24.064 12.8683 24.7948 13.1759 25.5875C13.4834 26.3776 13.8509 27.1083 14.281 27.7796C14.4035 27.963 14.4661 28.1437 14.5886 28.2677L14.6511 28.2057C14.7137 28.1437 14.7737 28.0843 14.8362 27.963C15.0812 27.7796 15.5113 27.1729 15.6338 26.9895C15.7563 26.8062 15.9414 26.5015 16.0639 26.1994L16.1264 26.0781L16.2489 26.14C16.3715 26.2614 16.434 26.4447 16.434 26.628C16.434 26.8114 16.3715 26.9921 16.2489 27.3588C16.1264 27.7848 15.8814 28.2728 15.6338 28.7582C15.6964 28.8202 15.6964 28.9416 15.6338 28.9416C15.4487 29.2463 15.4487 29.3676 15.4487 29.489H15.5113C15.5739 29.489 15.8189 29.427 16.0039 29.2463C16.189 29.1249 16.679 28.6989 17.2942 27.8468C17.7868 27.2374 18.0944 26.5687 18.4619 25.8379L18.5244 25.7166L18.647 25.7785L18.832 25.8999C18.8946 26.0213 18.8946 26.2046 18.8946 26.3853C18.832 26.8733 18.5271 27.5421 18.342 28.0301C17.9745 28.8822 17.2968 29.7962 16.8067 30.465C16.8067 30.527 16.6842 30.6483 16.6217 30.6483C16.6842 30.7103 16.7442 30.7697 16.8667 30.8317L17.0518 31.015C17.7268 31.5624 18.342 31.9884 19.1396 32.4145C19.7547 32.7785 20.9824 33.3879 21.8426 33.6306C22.7027 33.4473 23.9304 32.7785 24.5455 32.4145C25.3431 31.9884 25.9583 31.5624 26.6334 31.015L26.8184 30.8317L27.0634 30.6483C27.126 30.527 27.126 30.465 27.126 30.4056L27.0634 30.3436C26.5708 29.7343 25.8957 28.7608 25.5282 27.9087C25.3431 27.4233 25.0356 26.752 24.9756 26.2665C24.913 26.0832 24.9756 25.9025 25.0382 25.7785L25.1607 25.6572C25.2232 25.5952 25.3457 25.5952 25.3457 25.5952L25.4083 25.7166C25.7758 26.4473 26.1459 27.116 26.576 27.7254C27.1911 28.5775 27.6812 29.0035 27.8662 29.1249C28.0513 29.3082 28.2338 29.3676 28.3589 29.3676H28.4214C28.484 29.3056 28.4214 29.1843 28.2364 28.8796C28.1738 28.8176 28.1738 28.7582 28.1738 28.6963C27.9288 28.2083 27.6812 27.7228 27.5587 27.2968C27.4362 26.9327 27.3736 26.6874 27.3736 26.5661C27.3736 26.3827 27.4362 26.202 27.5587 26.0781L27.6812 26.0161L27.7437 26.1374C27.8662 26.4421 28.1139 26.8062 28.2364 26.9895L28.974 27.9036C29.0965 28.0249 29.1591 28.0869 29.1591 28.1463L29.2216 28.2083C29.2842 28.1463 29.3441 28.0249 29.4666 27.7822L29.5162 27.7177C29.8863 27.1083 30.2538 26.3182 30.5614 25.5255C30.869 24.7948 31.054 24.0047 31.1765 22.7859C31.2391 22.0552 31.299 21.2651 31.1765 20.2916C31.2391 19.3802 30.9915 18.4661 30.6865 17.7973Z" fill="#F6F7EB"/>
</svg>
