<svg width="144" height="48" viewBox="0 0 144 48" fill="none" xmlns="http://www.w3.org/2000/svg">
<path fill-rule="evenodd" clip-rule="evenodd" d="M41.8674 30.4542H36.6465C37.3216 29.8449 37.5066 27.6553 37.7517 23.6995L37.8142 22.7855C37.9993 20.5933 38.0592 18.8297 38.0592 17.6136C38.0592 16.5782 37.9367 15.9094 37.6291 15.6667H43.4652C44.8779 15.6667 47.6434 15.7287 47.6434 18.587C47.6434 20.5339 45.8606 21.6907 44.2028 22.1167C46.5383 22.3001 48.2586 23.4542 48.2586 25.8297C48.3185 28.386 45.8606 30.4542 41.8674 30.4542ZM41.6849 23.2735H40.6397L40.4546 25.4657C40.3921 26.4391 40.3321 27.2318 40.3321 28.2053C40.3321 28.3266 40.7622 28.6313 41.7449 28.6313C43.8327 28.6313 45.1855 27.5959 45.1855 25.8917C45.248 24.0042 43.5877 23.2735 41.6849 23.2735ZM42.115 17.4303C41.8074 17.4303 41.4399 17.4303 41.0698 17.4922C40.8847 18.5276 40.8247 19.5011 40.7622 20.6579C40.7622 20.6579 40.6996 21.5719 40.6996 21.5099H41.0672C42.9725 21.5099 44.6928 20.8412 44.6928 19.137C44.7554 18.161 43.8952 17.4303 42.115 17.4303ZM60.5431 30.5756C59.2529 30.5756 59.1304 30.5136 58.1477 27.0459L57.7802 25.7678C57.1651 26.0725 56.0599 26.1938 54.3396 26.1938H52.5567L52.2492 26.8626C51.9416 27.5313 51.2039 28.9308 51.2039 29.7829C51.2039 29.9662 51.2039 30.147 51.2665 30.4517H47.7034C48.686 29.4782 50.0388 27.1053 51.8191 23.3303L52.8643 21.1381C53.787 19.1293 54.8296 16.8777 54.8296 16.573C54.8296 16.2683 54.7671 16.0256 54.6446 15.7209H57.9001C57.9001 15.7209 58.7603 18.8866 59.4979 21.5642L60.1131 23.8777C61.2182 27.8334 61.9559 29.7209 62.816 30.4517C61.9585 30.5162 60.9133 30.5756 60.5431 30.5756ZM55.8748 19.1344L53.4169 24.3089H57.3501L55.8748 19.1344ZM74.6731 31.0636C73.568 31.0636 73.3229 30.8803 72.9528 30.3949L68.7146 24.673C68.407 24.1876 68.0995 23.8829 67.6094 23.8829H67.5495L67.4869 25.0396C67.427 26.5605 67.3019 27.7792 67.3019 28.6907C67.3019 29.6641 67.4244 30.2735 67.7319 30.5162H63.6762C64.2913 30.0282 64.4738 28.324 64.8439 23.7615L64.9065 22.8475C65.0915 20.6553 65.1515 18.8917 65.1515 17.6756C65.1515 16.6401 65.029 15.9714 64.7214 15.7287H70.1899C72.0327 15.7287 74.4281 16.0334 74.4281 18.8943C74.4281 21.2672 72.8303 22.5454 70.865 23.1547C71.05 23.338 71.4176 23.7641 71.6026 24.0068L74.6132 27.9625C76.5185 30.4568 76.641 30.5808 77.3161 30.8829C76.5185 31.0016 75.4108 31.0636 74.6731 31.0636ZM69.2672 17.4922C68.8971 17.4922 68.467 17.4922 68.0995 17.5542C67.9769 18.1636 67.9144 19.2584 67.7919 21.0219L67.7319 22.0573C67.917 22.1193 68.2246 22.1193 68.407 22.1193C70.2498 22.1193 71.5401 20.9625 71.5401 19.3203C71.4801 18.161 70.6799 17.4922 69.2672 17.4922ZM82.5996 30.7589C78.7289 30.7589 76.5185 27.5933 76.5185 24.1256C76.5185 19.2584 79.2215 15.4214 84.3199 15.4214C85.9177 15.4214 86.6553 15.7261 88.0055 15.7261L87.638 19.4985C86.9003 18.1584 85.6727 17.3063 84.0749 17.3063C80.8793 17.3063 79.5916 20.7147 79.5916 23.635C79.5916 26.8006 81.4344 28.5642 83.7699 28.5642C85.0601 28.5642 86.2279 28.2595 88.1306 26.922C87.3304 29.2381 85.5476 30.7589 82.5996 30.7589ZM108.894 30.5756C107.604 30.5756 107.544 30.5136 106.499 27.0459L106.131 25.7678C105.516 26.0725 104.411 26.1938 102.691 26.1938H100.848L100.54 26.8626C100.048 27.836 99.4951 28.9928 99.4951 29.7829C99.4951 29.9662 99.5576 30.2089 99.5576 30.4517H88.9908C89.6059 29.7829 89.7884 27.5907 90.0959 23.697L90.1585 22.7829C90.3436 20.5313 90.4035 18.8272 90.4035 17.611C90.4035 16.6376 90.281 15.9688 90.036 15.6641H94.1517C93.5366 16.0902 93.3541 18.4631 93.1065 22.4188L93.0465 23.3329C92.984 24.7943 92.739 26.3152 92.739 27.7147C92.739 28.3834 92.984 28.5667 93.7216 28.5667C96.2395 28.5667 96.7921 28.5048 97.9598 27.7766C98.6975 26.4985 99.4351 24.9157 100.233 23.2735L101.278 21.0813C102.261 19.0131 103.243 16.8829 103.243 16.5162C103.243 16.2115 103.183 15.9688 103.058 15.6641H106.314C106.314 15.6641 107.604 20.4719 107.912 21.5074L108.527 23.8209C109.632 27.7766 110.31 29.6641 111.292 30.3949C110.429 30.5162 109.262 30.5756 108.894 30.5756ZM104.223 19.1344L101.828 24.3089H105.699L104.223 19.1344ZM118.231 22.4834C117.923 23.0928 117.431 23.8209 117.186 24.4303C116.941 25.5251 116.878 26.9865 116.878 28.5693C116.878 29.2381 117.001 30.1521 117.308 30.4568H113.252C113.99 29.7881 114.235 25.711 114.235 24.3709C113.682 22.5454 112.945 20.7198 111.84 18.5276C111.102 17.1875 110.304 15.9094 109.752 15.6667C110.674 15.6047 111.84 15.5454 112.395 15.5454C113.377 15.5454 113.685 15.6667 114.3 17.0068C115.283 19.1964 115.958 20.8412 116.388 21.998C117.371 20.4151 118.108 19.3203 119.031 17.7995C119.216 17.4354 119.461 16.9474 119.461 16.5214C119.461 16.2167 119.401 15.7906 119.276 15.6693H123.269C122.409 15.85 118.968 21.2646 118.231 22.4834ZM131.748 19.1344C131.133 18.0396 129.783 17.1875 128.308 17.1875C127.017 17.1875 125.912 17.673 125.912 19.0131C125.912 20.1698 127.325 20.9006 128.8 21.874C130.398 22.8475 132.056 24.0662 132.056 26.1964C132.056 28.936 129.353 30.6995 126.157 30.6995C124.867 30.6995 123.517 30.4568 121.979 29.9094L122.224 26.2584C122.962 27.7198 124.312 28.874 126.34 28.874C127.875 28.874 129.105 28.1433 129.105 26.8058C129.105 25.711 128.183 24.9802 127.017 24.3115C124.559 22.85 123.024 21.6959 123.024 19.5656C123.024 16.4 125.665 15.3672 128.493 15.3672C130.091 15.3672 131.136 15.6719 132.118 15.6719L131.748 19.1344Z" fill="#F6F7EB"/>
<path fill-rule="evenodd" clip-rule="evenodd" d="M30.6864 17.7964C30.5013 17.3703 30.1937 16.8823 29.6412 16.5182C29.3961 16.3349 29.0886 16.1542 28.781 16.0302C28.536 15.9683 28.2884 15.9089 27.9834 15.9089H27.9209C27.5507 15.9089 26.8756 15.9708 26.5081 16.5182C26.3231 16.7016 26.2631 17.0656 26.3231 17.3703C26.3856 17.613 26.5681 17.8583 26.8157 17.9177C26.8157 17.9177 26.8782 17.9797 27.0007 17.9797C27.0007 18.0417 26.9382 18.163 26.9382 18.163C26.7531 18.3464 26.4456 18.6485 25.5255 18.6485H25.4629C24.9703 18.5865 24.6027 18.4651 24.0502 17.9177C23.7426 17.5537 23.5575 16.8823 23.5575 15.8495C23.5575 15.3021 23.495 14.876 23.3725 14.512C23.3099 14.2693 23.0649 14.024 22.8798 13.9026C22.6948 13.7812 22.5723 13.7193 22.2647 13.5979C21.8946 13.536 21.527 13.4766 21.2195 13.4766C20.852 13.4766 20.6043 13.5385 20.4818 13.7193H20.1143L19.4992 13.7812C19.129 13.8432 18.884 14.024 18.639 14.2073C18.5765 14.2693 18.3314 14.512 18.2715 14.7547C18.2715 14.938 18.334 15.1188 18.334 15.1807L18.3966 15.2427C18.5191 15.1213 18.7641 15.0594 19.0717 15.0594C19.5018 15.0594 20.1169 15.2427 20.2394 15.5448C20.547 16.0328 20.4245 16.3969 20.4245 16.8229C20.2394 17.9797 19.8093 18.5271 18.8892 18.6485C18.7042 18.7104 18.5217 18.7104 18.3966 18.7104C17.7215 18.7104 17.2289 18.5271 16.9839 18.1011V17.9797C16.9839 17.9797 17.0464 17.9797 17.1064 17.9177C17.3514 17.7964 17.5364 17.613 17.599 17.3703C17.6616 17.0656 17.599 16.761 17.4139 16.5182C17.0464 16.1542 16.5538 15.9089 16.0012 15.9089C15.6337 15.9089 15.3861 15.9708 15.1411 16.0302C14.4034 16.2136 13.7283 16.8203 13.2357 17.7964C12.8682 18.5271 12.6205 19.3792 12.5606 20.3526C12.498 21.3261 12.498 22.1188 12.5606 22.8469C12.6231 24.0631 12.8682 24.7938 13.1757 25.5865C13.4833 26.3766 13.8508 27.1073 14.2809 27.7787C14.4034 27.962 14.466 28.1427 14.5885 28.2667L14.651 28.2047C14.7136 28.1427 14.7735 28.0834 14.8361 27.962C15.0811 27.7787 15.5112 27.1719 15.6337 26.9886C15.7562 26.8052 15.9413 26.5005 16.0638 26.1984L16.1263 26.0771L16.2488 26.139C16.3713 26.2604 16.4339 26.4437 16.4339 26.6271C16.4339 26.8104 16.3713 26.9911 16.2488 27.3578C16.1263 27.7838 15.8813 28.2718 15.6337 28.7573C15.6962 28.8192 15.6962 28.9406 15.6337 28.9406C15.4486 29.2453 15.4486 29.3666 15.4486 29.488H15.5112C15.5737 29.488 15.8187 29.426 16.0038 29.2453C16.1889 29.1239 16.6789 28.6979 17.294 27.8458C17.7867 27.2364 18.0942 26.5677 18.4618 25.8369L18.5243 25.7156L18.6468 25.7776L18.8319 25.8989C18.8945 26.0203 18.8945 26.2036 18.8945 26.3843C18.8319 26.8724 18.5269 27.5411 18.3419 28.0291C17.9743 28.8812 17.2966 29.7953 16.8066 30.464C16.8066 30.526 16.6841 30.6473 16.6216 30.6473C16.6841 30.7093 16.7441 30.7687 16.8666 30.8307L17.0516 31.014C17.7267 31.5614 18.3419 31.9874 19.1395 32.4135C19.7546 32.7776 20.9823 33.3869 21.8424 33.6296C22.7026 33.4463 23.9303 32.7776 24.5454 32.4135C25.343 31.9874 25.9581 31.5614 26.6332 31.014L26.8183 30.8307L27.0633 30.6473C27.1259 30.526 27.1259 30.464 27.1259 30.4046L27.0633 30.3427C26.5707 29.7333 25.8956 28.7599 25.5281 27.9078C25.343 27.4223 25.0354 26.751 24.9755 26.2656C24.9129 26.0822 24.9755 25.9015 25.038 25.7776L25.1605 25.6562C25.2231 25.5942 25.3456 25.5942 25.3456 25.5942L25.4082 25.7156C25.7757 26.4463 26.1458 27.1151 26.5759 27.7244C27.191 28.5765 27.6811 29.0026 27.8661 29.1239C28.0512 29.3073 28.2336 29.3666 28.3588 29.3666H28.4213C28.4839 29.3047 28.4213 29.1833 28.2362 28.8786C28.1737 28.8167 28.1737 28.7573 28.1737 28.6953C27.9287 28.2073 27.6811 27.7219 27.5585 27.2958C27.436 26.9317 27.3735 26.6864 27.3735 26.5651C27.3735 26.3818 27.436 26.201 27.5585 26.0771L27.6811 26.0151L27.7436 26.1365C27.8661 26.4412 28.1137 26.8052 28.2362 26.9886L28.9739 27.9026C29.0964 28.024 29.159 28.0859 29.159 28.1453L29.2215 28.2073C29.2841 28.1453 29.344 28.024 29.4665 27.7812L29.516 27.7167C29.8862 27.1073 30.2537 26.3172 30.5613 25.5245C30.8688 24.7938 31.0539 24.0037 31.1764 22.7849C31.239 22.0542 31.2989 21.2641 31.1764 20.2907C31.239 19.3792 30.9913 18.4651 30.6864 17.7964Z" fill="#F6F7EB"/>
</svg>
