<?xml version="1.0" encoding="utf-8"?>
<!-- Generator: Adobe Illustrator 24.0.2, SVG Export Plug-In . SVG Version: 6.00 Build 0)  -->
<svg version="1.1" id="Layer_1" xmlns="http://www.w3.org/2000/svg" xmlns:xlink="http://www.w3.org/1999/xlink" x="0px" y="0px"
	 viewBox="0 0 518.64 141" style="enable-background:new 0 0 518.64 141;" xml:space="preserve">
<style type="text/css">
	.st0{fill:#FFFFFF;}
	.st1{fill:#370505;}
</style>
<g>
	<path class="st0" d="M72.4,141C33.51,140.98,2.01,109.66,2,71.03C2,32.17,33.61,0.92,72.84,1c38.79,0.08,70.21,31.53,70.15,70.22
		C142.94,109.79,111.34,141.02,72.4,141z M92.46,40.38c-0.57-0.37-0.97-0.48-1.1-0.73c-7.19-13.96-26.48-15.51-35.8-4.06
		c-0.75,0.92-2.93,1.32-4.26,1.05c-11.96-2.46-22.15,2.42-26.19,12.76c-4.02,10.25-0.06,20.63,9.99,27.03
		c1.22,0.78,2.29,3.04,2.15,4.5c-0.82,8.61-2.05,17.17-3.09,25.76c-0.78,6.47,0.01,7.36,6.39,7.36c16.65,0.01,33.31,0,49.96,0
		c8.62,0,8.52-0.01,9.48-8.82c0.93-8.53,2.1-17.03,3.19-25.66c11.53-0.24,19.49-5.1,22.68-15.9c2.61-8.85-0.06-16.62-7.17-22.35
		C110.45,34.69,101.55,34.99,92.46,40.38z"/>
	<path class="st0" d="M368.29,45.39c4.06,1.51,8.71-2.43,12.27,2.33c0.19,0.25,1.76-0.59,2.71-0.83c10.32-2.6,20.12-2.02,27.49,6.59
		c7.42,8.67,7.98,18.85,3.82,29.11c-4.57,11.26-17.33,16.49-30.22,12.92c-1.27-0.35-2.51-0.8-4.22-1.36c0,5.58,0,10.94,0,16.63
		c-4.14,0-7.86,0-11.85,0C368.29,89.24,368.29,67.66,368.29,45.39z M378.71,71.05c0.03,9.03,5.22,14.86,13.27,14.88
		c8.23,0.02,13.63-6.09,13.49-15.25c-0.14-8.87-5.57-14.69-13.63-14.59C383.73,56.19,378.69,61.93,378.71,71.05z"/>
	<path class="st0" d="M507.08,30.96c4.24,0,7.73,0,11.58,0c0,21.7,0,43.4,0,65.78c-4.04-1.57-8.76,2.48-12.25-2.46
		c-0.16-0.23-1.76,0.65-2.73,0.9c-10.54,2.66-20.27,1.7-27.8-7.08c-6.59-7.68-7.62-20.82-2.74-30.16
		c5.23-10.01,17.11-14.7,29.24-11.54c1.43,0.37,2.83,0.87,4.69,1.45C507.08,42.2,507.08,36.8,507.08,30.96z M481.71,70.89
		c-0.06,9.04,5.03,14.89,13.08,15.05c8.33,0.16,13.69-5.72,13.65-14.98c-0.04-8.94-5.36-14.86-13.36-14.86
		C487,56.1,481.77,61.89,481.71,70.89z"/>
	<path class="st0" d="M355.38,45.37c2.46,3.09,4.72,5.92,7.28,9.12c-5.7,4.51-11.24,8.91-17.28,13.69
		c5.91,6.91,11.7,13.67,17.88,20.9c-2.88,2.47-5.71,4.91-8.91,7.65c-6.07-7.01-12.03-13.89-18.1-20.91
		c-4.66,1.9-7.19,4.81-6.47,10.19c0.43,3.25,0.08,6.61,0.08,10.21c-4.08,0-7.82,0-11.67,0c0-21.79,0-43.37,0-65.15
		c3.82,0,7.43,0,11.55,0c0,11.09,0,22.13,0,34.18C338.74,58.26,346.95,51.9,355.38,45.37z"/>
	<path class="st0" d="M464.12,96.26c-9.87,0.7-9.87,0.7-10.88-1.75c-6.51,0.58-12.68,1.82-18.77,1.5
		c-7.49-0.4-12.31-5.67-13.23-12.66c-0.91-6.86,2.62-13.12,9.75-15.56c4.31-1.48,9.05-1.8,13.64-2.35c2.6-0.32,5.27-0.06,8.32-0.06
		c0.42-4.73-1.32-8.23-5.72-8.41c-6.5-0.28-13.04,0.61-20.46,1.06c-0.56-1.86-1.48-4.93-2.47-8.26c8.44-3.67,16.88-4.98,25.54-3.51
		c7.62,1.3,13.85,7.8,14.16,15.38C464.47,73.04,464.12,84.5,464.12,96.26z M454.04,76.97c-0.36-0.44-0.72-0.89-1.08-1.33
		c-5.57,0.32-11.2,0.26-16.67,1.17c-1.75,0.29-3.07,3.16-4.58,4.85c1.74,1.46,3.61,4.28,5.2,4.13c4.6-0.43,9.24-1.68,13.53-3.42
		C452.1,81.7,452.87,78.84,454.04,76.97z"/>
	<path class="st0" d="M312.01,71.21c-0.06,15.35-10.36,25.35-25.97,25.22c-15.61-0.13-25.76-10.28-25.62-25.61
		c0.15-15.4,10.37-25.31,26.02-25.21C302.06,45.69,312.06,55.7,312.01,71.21z M300.05,71.43c0.14-9.13-5.05-15.09-13.37-15.35
		c-8.32-0.25-14.16,5.61-14.37,14.44c-0.22,9.08,5.54,15.41,13.97,15.38C294.48,85.88,299.92,80.17,300.05,71.43z"/>
	<path class="st0" d="M230.83,96.43c-15.64,0.07-25.82-9.91-25.85-25.32c-0.03-15.49,10.01-25.48,25.65-25.52
		c15.66-0.04,25.82,9.91,25.88,25.31C256.57,86.3,246.45,96.37,230.83,96.43z M230.49,56.08c-8.5,0.14-13.76,6.22-13.55,15.65
		c0.2,8.63,5.85,14.34,14.04,14.17c8.26-0.16,13.82-6.33,13.69-15.17C244.54,61.87,238.8,55.94,230.49,56.08z"/>
	<path class="st0" d="M195.45,79.05c2.69,2.51,5.11,4.77,7.51,7.01c-10.97,12.31-30.13,13.8-40.9,3.48
		c-9.68-9.27-9.67-27.82,0.01-37.09c10.78-10.32,30-8.81,40.87,3.49c-2.39,2.25-4.81,4.51-7.49,7.02
		c-4.65-4.28-9.98-7.93-16.67-6.53c-3.19,0.67-6.6,2.57-8.86,4.93c-4.99,5.22-4.23,15.52,0.89,20.53
		C177.09,88.03,185.86,87.05,195.45,79.05z"/>
	<path class="st1" d="M104.38,71.94c7.8,0.28,13.26-3.74,15.03-10.99c1.49-6.14-1.75-12.88-7.62-15.84
		c-7.22-3.63-13.9-1.17-21.13,7.93c-1.66-0.93-3.36-1.88-4.97-2.78c1.16-7.05-2.6-12.57-9.74-14.64
		c-8.19-2.38-14.74,1.87-19.03,12.58c-5.82-5.32-12.29-7.36-19.44-3.06c-5.17,3.11-7.5,7.94-6.68,13.97
		c1.12,8.2,6.85,11.61,14.64,13c-1.4,11.65-2.77,23.09-4.16,34.62c17.34,0,34.27,0,51.39,0c0.43-3.26,0.82-6.33,1.29-9.89
		c-1.93,0-3.56,0-5.18,0c-11.99,0-23.97,0-35.96,0c-2.73,0-5.82,0.12-5.8-3.7c0.02-4,3.33-3.41,5.91-3.43
		c8.16-0.05,16.31-0.02,24.47-0.02c5.78,0,11.55,0,17.4,0c0.78-6.18,1.39-11.8,2.24-17.38c0.44-2.9-0.64-7.3,3.82-7.51
		C106.04,64.57,103.55,69.38,104.38,71.94z"/>
	<path class="st0" d="M378.71,71.05c-0.03-9.11,5.02-14.86,13.13-14.96c8.06-0.1,13.49,5.72,13.63,14.59
		c0.14,9.16-5.26,15.27-13.49,15.25C383.94,85.91,378.74,80.08,378.71,71.05z"/>
	<path class="st0" d="M481.71,70.89c0.06-9,5.3-14.78,13.38-14.79c8,0,13.32,5.91,13.36,14.86c0.04,9.26-5.32,15.14-13.65,14.98
		C486.74,85.77,481.65,79.92,481.71,70.89z"/>
	<path class="st0" d="M454.04,76.97c-1.17,1.87-1.94,4.73-3.6,5.41c-4.29,1.74-8.93,2.98-13.53,3.42c-1.59,0.15-3.46-2.67-5.2-4.13
		c1.52-1.69,2.83-4.56,4.58-4.85c5.47-0.91,11.1-0.85,16.67-1.17C453.33,76.08,453.69,76.53,454.04,76.97z"/>
	<path class="st0" d="M300.05,71.43c-0.14,8.74-5.57,14.45-13.77,14.48c-8.44,0.03-14.19-6.31-13.97-15.38
		c0.21-8.83,6.05-14.69,14.37-14.44C295,56.34,300.19,62.3,300.05,71.43z"/>
	<path class="st0" d="M230.49,56.08c8.31-0.14,14.05,5.79,14.19,14.65c0.13,8.84-5.43,15.01-13.69,15.17
		c-8.19,0.16-13.84-5.54-14.04-14.17C216.72,62.3,221.98,56.22,230.49,56.08z"/>
	<path class="st0" d="M104.38,71.94c-0.83-2.56,1.65-7.37-3.51-7.13c-4.46,0.2-3.38,4.61-3.82,7.51c-0.85,5.58-1.46,11.2-2.24,17.38
		c-5.85,0-11.62,0-17.4,0c-8.16,0-16.31-0.03-24.47,0.02c-2.58,0.02-5.89-0.57-5.91,3.43c-0.02,3.82,3.07,3.7,5.8,3.7
		c11.99,0,23.97,0,35.96,0c1.63,0,3.26,0,5.18,0c-0.46,3.57-0.86,6.63-1.29,9.89c-17.12,0-34.05,0-51.39,0
		c1.38-11.53,2.76-22.98,4.16-34.62c-7.8-1.38-13.53-4.8-14.64-13c-0.82-6.03,1.51-10.86,6.68-13.97
		c7.14-4.29,13.61-2.26,19.44,3.06c4.3-10.7,10.85-14.95,19.03-12.58c7.14,2.07,10.9,7.6,9.74,14.64c1.62,0.9,3.31,1.85,4.97,2.78
		c7.23-9.1,13.92-11.57,21.13-7.93c5.87,2.95,9.11,9.7,7.62,15.84C117.65,68.2,112.18,72.22,104.38,71.94z"/>
</g>
</svg>
