<svg width="144" height="48" viewBox="0 0 144 48" fill="none" xmlns="http://www.w3.org/2000/svg">
<path d="M30.9577 38.9999C22.386 38.9955 15.4431 32.1095 15.4409 23.6164C15.4409 15.0727 22.408 8.20217 31.0546 8.21976C39.6043 8.23735 46.5295 15.1519 46.5163 23.6582C46.5053 32.1381 39.5403 39.0043 30.9577 38.9999ZM35.379 16.8778C35.2534 16.7964 35.1652 16.7722 35.1366 16.7173C33.5519 13.6481 29.3002 13.3073 27.246 15.8247C27.0807 16.0269 26.6002 16.1149 26.307 16.0555C23.671 15.5147 21.425 16.5876 20.5346 18.8609C19.6485 21.1144 20.5213 23.3966 22.7364 24.8037C23.0053 24.9752 23.2412 25.472 23.2103 25.793C23.0296 27.686 22.7585 29.568 22.5292 31.4566C22.3573 32.8791 22.5314 33.0747 23.9377 33.0747C27.6075 33.0769 31.2795 33.0747 34.9492 33.0747C36.8492 33.0747 36.8271 33.0725 37.0387 31.1356C37.2437 29.2602 37.5016 27.3914 37.7418 25.494C40.2831 25.4412 42.0376 24.3727 42.7407 21.9983C43.3159 20.0525 42.7275 18.3442 41.1604 17.0844C39.3442 15.6268 37.3826 15.6927 35.379 16.8778Z" fill="#F6F7EB"/>
<path d="M96.175 17.9794C97.0699 18.3113 98.0948 17.4451 98.8795 18.4916C98.9213 18.5466 99.2674 18.3619 99.4768 18.3091C101.751 17.7375 103.911 17.865 105.536 19.758C107.171 21.6642 107.295 23.9023 106.378 26.1581C105.37 28.6337 102.558 29.7835 99.717 28.9986C99.4371 28.9217 99.1638 28.8228 98.7869 28.6996C98.7869 29.9264 98.7869 31.1049 98.7869 32.3559C97.8744 32.3559 97.0545 32.3559 96.175 32.3559C96.175 27.6201 96.175 22.8756 96.175 17.9794ZM98.4717 23.6209C98.4783 25.6062 99.6222 26.888 101.397 26.8924C103.21 26.8968 104.401 25.5535 104.37 23.5396C104.339 21.5894 103.142 20.3098 101.366 20.3318C99.5781 20.3538 98.4673 21.6158 98.4717 23.6209Z" fill="#F6F7EB"/>
<path d="M126.764 14.8062C127.699 14.8062 128.468 14.8062 129.316 14.8062C129.316 19.5771 129.316 24.348 129.316 29.2684C128.426 28.9232 127.386 29.8137 126.616 28.7276C126.581 28.677 126.229 28.8705 126.015 28.9254C123.692 29.5103 121.547 29.2992 119.887 27.3688C118.435 25.6803 118.208 22.7914 119.283 20.7379C120.436 18.5371 123.055 17.506 125.728 18.2008C126.043 18.2821 126.352 18.392 126.762 18.5196C126.764 17.2774 126.764 16.0901 126.764 14.8062ZM121.172 23.5851C121.159 25.5726 122.281 26.8588 124.055 26.894C125.891 26.9291 127.073 25.6364 127.064 23.6005C127.055 21.6349 125.882 20.3334 124.119 20.3334C122.338 20.3334 121.186 21.6064 121.172 23.5851Z" fill="#F6F7EB"/>
<path d="M93.3278 17.9745C93.87 18.6539 94.3681 19.2761 94.9323 19.9796C93.676 20.9712 92.455 21.9386 91.1237 22.9895C92.4263 24.5087 93.7025 25.995 95.0646 27.5845C94.4298 28.1276 93.8061 28.664 93.1008 29.2665C91.7629 27.7252 90.4492 26.2126 89.1114 24.6692C88.0843 25.087 87.5266 25.7267 87.6853 26.9096C87.7801 27.6241 87.703 28.3628 87.703 29.1543C86.8037 29.1543 85.9794 29.1543 85.1308 29.1543C85.1308 24.3636 85.1308 19.6191 85.1308 14.8306C85.9728 14.8306 86.7684 14.8306 87.6765 14.8306C87.6765 17.2688 87.6765 19.696 87.6765 22.3453C89.6602 20.8085 91.4697 19.4102 93.3278 17.9745Z" fill="#F6F7EB"/>
<path d="M117.297 29.1629C115.122 29.3168 115.122 29.3168 114.899 28.7781C113.464 28.9056 112.104 29.1783 110.762 29.1079C109.111 29.02 108.049 27.8613 107.846 26.3245C107.645 24.8163 108.423 23.44 109.995 22.9035C110.945 22.5781 111.99 22.5078 113.001 22.3869C113.574 22.3165 114.163 22.3737 114.835 22.3737C114.928 21.3337 114.544 20.5642 113.574 20.5247C112.142 20.4631 110.7 20.6588 109.065 20.7577C108.941 20.3488 108.739 19.6738 108.52 18.9417C110.381 18.1348 112.241 17.8468 114.15 18.17C115.829 18.4558 117.202 19.8849 117.271 21.5514C117.374 24.0578 117.297 26.5773 117.297 29.1629ZM115.075 24.9218C114.996 24.8251 114.917 24.7261 114.837 24.6294C113.61 24.6998 112.369 24.6866 111.163 24.8866C110.777 24.9504 110.486 25.5814 110.154 25.953C110.537 26.2739 110.949 26.8939 111.3 26.861C112.314 26.7664 113.336 26.4916 114.282 26.109C114.648 25.9617 114.817 25.333 115.075 24.9218Z" fill="#F6F7EB"/>
<path d="M83.77 23.6559C83.7568 27.0307 81.4866 29.2293 78.046 29.2007C74.6054 29.1721 72.3683 26.9406 72.3991 23.5701C72.4322 20.1843 74.6848 18.0055 78.1341 18.0275C81.5769 18.0451 83.781 20.2459 83.77 23.6559ZM81.1339 23.7042C81.1648 21.6969 80.0208 20.3866 78.187 20.3294C76.3532 20.2745 75.0661 21.5628 75.0198 23.5042C74.9713 25.5005 76.2408 26.8922 78.0989 26.8856C79.9062 26.8812 81.1052 25.6258 81.1339 23.7042Z" fill="#F6F7EB"/>
<path d="M65.8767 29.2011C62.4295 29.2164 60.1858 27.0223 60.1792 23.6342C60.1725 20.2286 62.3854 18.0323 65.8326 18.0235C69.2842 18.0147 71.5236 20.2023 71.5368 23.5881C71.55 26.9739 69.3195 29.1879 65.8767 29.2011ZM65.8018 20.3298C63.9283 20.3606 62.769 21.6973 62.8152 23.7706C62.8593 25.6679 64.1046 26.9233 65.9098 26.8859C67.7303 26.8508 68.9558 25.4942 68.9272 23.5507C68.8985 21.6028 67.6334 20.299 65.8018 20.3298Z" fill="#F6F7EB"/>
<path d="M58.079 25.3796C58.6719 25.9315 59.2053 26.4283 59.7343 26.9208C57.3164 29.6273 53.0934 29.9549 50.7196 27.6859C48.5861 25.6478 48.5883 21.5695 50.7218 19.5314C53.0978 17.2624 57.3341 17.5944 59.7299 20.2987C59.2031 20.7934 58.6697 21.2902 58.079 21.8421C57.0541 20.9011 55.8794 20.0986 54.4048 20.4064C53.7017 20.5537 52.9501 20.9715 52.452 21.4903C51.3522 22.638 51.5197 24.9025 52.6482 26.004C54.0323 27.3539 55.9653 27.1385 58.079 25.3796Z" fill="#F6F7EB"/>
<path d="M38.0055 23.8163C39.7246 23.8778 40.9281 22.994 41.3182 21.4C41.6466 20.0501 40.9325 18.5683 39.6387 17.9175C38.0473 17.1194 36.575 17.6603 34.9815 19.661C34.6156 19.4565 34.2409 19.2476 33.886 19.0498C34.1417 17.4998 33.313 16.2861 31.7392 15.831C29.9341 15.3078 28.4904 16.2422 27.5449 18.5969C26.2621 17.4272 24.8361 16.9787 23.2601 17.9241C22.1206 18.6078 21.6071 19.6698 21.7878 20.9955C22.0347 22.7983 23.2976 23.5481 25.0146 23.8537C24.706 26.415 24.4041 28.9302 24.0977 31.4652C27.9196 31.4652 31.6511 31.4652 35.4245 31.4652C35.5192 30.7484 35.6052 30.0734 35.7088 29.2908C35.2834 29.2908 34.9241 29.2908 34.5671 29.2908C31.9244 29.2908 29.2839 29.2908 26.6412 29.2908C26.0395 29.2908 25.3584 29.3171 25.3628 28.4773C25.3672 27.5978 26.0968 27.7276 26.6655 27.7232C28.464 27.7122 30.2603 27.7188 32.0588 27.7188C33.3328 27.7188 34.6046 27.7188 35.8939 27.7188C36.0659 26.36 36.2003 25.1244 36.3877 23.8976C36.4846 23.26 36.2466 22.2927 37.2296 22.2465C38.3713 22.1959 37.8225 23.2534 38.0055 23.8163Z" fill="#370505"/>
<path d="M38.0069 23.817C37.824 23.2542 38.3706 22.1967 37.2333 22.2494C36.2503 22.2934 36.4883 23.263 36.3913 23.9006C36.204 25.1274 36.0695 26.363 35.8976 27.7217C34.6082 27.7217 33.3365 27.7217 32.0625 27.7217C30.264 27.7217 28.4676 27.7151 26.6691 27.7261C26.1005 27.7305 25.3709 27.6008 25.3665 28.4802C25.3621 29.3201 26.0432 29.2937 26.6449 29.2937C29.2876 29.2937 31.9281 29.2937 34.5707 29.2937C34.93 29.2937 35.2893 29.2937 35.7125 29.2937C35.6111 30.0786 35.5229 30.7513 35.4281 31.4681C31.6547 31.4681 27.9232 31.4681 24.1014 31.4681C24.4055 28.9331 24.7097 26.4157 25.0183 23.8566C23.2991 23.5532 22.0361 22.8013 21.7915 20.9984C21.6107 19.6727 22.1243 18.6108 23.2638 17.927C24.8375 16.9838 26.2636 17.4301 27.5485 18.5998C28.4963 16.2473 29.94 15.3129 31.7429 15.834C33.3166 16.2891 34.1454 17.5049 33.8897 19.0527C34.2467 19.2506 34.6192 19.4594 34.9851 19.6639C36.5787 17.6632 38.0532 17.1201 39.6423 17.9204C40.9361 18.569 41.6503 20.053 41.3218 21.403C40.9317 22.9948 39.7261 23.8786 38.0069 23.817Z" fill="#F6F7EB"/>
</svg>
