<svg width="144" height="48" viewBox="0 0 144 48" fill="none" xmlns="http://www.w3.org/2000/svg">
<path fill-rule="evenodd" clip-rule="evenodd" d="M126.765 14.8066H129.317V29.2689C128.974 29.1359 128.609 29.1863 128.245 29.2364C127.665 29.3164 127.09 29.3958 126.617 28.7281C126.596 28.6987 126.469 28.7517 126.323 28.8121C126.219 28.8556 126.105 28.9029 126.015 28.9259C123.692 29.5108 121.548 29.2997 119.888 27.3693C118.435 25.6808 118.208 22.7919 119.284 20.7384C120.437 18.5376 123.055 17.5065 125.729 18.2013C125.94 18.2557 126.148 18.3229 126.385 18.3996L126.386 18.4C126.503 18.4379 126.627 18.478 126.762 18.52C126.765 17.2778 126.765 16.0906 126.765 14.8066ZM121.173 23.5856C121.16 25.5731 122.282 26.8593 124.056 26.8944C125.892 26.9296 127.073 25.6369 127.064 23.601C127.056 21.6354 125.883 20.3339 124.12 20.3339C122.339 20.3339 121.186 21.6069 121.173 23.5856Z" fill="#F6F7EB"/>
<path fill-rule="evenodd" clip-rule="evenodd" d="M96.1748 17.9798C96.52 18.1079 96.8845 18.0577 97.2471 18.0077C97.8246 17.9282 98.3972 17.8493 98.8792 18.4921C98.9045 18.5253 99.041 18.471 99.1913 18.4111C99.2896 18.372 99.3937 18.3305 99.4765 18.3096C101.751 17.738 103.911 17.8655 105.536 19.7585C107.171 21.6647 107.294 23.9028 106.377 26.1586C105.37 28.6342 102.558 29.784 99.7168 28.9991C99.5218 28.9455 99.33 28.8812 99.1041 28.8056C99.0058 28.7726 98.901 28.7375 98.7866 28.7001V32.3564H96.1748V17.9798ZM98.4715 23.6214C98.4781 25.6067 99.622 26.8885 101.396 26.8929C103.21 26.8973 104.4 25.554 104.37 23.5401C104.339 21.5899 103.142 20.3103 101.365 20.3323C99.5779 20.3543 98.467 21.6163 98.4715 23.6214Z" fill="#F6F7EB"/>
<path d="M94.9314 19.9811C94.3672 19.2776 93.8691 18.6554 93.3269 17.976C91.4688 19.4117 89.6593 20.81 87.6756 22.3468V14.832H85.1299V29.1558H87.702C87.702 28.9064 87.7097 28.6622 87.7172 28.4224C87.7336 27.9013 87.7493 27.4002 87.6844 26.911C87.5257 25.7282 88.0834 25.0884 89.1105 24.6707C90.1974 25.9246 91.2683 27.1582 92.3492 28.4033L93.0998 29.2679C93.5079 28.9194 93.8886 28.593 94.26 28.2746L94.2657 28.2697C94.5343 28.0394 94.798 27.8133 95.0637 27.586C94.2667 26.6559 93.4991 25.7612 92.7384 24.8745L92.7048 24.8354C92.1768 24.2199 91.652 23.6082 91.1228 22.991C91.7787 22.4731 92.4079 21.9756 93.0278 21.4855L93.0779 21.4458C93.6988 20.9548 94.3108 20.4709 94.9314 19.9811Z" fill="#F6F7EB"/>
<path fill-rule="evenodd" clip-rule="evenodd" d="M117.296 29.1639C115.711 29.276 115.28 29.3064 115.078 29.1063C115.002 29.0318 114.958 28.9253 114.898 28.7791C114.45 28.8188 114.011 28.8727 113.576 28.9258C112.617 29.0432 111.685 29.1573 110.761 29.1089C109.11 29.0209 108.047 27.8623 107.845 26.3255C107.644 24.8173 108.422 23.4409 109.993 22.9045C110.782 22.6343 111.637 22.5399 112.483 22.4465C112.656 22.4274 112.828 22.4083 113 22.3878C113.39 22.3399 113.788 22.3511 114.214 22.3632C114.413 22.3688 114.619 22.3746 114.834 22.3746C114.926 21.3347 114.543 20.5652 113.573 20.5256C112.577 20.4828 111.577 20.5643 110.511 20.6512C110.043 20.6893 109.562 20.7285 109.063 20.7587C108.94 20.3497 108.737 19.6748 108.519 18.9426C110.379 18.1358 112.239 17.8478 114.148 18.1709C115.828 18.4568 117.201 19.8858 117.269 21.5524C117.342 23.3046 117.326 25.0632 117.31 26.8464C117.303 27.6139 117.296 28.3859 117.296 29.1639ZM114.898 24.626C113.592 24.5544 112.361 24.6801 111.825 24.7691C111.439 24.8328 110.184 25.3226 110.184 26.0622C110.184 26.4338 110.406 27.159 112.028 27.159C113.554 27.159 114.691 26.2249 114.898 24.626Z" fill="#F6F7EB"/>
<path fill-rule="evenodd" clip-rule="evenodd" d="M78.0446 29.2027C81.4852 29.2312 83.7554 27.0326 83.7686 23.6578C83.7797 20.2478 81.5756 18.0471 78.1328 18.0295C74.6834 18.0075 72.4308 20.1863 72.3978 23.5721C72.3669 26.9425 74.6041 29.1741 78.0446 29.2027ZM78.1857 20.3314C80.0195 20.3885 81.1634 21.6989 81.1326 23.7062C81.1039 25.6278 79.9049 26.8831 78.0975 26.8875C76.2395 26.8941 74.9699 25.5024 75.0184 23.5061C75.0647 21.5648 76.3519 20.2764 78.1857 20.3314Z" fill="#F6F7EB"/>
<path fill-rule="evenodd" clip-rule="evenodd" d="M65.8763 29.2011C62.4291 29.2164 60.1853 27.0223 60.1787 23.6342C60.1721 20.2286 62.385 18.0323 65.8322 18.0235C69.2838 18.0147 71.5232 20.2023 71.5364 23.5881C71.5496 26.9739 69.3191 29.1879 65.8763 29.2011ZM65.8013 20.3298C63.9279 20.3606 62.7685 21.6973 62.8148 23.7706C62.8589 25.6679 64.1042 26.9233 65.9093 26.8859C67.7299 26.8508 68.9554 25.4942 68.9267 23.5507C68.8981 21.6028 67.6329 20.299 65.8013 20.3298Z" fill="#F6F7EB"/>
<path d="M59.1077 26.3397C58.7784 26.0331 58.4395 25.7175 58.0786 25.3816C55.9649 27.1404 54.0319 27.3559 52.6478 26.006C51.5193 24.9045 51.3518 22.6399 52.4516 21.4923C52.9497 20.9734 53.7013 20.5557 54.4044 20.4084C55.8789 20.1006 57.0537 20.9031 58.0786 21.844C58.2379 21.6953 58.3929 21.5505 58.5449 21.4087C58.9564 21.0244 59.3447 20.662 59.7295 20.3006C57.3336 17.5964 53.0974 17.2644 50.7214 19.5333C48.5878 21.5714 48.5856 25.6498 50.7192 27.6879C53.093 29.9568 57.316 29.6292 59.7339 26.9228C59.5269 26.7301 59.3193 26.5367 59.1077 26.3397Z" fill="#F6F7EB"/>
<path d="M37.9732 23.2173C37.9618 23.4333 37.9505 23.6485 38.0057 23.8185C39.7249 23.88 40.9306 22.9962 41.3207 21.4044C41.6491 20.0545 40.935 18.5705 39.6412 17.9219C38.052 17.1216 36.5775 17.6647 34.984 19.6654C34.9005 19.6187 34.8166 19.5718 34.7327 19.5249C34.4489 19.3661 34.1641 19.2069 33.8885 19.0542C34.1442 17.5064 33.3155 16.2905 31.7417 15.8354C29.9388 15.3144 28.4951 16.2488 27.5474 18.6013C26.2624 17.4316 24.8364 16.9853 23.2626 17.9285C22.1231 18.6122 21.6096 19.6742 21.7903 20.9999C22.035 22.8027 23.2979 23.5547 25.0171 23.8581C24.9464 24.4446 24.8759 25.029 24.8056 25.6119C24.5691 27.5721 24.3346 29.5156 24.1002 31.4695H35.427C35.5218 30.7528 35.6099 30.08 35.7113 29.2952H26.6437C26.626 29.2952 26.6082 29.2952 26.5903 29.2952C26.0024 29.296 25.3611 29.2968 25.3653 28.4817C25.3692 27.7046 25.9394 27.7154 26.4643 27.7255C26.5335 27.7268 26.6018 27.7281 26.668 27.7276C27.976 27.7196 29.2828 27.7209 30.5902 27.7222C31.0804 27.7227 31.5708 27.7232 32.0613 27.7232H35.8964C35.947 27.3235 35.9943 26.9344 36.0407 26.5531C36.152 25.6382 36.2579 24.7679 36.3902 23.902C36.4112 23.7639 36.4165 23.6102 36.4218 23.4537C36.4413 22.8878 36.462 22.2853 37.2321 22.2509C38.0259 22.2141 37.9994 22.7181 37.9732 23.2173Z" fill="#F6F7EB"/>
<path fill-rule="evenodd" clip-rule="evenodd" d="M15.4404 23.6174C15.4426 32.1105 22.3855 38.9965 30.9572 39.0009C39.5399 39.0053 46.5048 32.1391 46.5158 23.6592C46.529 15.1529 39.6038 8.23833 31.0541 8.22074C22.4075 8.20315 15.4404 15.0737 15.4404 23.6174ZM35.2554 16.8074C35.2906 16.8263 35.332 16.8486 35.3786 16.8788C37.3821 15.6937 39.3437 15.6278 41.1599 17.0854C42.727 18.3452 43.3155 20.0535 42.7402 21.9992C42.0371 24.3737 40.2826 25.4422 37.7413 25.495C37.673 26.0343 37.6033 26.5712 37.5338 27.1067C37.3588 28.4552 37.1849 29.7942 37.0382 31.1366L37.031 31.2031C36.8269 33.0736 36.8267 33.0757 34.9488 33.0757C33.7256 33.0757 32.5021 33.0759 31.2786 33.0762C28.8314 33.0767 26.3838 33.0772 23.9372 33.0757C22.531 33.0757 22.3568 32.88 22.5288 31.4575C22.6016 30.8576 22.6786 30.2584 22.7556 29.6593C22.9211 28.3722 23.0865 27.0857 23.2098 25.794C23.2407 25.473 23.0048 24.9761 22.7359 24.8046C20.5208 23.3975 19.648 21.1154 20.5341 18.8619C21.4245 16.5885 23.6705 15.5156 26.3066 16.0565C26.5997 16.1158 27.0802 16.0279 27.2455 15.8256C29.2997 13.3083 33.5514 13.649 35.1361 16.7183C35.1541 16.7528 35.1957 16.7753 35.2554 16.8074Z" fill="#F6F7EB"/>
</svg>
