<svg width="144" height="48" viewBox="0 0 144 48" fill="none" xmlns="http://www.w3.org/2000/svg">
<path fill-rule="evenodd" clip-rule="evenodd" d="M88.3179 20.8067V14.6587H91.1358V30.1885H88.3799V29.0955C88.3591 29.1108 88.3421 29.1223 88.3281 29.1319L88.328 29.1319C88.3047 29.1478 88.2893 29.1583 88.2773 29.1715C87.338 30.2174 86.1351 30.5812 84.7723 30.4492C82.4643 30.2258 80.71 28.5941 80.2554 26.2434C79.9041 24.4282 80.2075 22.7357 81.3848 21.2601C82.7232 19.5825 85.1595 18.9711 87.0278 19.8182C87.5145 20.0385 87.9235 20.3621 88.3179 20.8067ZM88.4701 24.8494C88.4639 24.8073 88.4582 24.7554 88.4517 24.6968C88.4345 24.5405 88.4121 24.336 88.3611 24.1386C88.0957 23.1119 87.4735 22.4002 86.4129 22.1616C85.3466 21.9213 84.3954 22.1646 83.6817 23.027C83.0971 23.7331 82.9343 24.5734 83.0698 25.463C83.4369 27.8769 85.8377 28.3125 87.2068 27.4387C88.1008 26.8672 88.4354 25.995 88.4701 24.8494ZM49.3632 33.4646L50.352 31.2158C50.5267 31.2931 50.6981 31.3737 50.8682 31.4537L50.8683 31.4537L50.8683 31.4537L50.8683 31.4538L50.8684 31.4538L50.8684 31.4538L50.8684 31.4538C51.2395 31.6283 51.6043 31.8 51.984 31.9275C52.9844 32.2633 54.016 32.3759 55.0455 32.0523C56.1305 31.7113 56.7151 30.9432 56.8322 29.8303C56.8567 29.5958 56.85 29.3579 56.8435 29.1282V29.1282V29.1282V29.1281V29.1281V29.1281C56.8406 29.0255 56.8377 28.9244 56.8377 28.8261C56.7366 28.9042 56.6371 28.9862 56.5373 29.0686L56.5373 29.0686C56.3195 29.2484 56.1 29.4294 55.8583 29.573C54.304 30.4952 52.1199 30.2817 50.6806 29.0889C49.62 28.21 49.0273 27.072 48.8367 25.726C48.6298 24.2641 48.8598 22.8811 49.6696 21.6209C50.9251 19.6664 53.4447 18.9029 55.5339 19.8417C56.0463 20.0723 56.4749 20.4175 56.8753 20.8808V19.7398H59.6616V19.981C59.6616 20.9001 59.6621 21.8191 59.6627 22.7382V22.7382V22.7383V22.7383V22.7384V22.7384V22.7391C59.6641 24.9794 59.6655 27.2199 59.6586 29.46C59.6543 30.8175 59.2825 32.0578 58.3381 33.079C57.5467 33.935 56.542 34.4178 55.4027 34.5991C53.3746 34.9222 51.4353 34.6577 49.6294 33.6365C49.5714 33.6042 49.5162 33.567 49.4556 33.5261L49.4554 33.526L49.4553 33.5259L49.4553 33.5259C49.4261 33.5063 49.3957 33.4858 49.3632 33.4646ZM56.97 24.6288V24.6288V24.6287C56.9599 24.4988 56.9497 24.3689 56.9258 24.2416C56.742 23.2679 56.2288 22.5368 55.266 22.2077C54.3079 21.8803 53.3857 21.995 52.6028 22.6684C51.8443 23.321 51.602 24.1906 51.7092 25.1579C51.9319 27.1625 53.8096 27.9484 55.3557 27.351C56.3642 26.9612 56.9664 25.9978 56.9856 24.8093C56.9795 24.7493 56.9748 24.689 56.97 24.6288V24.6288V24.6288V24.6288V24.6288ZM118.132 31.8474V29.1197C118.605 29.6449 119.113 30.0101 119.723 30.2245C121.624 30.8937 123.838 30.2419 125.122 28.5974C126.273 27.124 126.553 25.4383 126.195 23.6413C125.733 21.3162 123.984 19.7018 121.689 19.4742C120.384 19.3447 119.219 19.6712 118.288 20.6427C118.25 20.682 118.214 20.722 118.169 20.772L118.168 20.7728C118.142 20.8016 118.113 20.8337 118.079 20.8707V19.7421H115.321V34.5122H118.132V31.8474ZM118.884 22.7658C119.395 22.2834 120.017 22.0839 120.4 22.0809C122.125 22.08 123.228 23.0758 123.386 24.4872C123.485 25.3712 123.342 26.1983 122.766 26.9015C121.52 28.4225 119.032 28.0624 118.254 26.2582C117.735 25.0536 117.994 23.6078 118.884 22.7658ZM76.2405 20.8524V19.7428H79.0071V30.1904H76.2465V29.0877C76.2245 29.1065 76.2071 29.1206 76.1929 29.1322C76.1698 29.151 76.1551 29.163 76.1426 29.1769C75.2149 30.2104 74.0264 30.5594 72.6778 30.455C70.3607 30.2749 68.5719 28.5663 68.1224 26.2152C67.7924 24.4892 68.0664 22.8667 69.1275 21.4222C70.3466 19.7628 72.5799 19.0388 74.5059 19.6656C75.1144 19.8634 75.629 20.2065 76.0648 20.6698L76.1073 20.7138L76.1074 20.714C76.1424 20.7502 76.1826 20.7919 76.2405 20.8524ZM76.3214 24.6667L76.3214 24.6666C76.3024 24.5064 76.2769 24.2908 76.22 24.0837C75.9529 23.1117 75.3542 22.4285 74.3534 22.1772C73.347 21.9245 72.4167 22.1075 71.6863 22.8799C70.9419 23.6671 70.7629 24.634 70.9804 25.6636C71.4851 28.0538 74.0226 28.2933 75.2661 27.3103C76.0251 26.7095 76.3191 25.8976 76.3409 24.8174C76.3345 24.7768 76.3284 24.7256 76.3215 24.6669L76.3214 24.6667ZM101.388 27.9354L100.621 27.097C100.506 27.1633 100.395 27.2309 100.286 27.2975C100.051 27.4407 99.8234 27.5792 99.5827 27.6893C98.6494 28.1169 97.6823 28.2328 96.7063 27.8414C95.8448 27.4957 95.4179 26.8036 95.2243 25.9077H102.68C102.684 25.8813 102.689 25.8568 102.693 25.8334C102.701 25.7892 102.709 25.7493 102.712 25.709C102.769 25.0236 102.758 24.34 102.626 23.6628C102.356 22.2849 101.722 21.1244 100.54 20.3092C99.5536 19.6285 98.4421 19.3878 97.258 19.4629C95.411 19.5801 93.9542 20.372 93.0303 21.9953C92.3017 23.2759 92.1423 24.6716 92.3876 26.1038C92.7124 28.001 93.7363 29.392 95.5751 30.0829C97.2315 30.7049 98.9007 30.5865 100.539 29.967C101.176 29.7262 101.736 29.3551 102.257 28.8838L101.388 27.9354ZM97.4849 21.8849C98.7554 21.848 99.6541 22.6161 99.8797 23.9664H95.2525C95.4486 22.6819 96.3054 21.9193 97.4849 21.8849ZM103.909 19.7366H106.741V19.9867C106.741 20.4595 106.74 20.9324 106.739 21.4052V21.4053C106.738 22.7495 106.736 24.0938 106.747 25.4379C106.75 25.7937 106.802 26.1597 106.899 26.5016C107.104 27.2179 107.605 27.6573 108.341 27.7873C109.17 27.9338 109.956 27.8463 110.546 27.1589C110.934 26.7062 111.041 26.15 111.044 25.5729C111.047 24.6842 111.046 23.7954 111.045 22.9066V22.9065C111.045 22.551 111.044 22.1956 111.044 21.8402V19.746H113.877V21.6554C113.877 22.1678 113.877 22.6802 113.877 23.1926V23.2157C113.878 24.0598 113.878 24.9039 113.878 25.7479C113.877 26.5049 113.76 27.24 113.443 27.935C113.016 28.8705 112.329 29.5647 111.385 29.9634C109.673 30.6865 107.943 30.6874 106.257 29.89C104.962 29.2777 104.214 28.2042 104.011 26.8098C103.918 26.1671 103.916 25.5096 103.915 24.8551V24.855C103.914 24.7174 103.914 24.5798 103.913 24.4426C103.904 23.3936 103.905 22.3444 103.907 21.2952V21.2951C103.908 20.8596 103.909 20.424 103.909 19.9884V19.7366ZM61.085 30.1909H63.9195V29.9497C63.9195 29.7312 63.9194 29.5129 63.9193 29.2945C63.919 28.7848 63.9188 28.2752 63.92 27.7655C63.9207 27.4282 63.9201 27.0909 63.9195 26.7537C63.918 25.9106 63.9165 25.0675 63.9358 24.2246C63.964 23.0026 64.7755 22.2047 65.9964 22.1512C66.6301 22.1236 67.2404 22.2408 67.8566 22.4722C67.9104 22.1168 67.964 21.7631 68.0178 21.4082C68.1057 20.828 68.1941 20.2447 68.2848 19.6456C66.5925 19.2749 65.0438 19.3182 63.8341 20.8298V19.742H61.085V30.1909Z" fill="#F6F7EB"/>
<path fill-rule="evenodd" clip-rule="evenodd" d="M42.7976 11.1456C43.5737 11.9072 44.3462 12.6652 45.114 13.4185L45.2164 12.8681C45.4477 11.624 45.6895 10.3236 45.9358 9C44.4123 9.2743 42.9205 9.54308 41.4372 9.81058C41.8918 10.2566 42.3453 10.7017 42.7976 11.1456ZM37.2773 10.6094C39.5751 12.9137 41.8874 15.2325 44.2181 17.5696L44.1998 17.5893C44.1752 17.616 44.1364 17.658 44.0959 17.6983C43.4839 18.3068 42.8717 18.9153 42.2595 19.5236L41.0323 20.7432C40.0678 21.7015 39.1038 22.6599 38.1397 23.6186C37.8576 23.8991 37.5758 24.1798 37.2939 24.4605C36.5423 25.2089 35.7907 25.9573 35.0355 26.7022C34.9235 26.8126 34.8992 26.8962 34.962 27.047C35.1677 27.5383 35.3691 28.0314 35.5705 28.5244L35.5705 28.5244C35.7675 29.0065 35.9645 29.4886 36.1654 29.9691C36.2308 30.1262 36.2051 30.2133 36.0842 30.3309C35.1824 31.2117 34.2843 32.0962 33.3862 32.9807L33.3816 32.9852C32.9577 33.4027 32.5338 33.8202 32.1095 34.2373C31.4298 34.9056 30.7483 35.5724 30.0668 36.2392L30.0652 36.2408L29.4352 36.8572C29.4043 36.8874 29.3717 36.9159 29.3318 36.9509L29.3318 36.9509C29.3138 36.9667 29.2943 36.9837 29.2729 37.0028L29.1981 36.8354L28.6827 35.6798L28.2021 34.6026C27.4262 32.8637 26.6503 31.1247 25.8785 29.384C25.8106 29.2307 25.7161 29.1365 25.5644 29.0681C23.0192 27.9238 20.4757 26.7752 17.9322 25.6266C17.8753 25.6009 17.8196 25.5727 17.7487 25.5366C17.7083 25.5161 17.6629 25.4931 17.6095 25.4666C17.7133 25.3682 17.8152 25.273 17.9155 25.1794L17.9157 25.1792C18.1257 24.9831 18.3281 24.7941 18.5236 24.5986C20.4791 22.6442 22.4333 20.6888 24.3807 18.7267C24.5448 18.5611 24.6687 18.5275 24.8901 18.6222C25.4322 18.8539 25.9783 19.0768 26.5244 19.2997C26.9322 19.4661 27.3399 19.6326 27.746 19.8027C27.8917 19.8638 27.9699 19.8341 28.0737 19.7305C28.5844 19.2196 29.0978 18.7115 29.6112 18.2034L29.6114 18.2031C29.9224 17.8953 30.2334 17.5875 30.5438 17.2792C31.4706 16.3582 32.3958 15.4355 33.3206 14.5124C33.644 14.1895 33.9669 13.8662 34.2897 13.5428C34.8674 12.9642 35.4452 12.3856 36.0261 11.8097C36.3053 11.5323 36.5911 11.2613 36.8852 10.9823C37.0143 10.8599 37.1449 10.736 37.2773 10.6094ZM35.909 16.7879C34.7509 16.7854 33.7992 17.7127 33.7731 18.8273C33.7437 20.0863 34.7829 21.0264 35.8919 21.0124C37.2354 20.995 38.088 19.9755 38.0392 18.7717C37.9969 17.742 37.1632 16.7968 35.909 16.7879ZM23.9895 37.7385L22.8849 35.2286C22.8135 35.0664 22.7422 34.9042 22.671 34.7419L22.671 34.7418C22.4353 34.2049 22.1997 33.6681 21.9575 33.134C21.9182 33.0474 21.8336 32.9586 21.7473 32.9179C20.5715 32.3641 19.3937 31.8151 18.2158 31.266L17.2517 30.8165C17.2034 30.7938 17.156 30.7693 17.1019 30.7413L17.1018 30.7413C17.0706 30.7251 17.0371 30.7078 17 30.6891C17.02 30.6664 17.038 30.6453 17.055 30.6253C17.0874 30.5874 17.1159 30.554 17.147 30.523C17.3691 30.3019 17.5916 30.0812 17.8141 29.8604L17.8149 29.8596L17.8151 29.8593C18.3023 29.3758 18.7895 28.8924 19.273 28.4055C19.3798 28.2981 19.4589 28.2802 19.6008 28.3461C20.3243 28.6802 21.0489 29.0118 21.7735 29.3435L21.7742 29.3438C22.5798 29.7125 23.3854 30.0813 24.1895 30.4534C24.2934 30.5014 24.3972 30.605 24.4446 30.7082C24.825 31.5361 25.2016 32.3659 25.5782 33.1956L25.5785 33.1962C25.8593 33.8148 26.14 34.4333 26.4224 35.0511C26.4877 35.1946 26.4762 35.2851 26.3595 35.3993C25.818 35.9294 25.2807 36.464 24.7434 36.9985L24.7431 36.9988C24.5364 37.2044 24.3298 37.41 24.1229 37.6154C24.0986 37.6401 24.0727 37.6634 24.0376 37.695L23.9895 37.7385Z" fill="#F6F7EB"/>
</svg>
