<svg width="144" height="48" viewBox="0 0 144 48" fill="none" xmlns="http://www.w3.org/2000/svg">
<path fill-rule="evenodd" clip-rule="evenodd" d="M88.318 20.8067V14.6587H91.1359V30.1885H88.38V29.0955C88.3592 29.1108 88.3423 29.1223 88.3282 29.1319L88.3282 29.1319C88.3048 29.1478 88.2895 29.1583 88.2774 29.1715C87.3382 30.2174 86.1352 30.5812 84.7724 30.4492C82.4644 30.2258 80.7102 28.5941 80.2555 26.2434C79.9042 24.4282 80.2076 22.7357 81.3849 21.2601C82.7234 19.5825 85.1596 18.9711 87.0279 19.8182C87.5147 20.0385 87.9236 20.3621 88.318 20.8067ZM88.4702 24.8494C88.464 24.8073 88.4583 24.7554 88.4519 24.6968C88.4347 24.5405 88.4122 24.336 88.3612 24.1386C88.0958 23.1119 87.4736 22.4002 86.413 22.1616C85.3468 21.9213 84.3955 22.1646 83.6819 23.027C83.0973 23.7331 82.9345 24.5734 83.0699 25.463C83.437 27.8769 85.8378 28.3125 87.207 27.4387C88.101 26.8672 88.4356 25.995 88.4702 24.8494ZM49.3633 33.4646L50.3521 31.2158C50.5269 31.2931 50.6983 31.3737 50.8683 31.4537L50.8684 31.4537L50.8684 31.4537L50.8685 31.4538L50.8685 31.4538L50.8685 31.4538L50.8686 31.4538C51.2396 31.6283 51.6044 31.8 51.9841 31.9275C52.9845 32.2633 54.0161 32.3759 55.0456 32.0523C56.1306 31.7113 56.7152 30.9432 56.8323 29.8303C56.8568 29.5958 56.8501 29.3579 56.8436 29.1282V29.1282V29.1282V29.1281V29.1281V29.1281C56.8407 29.0255 56.8378 28.9244 56.8378 28.8261C56.7367 28.9042 56.6373 28.9862 56.5374 29.0686L56.5374 29.0686C56.3196 29.2484 56.1002 29.4294 55.8584 29.573C54.3042 30.4952 52.12 30.2817 50.6808 29.0889C49.6201 28.21 49.0274 27.072 48.8368 25.726C48.63 24.2641 48.8599 22.8811 49.6697 21.6209C50.9252 19.6664 53.4448 18.9029 55.534 19.8417C56.0464 20.0723 56.475 20.4175 56.8755 20.8808V19.7398H59.6617V19.981C59.6617 20.9001 59.6623 21.8191 59.6629 22.7382V22.7382V22.7383V22.7383V22.7384V22.7384V22.7391C59.6643 24.9794 59.6657 27.2199 59.6587 29.46C59.6544 30.8175 59.2826 32.0578 58.3382 33.079C57.5468 33.935 56.5421 34.4178 55.4028 34.5991C53.3747 34.9222 51.4354 34.6577 49.6295 33.6365C49.5716 33.6042 49.5163 33.567 49.4557 33.5261L49.4556 33.526L49.4554 33.5259L49.4554 33.5259C49.4263 33.5063 49.3959 33.4858 49.3633 33.4646ZM56.9702 24.6288V24.6288V24.6287C56.96 24.4988 56.9498 24.3689 56.9259 24.2416C56.7421 23.2679 56.2289 22.5368 55.2661 22.2077C54.308 21.8803 53.3858 21.995 52.6029 22.6684C51.8444 23.321 51.6021 24.1906 51.7094 25.1579C51.932 27.1625 53.8097 27.9484 55.3558 27.351C56.3644 26.9612 56.9665 25.9978 56.9857 24.8093C56.9796 24.7493 56.9749 24.689 56.9702 24.6288V24.6288V24.6288V24.6288V24.6288ZM118.133 31.8474V29.1197C118.605 29.6449 119.113 30.0101 119.723 30.2245C121.624 30.8937 123.838 30.2419 125.122 28.5974C126.273 27.124 126.553 25.4383 126.196 23.6413C125.733 21.3162 123.984 19.7018 121.689 19.4742C120.384 19.3447 119.219 19.6712 118.288 20.6427C118.251 20.682 118.214 20.722 118.169 20.772L118.168 20.7728C118.142 20.8016 118.113 20.8337 118.079 20.8707V19.7421H115.321V34.5122H118.133V31.8474ZM118.884 22.7658C119.395 22.2834 120.017 22.0839 120.4 22.0809C122.126 22.08 123.228 23.0758 123.386 24.4872C123.485 25.3712 123.342 26.1983 122.766 26.9015C121.52 28.4225 119.032 28.0624 118.254 26.2582C117.736 25.0536 117.994 23.6078 118.884 22.7658ZM76.2406 20.8524V19.7428H79.0072V30.1904H76.2466V29.0877C76.2246 29.1065 76.2072 29.1206 76.193 29.1322C76.1699 29.151 76.1552 29.163 76.1427 29.1769C75.215 30.2104 74.0266 30.5594 72.6779 30.455C70.3609 30.2749 68.572 28.5663 68.1225 26.2152C67.7926 24.4892 68.0665 22.8667 69.1276 21.4222C70.3468 19.7628 72.58 19.0388 74.506 19.6656C75.1146 19.8634 75.6291 20.2065 76.065 20.6698L76.1074 20.7138L76.1076 20.714C76.1425 20.7502 76.1827 20.7919 76.2406 20.8524ZM76.3216 24.6667L76.3215 24.6666C76.3025 24.5064 76.277 24.2908 76.2201 24.0837C75.953 23.1117 75.3543 22.4285 74.3535 22.1772C73.3471 21.9245 72.4168 22.1075 71.6865 22.8799C70.942 23.6671 70.763 24.634 70.9805 25.6636C71.4852 28.0538 74.0227 28.2933 75.2663 27.3103C76.0252 26.7095 76.3192 25.8976 76.341 24.8174C76.3346 24.7768 76.3285 24.7256 76.3216 24.6669L76.3216 24.6667ZM101.389 27.9354L100.621 27.097C100.506 27.1633 100.395 27.2309 100.286 27.2975C100.051 27.4407 99.8235 27.5792 99.5828 27.6893C98.6495 28.1169 97.6824 28.2328 96.7064 27.8414C95.8449 27.4957 95.418 26.8036 95.2244 25.9077H102.68C102.684 25.8813 102.689 25.8568 102.693 25.8334C102.701 25.7892 102.709 25.7493 102.712 25.709C102.769 25.0236 102.758 24.34 102.626 23.6628C102.356 22.2849 101.723 21.1244 100.54 20.3092C99.5538 19.6285 98.4422 19.3878 97.2581 19.4629C95.4111 19.5801 93.9543 20.372 93.0304 21.9953C92.3018 23.2759 92.1424 24.6716 92.3877 26.1038C92.7125 28.001 93.7364 29.392 95.5752 30.0829C97.2316 30.7049 98.9008 30.5865 100.539 29.967C101.176 29.7262 101.737 29.3551 102.257 28.8838L101.389 27.9354ZM97.485 21.8849C98.7555 21.848 99.6542 22.6161 99.8798 23.9664H95.2526C95.4487 22.6819 96.3056 21.9193 97.485 21.8849ZM103.909 19.7366H106.741V19.9867C106.741 20.4595 106.74 20.9324 106.74 21.4052V21.4053C106.738 22.7495 106.736 24.0938 106.748 25.4379C106.751 25.7937 106.802 26.1597 106.899 26.5016C107.104 27.2179 107.605 27.6573 108.341 27.7873C109.171 27.9338 109.956 27.8463 110.546 27.1589C110.934 26.7062 111.041 26.15 111.044 25.5729C111.047 24.6842 111.046 23.7954 111.045 22.9066V22.9065C111.045 22.551 111.045 22.1956 111.044 21.8402V19.746H113.877V21.6554C113.877 22.1678 113.877 22.6802 113.878 23.1926V23.2157C113.878 24.0598 113.878 24.9039 113.878 25.7479C113.877 26.5049 113.76 27.24 113.443 27.935C113.017 28.8705 112.329 29.5647 111.385 29.9634C109.673 30.6865 107.943 30.6874 106.257 29.89C104.962 29.2777 104.214 28.2042 104.011 26.8098C103.918 26.1671 103.916 25.5096 103.915 24.8551V24.855C103.915 24.7174 103.914 24.5798 103.913 24.4426C103.904 23.3936 103.906 22.3444 103.908 21.2952V21.2951C103.908 20.8596 103.909 20.424 103.909 19.9884V19.7366ZM61.0851 30.1909H63.9196V29.9497C63.9196 29.7312 63.9195 29.5129 63.9194 29.2945C63.9191 28.7848 63.9189 28.2752 63.9201 27.7655C63.9208 27.4282 63.9202 27.0909 63.9196 26.7537C63.9181 25.9106 63.9167 25.0675 63.9359 24.2246C63.9641 23.0026 64.7756 22.2047 65.9965 22.1512C66.6302 22.1236 67.2405 22.2408 67.8567 22.4722C67.9105 22.1168 67.9641 21.7631 68.0179 21.4082C68.1058 20.828 68.1942 20.2447 68.2849 19.6456C66.5926 19.2749 65.044 19.3182 63.8342 20.8298V19.742H61.0851V30.1909Z" fill="#F6F7EB"/>
<path fill-rule="evenodd" clip-rule="evenodd" d="M42.7976 11.1456C43.5737 11.9072 44.3462 12.6652 45.114 13.4185L45.2164 12.8681C45.4477 11.624 45.6895 10.3236 45.9358 9C44.4123 9.2743 42.9205 9.54308 41.4372 9.81058C41.8918 10.2566 42.3453 10.7017 42.7976 11.1456ZM37.2773 10.6094C39.5751 12.9137 41.8874 15.2325 44.2181 17.5696L44.1998 17.5893C44.1752 17.616 44.1364 17.658 44.0959 17.6983C43.4839 18.3068 42.8717 18.9153 42.2595 19.5236L41.0323 20.7432C40.0678 21.7015 39.1038 22.6599 38.1397 23.6186C37.8576 23.8991 37.5758 24.1798 37.2939 24.4605C36.5423 25.2089 35.7907 25.9573 35.0355 26.7022C34.9235 26.8126 34.8992 26.8962 34.962 27.047C35.1677 27.5383 35.3691 28.0314 35.5705 28.5244L35.5705 28.5244C35.7675 29.0065 35.9645 29.4886 36.1654 29.9691C36.2308 30.1262 36.2051 30.2133 36.0842 30.3309C35.1824 31.2117 34.2843 32.0962 33.3862 32.9807L33.3816 32.9852C32.9577 33.4027 32.5338 33.8202 32.1095 34.2373C31.4298 34.9056 30.7483 35.5724 30.0668 36.2392L30.0652 36.2408L29.4352 36.8572C29.4043 36.8874 29.3717 36.9159 29.3318 36.9509L29.3318 36.9509C29.3138 36.9667 29.2943 36.9837 29.2729 37.0028L29.1981 36.8354L28.6827 35.6798L28.2021 34.6026C27.4262 32.8637 26.6503 31.1247 25.8785 29.384C25.8106 29.2307 25.7161 29.1365 25.5644 29.0681C23.0192 27.9238 20.4757 26.7752 17.9322 25.6266C17.8753 25.6009 17.8196 25.5727 17.7487 25.5366C17.7083 25.5161 17.6629 25.4931 17.6095 25.4666C17.7133 25.3682 17.8152 25.273 17.9155 25.1794L17.9157 25.1792C18.1257 24.9831 18.3281 24.7941 18.5236 24.5986C20.4791 22.6442 22.4333 20.6888 24.3807 18.7267C24.5448 18.5611 24.6687 18.5275 24.8901 18.6222C25.4322 18.8539 25.9783 19.0768 26.5244 19.2997C26.9322 19.4661 27.3399 19.6326 27.746 19.8027C27.8917 19.8638 27.9699 19.8341 28.0737 19.7305C28.5844 19.2196 29.0978 18.7115 29.6112 18.2034L29.6114 18.2031C29.9224 17.8953 30.2334 17.5875 30.5438 17.2792C31.4706 16.3582 32.3958 15.4355 33.3206 14.5124C33.644 14.1895 33.9669 13.8662 34.2897 13.5428C34.8674 12.9642 35.4452 12.3856 36.0261 11.8097C36.3053 11.5323 36.5911 11.2613 36.8852 10.9823C37.0143 10.8599 37.1449 10.736 37.2773 10.6094ZM35.909 16.7879C34.7509 16.7854 33.7992 17.7127 33.7731 18.8273C33.7437 20.0863 34.7829 21.0264 35.8919 21.0124C37.2354 20.995 38.088 19.9755 38.0392 18.7717C37.9969 17.742 37.1632 16.7968 35.909 16.7879ZM23.9895 37.7385L22.8849 35.2286C22.8135 35.0664 22.7422 34.9042 22.671 34.7419L22.671 34.7418C22.4353 34.2049 22.1997 33.6681 21.9575 33.134C21.9182 33.0474 21.8336 32.9586 21.7473 32.9179C20.5715 32.3641 19.3937 31.8151 18.2158 31.266L17.2517 30.8165C17.2034 30.7938 17.156 30.7693 17.1019 30.7413L17.1018 30.7413C17.0706 30.7251 17.0371 30.7078 17 30.6891C17.02 30.6664 17.038 30.6453 17.055 30.6253C17.0874 30.5874 17.1159 30.554 17.147 30.523C17.3691 30.3019 17.5916 30.0812 17.8141 29.8604L17.8149 29.8596L17.8151 29.8593C18.3023 29.3758 18.7895 28.8924 19.273 28.4055C19.3798 28.2981 19.4589 28.2802 19.6008 28.3461C20.3243 28.6802 21.0489 29.0118 21.7735 29.3435L21.7742 29.3438C22.5798 29.7125 23.3854 30.0813 24.1895 30.4534C24.2934 30.5014 24.3972 30.605 24.4446 30.7082C24.825 31.5361 25.2016 32.3659 25.5782 33.1956L25.5785 33.1962C25.8593 33.8148 26.14 34.4333 26.4224 35.0511C26.4877 35.1946 26.4762 35.2851 26.3595 35.3993C25.818 35.9294 25.2807 36.464 24.7434 36.9985L24.7431 36.9988C24.5364 37.2044 24.3298 37.41 24.1229 37.6154C24.0986 37.6401 24.0727 37.6634 24.0376 37.695L23.9895 37.7385Z" fill="#F6F7EB"/>
</svg>
