<svg width="144" height="48" viewBox="0 0 144 48" fill="none" xmlns="http://www.w3.org/2000/svg">
<path d="M54.6876 21.2289H41.769V26.7711L49.4669 26.7821C49.2749 31.2224 48.3598 35.1973 47.1568 37.2811C45.9538 39.3649 44.7507 40.405 42.3589 40.405C39.713 40.405 38.2719 38.8776 37.0991 36.1283C35.4536 32.2789 35.2741 26.7766 35.2741 24.0382C35.2741 19.8288 35.6739 14.2083 37.7956 10.4789C38.8849 8.57873 40.3207 7.6241 42.3696 7.6241C44.4184 7.6241 46.0888 8.3278 47.5726 11.3608C48.5002 13.2537 48.9782 15.3229 49.3034 17.4158C48.326 17.4158 47.2403 17.4158 46.2665 17.4158C45.9715 15.5739 45.6144 13.6264 44.5109 12.079C43.9369 11.2862 43.1906 10.9135 42.3785 10.9135C41.6677 10.9135 40.8947 11.3353 40.3296 12.0936C38.4887 14.5665 38.2559 20.5634 38.2559 24.0382C38.2559 26.6148 38.3749 30.8969 39.2421 33.699C39.9813 36.0846 41.0706 37.1538 42.3785 37.1538C42.9742 37.1537 43.551 36.9394 44.008 36.5483C45.8152 34.9791 46.1706 30.8097 46.3305 28.824H45.7814C45.5806 30.9369 45.1826 34.5845 43.5708 36.0028C43.2329 36.287 42.8069 36.4385 42.3696 36.4301C41.3034 36.4301 40.4842 35.381 39.896 33.3953C39.0324 30.486 38.9507 26.0638 38.9507 24.0309C38.9507 18.2123 39.5691 15.6066 40.1395 13.9737C40.7099 12.3409 41.5646 11.6372 42.3696 11.6372C42.6592 11.6372 43.6757 11.6044 44.502 13.6119C45.2625 15.4629 45.5113 18.2886 45.5113 18.2886H50.2985C49.9431 14.7883 49.1523 12.0063 48.0808 10.0279C46.3589 6.85858 44.0808 6.41855 42.3696 6.41855C39.5815 6.41855 37.5717 7.78048 36.0204 11.328C34.4691 14.8756 34.0266 19.8197 34.0266 24.0382C34.0266 28.0931 34.4265 33.5208 36.2532 37.312C37.6019 40.1195 39.4376 41.696 42.3696 41.696C44.518 41.696 46.2203 40.9941 47.713 38.8267C50.3785 34.9573 50.7036 28.1785 50.7889 25.491L43.0306 25.4801V22.5181H53.4562C53.4562 23.0508 53.474 23.5454 53.474 24.0418C53.4651 28.724 52.9817 34.0608 51.2225 38.1339C49.0351 43.198 45.6979 44.6199 42.3714 44.6199C39.0448 44.6199 36.0435 43.0507 34.0195 38.954C31.5033 33.8645 31.4216 26.7566 31.4216 24.0382C31.4216 20.1379 31.777 14.9556 33.3585 10.7535C34.5118 7.68411 36.9302 3.54376 42.3696 3.54376C44.3776 3.54376 46.3927 4.142 47.9475 5.45483C51.5015 8.51327 52.406 13.7773 52.9053 18.3014H54.4868C53.9306 13.2664 52.8876 7.65683 48.9107 4.24019C47.0715 2.70369 44.8467 2 42.3696 2C38.1208 2 35.6863 4.26382 34.5455 5.63667C30.7108 10.2861 30 18.0668 30 24.0382C30 27.7403 30.3003 34.8718 32.932 39.8831C35.2883 44.3671 38.725 46.0036 42.3696 46.0036C46.7676 46.0036 49.4171 43.6762 50.9684 41.3687C54.0995 36.7174 54.7374 29.7587 54.7409 24.0418C54.7409 23.8855 54.709 22.0962 54.6876 21.2289Z" fill="#F6F7EB"/>
<path d="M111.32 16.8433L109.742 23.5293H109.587L108.009 16.8433H105.731C106.124 18.6452 108.498 26.0749 108.521 26.1495V31.1572H110.806V26.1495C110.83 26.0768 113.173 18.8507 113.596 16.8433H111.32Z" fill="#F6F7EB"/>
<path d="M70.1723 24.0021C70.1723 23.6184 70.1723 23.2548 70.151 22.9202H65.8578V25.2513H67.8622C67.7734 26.8551 67.4962 27.957 67.0395 28.5243C66.9117 28.6906 66.7457 28.822 66.5562 28.9067C66.3668 28.9914 66.1598 29.0268 65.9537 29.0098C65.3727 29.0098 64.0133 29.0098 64.0133 24.0003C64.0133 18.9908 65.3727 18.9908 65.9537 18.9908C66.4051 18.9908 67.3398 18.9908 67.7307 21.3873H70.0408C69.9525 20.5816 69.7502 19.7933 69.4402 19.0471C68.5606 17.0742 67.0608 16.6597 65.9537 16.6597C64.8467 16.6597 63.3451 17.0742 62.4815 19.0471C61.9715 20.2127 61.7352 21.7855 61.7352 24.0003C61.7352 26.215 61.9715 27.7897 62.4815 28.9534C63.3451 30.9263 64.8467 31.3409 65.9537 31.3409C67.0608 31.3409 68.5624 30.9263 69.4242 28.9534C69.9342 27.7897 70.1723 26.215 70.1723 24.0021Z" fill="#F6F7EB"/>
<path d="M99.5617 16.8433H97.2854V31.1572H99.5617V25.2494H102.876V31.1572H105.154V16.8433H102.876V22.9201H99.5617V16.8433Z" fill="#F6F7EB"/>
<path d="M95.7485 18.3902C95.4211 17.901 94.9795 17.5033 94.4637 17.2331C93.948 16.9628 93.3744 16.8287 92.7952 16.8428H88.7419V31.1567H91.0182V26.5127H92.884C93.4619 26.5285 94.0342 26.3925 94.5462 26.1178C95.0582 25.8431 95.4929 25.4388 95.8089 24.9435C96.342 24.1161 96.6104 23.0179 96.6104 21.6705C96.6104 20.3231 96.3136 19.2212 95.7485 18.3902ZM93.904 23.6634C93.6695 24.027 93.3709 24.1834 92.8822 24.1834H91.0164V19.1721H92.7934C93.0046 19.1563 93.2162 19.1985 93.4061 19.2944C93.5961 19.3903 93.7575 19.5364 93.8738 19.7176C94.167 20.1522 94.3287 20.8504 94.3287 21.6814C94.3287 22.5124 94.1812 23.2342 93.9058 23.6634H93.904Z" fill="#F6F7EB"/>
<path d="M78.3659 26.8692C77.9838 25.6709 77.0136 25.5727 76.9123 25.5691V25.4564C77.0527 25.4418 78.1793 25.1727 78.6342 23.3762C78.7558 22.8188 78.8154 22.249 78.8119 21.6779C78.8119 20.3578 78.5134 19.2195 77.9518 18.3885C77.6237 17.9002 77.1814 17.5035 76.6654 17.2346C76.1493 16.9656 75.5757 16.8328 74.9967 16.8484H71.0873V31.1623H73.3583V26.5092H74.3854C74.8759 26.5092 75.3823 26.5092 75.6844 26.6365C75.7928 26.6819 75.9972 26.7674 76.1304 27.3165C76.3223 28.1675 76.4983 29.8622 76.6138 31.1568H78.899C78.7781 29.7549 78.5222 27.3547 78.3659 26.8692ZM76.1038 23.658C75.8692 24.0217 75.5618 24.1781 75.0802 24.1781H73.3583V19.1668H74.9932C75.2046 19.151 75.4164 19.1933 75.6066 19.2891C75.7969 19.385 75.9587 19.5311 76.0753 19.7123C76.3685 20.1487 76.5302 20.8451 76.5302 21.6761C76.5302 22.507 76.3792 23.2289 76.1038 23.658Z" fill="#F6F7EB"/>
<path d="M85.6729 31.1568H87.9545L85.7564 16.8447H81.8097L79.6116 31.1568H81.8879L82.405 27.6383H85.1593L85.6729 31.1568ZM82.7462 25.3036L83.7057 18.714H83.8603L84.8199 25.3036H82.7462Z" fill="#F6F7EB"/>
</svg>
