<?xml version="1.0" encoding="utf-8"?>
<!-- Generator: Adobe Illustrator 24.0.2, SVG Export Plug-In . SVG Version: 6.00 Build 0)  -->
<svg version="1.1" id="Layer_1" xmlns="http://www.w3.org/2000/svg" xmlns:xlink="http://www.w3.org/1999/xlink" x="0px" y="0px"
	 viewBox="0 0 82 22.78" style="enable-background:new 0 0 82 22.78;" xml:space="preserve">
<style type="text/css">
	.st0{fill:#FFFFFF;}
</style>
<path class="st0" d="M77.9,0.28l-2.46,10.21H75.2L72.73,0.28h-3.56c0.61,2.75,4.32,14.09,4.36,14.2l0,0.01v7.63h3.57V14.5l0-0.01
	c0.04-0.11,3.7-11.14,4.36-14.2H77.9z"/>
<path class="st0" d="M13.64,11.2c0-0.59-0.01-1.14-0.03-1.65H6.9v3.56h3.13c-0.14,2.45-0.57,4.13-1.28,5
	c-0.61,0.74-1.29,0.74-1.7,0.74c-0.91,0-3.03,0-3.03-7.65c0-7.65,2.12-7.65,3.03-7.65c0.7,0,2.16,0,2.76,3.66h3.59
	c-0.19-1.42-0.49-2.59-0.94-3.57C11.12,0.63,8.78,0,7.05,0C5.32,0,2.97,0.63,1.63,3.64c-0.8,1.78-1.17,4.18-1.17,7.56
	c0,3.38,0.37,5.78,1.17,7.56c1.35,3.01,3.69,3.64,5.42,3.64c1.73,0,4.07-0.63,5.42-3.64C13.27,16.99,13.64,14.58,13.64,11.2z"/>
<path class="st0" d="M59.54,0.28h-3.56v21.85h3.56v-9.02h5.17v9.02h3.56V0.28h-3.56v9.27h-5.18L59.54,0.28z"/>
<path class="st0" d="M53.59,2.64c-1.05-1.52-2.69-2.36-4.61-2.36h-6.33v21.85h3.56v-7.09h2.91c1.93,0,3.55-0.85,4.57-2.4
	c0.83-1.26,1.25-2.94,1.25-4.98C54.93,5.65,54.47,3.91,53.59,2.64z M50.71,10.69c-0.37,0.56-0.84,0.79-1.6,0.79H46.2V3.84h2.78
	c0.77,0,1.29,0.26,1.69,0.83c0.46,0.66,0.71,1.73,0.71,3C51.37,8.96,51.14,10.04,50.71,10.69z"/>
<path class="st0" d="M26.43,15.58c-0.6-1.83-2.11-1.98-2.27-1.98v-0.18c0.22-0.02,1.98-0.43,2.69-3.18
	c0.18-0.78,0.27-1.65,0.27-2.59c0-2.02-0.46-3.75-1.34-5.02c-1.05-1.52-2.69-2.35-4.62-2.35h-6.11v21.85h3.56v-7.09h1.6
	c0.77,0,1.56,0,2.03,0.19c0.17,0.07,0.49,0.2,0.7,1.04c0.3,1.3,0.58,3.89,0.75,5.86h3.57C27.08,19.99,26.68,16.32,26.43,15.58z
	 M22.9,10.68c-0.37,0.56-0.84,0.79-1.6,0.79h-2.69V3.83h2.55c0.77,0,1.29,0.26,1.69,0.83c0.46,0.67,0.71,1.73,0.71,3
	C23.57,8.95,23.33,10.03,22.9,10.68z"/>
<path class="st0" d="M37.85,22.13h3.56L37.97,0.28h-6.16l-3.43,21.85h3.56l0.8-5.38h4.3L37.85,22.13z M33.28,13.19l1.5-10.06h0.24
	l1.5,10.06H33.28z"/>
</svg>
