<svg width="144" height="48" viewBox="0 0 144 48" fill="none" xmlns="http://www.w3.org/2000/svg">
<path d="M54.6876 21.2289H41.769V26.7711L49.4669 26.7821C49.2749 31.2224 48.3598 35.1973 47.1568 37.2811C45.9538 39.3649 44.7507 40.405 42.3589 40.405C39.713 40.405 38.2719 38.8776 37.0991 36.1283C35.4536 32.2789 35.2741 26.7766 35.2741 24.0382C35.2741 19.8287 35.6739 14.2083 37.7956 10.4789C38.8849 8.57873 40.3207 7.6241 42.3696 7.6241C44.4184 7.6241 46.0888 8.3278 47.5726 11.3608C48.5002 13.2537 48.9782 15.3229 49.3034 17.4158C48.326 17.4158 47.2403 17.4158 46.2665 17.4158C45.9715 15.5739 45.6144 13.6264 44.5109 12.079C43.9369 11.2862 43.1906 10.9135 42.3785 10.9135C41.6677 10.9135 40.8947 11.3353 40.3296 12.0936C38.4887 14.5665 38.2559 20.5634 38.2559 24.0382C38.2559 26.6148 38.3749 30.8969 39.2421 33.699C39.9813 36.0846 41.0706 37.1538 42.3785 37.1538C42.9742 37.1537 43.551 36.9394 44.008 36.5483C45.8152 34.9791 46.1706 30.8097 46.3305 28.824H45.7814C45.5806 30.9369 45.1826 34.5845 43.5708 36.0028C43.2329 36.287 42.8069 36.4386 42.3696 36.4301C41.3034 36.4301 40.4842 35.3809 39.896 33.3953C39.0324 30.486 38.9507 26.0638 38.9507 24.0309C38.9507 18.2123 39.5691 15.6066 40.1395 13.9737C40.7099 12.3409 41.5646 11.6372 42.3696 11.6372C42.6592 11.6372 43.6757 11.6044 44.502 13.6119C45.2625 15.4629 45.5113 18.2886 45.5113 18.2886H50.2985C49.9431 14.7883 49.1523 12.0063 48.0808 10.0279C46.3589 6.85858 44.0808 6.41855 42.3696 6.41855C39.5815 6.41855 37.5717 7.78048 36.0204 11.328C34.4691 14.8756 34.0266 19.8197 34.0266 24.0382C34.0266 28.0931 34.4265 33.5208 36.2532 37.312C37.6019 40.1195 39.4376 41.696 42.3696 41.696C44.518 41.696 46.2203 40.9941 47.713 38.8267C50.3785 34.9573 50.7036 28.1785 50.7889 25.491L43.0306 25.4801V22.5181H53.4562C53.4562 23.0508 53.474 23.5454 53.474 24.0418C53.4651 28.724 52.9817 34.0608 51.2225 38.1339C49.0351 43.198 45.6979 44.6199 42.3714 44.6199C39.0448 44.6199 36.0435 43.0507 34.0195 38.954C31.5033 33.8645 31.4216 26.7566 31.4216 24.0382C31.4216 20.1379 31.777 14.9556 33.3585 10.7535C34.5118 7.68411 36.9302 3.54376 42.3696 3.54376C44.3776 3.54376 46.3927 4.142 47.9475 5.45483C51.5015 8.51327 52.406 13.7773 52.9053 18.3014H54.4868C53.9306 13.2664 52.8876 7.65683 48.9107 4.24019C47.0715 2.70369 44.8467 2 42.3696 2C38.1208 2 35.6863 4.26382 34.5455 5.63667C30.7108 10.2861 30 18.0668 30 24.0382C30 27.7403 30.3003 34.8718 32.932 39.8831C35.2883 44.3671 38.725 46.0036 42.3696 46.0036C46.7676 46.0036 49.4171 43.6762 50.9684 41.3687C54.0995 36.7174 54.7374 29.7587 54.7409 24.0418C54.7409 23.8855 54.709 22.0962 54.6876 21.2289Z" fill="#F6F7EB"/>
<path d="M111.32 16.8433L109.742 23.5293H109.588L108.01 16.8433H105.731C106.124 18.6452 108.498 26.0749 108.521 26.1495V31.1572H110.807V26.1495C110.83 26.0768 113.173 18.8507 113.596 16.8433H111.32Z" fill="#F6F7EB"/>
<path d="M70.1722 24.0021C70.1722 23.6184 70.1722 23.2548 70.1509 22.9202H65.8577V25.2513H67.8622C67.7733 26.8551 67.4961 27.957 67.0394 28.5243C66.9116 28.6906 66.7456 28.822 66.5562 28.9067C66.3667 28.9914 66.1597 29.0268 65.9537 29.0098C65.3726 29.0098 64.0132 29.0098 64.0132 24.0003C64.0132 18.9908 65.3726 18.9908 65.9537 18.9908C66.405 18.9908 67.3397 18.9908 67.7307 21.3873H70.0407C69.9524 20.5816 69.7501 19.7933 69.4401 19.0471C68.5605 17.0742 67.0607 16.6597 65.9537 16.6597C64.8466 16.6597 63.3451 17.0742 62.4814 19.0471C61.9714 20.2127 61.7351 21.7855 61.7351 24.0003C61.7351 26.215 61.9714 27.7897 62.4814 28.9534C63.3451 30.9263 64.8466 31.3409 65.9537 31.3409C67.0607 31.3409 68.5623 30.9263 69.4241 28.9534C69.9341 27.7897 70.1722 26.215 70.1722 24.0021Z" fill="#F6F7EB"/>
<path d="M99.5617 16.8433H97.2854V31.1572H99.5617V25.2494H102.876V31.1572H105.154V16.8433H102.876V22.9201H99.5617V16.8433Z" fill="#F6F7EB"/>
<path d="M95.7486 18.3902C95.4212 17.901 94.9795 17.5033 94.4638 17.2331C93.948 16.9628 93.3745 16.8287 92.7952 16.8428H88.7419V31.1567H91.0183V26.5127H92.8841C93.462 26.5285 94.0342 26.3925 94.5462 26.1178C95.0583 25.8431 95.493 25.4388 95.809 24.9435C96.3421 24.1161 96.6104 23.0179 96.6104 21.6705C96.6104 20.3231 96.3137 19.2212 95.7486 18.3902ZM93.9041 23.6634C93.6695 24.027 93.371 24.1834 92.8823 24.1834H91.0165V19.1721H92.7935C93.0047 19.1563 93.2162 19.1985 93.4062 19.2944C93.5961 19.3903 93.7576 19.5364 93.8739 19.7176C94.1671 20.1522 94.3288 20.8504 94.3288 21.6814C94.3288 22.5124 94.1813 23.2342 93.9059 23.6634H93.9041Z" fill="#F6F7EB"/>
<path d="M78.3659 26.8692C77.9839 25.6709 77.0136 25.5727 76.9124 25.5691V25.4564C77.0527 25.4418 78.1793 25.1727 78.6343 23.3762C78.7559 22.8188 78.8155 22.249 78.812 21.6779C78.812 20.3578 78.5134 19.2195 77.9519 18.3885C77.6237 17.9002 77.1815 17.5035 76.6654 17.2346C76.1493 16.9656 75.5757 16.8328 74.9968 16.8484H71.0874V31.1623H73.3584V26.5092H74.3855C74.8759 26.5092 75.3824 26.5092 75.6845 26.6365C75.7929 26.6819 75.9972 26.7674 76.1305 27.3165C76.3224 28.1675 76.4983 29.8622 76.6138 31.1568H78.899C78.7782 29.7549 78.5223 27.3547 78.3659 26.8692ZM76.1038 23.658C75.8693 24.0217 75.5618 24.1781 75.0803 24.1781H73.3584V19.1668H74.9932C75.2047 19.151 75.4165 19.1933 75.6067 19.2891C75.7969 19.385 75.9587 19.5311 76.0754 19.7123C76.3686 20.1487 76.5303 20.8451 76.5303 21.6761C76.5303 22.507 76.3793 23.2289 76.1038 23.658V23.658Z" fill="#F6F7EB"/>
<path d="M85.6729 31.1568H87.9545L85.7564 16.8447H81.8097L79.6116 31.1568H81.8879L82.405 27.6383H85.1593L85.6729 31.1568ZM82.7462 25.3036L83.7058 18.714H83.8603L84.8199 25.3036H82.7462Z" fill="#F6F7EB"/>
</svg>
