<svg width="144" height="48" viewBox="0 0 144 48" fill="none" xmlns="http://www.w3.org/2000/svg">
<path fill-rule="evenodd" clip-rule="evenodd" d="M34 39H109V9H34V39ZM71.5075 37.5C50.59 37.5 35.5 31.3725 35.5 24C35.5 16.6275 50.5975 10.5 71.5075 10.5C92.41 10.5 107.5 16.6275 107.5 24C107.5 31.3725 92.425 37.5 71.5075 37.5Z" fill="#F6F7EB"/>
<path d="M68.8375 28.5001C69.0775 28.8376 69.3325 29.1526 69.6325 29.4376H61.5175C61.5175 29.1226 61.2025 28.4851 60.865 27.9826C60.52 27.4801 58.66 24.7201 58.66 24.7201V28.5001C58.66 28.8151 58.66 29.1226 58.825 29.4376H52.06C52.225 29.1226 52.225 28.8151 52.225 28.5001V19.5001C52.225 19.1851 52.225 18.8776 52.06 18.5626H58.825C58.66 18.8776 58.66 19.1851 58.66 19.5001V23.4376C58.66 23.4376 60.82 20.6851 61.315 20.0476C61.69 19.5676 62.155 18.8851 62.155 18.5701H69.205C68.7175 18.8851 68.185 19.4551 67.7425 19.9726C67.3525 20.4376 65.1625 23.0476 65.1625 23.0476C65.1625 23.0476 68.4025 27.8851 68.8375 28.5001ZM70.9675 19.5001V28.5001C70.9675 28.8151 70.9675 29.1226 70.8025 29.4376H83.8525V26.4151C83.53 26.5726 83.215 26.5726 82.8925 26.5726H77.4025V25.1476H82.6825V22.8601H77.4025V21.4201H82.8925C83.215 21.4201 83.53 21.4201 83.8525 21.5701V18.5551H70.8025C70.9675 18.8851 70.9675 19.1851 70.9675 19.5001ZM101.935 28.5001C102.04 28.8451 102.227 29.1601 102.46 29.4376H95.3875C95.4175 29.1226 95.305 28.8151 95.17 28.5001C95.17 28.5001 95.065 28.2451 94.915 27.8776L94.8475 27.7201H90.775L90.7075 27.8851C90.7075 27.8851 90.5875 28.1926 90.4825 28.5076C90.3775 28.8226 90.2575 29.1301 90.3025 29.4451H84.7225C84.9475 29.1676 85.12 28.8526 85.225 28.5076L88.57 19.5076C88.69 19.1926 88.81 18.8851 88.765 18.5701H98.1925C98.11 18.8851 98.275 19.1926 98.395 19.5076C98.68 20.1901 101.695 27.8926 101.935 28.5001ZM93.955 25.4326L92.965 22.9126C92.8825 22.6801 92.8075 22.4401 92.7475 22.2001C92.7025 22.4401 92.6425 22.6801 92.5525 22.9126C92.5225 23.0176 92.1025 24.1201 91.615 25.4326C91.6225 25.4326 93.955 25.4326 93.955 25.4326ZM48.85 18.5701H41.5C41.665 18.8851 41.665 19.1926 41.665 19.5076V28.5076C41.665 28.8226 41.665 29.1301 41.5 29.4451H48.85C48.685 29.1301 48.685 28.8226 48.685 28.5076V19.5001C48.6925 19.1851 48.6925 18.8851 48.85 18.5701ZM99.6775 19.4251C99.6475 18.6601 100.255 18.0226 101.042 18.0001H101.14C101.935 17.9926 102.587 18.6001 102.602 19.3726V19.4251C102.625 20.2126 101.987 20.8726 101.17 20.8951C100.367 20.9176 99.685 20.2951 99.6625 19.5001C99.6775 19.4776 99.6775 19.4476 99.6775 19.4251ZM99.97 19.4251C99.97 20.0551 100.495 20.5651 101.14 20.5651C101.785 20.5651 102.31 20.0476 102.31 19.4251C102.31 18.7951 101.785 18.2851 101.14 18.2851C100.517 18.2626 99.9925 18.7351 99.97 19.3426C99.97 19.3426 99.97 19.4251 99.97 19.4251ZM100.847 20.2801H100.592V18.5626H101.245C101.56 18.5701 101.792 18.8176 101.792 19.1176C101.792 19.3276 101.672 19.5151 101.477 19.6201L101.852 20.2801H101.56L101.215 19.6726H100.84C100.847 19.6651 100.847 20.2801 100.847 20.2801ZM100.847 19.4251H101.2C101.372 19.4326 101.522 19.3126 101.522 19.1401C101.522 18.9676 101.402 18.8251 101.23 18.8251H100.84V19.4251H100.847Z" fill="#F6F7EB"/>
</svg>
