<?xml version="1.0" encoding="utf-8"?>
<!-- Generator: Adobe Illustrator 24.0.2, SVG Export Plug-In . SVG Version: 6.00 Build 0)  -->
<svg version="1.1" id="IKEA_logo" xmlns="http://www.w3.org/2000/svg" xmlns:xlink="http://www.w3.org/1999/xlink" x="0px" y="0px"
	 viewBox="0 0 100 40" style="enable-background:new 0 0 100 40;" xml:space="preserve">
<style type="text/css">
	.st0{fill-rule:evenodd;clip-rule:evenodd;fill:#FFFFFF;}
	.st1{fill-rule:evenodd;clip-rule:evenodd;fill:#131112;}
	.st2{fill:#FFFFFF;}
</style>
<g id="logo">
	<g id="IKEA_Color">
		<polygon id="Shape" class="st0" points="99.99,40 0,40 0,0 100,0 100,40 		"/>
		<path id="path7" class="st1" d="M2,20c0,9.83,20.12,18,48.01,18C77.9,38,98,29.83,98,20S77.88,2,50.01,2C22.13,2,2,10.17,2,20z"/>
		<path id="path9" class="st2" d="M46.45,26c0.32,0.45,0.66,0.87,1.06,1.25H36.69c0-0.42-0.42-1.27-0.87-1.94
			c-0.46-0.67-2.94-4.35-2.94-4.35V26c0,0.42,0,0.83,0.22,1.25h-9.02c0.22-0.42,0.22-0.83,0.22-1.25V14c0-0.42,0-0.83-0.22-1.25
			h9.02c-0.22,0.42-0.22,0.83-0.22,1.25v5.25c0,0,2.88-3.67,3.54-4.52c0.5-0.64,1.12-1.55,1.12-1.97h9.4
			c-0.65,0.42-1.36,1.18-1.95,1.87c-0.52,0.62-3.44,4.1-3.44,4.1S45.87,25.18,46.45,26L46.45,26z M49.29,14v12
			c0,0.42,0,0.83-0.22,1.25h17.4v-4.03c-0.43,0.21-0.85,0.21-1.28,0.21h-7.32v-1.9h7.04v-3.05h-7.04v-1.92h7.32
			c0.43,0,0.85,0,1.28,0.2v-4.02h-17.4C49.29,13.18,49.29,13.58,49.29,14z M90.58,26c0.14,0.46,0.39,0.88,0.7,1.25h-9.43
			c0.04-0.42-0.11-0.83-0.29-1.25c0,0-0.14-0.34-0.34-0.83l-0.09-0.21H75.7l-0.09,0.22c0,0-0.16,0.41-0.3,0.83s-0.3,0.83-0.24,1.25
			h-7.44c0.3-0.37,0.53-0.79,0.67-1.25l4.46-12c0.16-0.42,0.32-0.83,0.26-1.25h12.57c-0.11,0.42,0.11,0.83,0.27,1.25
			C86.24,14.92,90.26,25.19,90.58,26z M79.94,21.91l-1.32-3.36c-0.11-0.31-0.21-0.63-0.29-0.95c-0.06,0.32-0.14,0.64-0.26,0.95
			c-0.04,0.14-0.6,1.61-1.25,3.36C76.83,21.91,79.94,21.91,79.94,21.91z M19.8,12.76H10c0.22,0.42,0.22,0.83,0.22,1.25v12
			c0,0.42,0,0.83-0.22,1.25h9.8c-0.22-0.42-0.22-0.83-0.22-1.25V14C19.59,13.58,19.59,13.18,19.8,12.76z M87.57,13.9
			c-0.04-1.02,0.77-1.87,1.82-1.9h0.13c1.06-0.01,1.93,0.8,1.95,1.83v0.07c0.03,1.05-0.82,1.93-1.91,1.96
			c-1.07,0.03-1.98-0.8-2.01-1.86C87.57,13.97,87.57,13.93,87.57,13.9L87.57,13.9z M87.96,13.9c0,0.84,0.7,1.52,1.56,1.52
			s1.56-0.69,1.56-1.52c0-0.84-0.7-1.52-1.56-1.52c-0.83-0.03-1.53,0.6-1.56,1.41C87.96,13.79,87.96,13.9,87.96,13.9z M89.13,15.04
			h-0.34v-2.29h0.87c0.42,0.01,0.73,0.34,0.73,0.74c0,0.28-0.16,0.53-0.42,0.67l0.5,0.88h-0.39l-0.46-0.81h-0.5
			C89.13,14.22,89.13,15.04,89.13,15.04z M89.13,13.9h0.47c0.23,0.01,0.43-0.15,0.43-0.38s-0.16-0.42-0.39-0.42h-0.52V13.9z"/>
	</g>
</g>
</svg>
