<svg width="144" height="48" viewBox="0 0 144 48" fill="none" xmlns="http://www.w3.org/2000/svg">
<path d="M43.3506 18.8639C42.9542 18.047 42.5389 17.4062 42.3348 16.7047C42.1541 16.0855 41.9763 15.309 42.1964 14.7591C43.3345 11.9071 43.5925 8.87608 44.2191 5.92013C44.4567 4.8001 44.8122 3.6974 45.1911 2.6149C45.4228 1.95241 46.3322 1.78787 46.784 2.31469C47.6365 3.30914 48.4584 4.33391 49.2351 5.38898C49.4246 5.6459 49.4989 6.08178 49.4406 6.40365C49.0122 8.80824 48.6464 11.2172 48.5677 13.6607C48.5662 13.7199 48.5677 13.7791 48.5677 13.8383C48.5575 15.7954 49.1375 15.5948 50.4622 15.0911C52.8536 14.1832 55.2217 13.209 57.6 12.265C58.3549 11.9648 59.2759 12.2376 59.8063 12.8467C60.1779 13.2754 60.5845 13.6853 61.0275 14.0403C61.7431 14.6119 61.7693 15.1834 61.0494 15.7348C57.3697 18.5522 53.693 21.3724 50.0162 24.1942C49.9813 24.2201 49.9667 24.2721 49.9259 24.3428C61.3277 30.7079 72.0797 38.0776 83.0429 45.2986C81.8596 45.3491 79.0426 44.5047 78.2921 43.7787C77.444 42.9604 76.4661 42.6284 75.3221 42.4451C73.9465 42.2257 72.5649 41.9039 71.2548 41.4377C68.9713 40.6265 66.7358 39.6797 64.4901 38.7675C63.8634 38.5135 63.2791 38.1598 62.6612 37.8798C60.0701 36.7093 57.4645 35.5676 54.8807 34.3826C52.67 33.3694 50.4811 32.3129 48.2821 31.278C48.199 31.2391 48.1072 31.2232 47.9746 31.1828C47.8521 32.3259 47.7356 33.4344 47.6132 34.5429C47.3188 37.213 47.0317 39.8846 46.7184 42.5534C46.6134 43.4468 46.5289 44.3604 46.2579 45.2076C46.1486 45.5497 45.5933 45.8615 45.1824 45.9712C44.5703 46.1328 43.798 45.6363 43.6887 45.0113C43.4905 43.8783 43.3637 42.7294 43.2835 41.582C43.0897 38.8296 42.9877 36.0713 42.7443 33.3232C42.6758 32.5424 42.278 31.7818 41.9749 31.0341C41.7417 30.4597 41.2506 30.3038 40.7333 30.6401C38.5561 32.0589 35.879 32.616 33.9802 34.5226C33.5838 34.9196 33.0519 35.1837 32.5826 35.5084C32.5331 35.4608 32.4835 35.4146 32.434 35.367C32.6963 35.0625 32.9265 34.7233 33.2253 34.4563C35.1824 32.7069 36.9734 30.8349 38.1422 28.4462C38.4118 27.8949 38.8752 27.4373 39.2497 26.9365C39.6359 26.4183 39.5266 25.9579 39.0996 25.5177C38.2588 24.6503 37.772 24.6113 36.6018 24.9649C35.7624 25.2189 34.8531 25.3156 33.97 25.3373C33.3564 25.3532 32.8187 25.0197 32.5608 24.3818C32.227 23.5591 31.9574 22.6888 32.5098 21.9123C33.2486 20.8731 34.3693 20.5873 35.6051 20.785C35.9446 20.8399 36.2579 21.0318 36.5931 21.1329C37.1571 21.3017 37.6088 21.0708 38.0591 20.7475C38.3797 20.518 38.7484 20.3289 39.123 20.2048C40.4899 19.7487 41.8714 19.3287 43.3506 18.8639ZM41.0888 23.9488C41.5756 24.3024 42.0317 24.8134 42.2081 24.7311C43.0373 24.3457 43.8111 23.8189 44.3357 22.8057C43.0853 22.8201 42.2095 23.3181 41.0888 23.9488Z" fill="#F6F7EB"/>
<path d="M93.2266 21.1719C94.0237 21.3956 94.576 22.123 94.6008 23.1319C94.646 24.9086 94.6635 26.6854 94.6416 28.4621C94.6343 29.1059 94.7859 29.5461 95.5291 29.6601C95.4941 30.1104 95.4606 30.5304 95.4285 30.9432C94.2292 31.1713 93.5734 30.8999 92.9934 30.044C92.0491 30.3919 91.163 30.8451 90.2231 31.0385C88.5807 31.3777 87.1803 30.5607 86.8451 29.2098C86.4094 27.4532 87.1147 25.9839 88.7789 25.5033C89.442 25.3113 90.1575 25.2709 90.8526 25.2219C91.4982 25.1771 92.1511 25.2117 92.8404 25.2117C92.8404 24.5724 92.906 24.0181 92.8244 23.4855C92.7238 22.8259 92.2546 22.3799 91.5827 22.3684C90.6224 22.3525 89.6606 22.4492 88.7002 22.517C88.4437 22.5358 88.1931 22.6253 87.8973 22.6931C87.769 22.224 87.6524 21.7968 87.5082 21.2686C88.2237 21.0954 88.8911 20.9323 89.56 20.7706C89.6227 20.85 89.6854 20.9294 89.748 21.0073C89.8296 20.925 89.9112 20.8428 89.9928 20.7591C90.1386 20.7547 90.2843 20.749 90.4315 20.7446C90.5699 20.8298 90.7025 20.977 90.8483 20.9914C91.6396 21.0708 92.4338 21.1156 93.2266 21.1719ZM92.8768 26.3246C91.8334 26.3996 90.8701 26.4227 89.9214 26.5526C89.2715 26.6406 88.7483 27.0116 88.5472 27.6842C88.2441 28.7017 88.897 29.689 89.9652 29.5793C90.8978 29.484 91.88 29.2026 92.667 28.7234C92.9788 28.5329 92.8244 27.5875 92.8754 26.9856C92.8885 26.8211 92.8768 26.6551 92.8768 26.3246Z" fill="#F6F7EB"/>
<path d="M79.9419 21.1807C80.7842 21.5271 81.1107 22.1925 81.1238 23.0527C81.0699 23.1552 80.9708 23.2562 80.9708 23.3587C80.9606 25.0561 80.9562 26.7549 80.9722 28.4522C80.9737 28.5792 81.1296 28.7034 81.2127 28.8289C81.4692 29.1595 81.7242 29.4914 81.9807 29.8219C82.036 29.7931 82.0929 29.7628 82.1483 29.7339C82.0987 30.1568 82.0477 30.5782 81.9952 31.0199C80.9474 31.0748 80.0206 30.9737 79.6067 30.0341C78.6799 30.3747 77.7909 30.8005 76.8539 31.0271C75.1853 31.4298 73.728 30.5725 73.3987 29.1161C72.9862 27.2903 73.7703 25.8917 75.5321 25.4559C76.2273 25.2841 76.9647 25.2682 77.686 25.222C78.2383 25.186 78.7965 25.2148 79.5295 25.2148C79.4493 24.4657 79.5047 23.7426 79.257 23.1451C79.1054 22.7785 78.4963 22.4003 78.0751 22.3801C76.9049 22.3267 75.7274 22.4595 74.4261 22.5259C74.3882 22.3368 74.3182 21.9789 74.2468 21.6195C74.3576 21.5314 74.4596 21.3784 74.5805 21.3626C75.7332 21.2168 76.8889 21.097 78.0431 20.9555C78.148 20.9426 78.2383 20.8256 78.336 20.7578C78.5312 20.7722 78.7265 20.7881 78.9233 20.8026C78.9772 20.9166 79.0326 21.032 79.0865 21.1461C79.1768 21.0681 79.2657 20.9887 79.3561 20.9108C79.4537 20.9541 79.5528 20.9988 79.6505 21.0421C79.7466 21.0883 79.8443 21.1345 79.9419 21.1807ZM79.4668 26.3897C79.0224 26.3897 78.6799 26.3522 78.3476 26.3969C77.5213 26.5095 76.6659 26.5571 75.8877 26.8241C75.1518 27.0767 74.9215 27.8143 75.1532 28.6442C75.3383 29.3081 75.86 29.692 76.5114 29.578C77.4208 29.4207 78.3054 29.106 79.1885 28.8217C79.3153 28.7813 79.4464 28.5388 79.4537 28.3844C79.4843 27.745 79.4668 27.1027 79.4668 26.3897Z" fill="#F6F7EB"/>
<path d="M103.544 22.191C103.549 22.279 103.552 22.3685 103.556 22.4565C103.553 24.4382 103.536 26.4199 103.565 28.4002C103.569 28.6845 103.799 28.9645 103.925 29.2474C104.168 29.3975 104.41 29.5476 104.696 29.7237C104.696 30.099 104.696 30.5219 104.696 30.9361C103.543 31.193 102.807 30.9087 102.147 29.9215C101.931 30.0514 101.712 30.1827 101.494 30.314C100.477 30.9217 99.4143 31.284 98.1931 31.0357C96.8743 30.7673 96.1223 30.0268 95.9707 28.748C95.8002 27.3076 96.3511 26.1183 97.5738 25.6795C98.352 25.3995 99.2147 25.3187 100.048 25.2292C100.691 25.1599 101.345 25.2147 102.065 25.2147C102.065 24.5956 102.116 24.0456 102.052 23.5102C101.976 22.8722 101.548 22.4046 100.908 22.3901C99.8777 22.3671 98.8431 22.4739 97.8113 22.5417C97.6044 22.5547 97.4018 22.6427 97.055 22.7322C97.2255 22.165 96.3598 21.7089 97.1424 21.2066C97.2284 21.2398 97.3173 21.3062 97.4018 21.3004C98.6012 21.2182 99.7991 21.1243 100.997 21.0406C101.316 21.019 101.637 21.0233 101.957 21.0146C102.052 21.0276 102.145 21.0392 102.24 21.0522C102.287 21.0579 102.332 21.0637 102.378 21.0695C102.724 21.3841 103.069 21.6988 103.415 22.0149C103.457 22.0712 103.501 22.1318 103.544 22.191ZM102.08 26.3824C101.807 26.3824 101.637 26.3651 101.471 26.3853C100.517 26.4979 99.5397 26.5253 98.6201 26.7678C97.9089 26.9554 97.6 27.7666 97.7516 28.4724C97.9133 29.2214 98.3738 29.679 99.2045 29.5707C100.093 29.4553 100.955 29.1089 101.816 28.8274C101.938 28.787 102.059 28.5416 102.067 28.3858C102.096 27.7435 102.08 27.0997 102.08 26.3824Z" fill="#F6F7EB"/>
<path d="M82.9785 16.0438C83.4463 15.875 83.9155 15.7075 84.462 15.5112C84.462 15.9154 84.462 16.243 84.462 16.5706C84.462 20.368 84.4664 24.1655 84.4576 27.9629C84.4562 28.6196 84.5582 29.2056 85.1805 29.5751C85.4836 29.7122 85.7867 29.8507 86.1408 30.011C85.9936 30.2794 86.7529 30.9506 85.861 30.9535C84.9954 30.9563 84.0496 30.8697 83.4696 30.0037C83.4142 29.92 83.2146 29.9301 83.082 29.8969C83.082 29.8969 83.0849 29.894 83.0849 29.8926C82.9639 29.3456 82.8415 28.7986 82.7205 28.253C82.7176 24.3069 82.7162 20.3608 82.7133 16.4162C82.8022 16.2935 82.891 16.1679 82.9785 16.0438Z" fill="#F6F7EB"/>
<path d="M66.8335 25.5145C68.0066 24.0769 69.1637 22.6278 70.3703 21.2177C70.5481 21.0098 70.9489 20.9449 71.2593 20.9045C71.66 20.8525 72.0739 20.8915 72.6219 20.8915C72.0841 21.5713 71.6251 22.1645 71.15 22.7476C70.5102 23.5328 69.8792 24.3266 69.2074 25.0844C68.8679 25.4668 68.8795 25.7425 69.1987 26.1322C69.7933 26.8582 70.2712 27.6852 70.9095 28.3665C71.4415 28.9337 72.1322 29.3552 72.8507 29.9181C72.7938 30.2053 72.7078 30.6426 72.6131 31.1218C71.4342 31.0626 70.4753 30.5936 69.7699 29.7232C68.7382 28.4516 67.7778 27.1238 66.7854 25.819C66.8014 25.718 66.8175 25.6169 66.8335 25.5145Z" fill="#F6F7EB"/>
<path d="M105.737 30.7078C105.736 27.5324 105.736 24.3571 105.734 21.1818C106.21 21.1818 106.685 21.1818 107.048 21.1818C107.219 21.4776 107.343 21.6898 107.467 21.902C107.491 22.0131 107.512 22.1257 107.559 22.3523C108.406 21.4805 109.28 20.7921 110.561 20.9133C110.561 21.4214 110.561 21.9121 110.561 22.4779C109.258 22.3682 108.238 22.8849 107.482 23.9241C107.384 24.1103 107.205 24.2965 107.202 24.4827C107.18 26.271 107.18 28.0592 107.202 29.8461C107.205 30.0366 107.374 30.2271 107.467 30.4162C107.469 30.5129 107.47 30.6096 107.472 30.7063C106.895 30.7078 106.316 30.7078 105.737 30.7078Z" fill="#F6F7EB"/>
<path d="M66.8334 25.5147C66.8174 25.6172 66.8028 25.7197 66.7868 25.8222C66.2447 25.6764 66.4545 26.1036 66.4516 26.297C66.4341 27.6653 66.4414 29.035 66.4414 30.4033C66.4414 30.5693 66.4414 30.7353 66.4414 30.9446C65.8643 30.9446 65.3222 30.9446 64.6868 30.9446C64.6751 30.6977 64.6547 30.4452 64.6547 30.1926C64.6533 26.6146 64.6708 23.0351 64.6373 19.4571C64.6314 18.8292 64.7742 18.4756 65.4242 18.3616C65.7448 18.3053 66.0479 18.1566 66.4472 18.0181C66.4472 20.6031 66.4472 23.126 66.4472 25.7615C66.6454 25.6331 66.7387 25.5739 66.8334 25.5147ZM66.2374 30.5693C66.2374 26.7401 66.2417 22.9701 66.233 19.2002C66.2315 18.7498 65.7652 18.4366 65.3921 18.6834C65.1546 18.8408 64.9549 19.2406 64.952 19.5321C64.9214 22.7998 64.9287 26.0675 64.9345 29.3352C64.936 30.7439 64.7684 30.5433 66.2374 30.5693Z" fill="#F6F7EB"/>
<path d="M113.119 30.952C112.506 30.952 111.959 30.952 111.379 30.952C111.379 27.6136 111.379 24.3098 111.379 20.9497C111.941 20.9497 112.505 20.9497 113.119 20.9497C113.119 24.2622 113.119 27.5818 113.119 30.952ZM111.564 25.9465C111.564 27.3162 111.583 28.686 111.553 30.0557C111.543 30.5609 111.712 30.7211 112.221 30.7225C112.734 30.724 112.887 30.5522 112.884 30.0528C112.865 27.3134 112.864 24.5739 112.884 21.8345C112.888 21.3307 112.725 21.1691 112.218 21.1677C111.705 21.1662 111.545 21.338 111.555 21.8374C111.583 23.2056 111.564 24.5754 111.564 25.9465Z" fill="#F6F7EB"/>
<path d="M113.296 18.5191C113.29 19.1411 112.807 19.6665 112.234 19.6694C111.668 19.6737 111.206 19.1397 111.215 18.4916C111.222 17.8667 111.727 17.298 112.257 17.3153C112.785 17.3341 113.302 17.9316 113.296 18.5191Z" fill="#F6F7EB"/>
<path d="M83.0836 29.898C83.2162 29.9312 83.4159 29.9211 83.4713 30.0048C84.0498 30.8694 84.9956 30.956 85.8627 30.9546C86.7531 30.9517 85.9953 30.2805 86.1425 30.0121C85.7884 29.8518 85.4852 29.7133 85.1821 29.5762C85.5406 29.6022 85.9006 29.6296 86.3159 29.6599C86.4092 30.103 86.5039 30.5605 86.6001 31.0152C84.9694 31.5218 83.7904 31.1379 83.0836 29.898Z" fill="#F6F7EB"/>
<path d="M103.925 29.2469C103.799 28.964 103.569 28.684 103.565 28.3997C103.535 26.4194 103.553 24.4378 103.556 22.4561C103.653 22.8039 103.83 23.1517 103.837 23.501C103.866 25.106 103.846 26.7124 103.852 28.3189C103.853 28.6292 103.9 28.9381 103.925 29.2469Z" fill="#F6F7EB"/>
<path d="M107.469 30.4164C107.377 30.2259 107.206 30.0368 107.203 29.8463C107.183 28.058 107.183 26.2697 107.203 24.4829C107.206 24.2953 107.385 24.1105 107.483 23.9243C107.479 26.0879 107.473 28.2529 107.469 30.4164Z" fill="#F6F7EB"/>
<path d="M81.2126 28.8289C81.1281 28.7034 80.9722 28.5778 80.9722 28.4522C80.9576 26.7549 80.9605 25.0561 80.9707 23.3587C80.9707 23.2562 81.0713 23.1552 81.1237 23.0527C81.1602 23.5233 81.2272 23.9923 81.2287 24.4629C81.2374 25.9177 81.2199 27.3726 81.2126 28.8289Z" fill="#F6F7EB"/>
<path d="M101.956 21.0118C101.635 21.019 101.314 21.0146 100.995 21.0377C99.7974 21.1214 98.5995 21.2167 97.4001 21.2975C97.3171 21.3033 97.2282 21.2369 97.1407 21.2037C98.7277 20.6885 100.325 20.4359 101.956 21.0118Z" fill="#F6F7EB"/>
<path d="M31.5042 37.3302C31.2375 36.9968 30.9737 36.7226 31 36.6923C31.2419 36.4094 31.5261 36.1582 31.8277 35.9374C31.8467 35.923 32.262 36.3083 32.227 36.3747C32.0725 36.6749 31.8219 36.9304 31.5042 37.3302Z" fill="#F6F7EB"/>
<path d="M78.3359 20.7579C78.2382 20.8257 78.1479 20.9426 78.043 20.9556C76.8902 21.0971 75.7331 21.2154 74.5804 21.3627C74.4595 21.3785 74.3575 21.5301 74.2467 21.6196C74.3589 21.468 74.4405 21.2371 74.5906 21.1794C75.7973 20.7074 77.0578 20.6395 78.3359 20.7579Z" fill="#F6F7EB"/>
<path d="M93.2266 21.172C92.4338 21.1157 91.6382 21.071 90.8468 20.9931C90.7011 20.9786 90.5685 20.8328 90.4301 20.7462C91.3875 20.7347 92.3697 20.5485 93.2266 21.172Z" fill="#F6F7EB"/>
<path d="M107.468 21.9008C107.344 21.6887 107.221 21.4765 107.049 21.1806C106.686 21.1806 106.211 21.1806 105.736 21.1806C105.803 21.0868 105.865 20.9136 105.935 20.9107C106.435 20.8876 106.938 20.8977 107.468 20.8977C107.468 21.2874 107.468 21.5948 107.468 21.9008Z" fill="#F6F7EB"/>
<path d="M105.737 30.708C106.316 30.708 106.894 30.708 107.471 30.708C106.992 31.3085 106.351 30.8567 105.794 30.9519C105.79 30.9519 105.758 30.7917 105.737 30.708Z" fill="#F6F7EB"/>
<path d="M82.7223 28.2544C82.8432 28.8014 82.9657 29.347 83.0866 29.894C82.9657 29.3484 82.8432 28.8014 82.7223 28.2544Z" fill="#F6F7EB"/>
<path d="M79.3544 20.9105C79.264 20.9884 79.1751 21.0678 79.0847 21.1458C79.0308 21.0317 78.9754 20.9163 78.9215 20.8022C79.0672 20.8383 79.2101 20.8744 79.3544 20.9105Z" fill="#F6F7EB"/>
<path d="M89.9943 20.7617C89.9127 20.844 89.8311 20.9263 89.7495 21.01C89.6868 20.9306 89.6242 20.8512 89.5615 20.7733C89.7043 20.7689 89.8486 20.7646 89.9943 20.7617Z" fill="#F6F7EB"/>
<path d="M82.9787 16.0435C82.8913 16.1676 82.8024 16.2932 82.715 16.4173C82.8024 16.2932 82.8913 16.1676 82.9787 16.0435Z" fill="#F6F7EB"/>
<path d="M79.9417 21.1806C79.8441 21.1344 79.7464 21.0882 79.6488 21.042C79.7464 21.0882 79.8441 21.1344 79.9417 21.1806Z" fill="#F6F7EB"/>
<path d="M103.544 22.1907C103.5 22.1315 103.457 22.0709 103.413 22.0117C103.457 22.0709 103.5 22.1315 103.544 22.1907Z" fill="#F6F7EB"/>
<path d="M102.377 21.0661C102.33 21.0604 102.285 21.0546 102.238 21.0488C102.285 21.0546 102.33 21.0604 102.377 21.0661Z" fill="#F6F7EB"/>
<path d="M66.2376 30.5693C64.7686 30.5448 64.9362 30.744 64.9333 29.3353C64.926 26.0676 64.9202 22.7999 64.9508 19.5321C64.9537 19.2392 65.1534 18.8393 65.3909 18.6835C65.7654 18.4367 66.2318 18.7499 66.2318 19.2002C66.2405 22.9702 66.2376 26.7402 66.2376 30.5693Z" fill="#F6F7EB"/>
<path d="M111.564 25.9464C111.564 24.5766 111.581 23.2069 111.553 21.8372C111.543 21.3378 111.704 21.166 112.216 21.1675C112.725 21.1689 112.887 21.3291 112.882 21.8343C112.862 24.5738 112.862 27.3132 112.882 30.0526C112.885 30.552 112.732 30.7238 112.219 30.7223C111.712 30.7209 111.542 30.5607 111.552 30.0555C111.583 28.6858 111.564 27.3161 111.564 25.9464Z" fill="#F6F7EB"/>
</svg>
