<svg width="144" height="48" viewBox="0 0 144 48" fill="none" xmlns="http://www.w3.org/2000/svg">
<path d="M43.3508 18.8639C42.9544 18.047 42.5391 17.4062 42.3351 16.7047C42.1544 16.0855 41.9766 15.309 42.1966 14.7591C43.3348 11.9071 43.5927 8.87608 44.2194 5.92013C44.4569 4.8001 44.8125 3.6974 45.1914 2.6149C45.4231 1.95241 46.3324 1.78787 46.7842 2.31469C47.6367 3.30914 48.4586 4.33391 49.2354 5.38898C49.4248 5.6459 49.4991 6.08178 49.4408 6.40365C49.0124 8.80824 48.6466 11.2172 48.5679 13.6607C48.5665 13.7199 48.5679 13.7791 48.5679 13.8383C48.5577 15.7954 49.1377 15.5948 50.4624 15.0911C52.8538 14.1832 55.2219 13.209 57.6002 12.265C58.3551 11.9648 59.2761 12.2376 59.8066 12.8467C60.1782 13.2754 60.5848 13.6853 61.0278 14.0403C61.7433 14.6119 61.7695 15.1834 61.0496 15.7348C57.37 18.5522 53.6932 21.3724 50.0165 24.1942C49.9815 24.2201 49.9669 24.2721 49.9261 24.3428C61.328 30.7079 72.0799 38.0776 83.0431 45.2986C81.8598 45.3491 79.0429 44.5047 78.2923 43.7787C77.4442 42.9604 76.4664 42.6284 75.3224 42.4451C73.9467 42.2257 72.5652 41.9039 71.2551 41.4377C68.9715 40.6265 66.736 39.6797 64.4903 38.7675C63.8637 38.5135 63.2793 38.1598 62.6614 37.8798C60.0703 36.7093 57.4647 35.5676 54.8809 34.3826C52.6702 33.3694 50.4814 32.3129 48.2823 31.278C48.1992 31.2391 48.1074 31.2232 47.9748 31.1828C47.8524 32.3259 47.7358 33.4344 47.6134 34.5429C47.319 37.213 47.0319 39.8846 46.7186 42.5534C46.6137 43.4468 46.5292 44.3604 46.2581 45.2076C46.1488 45.5497 45.5936 45.8615 45.1826 45.9712C44.5706 46.1328 43.7982 45.6363 43.6889 45.0113C43.4907 43.8783 43.3639 42.7294 43.2838 41.582C43.09 38.8296 42.9879 36.0713 42.7446 33.3232C42.6761 32.5424 42.2782 31.7818 41.9751 31.0341C41.742 30.4597 41.2509 30.3038 40.7335 30.6401C38.5563 32.0589 35.8793 32.616 33.9804 34.5226C33.584 34.9196 33.0521 35.1837 32.5829 35.5084C32.5333 35.4608 32.4838 35.4146 32.4342 35.367C32.6965 35.0625 32.9268 34.7233 33.2255 34.4563C35.1827 32.7069 36.9737 30.8349 38.1424 28.4462C38.412 27.8949 38.8755 27.4373 39.25 26.9365C39.6362 26.4183 39.5269 25.9579 39.0999 25.5177C38.259 24.6503 37.7723 24.6113 36.6021 24.9649C35.7627 25.2189 34.8533 25.3156 33.9702 25.3373C33.3567 25.3532 32.8189 25.0197 32.561 24.3818C32.2273 23.5591 31.9577 22.6888 32.51 21.9123C33.2489 20.8731 34.3695 20.5873 35.6053 20.785C35.9448 20.8399 36.2582 21.0318 36.5933 21.1329C37.1573 21.3017 37.6091 21.0708 38.0594 20.7475C38.38 20.518 38.7487 20.3289 39.1232 20.2048C40.4901 19.7487 41.8717 19.3287 43.3508 18.8639ZM41.0891 23.9488C41.5758 24.3024 42.032 24.8134 42.2083 24.7311C43.0375 24.3457 43.8113 23.8189 44.3359 22.8057C43.0856 22.8201 42.2098 23.3181 41.0891 23.9488Z" fill="#F6F7EB"/>
<path d="M93.2268 21.1719C94.024 21.3956 94.5763 22.123 94.601 23.1319C94.6462 24.9086 94.6637 26.6854 94.6419 28.4621C94.6346 29.1059 94.7861 29.5461 95.5293 29.6601C95.4944 30.1104 95.4608 30.5304 95.4288 30.9432C94.2294 31.1713 93.5737 30.8999 92.9937 30.044C92.0493 30.3919 91.1633 30.8451 90.2233 31.0385C88.581 31.3777 87.1805 30.5607 86.8453 29.2098C86.4096 27.4532 87.1149 25.9839 88.7792 25.5033C89.4422 25.3113 90.1578 25.2709 90.8529 25.2219C91.4985 25.1771 92.1513 25.2117 92.8406 25.2117C92.8406 24.5724 92.9062 24.0181 92.8246 23.4855C92.7241 22.8259 92.2548 22.3799 91.583 22.3684C90.6226 22.3525 89.6608 22.4492 88.7005 22.517C88.444 22.5358 88.1933 22.6253 87.8975 22.6931C87.7693 22.224 87.6527 21.7968 87.5084 21.2686C88.2239 21.0954 88.8914 20.9323 89.5603 20.7706C89.6229 20.85 89.6856 20.9294 89.7483 21.0073C89.8299 20.925 89.9115 20.8428 89.9931 20.7591C90.1388 20.7547 90.2845 20.749 90.4317 20.7446C90.5702 20.8298 90.7028 20.977 90.8485 20.9914C91.6398 21.0708 92.4341 21.1156 93.2268 21.1719ZM92.8771 26.3246C91.8336 26.3996 90.8704 26.4227 89.9217 26.5526C89.2717 26.6406 88.7486 27.0116 88.5475 27.6842C88.2443 28.7017 88.8972 29.689 89.9654 29.5793C90.8981 29.484 91.8803 29.2026 92.6672 28.7234C92.9791 28.5329 92.8246 27.5875 92.8756 26.9856C92.8887 26.8211 92.8771 26.6551 92.8771 26.3246Z" fill="#F6F7EB"/>
<path d="M79.942 21.1807C80.7843 21.5271 81.1108 22.1925 81.1239 23.0527C81.07 23.1552 80.9709 23.2562 80.9709 23.3587C80.9607 25.0561 80.9563 26.7549 80.9723 28.4522C80.9738 28.5792 81.1297 28.7034 81.2128 28.8289C81.4693 29.1595 81.7243 29.4914 81.9808 29.8219C82.0362 29.7931 82.093 29.7628 82.1484 29.7339C82.0988 30.1568 82.0478 30.5782 81.9954 31.0199C80.9476 31.0748 80.0207 30.9737 79.6069 30.0341C78.68 30.3747 77.7911 30.8005 76.854 31.0271C75.1854 31.4298 73.7281 30.5725 73.3988 29.1161C72.9864 27.2903 73.7704 25.8917 75.5323 25.4559C76.2274 25.2841 76.9648 25.2682 77.6861 25.222C78.2385 25.186 78.7966 25.2148 79.5296 25.2148C79.4495 24.4657 79.5048 23.7426 79.2571 23.1451C79.1055 22.7785 78.4964 22.4003 78.0752 22.3801C76.905 22.3267 75.7275 22.4595 74.4262 22.5259C74.3883 22.3368 74.3183 21.9789 74.2469 21.6195C74.3577 21.5314 74.4597 21.3784 74.5806 21.3626C75.7334 21.2168 76.889 21.097 78.0432 20.9555C78.1481 20.9426 78.2385 20.8256 78.3361 20.7578C78.5314 20.7722 78.7266 20.7881 78.9234 20.8026C78.9773 20.9166 79.0327 21.032 79.0866 21.1461C79.177 21.0681 79.2658 20.9887 79.3562 20.9108C79.4538 20.9541 79.5529 20.9988 79.6506 21.0421C79.7468 21.0883 79.8444 21.1345 79.942 21.1807ZM79.467 26.3897C79.0225 26.3897 78.68 26.3522 78.3478 26.3969C77.5215 26.5095 76.666 26.5571 75.8878 26.8241C75.1519 27.0767 74.9217 27.8143 75.1534 28.6442C75.3384 29.3081 75.8601 29.692 76.5116 29.578C77.4209 29.4207 78.3055 29.106 79.1886 28.8217C79.3154 28.7813 79.4466 28.5388 79.4538 28.3844C79.4844 27.745 79.467 27.1027 79.467 26.3897Z" fill="#F6F7EB"/>
<path d="M103.544 22.191C103.549 22.279 103.552 22.3685 103.556 22.4565C103.553 24.4382 103.536 26.4199 103.565 28.4002C103.569 28.6845 103.799 28.9645 103.925 29.2474C104.168 29.3975 104.41 29.5476 104.696 29.7237C104.696 30.099 104.696 30.5219 104.696 30.9361C103.543 31.193 102.807 30.9087 102.147 29.9215C101.931 30.0514 101.712 30.1827 101.494 30.314C100.477 30.9217 99.4143 31.284 98.1931 31.0357C96.8743 30.7673 96.1223 30.0268 95.9707 28.748C95.8002 27.3076 96.3511 26.1183 97.5738 25.6795C98.352 25.3995 99.2147 25.3187 100.048 25.2292C100.691 25.1599 101.345 25.2147 102.065 25.2147C102.065 24.5956 102.116 24.0456 102.052 23.5102C101.976 22.8722 101.548 22.4046 100.908 22.3901C99.8777 22.3671 98.8431 22.4739 97.8113 22.5417C97.6044 22.5547 97.4018 22.6427 97.055 22.7322C97.2255 22.165 96.3598 21.7089 97.1424 21.2066C97.2284 21.2398 97.3173 21.3062 97.4018 21.3004C98.6012 21.2182 99.7991 21.1243 100.997 21.0406C101.316 21.019 101.637 21.0233 101.957 21.0146C102.052 21.0276 102.145 21.0392 102.24 21.0522C102.287 21.0579 102.332 21.0637 102.378 21.0695C102.724 21.3841 103.069 21.6988 103.415 22.0149C103.457 22.0712 103.501 22.1318 103.544 22.191ZM102.08 26.3824C101.807 26.3824 101.637 26.3651 101.471 26.3853C100.517 26.4979 99.5397 26.5253 98.6201 26.7678C97.9089 26.9554 97.6 27.7666 97.7516 28.4724C97.9133 29.2214 98.3738 29.679 99.2045 29.5707C100.093 29.4553 100.955 29.1089 101.816 28.8274C101.938 28.787 102.059 28.5416 102.067 28.3858C102.096 27.7435 102.08 27.0997 102.08 26.3824Z" fill="#F6F7EB"/>
<path d="M82.9786 16.0438C83.4464 15.875 83.9156 15.7075 84.4621 15.5112C84.4621 15.9154 84.4621 16.243 84.4621 16.5706C84.4621 20.368 84.4665 24.1655 84.4578 27.9629C84.4563 28.6196 84.5583 29.2056 85.1806 29.5751C85.4837 29.7122 85.7868 29.8507 86.1409 30.011C85.9937 30.2794 86.753 30.9506 85.8611 30.9535C84.9955 30.9563 84.0497 30.8697 83.4697 30.0037C83.4143 29.92 83.2147 29.9301 83.0821 29.8969C83.0821 29.8969 83.085 29.894 83.085 29.8926C82.964 29.3456 82.8416 28.7986 82.7207 28.253C82.7178 24.3069 82.7163 20.3608 82.7134 16.4162C82.8023 16.2935 82.8912 16.1679 82.9786 16.0438Z" fill="#F6F7EB"/>
<path d="M66.8335 25.5145C68.0066 24.0769 69.1637 22.6278 70.3703 21.2177C70.5481 21.0098 70.9489 20.9449 71.2593 20.9045C71.66 20.8525 72.0739 20.8915 72.6219 20.8915C72.0841 21.5713 71.6251 22.1645 71.15 22.7476C70.5102 23.5328 69.8792 24.3266 69.2074 25.0844C68.8679 25.4668 68.8795 25.7425 69.1987 26.1322C69.7933 26.8582 70.2712 27.6852 70.9095 28.3665C71.4415 28.9337 72.1322 29.3552 72.8507 29.9181C72.7938 30.2053 72.7078 30.6426 72.6131 31.1218C71.4342 31.0626 70.4753 30.5936 69.7699 29.7232C68.7382 28.4516 67.7778 27.1238 66.7854 25.819C66.8014 25.718 66.8175 25.6169 66.8335 25.5145Z" fill="#F6F7EB"/>
<path d="M105.738 30.7078C105.736 27.5324 105.736 24.3571 105.735 21.1818C106.21 21.1818 106.685 21.1818 107.048 21.1818C107.22 21.4776 107.343 21.6898 107.467 21.902C107.491 22.0131 107.513 22.1257 107.559 22.3523C108.406 21.4805 109.28 20.7921 110.561 20.9133C110.561 21.4214 110.561 21.9121 110.561 22.4779C109.258 22.3682 108.238 22.8849 107.482 23.9241C107.384 24.1103 107.205 24.2965 107.202 24.4827C107.18 26.271 107.18 28.0592 107.202 29.8461C107.205 30.0366 107.374 30.2271 107.467 30.4162C107.469 30.5129 107.47 30.6096 107.472 30.7063C106.895 30.7078 106.316 30.7078 105.738 30.7078Z" fill="#F6F7EB"/>
<path d="M66.8335 25.5147C66.8175 25.6172 66.8029 25.7197 66.7869 25.8222C66.2448 25.6764 66.4546 26.1036 66.4517 26.297C66.4342 27.6653 66.4415 29.035 66.4415 30.4033C66.4415 30.5693 66.4415 30.7353 66.4415 30.9446C65.8644 30.9446 65.3223 30.9446 64.6869 30.9446C64.6753 30.6977 64.6549 30.4452 64.6549 30.1926C64.6534 26.6146 64.6709 23.0351 64.6374 19.4571C64.6315 18.8292 64.7744 18.4756 65.4243 18.3616C65.7449 18.3053 66.048 18.1566 66.4473 18.0181C66.4473 20.6031 66.4473 23.126 66.4473 25.7615C66.6455 25.6331 66.7388 25.5739 66.8335 25.5147ZM66.2375 30.5693C66.2375 26.7401 66.2419 22.9701 66.2331 19.2002C66.2317 18.7498 65.7653 18.4366 65.3923 18.6834C65.1547 18.8408 64.9551 19.2406 64.9522 19.5321C64.9215 22.7998 64.9288 26.0675 64.9347 29.3352C64.9361 30.7439 64.7685 30.5433 66.2375 30.5693Z" fill="#F6F7EB"/>
<path d="M113.119 30.952C112.507 30.952 111.959 30.952 111.379 30.952C111.379 27.6136 111.379 24.3098 111.379 20.9497C111.941 20.9497 112.505 20.9497 113.119 20.9497C113.119 24.2622 113.119 27.5818 113.119 30.952ZM111.564 25.9465C111.564 27.3162 111.583 28.686 111.554 30.0557C111.543 30.5609 111.712 30.7211 112.221 30.7225C112.734 30.724 112.887 30.5522 112.884 30.0528C112.865 27.3134 112.864 24.5739 112.884 21.8345C112.888 21.3307 112.725 21.1691 112.218 21.1677C111.705 21.1662 111.545 21.338 111.555 21.8374C111.583 23.2056 111.564 24.5754 111.564 25.9465Z" fill="#F6F7EB"/>
<path d="M113.296 18.5191C113.291 19.1411 112.807 19.6665 112.234 19.6694C111.669 19.6737 111.207 19.1397 111.215 18.4916C111.223 17.8667 111.727 17.298 112.257 17.3153C112.785 17.3341 113.302 17.9316 113.296 18.5191Z" fill="#F6F7EB"/>
<path d="M83.0837 29.898C83.2164 29.9312 83.416 29.9211 83.4714 30.0048C84.0499 30.8694 84.9957 30.956 85.8628 30.9546C86.7532 30.9517 85.9954 30.2805 86.1426 30.0121C85.7885 29.8518 85.4854 29.7133 85.1822 29.5762C85.5407 29.6022 85.9007 29.6296 86.316 29.6599C86.4093 30.103 86.504 30.5605 86.6002 31.0152C84.9695 31.5218 83.7905 31.1379 83.0837 29.898Z" fill="#F6F7EB"/>
<path d="M103.925 29.2469C103.799 28.964 103.569 28.684 103.565 28.3997C103.536 26.4194 103.553 24.4378 103.556 22.4561C103.654 22.8039 103.83 23.1517 103.837 23.501C103.866 25.106 103.846 26.7124 103.852 28.3189C103.853 28.6292 103.9 28.9381 103.925 29.2469Z" fill="#F6F7EB"/>
<path d="M107.469 30.4164C107.377 30.2259 107.206 30.0368 107.203 29.8463C107.183 28.058 107.183 26.2697 107.203 24.4829C107.206 24.2953 107.385 24.1105 107.483 23.9243C107.479 26.0879 107.473 28.2529 107.469 30.4164Z" fill="#F6F7EB"/>
<path d="M81.2129 28.8289C81.1284 28.7034 80.9724 28.5778 80.9724 28.4522C80.9579 26.7549 80.9608 25.0561 80.971 23.3587C80.971 23.2562 81.0715 23.1552 81.124 23.0527C81.1604 23.5233 81.2275 23.9923 81.2289 24.4629C81.2377 25.9177 81.2202 27.3726 81.2129 28.8289Z" fill="#F6F7EB"/>
<path d="M101.956 21.0118C101.635 21.019 101.315 21.0146 100.995 21.0377C99.7975 21.1214 98.5996 21.2167 97.4003 21.2975C97.3172 21.3033 97.2283 21.2369 97.1409 21.2037C98.7279 20.6885 100.325 20.4359 101.956 21.0118Z" fill="#F6F7EB"/>
<path d="M31.5043 37.3302C31.2376 36.9968 30.9739 36.7226 31.0001 36.6923C31.242 36.4094 31.5262 36.1582 31.8278 35.9374C31.8468 35.923 32.2621 36.3083 32.2271 36.3747C32.0727 36.6749 31.822 36.9304 31.5043 37.3302Z" fill="#F6F7EB"/>
<path d="M78.336 20.7579C78.2384 20.8257 78.148 20.9426 78.0431 20.9556C76.8904 21.0971 75.7333 21.2154 74.5805 21.3627C74.4596 21.3785 74.3576 21.5301 74.2468 21.6196C74.359 21.468 74.4406 21.2371 74.5907 21.1794C75.7974 20.7074 77.0579 20.6395 78.336 20.7579Z" fill="#F6F7EB"/>
<path d="M93.2267 21.172C92.434 21.1157 91.6383 21.071 90.847 20.9931C90.7012 20.9786 90.5686 20.8328 90.4302 20.7462C91.3876 20.7347 92.3698 20.5485 93.2267 21.172Z" fill="#F6F7EB"/>
<path d="M107.469 21.9008C107.345 21.6887 107.221 21.4765 107.049 21.1806C106.686 21.1806 106.211 21.1806 105.736 21.1806C105.803 21.0868 105.866 20.9136 105.935 20.9107C106.435 20.8876 106.938 20.8977 107.469 20.8977C107.469 21.2874 107.469 21.5948 107.469 21.9008Z" fill="#F6F7EB"/>
<path d="M105.738 30.708C106.316 30.708 106.895 30.708 107.472 30.708C106.992 31.3085 106.351 30.8567 105.794 30.9519C105.79 30.9519 105.758 30.7917 105.738 30.708Z" fill="#F6F7EB"/>
<path d="M82.7224 28.2544C82.8434 28.8014 82.9658 29.347 83.0867 29.894C82.9658 29.3484 82.8434 28.8014 82.7224 28.2544Z" fill="#F6F7EB"/>
<path d="M79.3545 20.9105C79.2641 20.9884 79.1752 21.0678 79.0849 21.1458C79.0309 21.0317 78.9756 20.9163 78.9216 20.8022C79.0674 20.8383 79.2102 20.8744 79.3545 20.9105Z" fill="#F6F7EB"/>
<path d="M89.9946 20.7617C89.913 20.844 89.8314 20.9263 89.7498 21.01C89.6871 20.9306 89.6244 20.8512 89.5618 20.7733C89.7046 20.7689 89.8488 20.7646 89.9946 20.7617Z" fill="#F6F7EB"/>
<path d="M82.9789 16.0435C82.8914 16.1676 82.8025 16.2932 82.7151 16.4173C82.8025 16.2932 82.8914 16.1676 82.9789 16.0435Z" fill="#F6F7EB"/>
<path d="M79.9418 21.1806C79.8442 21.1344 79.7466 21.0882 79.6489 21.042C79.7466 21.0882 79.8442 21.1344 79.9418 21.1806Z" fill="#F6F7EB"/>
<path d="M103.544 22.1907C103.501 22.1315 103.457 22.0709 103.413 22.0117C103.457 22.0709 103.501 22.1315 103.544 22.1907Z" fill="#F6F7EB"/>
<path d="M102.377 21.0661C102.33 21.0604 102.285 21.0546 102.238 21.0488C102.285 21.0546 102.33 21.0604 102.377 21.0661Z" fill="#F6F7EB"/>
<path d="M66.2376 30.5693C64.7686 30.5448 64.9362 30.744 64.9333 29.3353C64.926 26.0676 64.9202 22.7999 64.9508 19.5321C64.9537 19.2392 65.1534 18.8393 65.3909 18.6835C65.7654 18.4367 66.2318 18.7499 66.2318 19.2002C66.2405 22.9702 66.2376 26.7402 66.2376 30.5693Z" fill="#F6F7EB"/>
<path d="M111.564 25.9464C111.564 24.5766 111.581 23.2069 111.554 21.8372C111.543 21.3378 111.704 21.166 112.217 21.1675C112.725 21.1689 112.887 21.3291 112.883 21.8343C112.862 24.5738 112.862 27.3132 112.883 30.0526C112.886 30.552 112.733 30.7238 112.22 30.7223C111.712 30.7209 111.542 30.5607 111.552 30.0555C111.583 28.6858 111.564 27.3161 111.564 25.9464Z" fill="#F6F7EB"/>
</svg>
