<svg width="144" height="48" viewBox="0 0 144 48" fill="none" xmlns="http://www.w3.org/2000/svg">
<path d="M64.5918 34.8064C65.0044 35.0627 65.4839 35.1906 65.9694 35.1737C66.7347 35.1737 67.3776 34.7758 67.3776 33.888C67.3776 32.6635 64.5 32.5105 64.5 30.888C64.5 29.8778 65.4184 29.2349 66.4898 29.2349C66.7959 29.2349 67.2857 29.2962 67.7143 29.4492L67.6224 30.0002C67.3469 29.8472 66.9184 29.786 66.4898 29.786C65.8469 29.786 65.1429 30.0615 65.1429 30.8574C65.1429 32.1125 67.9898 32.1125 67.9898 33.9492C67.9898 35.2043 66.9184 35.7247 65.9388 35.7247C65.3265 35.7247 64.8673 35.6023 64.5306 35.4186L64.5918 34.8064V34.8064ZM72.2449 35.4492C71.8469 35.6329 71.3265 35.7247 70.9286 35.7247C69.398 35.7247 68.8469 34.6839 68.8469 33.3064C68.8469 31.9288 69.6122 30.9186 70.7755 30.9186C72.0612 30.9186 72.6122 31.9594 72.6122 33.1839V33.49H69.4592C69.4592 34.439 69.9796 35.2349 70.9898 35.2349C71.3878 35.2349 71.9694 35.0513 72.2449 34.8982V35.4492V35.4492ZM71.9694 33.0002C71.9694 32.2043 71.6633 31.4084 70.8061 31.4084C69.9796 31.4084 69.4592 32.2349 69.4592 33.0002H71.9694V33.0002ZM76.6531 31.6533C76.3469 31.5002 75.9796 31.4084 75.6735 31.4084C74.5714 31.4084 73.9286 32.2043 73.9286 33.3064C73.9286 34.3472 74.5408 35.2349 75.6123 35.2349C75.949 35.2349 76.2857 35.1431 76.6225 35.0207L76.6837 35.5411C76.3097 35.6701 75.9159 35.7323 75.5204 35.7247C74.051 35.7247 73.3163 34.5921 73.3163 33.3064C73.3163 31.9288 74.2347 30.9186 75.5816 30.9186C76.1327 30.9186 76.5 31.0411 76.6837 31.1023L76.6531 31.6533V31.6533ZM81.1837 34.5309C81.1837 34.8676 81.1837 35.2349 81.2449 35.6023H80.6939V34.7758C80.4796 35.2043 80.1429 35.6941 79.1939 35.6941C78.0612 35.6941 77.6633 34.9594 77.6633 33.9492V31.0411H78.2143V33.7962C78.2143 34.6839 78.5204 35.2349 79.2857 35.2349C80.3265 35.2349 80.6327 34.3166 80.6327 33.5513V31.0411H81.2143V34.5309H81.1837ZM82.6225 32.0513L82.5918 31.0411H83.1429V31.9288H83.1735C83.3878 31.4084 83.7857 30.9186 84.3367 30.9186L84.7347 30.9798V31.5921C84.6123 31.5309 84.4592 31.5309 84.3367 31.5309C83.4184 31.5309 83.2041 32.5105 83.2041 33.3676V35.6023H82.6225V32.0513V32.0513ZM86.1735 29.8166H85.6225V29.0513H86.1735V29.8166ZM85.6225 31.0411H86.1735V35.6329H85.6225V31.0411ZM89.5714 31.5309H88.5306V34.4696C88.5306 34.8982 88.6837 35.2349 89.1429 35.2349C89.3572 35.2349 89.5102 35.1737 89.6633 35.1125L89.6939 35.6023C89.5714 35.6329 89.2959 35.7247 89.0204 35.7247C88.0102 35.7247 87.9796 35.0207 87.9796 34.1941V31.5309H87.0612V31.0411H87.9796V29.939L88.5306 29.7247V31.0411H89.5714V31.5309ZM91.1633 29.8166H90.5816V29.0513H91.1633V29.8166ZM90.5816 31.0411H91.1633V35.6329H90.5816V31.0411ZM95.6327 35.4492C95.2347 35.6329 94.7143 35.7247 94.3163 35.7247C92.7857 35.7247 92.2347 34.6839 92.2347 33.3064C92.2347 31.9288 93 30.9186 94.1633 30.9186C95.449 30.9186 96 31.9594 96 33.1839V33.49H92.8163C92.8163 34.439 93.3367 35.2349 94.347 35.2349C94.7449 35.2349 95.3265 35.0513 95.6021 34.8982V35.4492H95.6327ZM95.3572 33.0002C95.3572 32.2043 95.051 31.4084 94.1939 31.4084C93.3674 31.4084 92.847 32.2349 92.847 33.0002H95.3572V33.0002ZM96.7041 34.9288C97.0408 35.1125 97.4694 35.2349 97.898 35.2349C98.449 35.2349 98.9082 34.9288 98.9082 34.4084C98.9082 33.337 96.7041 33.49 96.7041 32.1737C96.7041 31.2554 97.4388 30.9492 98.2041 30.9492C98.449 30.9492 98.9388 30.9798 99.3367 31.1329L99.2449 31.6533C98.9388 31.5309 98.5408 31.439 98.2347 31.439C97.6531 31.439 97.2551 31.6227 97.2551 32.2043C97.2551 33.0615 99.4898 32.939 99.4898 34.439C99.4898 35.4186 98.5714 35.7554 97.898 35.7554C97.4694 35.7554 97.0102 35.6941 96.6123 35.5411L96.6735 34.9594L96.7041 34.9288Z" fill="#F6F7EB"/>
<path d="M87.7964 18.5508H85.776V16.1018H87.8577V13.7753L91.3475 12.5508V16.1018H93.7964V18.5508H91.3475V22.3467C91.3475 23.5712 91.623 24.214 92.7556 24.214C93.0282 24.214 93.341 24.1539 93.6289 24.0984C93.6966 24.0854 93.7629 24.0726 93.8271 24.061L93.9495 26.3569C93.276 26.4487 92.6026 26.5406 91.7454 26.5406C88.5617 26.5406 87.7964 25.163 87.7964 22.714V18.5508Z" fill="#F6F7EB"/>
<path d="M109.715 26.3263H106.194V13.7753L109.715 12.5508V20.3875H109.745L112.684 16.1018H116.572L113.021 20.7855L116.878 26.3263H112.592L109.745 21.2447H109.715V26.3263Z" fill="#F6F7EB"/>
<path d="M68.327 26.3263H64.8066V13.7447L68.327 12.5508V20.3875H68.3883L71.327 16.1018H75.1842L71.6332 20.7855L75.4903 26.3263H71.2046L68.3883 21.2447H68.327V26.3263Z" fill="#F6F7EB"/>
<path fill-rule="evenodd" clip-rule="evenodd" d="M104.725 23.9079C104.725 24.7345 104.756 25.561 104.939 26.3569V26.3875H101.633C101.633 26.1081 101.61 25.8365 101.586 25.5688C101.564 25.3087 101.541 25.0522 101.541 24.7957C100.715 26.0508 99.7352 26.6324 98.2658 26.6324C96.2148 26.6324 94.3781 25.6222 94.3781 23.3875C94.3781 20.2038 97.8066 19.8365 99.7352 19.8365C100.286 19.8365 100.929 19.8977 101.388 19.9896C101.358 18.5814 100.317 18.1834 99.0311 18.1834C97.8792 18.1616 96.7408 18.4356 95.725 18.9794L95.6638 16.5304C96.9495 16.0406 98.2964 15.8263 99.827 15.8263C102.429 15.8263 104.725 16.9283 104.725 20.112V23.9079ZM99.8577 21.7038C98.6638 21.7038 97.7148 22.1018 97.7148 23.0814C97.7148 23.8161 98.3577 24.214 99.1842 24.214C100.531 24.214 101.388 22.9896 101.388 21.7651L99.8577 21.7038Z" fill="#F6F7EB"/>
<path fill-rule="evenodd" clip-rule="evenodd" d="M86.1113 21.2146C86.1113 24.5819 83.5398 26.5411 80.1725 26.5411C76.7746 26.5411 74.2031 24.5819 74.2031 21.2146C74.2031 17.8166 76.8052 15.8574 80.1725 15.8574C83.5398 15.8574 86.1113 17.8472 86.1113 21.2146ZM77.846 21.2146C77.846 22.7146 78.5194 24.0921 80.1725 24.0921C81.795 24.0921 82.4684 22.7452 82.4684 21.2146C82.4684 19.684 81.795 18.337 80.1725 18.337C78.5194 18.337 77.846 19.684 77.846 21.2146Z" fill="#F6F7EB"/>
<path fill-rule="evenodd" clip-rule="evenodd" d="M44.3877 9C34.8426 9 27.1014 15.6652 27.0918 23.8928C27.0918 23.8877 27.0918 23.8826 27.0918 23.8776V23.9082C27.0918 23.9031 27.0918 23.8979 27.0918 23.8928C27.1014 32.0899 34.8426 38.7551 44.3877 38.7551C53.9693 38.7551 61.7142 32.0816 61.7142 23.8776C61.7142 15.6429 53.9693 9 44.3877 9ZM42.3066 13.8359L46.2862 12.5195V18.0828C47.4933 16.9515 48.9537 16.1634 50.9082 16.1634C54.6429 16.1634 56.7245 19.194 57.3367 22.2859H55.6225C55.2552 21.7762 54.7725 21.3607 54.2138 21.0734C53.6551 20.7861 53.0364 20.6351 52.4082 20.6328C49.6451 20.6328 47.9374 23.0142 46.5473 24.9527C46.459 25.0758 46.3721 25.197 46.2862 25.3158V34.2542L42.3066 35.6012V29.9877C41.1803 30.9667 39.8664 31.6532 38.0816 31.6532C33.6122 31.6532 31.5 27.3369 31.5 23.694C31.5 20.2349 33.1531 16.1328 37.5 16.1328C39.398 16.1328 41.2041 17.2961 42.3061 18.5206V21.4593C41.3878 20.8471 39.3673 20.2349 38.0204 20.2349C35.2653 20.1736 32.8163 21.3981 32.8776 24.1226C32.9082 25.9593 34.7755 27.2451 36.6122 27.2451C39.2605 27.2451 40.9286 25.0201 42.3066 23.1326V13.8359ZM57.398 25.4389C57.0306 28.5614 55.2857 31.6838 51.4898 31.6838C49.2551 31.6838 47.5102 30.1532 46.3163 28.3165V26.1736C46.5065 26.2649 46.6943 26.3571 46.8806 26.4486C48.1944 27.0938 49.4375 27.7042 50.9388 27.7042C53.051 27.7655 54.9184 26.9695 55.7143 25.4389H57.398Z" fill="#F6F7EB"/>
</svg>
