<svg width="144" height="48" viewBox="0 0 144 48" fill="none" xmlns="http://www.w3.org/2000/svg">
<path d="M64.5918 34.8064C65.0044 35.0627 65.4839 35.1906 65.9694 35.1737C66.7347 35.1737 67.3776 34.7758 67.3776 33.888C67.3776 32.6635 64.5 32.5105 64.5 30.888C64.5 29.8778 65.4184 29.2349 66.4898 29.2349C66.7959 29.2349 67.2857 29.2962 67.7143 29.4492L67.6224 30.0002C67.3469 29.8472 66.9184 29.786 66.4898 29.786C65.8469 29.786 65.1429 30.0615 65.1429 30.8574C65.1429 32.1125 67.9898 32.1125 67.9898 33.9492C67.9898 35.2043 66.9184 35.7247 65.9388 35.7247C65.3265 35.7247 64.8673 35.6023 64.5306 35.4186L64.5918 34.8064ZM72.2449 35.4492C71.8469 35.6329 71.3265 35.7247 70.9286 35.7247C69.398 35.7247 68.8469 34.6839 68.8469 33.3064C68.8469 31.9288 69.6122 30.9186 70.7755 30.9186C72.0612 30.9186 72.6122 31.9594 72.6122 33.1839V33.49H69.4592C69.4592 34.439 69.9796 35.2349 70.9898 35.2349C71.3878 35.2349 71.9694 35.0513 72.2449 34.8982V35.4492ZM71.9694 33.0002C71.9694 32.2043 71.6633 31.4084 70.8061 31.4084C69.9796 31.4084 69.4592 32.2349 69.4592 33.0002H71.9694ZM76.6531 31.6533C76.3469 31.5002 75.9796 31.4084 75.6735 31.4084C74.5714 31.4084 73.9286 32.2043 73.9286 33.3064C73.9286 34.3472 74.5408 35.2349 75.6123 35.2349C75.949 35.2349 76.2857 35.1431 76.6225 35.0207L76.6837 35.5411C76.3097 35.6701 75.9159 35.7323 75.5204 35.7247C74.051 35.7247 73.3163 34.5921 73.3163 33.3064C73.3163 31.9288 74.2347 30.9186 75.5816 30.9186C76.1327 30.9186 76.5 31.0411 76.6837 31.1023L76.6531 31.6533ZM81.1837 34.5309C81.1837 34.8676 81.1837 35.2349 81.2449 35.6023H80.6939V34.7758C80.4796 35.2043 80.1429 35.6941 79.1939 35.6941C78.0612 35.6941 77.6633 34.9594 77.6633 33.9492V31.0411H78.2143V33.7962C78.2143 34.6839 78.5204 35.2349 79.2857 35.2349C80.3265 35.2349 80.6327 34.3166 80.6327 33.5513V31.0411H81.2143V34.5309H81.1837ZM82.6225 32.0513L82.5918 31.0411H83.1429V31.9288H83.1735C83.3878 31.4084 83.7857 30.9186 84.3367 30.9186L84.7347 30.9798V31.5921C84.6123 31.5309 84.4592 31.5309 84.3367 31.5309C83.4184 31.5309 83.2041 32.5105 83.2041 33.3676V35.6023H82.6225V32.0513ZM86.1735 29.8166H85.6225V29.0513H86.1735V29.8166ZM85.6225 31.0411H86.1735V35.6329H85.6225V31.0411ZM89.5714 31.5309H88.5306V34.4696C88.5306 34.8982 88.6837 35.2349 89.1429 35.2349C89.3572 35.2349 89.5102 35.1737 89.6633 35.1125L89.6939 35.6023C89.5714 35.6329 89.2959 35.7247 89.0204 35.7247C88.0102 35.7247 87.9796 35.0207 87.9796 34.1941V31.5309H87.0612V31.0411H87.9796V29.939L88.5306 29.7247V31.0411H89.5714V31.5309ZM91.1633 29.8166H90.5816V29.0513H91.1633V29.8166ZM90.5816 31.0411H91.1633V35.6329H90.5816V31.0411ZM95.6327 35.4492C95.2347 35.6329 94.7143 35.7247 94.3163 35.7247C92.7857 35.7247 92.2347 34.6839 92.2347 33.3064C92.2347 31.9288 93 30.9186 94.1633 30.9186C95.449 30.9186 96 31.9594 96 33.1839V33.49H92.8163C92.8163 34.439 93.3367 35.2349 94.347 35.2349C94.7449 35.2349 95.3265 35.0513 95.6021 34.8982V35.4492H95.6327ZM95.3572 33.0002C95.3572 32.2043 95.051 31.4084 94.1939 31.4084C93.3674 31.4084 92.847 32.2349 92.847 33.0002H95.3572ZM96.7041 34.9288C97.0408 35.1125 97.4694 35.2349 97.898 35.2349C98.449 35.2349 98.9082 34.9288 98.9082 34.4084C98.9082 33.337 96.7041 33.49 96.7041 32.1737C96.7041 31.2554 97.4388 30.9492 98.2041 30.9492C98.449 30.9492 98.9388 30.9798 99.3368 31.1329L99.2449 31.6533C98.9388 31.5309 98.5408 31.439 98.2347 31.439C97.6531 31.439 97.2551 31.6227 97.2551 32.2043C97.2551 33.0615 99.4898 32.939 99.4898 34.439C99.4898 35.4186 98.5714 35.7554 97.898 35.7554C97.4694 35.7554 97.0102 35.6941 96.6123 35.5411L96.6735 34.9594L96.7041 34.9288Z" fill="#F6F7EB"/>
<path d="M80.1734 26.5406C83.5407 26.5406 86.1121 24.5814 86.1121 21.2141C86.1121 17.8467 83.5407 15.8569 80.1734 15.8569C76.806 15.8569 74.204 17.8161 74.204 21.2141C74.204 24.5814 76.7754 26.5406 80.1734 26.5406ZM80.1734 24.0916C78.5203 24.0916 77.8468 22.7141 77.8468 21.2141C77.8468 19.6835 78.5203 18.3365 80.1734 18.3365C81.7958 18.3365 82.4693 19.6835 82.4693 21.2141C82.4693 22.7447 81.7958 24.0916 80.1734 24.0916Z" fill="#F6F7EB"/>
<path d="M85.7754 18.5513H87.7958V22.7145C87.7958 25.1635 88.5611 26.5411 91.7448 26.5411C92.602 26.5411 93.2754 26.4492 93.9489 26.3574L93.8264 24.0615C93.4897 24.1227 93.0917 24.2145 92.755 24.2145C91.6224 24.2145 91.3468 23.5717 91.3468 22.3472V18.5513H93.7958V16.1023H91.3468V12.5513L87.8571 13.7758V16.1023H85.7754V18.5513ZM106.194 26.3268H109.714V21.2451H109.745L112.592 26.3268H116.877L113.02 20.786L116.571 16.1023H112.684L109.745 20.388H109.714V12.5513L106.194 13.7758V26.3268ZM64.806 26.3268H68.3264V21.2451H68.3877L71.204 26.3268H75.4897L71.6326 20.786L75.1836 16.1023H71.3264L68.3877 20.388H68.3264V12.5513L64.806 13.7451V26.2962V26.3268ZM104.939 26.3574C104.755 25.5615 104.724 24.7349 104.724 23.9084V20.1125C104.724 16.9288 102.428 15.8268 99.8264 15.8268C98.2958 15.8268 96.9489 16.0411 95.6632 16.5309L95.7244 18.9798C96.7402 18.4361 97.8785 18.1621 99.0305 18.1839C100.316 18.1839 101.357 18.5819 101.388 19.99C100.928 19.8982 100.286 19.837 99.7346 19.837C97.806 19.837 94.3775 20.2043 94.3775 23.388C94.3775 25.6227 96.2142 26.6329 98.2652 26.6329C99.7346 26.6329 100.714 26.0513 101.541 24.7962C101.541 25.3166 101.633 25.837 101.633 26.388H104.939V26.3574ZM97.7142 23.0819C97.7142 22.1023 98.6632 21.7043 99.8571 21.7043L101.388 21.7656C101.388 22.99 100.531 24.2145 99.1836 24.2145C98.3571 24.2145 97.7142 23.8166 97.7142 23.0819Z" fill="#F6F7EB"/>
<path d="M27.0918 23.9082C27.0918 15.6735 34.8367 9 44.3877 9C53.9693 9 61.7142 15.6429 61.7142 23.8776C61.7142 32.0816 53.9693 38.7551 44.3877 38.7551C34.8367 38.7551 27.0918 32.0816 27.0918 23.8776" fill="#F6F7EB"/>
<path d="M42.306 13.8368L46.2856 12.5205V34.2552L42.306 35.6021V13.8368Z" fill="#131112"/>
<path d="M57.3978 25.4389C57.0305 28.5614 55.2856 31.6838 51.4897 31.6838C49.255 31.6838 47.5101 30.1532 46.3162 28.3165V26.1736C47.8468 26.9083 49.2244 27.7042 50.9387 27.7042C53.0509 27.7655 54.9182 26.9695 55.7142 25.4389H57.3978ZM44.6938 27.3981C42.9182 29.5104 41.2346 31.6532 38.0815 31.6532C33.6121 31.6532 31.4999 27.3369 31.4999 23.694C31.4999 20.2349 33.1529 16.1328 37.4999 16.1328C39.3978 16.1328 41.204 17.2961 42.306 18.5206V21.4593C41.3876 20.8471 39.3672 20.2349 38.0203 20.2349C35.2652 20.1736 32.8162 21.3981 32.8774 24.1226C32.908 25.9593 34.7754 27.2451 36.6121 27.2451C39.4591 27.2451 41.1733 24.6736 42.6121 22.7144L44.2958 20.4491C45.8876 18.2144 47.755 16.1634 50.908 16.1634C54.6427 16.1634 56.7244 19.194 57.3366 22.2859H55.6223C55.2551 21.7762 54.7724 21.3607 54.2137 21.0734C53.655 20.7861 53.0363 20.6351 52.408 20.6328C49.4693 20.6328 47.7244 23.3267 46.2856 25.3165L44.6631 27.3675" fill="#131112"/>
</svg>
