<?xml version="1.0" encoding="utf-8"?>
<!-- Generator: Adobe Illustrator 24.0.2, SVG Export Plug-In . SVG Version: 6.00 Build 0)  -->
<svg version="1.1" id="Layer_1" xmlns="http://www.w3.org/2000/svg" xmlns:xlink="http://www.w3.org/1999/xlink" x="0px" y="0px"
	 viewBox="0 0 5056.23 1080" style="enable-background:new 0 0 5056.23 1080;" xml:space="preserve">
<style type="text/css">
	.st0{fill:#FFFFFF;}
</style>
<g>
	<path class="st0" d="M29.35,559.63c0-15.65-0.36-31.32,0.06-46.96C33.86,344.11,137.1,194,290.07,133.26
		c56.38-22.39,114.9-30.99,175.22-26.77c40.41,2.83,79.49,12.07,117.24,27.04c11.39,4.52,23.4,7.49,35.11,11.22
		c114,36.25,196.81,108.89,249.78,215.6c34.88,70.27,48.89,145.31,41.42,223.07C894.63,731.36,823.8,844.4,694.66,919.76
		c-4.29,2.5-8.41,5.38-12.33,8.44c-55.46,43.31-117.74,71.69-187.46,81.25c-129.25,17.71-241.97-18.98-336.41-108.72
		C91.15,836.76,51.07,757.64,35.19,666.18c-5.21-30.01-6.67-60.19-5.71-90.57c0.17-5.32,0.02-10.65,0.02-15.98
		C29.45,559.63,29.4,559.63,29.35,559.63z M230.85,858.99c-0.33,0.51-0.66,1.03-0.99,1.54c0.29,0.11,0.59,0.23,0.88,0.34
		c0.01-0.62,0.03-1.23,0.04-1.85c-0.69-0.72-1.38-1.43-2.07-2.15c-4.64-4.15-9.65-7.96-13.86-12.5
		c-95.92-103.52-132.1-225.75-112.46-364.69c8.06-57.02,28.69-109.91,59.16-158.87c0.94-1.51,1.56-3.23,2.34-4.85
		c-0.56-0.42-1.12-0.84-1.69-1.25c-2.15,2.26-4.35,4.48-6.44,6.8c-51.45,57.11-83.74,123.67-97.59,199.15
		c-3.06,16.65-6.5,33.46-4.08,50.6c1.59,11.2,3.1,22.44,5.35,33.53c20.97,103.44,73.84,186.56,159.04,249
		c2.41,1.77,4.94,3.43,7.58,4.8c0.49,0.26,1.82-1.1,2.73-1.7c-0.45,0.48-0.91,0.97-1.36,1.45
		C228.58,858.53,229.75,858.74,230.85,858.99z M163.87,311.13c0.83,0,1.66,0.01,2.5,0.01c-0.78-0.02-1.56-0.03-2.25-0.03
		c0.13,0.95,0.25,1.9,0.38,2.85c0.42-0.35,0.83-0.7,1.25-1.05C165.12,312.32,164.5,311.73,163.87,311.13z M708.59,215.15
		c0.76-0.31,1.52-0.62,2.28-0.93c-0.79,0.37-1.57,0.74-2.36,1.11c-0.18-0.86-0.36-1.72-0.09-0.43
		C707.88,213.63,708.21,214.42,708.59,215.15z M775.52,827.95c5.74-5.88,11.99-11.35,17.15-17.7
		c85.92-105.7,113.82-225.57,83.5-357.87c-21.97-95.82-74.44-172.76-153.91-231c-2.73-2-5.6-3.83-8.4-5.73
		c-0.38,0.55-0.76,1.1-1.13,1.65c2,2.15,3.95,4.34,6,6.45c86.25,88.69,126.73,195.11,123.49,318.51
		c-0.32,12.31-0.37,24.65,0.06,36.95c1.26,36.47-1.96,72.5-9.82,108.13c-10.56,47.88-28.8,92.62-54.7,134.26
		c-1.18,1.89-1.4,4.38-2.07,6.59c-0.64,0.12-1.28,0.23-1.92,0.35c0.1,0.29,0.19,0.58,0.29,0.88
		C774.55,828.93,775.03,828.44,775.52,827.95z M119.31,547.23c-0.2,40.05,5.87,83.93,18.58,122.98
		C173.45,779.52,242,860.59,345.84,911.03c4.15,2.01,8.64,3.59,13.15,4.53c43.78,9.16,87.88,10.82,132.09,3.94
		c84.45-13.14,156.42-50.87,215.86-112.05c56.05-57.68,90.85-126.67,106.07-205.5c3.15-16.29,6.43-32.75,4.83-49.56
		c-5.93-62.01-24.72-119.96-58.17-172.45c-69.77-109.5-168.95-172.38-299.09-183.21c-56.91-4.73-112.12,5.05-165.16,26.53
		c-18.94,7.67-37.15,16.34-51.26,31.78c-4.72,5.16-9.97,9.83-14.73,14.95C156.69,348.11,121.22,441.02,119.31,547.23z M72.66,715.92
		c-0.62,0.3-1.24,0.6-1.86,0.9c0.72,2.47,1.36,4.96,2.18,7.4c22.61,67.06,60.25,124.23,112.99,171.41
		c103.75,92.84,250.69,120.82,379.67,72.35c2.18-0.82,4.21-2.05,6.31-3.08c-6.53-0.84-12.41,0.1-18.32,0.82
		c-6.28,0.76-12.57,1.51-18.87,1.94c-63.09,4.22-124.12-4.59-182.66-29.04c-3.98-1.66-8.06-3.19-12.22-4.28
		C225.22,904.12,140.29,835.77,81.97,733.3C78.72,727.58,75.75,721.71,72.66,715.92z M801.41,405.41c-0.33-1.75-0.49-3.56-1.03-5.25
		c-7.86-24.81-18.07-48.63-30.78-71.34c-40.17-71.81-96.62-126.67-170.63-163.01c-7.36-3.61-15.41-6.53-23.46-7.87
		c-17.04-2.85-34.23-5.24-51.46-6.41c-52.94-3.62-104.13,4.96-153.65,23.83c-2.63,1-5.13,2.34-7.69,3.53
		c90.18-14.57,176.15-2.78,257.07,39.74C700.44,261.01,759.77,324.54,801.41,405.41z M71,407.1c1.65-3.23,3.28-6.47,4.96-9.69
		c38.83-74.67,94.32-133.3,167.92-174.51c3.76-2.11,7.48-4.41,10.85-7.08c57.95-45.84,123.25-74.46,196.66-84.2
		c2.49-0.33,4.89-1.31,7.33-1.99C251.66,117.67,107.81,266.93,71,407.1z M799.94,718.63C729.69,846.7,624.21,924.1,478.69,945.05
		c59.78,4,117.07-5.49,171.83-29.15c10.31-4.45,21.33-8.81,29.72-15.92c55.39-46.93,94.25-105.34,117.9-173.92
		C798.97,723.65,799.35,721.11,799.94,718.63z M802.28,408.66c-0.07,0.25-0.14,0.5-0.2,0.75c0.29,0.08,0.59,0.15,0.88,0.23
		c-0.03-0.28,0.01-0.59-0.1-0.84C802.81,408.7,802.48,408.71,802.28,408.66z"/>
	<path class="st0" d="M2423.59,909.21c-21.83,0-42.71,0-64.66,0c0-3.59,0-7.18,0-10.77c0-77,0.14-154-0.07-231
		c-0.08-28.04-1.95-55.98-11.1-82.81c-3.1-9.1-6.68-18.14-10.99-26.72c-12.58-25.03-32.77-40.6-60.18-46.71
		c-21.13-4.71-42.37-5.03-63.42-0.21c-30.98,7.09-53.6,25.72-69.68,52.69c-14.46,24.25-21,51-23.69,78.73
		c-1.35,13.9-1.74,27.93-1.78,41.91c-0.17,71-0.08,142-0.08,213c0,3.65,0,7.31,0,11.67c-21.5,0-42.58,0-64.73,0
		c0-3.65,0-7.21,0-10.77c0-84.33,0.11-168.67-0.07-253c-0.05-22.69-1.9-45.3-7.72-67.33c-8.37-31.66-26-55.66-58.72-64.87
		c-51.31-14.44-99.5-0.51-132.87,42.71c-17,22.02-27.52,47.23-31.93,74.53c-2.8,17.35-4.31,35.08-4.43,52.66
		c-0.48,71.66-0.2,143.33-0.2,215c0,3.58,0,7.17,0,11.26c-21.8,0-42.69,0-64.92,0c-0.08-3.66-0.25-7.5-0.25-11.34
		c-0.01-108,0.22-216-0.15-324c-0.12-34.31-1.86-68.61-2.85-102.91c-0.05-1.64-0.01-3.29-0.01-5.68c20.18,0,40.27,0,61.14,0
		c3.49,24.18,3.3,48.71,5.82,73.57c1.37-2.07,2.81-4.11,4.11-6.22c31.6-51.08,77.76-77.07,137.47-78.75
		c13.55-0.38,27.46,0.48,40.72,3.17c44.75,9.09,75.03,36.78,94.86,76.96c1.76,3.58,3.28,7.28,5.41,12.01
		c1.9-2.92,3.53-5.17,4.9-7.55c32.2-56.08,81.1-83.51,145.28-84.8c20.05-0.4,39.87,0.96,59.47,5.81
		c41.26,10.21,71.45,34.3,91.56,71.49c12.04,22.27,18.97,46.15,21.62,71.18c1.47,13.88,2.05,27.92,2.08,41.89
		c0.18,84.66,0.09,169.33,0.09,253.99C2423.59,901.58,2423.59,905.16,2423.59,909.21z"/>
	<path class="st0" d="M3517.2,678.15c-0.82,71.64-20.17,127.29-64.03,173.19c-31.78,33.26-70.91,53.88-115.71,63.18
		c-54.47,11.31-108.14,8.44-159.52-14.33c-72.44-32.11-115.34-88.37-130.38-165.52c-9.92-50.9-5.4-101.04,16.44-148.53
		c32.56-70.82,88.45-113.08,164.32-127.8c57.01-11.06,112.86-5.69,165.41,20.97c63.9,32.42,102.07,84.92,117.52,154.16
		C3515.16,650.9,3516.04,669.02,3517.2,678.15z M3449.36,686.41c-2.01-15.15-2.94-30.53-6.23-45.39
		c-9.47-42.82-30.65-78.55-67.09-104.1c-30.54-21.41-64.76-30.21-101.85-29.09c-55.47,1.68-100.49,24.28-130.62,70.76
		c-40.24,62.09-42.32,128.3-12.48,195.29c16.53,37.12,44.64,63.47,82.23,79.12c27.65,11.51,56.6,14.28,86.25,11.24
		c47.27-4.84,85.78-25.55,113.86-64.07C3438.02,766.46,3448.21,728.01,3449.36,686.41z"/>
	<path class="st0" d="M4357.14,683.68c-0.83,66.44-20.27,122.07-64.19,167.9c-31.82,33.21-71,53.81-115.81,63.01
		c-56.25,11.55-111.5,8.13-164.06-16.55c-69.5-32.63-110.74-87.98-125.41-162.71c-10.06-51.23-5.59-101.71,16.47-149.5
		c32.66-70.76,88.66-112.76,164.52-127.58c51.04-9.98,101.65-6.47,149.99,14.1c72.5,30.84,115.81,86.08,133.02,162.4
		c1.68,7.45,2.87,15.06,3.65,22.66C4356.34,667.33,4356.72,677.33,4357.14,683.68z M4289.38,687.07
		c-1.98-15.15-2.89-30.53-6.13-45.4c-9.31-42.85-30.34-78.65-66.68-104.35c-30.76-21.76-65.27-30.66-102.72-29.48
		c-55.07,1.73-99.55,24.38-130,70.16c-36.76,55.27-41.36,115.66-20.32,177.83c15.27,45.11,44.87,78.12,89.2,96.88
		c27.94,11.83,57.19,14.55,87.17,11.51c41.53-4.21,76.86-21.05,104.39-52.61C4275.28,776.09,4287.77,733.73,4289.38,687.07z"/>
	<path class="st0" d="M1298.88,465.48c21.99,0,42.87,0,64.54,0c0,4.12,0,7.72,0,11.31c0.06,82.31-0.15,164.62,0.32,246.93
		c0.15,26.71,3.41,53.18,13.63,78.26c14.56,35.76,41.16,56.28,79.17,62.24c26.89,4.22,53.15,2.55,78.2-8.94
		c31.88-14.63,52.9-39.55,66.72-71.16c12.36-28.27,16.66-58.03,16.63-88.64c-0.06-72.65-0.02-145.29-0.02-217.94
		c0-3.65,0-7.3,0-10.83c7.41-2.22,54.92-2.54,64.82-0.5c1.92,147.41-2.37,294.93,2.94,442.93c-19.49,0-39.36,0-60.63,0
		c-3.18-24.2-3.61-48.94-3.99-74.22c-1.24,0.53-2.43,0.65-2.75,1.24c-21.41,40.05-55.99,63.78-98.23,76.42
		c-45.9,13.73-91.59,11.16-135.57-8.54c-31.57-14.14-52.49-39.18-66.99-69.91c-13.9-29.46-19.03-60.89-19.1-93.16
		c-0.2-89.31-0.07-178.62-0.05-267.93C1298.52,470.77,1298.73,468.5,1298.88,465.48z"/>
	<path class="st0" d="M2622.01,465.3c20.75,0,40.66,0,61.27,0c3.26,24.59,3.34,49.12,4.46,74.28c1.15-0.8,2.09-1.11,2.44-1.75
		c23.29-42.44,60.47-66.87,105.99-78.57c43.11-11.07,86.01-8.08,126.96,10.41c36.09,16.3,58.23,45.59,72.39,81.5
		c9.75,24.73,14.16,50.62,14.21,77.14c0.19,91.3,0.15,182.61,0.18,273.92c0,2.23-0.28,4.46-0.45,7.05c-21.46,0-42.3,0-64.26,0
		c0-3.88,0-7.44,0-11c0-79.64,0.15-159.29-0.09-238.93c-0.07-25.36-2.23-50.61-9.62-75.05c-10.62-35.09-31.69-61-67.96-70.99
		c-63.73-17.55-123.64,4.91-155.36,65.72c-16.93,32.44-22.1,67.46-22.19,103.46c-0.18,71.64-0.05,143.29-0.05,214.94
		c0,3.65,0,7.3,0,11.61c-21.27,0-42.1,0-64.29,0c-0.09-3.46-0.28-7.29-0.28-11.11c-0.02-109.97,0.23-219.93-0.17-329.9
		c-0.11-31.29-2.08-62.57-3.17-93.85C2621.93,471.55,2622.01,468.91,2622.01,465.3z"/>
	<path class="st0" d="M4674.9,462.75c18.93,0,37.23,0,56.31,0c63.53,147.91,127.2,296.13,191.32,445.4
		c-3.36,0.23-5.83,0.53-8.31,0.53c-17.33,0.04-34.67-0.39-51.98,0.23c-7.04,0.25-9.81-2.46-12.25-8.53
		c-12.41-30.79-25.27-61.4-37.99-92.06c-1.26-3.04-2.69-6.01-4.1-9.14c-71.36,0-142.25,0-213.73,0
		c-7.75,18.88-15.42,37.56-23.09,56.25c-6.55,15.97-13.23,31.9-19.55,47.96c-1.42,3.62-3.09,5.4-7.13,5.37
		c-19.99-0.17-39.98-0.14-59.98-0.23c-0.54,0-1.07-0.6-2.31-1.33C4546.34,759.11,4610.62,610.92,4674.9,462.75z M4785.58,744.79
		c-9.79-24.76-18.89-47.84-28.03-70.9c-9.29-23.44-18.38-46.96-28-70.26c-9.36-22.69-17.27-46.02-28.35-69.24
		c-11.49,22.15-82.92,203.04-83.14,210.41C4673.23,744.79,4728.39,744.79,4785.58,744.79z"/>
	<path class="st0" d="M3735.94,909.41c-24.05,0-47.32,0-71.68,0c-60.13-147.32-120.39-294.99-180.99-443.46c24.36,0,47.86,0,72.52,0
		c47.81,124.5,95.81,249.53,143.82,374.55c0.63,0.03,1.26,0.07,1.9,0.1c48.26-124.87,96.53-249.75,144.87-374.83
		c22.97,0,45.54,0,69.66,0C3855.84,614.04,3795.88,761.73,3735.94,909.41z"/>
	<path class="st0" d="M1167.97,192.26c21.23,0,41.82,0,62.4,0c2.1,7.43,3.13,689.57,1.04,716.8c-20.77,0-41.6,0-62.52,0
		C1166.82,901.98,1165.8,218.47,1167.97,192.26z"/>
	<path class="st0" d="M2554.81,909.51c-21.79,0-42.43,0-63,0c-2.13-6.9-2.93-427.53-0.85-443.67c21.14,0,42.33,0,63.85,0
		C2554.81,613.72,2554.81,761.17,2554.81,909.51z"/>
	<path class="st0" d="M4969.76,462.91c20.13,0,39.96,0,60.3,0c0,148.52,0,296.64,0,445.28c-20.3,0-40.1,0-60.3,0
		C4969.76,759.57,4969.76,611.39,4969.76,462.91z"/>
	<path class="st0" d="M2477.21,294.61c0.1-25.38,20.21-45.1,45.85-44.97c25.48,0.14,45.3,20.22,45.14,45.75
		c-0.16,25.41-20.21,45.05-45.92,44.97C2496.87,340.27,2477.11,320.21,2477.21,294.61z"/>
	<path class="st0" d="M4402.7,911.5c-20.12-0.22-36.29-16.24-36.27-35.9c0.03-20.77,16.82-36.83,37.96-36.31
		c20.62,0.51,36.47,16.06,36.25,35.89C4440.4,895.82,4423.14,912.89,4402.7,911.5z"/>
	<path class="st0" d="M119.31,547.23c1.91-106.21,37.38-199.12,110.12-277.23c4.77-5.12,10.02-9.79,14.73-14.95
		c14.12-15.44,32.33-24.12,51.26-31.78c53.04-21.47,108.25-31.26,165.16-26.53c130.14,10.82,229.31,73.71,299.09,183.21
		c33.45,52.49,52.24,110.44,58.17,172.45c1.61,16.8-1.68,33.27-4.83,49.56c-15.22,78.83-50.02,147.82-106.07,205.5
		c-59.44,61.17-131.41,98.91-215.86,112.05c-44.21,6.88-88.31,5.22-132.09-3.94c-4.51-0.94-9-2.52-13.15-4.53
		C242,860.59,173.45,779.52,137.88,670.21C125.17,631.16,119.11,587.28,119.31,547.23z"/>
	<path class="st0" d="M775.69,828.2c0.67-2.21,0.89-4.7,2.06-6.6c25.9-41.64,44.13-86.38,54.7-134.26
		c7.86-35.63,11.09-71.65,9.82-108.13c-0.43-12.3-0.39-24.64-0.06-36.95c3.25-123.41-37.24-229.82-123.49-318.51
		c-2.05-2.1-4-4.3-6-6.45c0.38-0.55,0.76-1.1,1.13-1.65c2.8,1.91,5.67,3.73,8.4,5.73c79.46,58.24,131.94,135.17,153.91,231
		c30.33,132.29,2.43,252.16-83.5,357.87c-5.16,6.35-11.41,11.82-17.15,17.7C775.52,827.95,775.69,828.2,775.69,828.2z"/>
	<path class="st0" d="M228.81,856.85c-0.94,0.61-2.27,1.97-2.77,1.71c-2.65-1.37-5.17-3.03-7.58-4.8
		c-85.2-62.44-138.07-145.56-159.04-249c-2.25-11.08-3.77-22.32-5.35-33.53c-2.43-17.14,1.02-33.94,4.08-50.6
		C72,445.15,104.3,378.59,155.74,321.48c2.09-2.32,4.29-4.53,6.44-6.8c0.56,0.42,1.12,0.84,1.69,1.25
		c-0.77,1.62-1.39,3.33-2.34,4.85c-30.47,48.96-51.1,101.85-59.16,158.87c-19.64,138.94,16.54,261.17,112.46,364.69
		c4.21,4.55,9.22,8.35,13.86,12.5C228.7,856.87,228.81,856.85,228.81,856.85z"/>
	<path class="st0" d="M72.66,715.92c3.1,5.79,6.06,11.66,9.31,17.36c58.32,102.47,143.24,170.82,257.91,201.04
		c4.16,1.1,8.24,2.62,12.22,4.28c58.54,24.46,119.57,33.27,182.66,29.04c6.31-0.42,12.6-1.17,18.87-1.94
		c5.9-0.72,11.78-1.65,18.32-0.82c-2.1,1.04-4.13,2.26-6.31,3.08c-128.98,48.47-275.92,20.49-379.67-72.35
		C133.23,848.42,95.59,791.25,72.98,724.2c-0.82-2.43-1.46-4.93-2.18-7.4C71.42,716.52,72.04,716.22,72.66,715.92z"/>
	<path class="st0" d="M801.41,405.41c-41.64-80.87-100.96-144.4-181.62-186.79c-80.92-42.52-166.89-54.31-257.07-39.74
		c2.56-1.18,5.06-2.53,7.69-3.53c49.52-18.87,100.71-27.44,153.65-23.83c17.23,1.18,34.42,3.56,51.46,6.41
		c8.05,1.35,16.1,4.26,23.46,7.87c74.01,36.34,130.46,91.2,170.63,163.01c12.71,22.71,22.92,46.53,30.78,71.34
		C800.91,401.85,801.07,403.66,801.41,405.41z"/>
	<path class="st0" d="M71,407.1c36.82-140.17,180.66-289.42,387.72-277.48c-2.44,0.68-4.85,1.66-7.33,1.99
		c-73.4,9.75-138.7,38.36-196.66,84.2c-3.37,2.67-7.09,4.97-10.85,7.08c-73.61,41.22-129.09,99.85-167.92,174.51
		C74.28,400.63,72.65,403.87,71,407.1z"/>
	<path class="st0" d="M799.94,718.63c-0.59,2.48-0.97,5.02-1.8,7.42c-23.65,68.58-62.51,127-117.9,173.92
		c-8.39,7.11-19.41,11.47-29.72,15.92c-54.76,23.66-112.05,33.15-171.83,29.15C624.21,924.1,729.69,846.7,799.94,718.63z"/>
	<path class="st0" d="M802.28,408.66c0.2,0.05,0.52,0.04,0.57,0.15c0.11,0.25,0.08,0.55,0.1,0.84c-0.29-0.08-0.59-0.15-0.88-0.23
		C802.15,409.16,802.22,408.91,802.28,408.66z"/>
	<path class="st0" d="M708.54,215.21c-0.33-0.79-0.66-1.58-0.13-0.31c-0.27-1.29-0.09-0.43,0.09,0.43L708.54,215.21z"/>
	<path class="st0" d="M164.03,311.1c0.78,0.02,1.56,0.03,2.33,0.05c-0.83,0-1.66-0.01-2.5-0.01L164.03,311.1z"/>
	<path class="st0" d="M163.87,311.13c0.62,0.6,1.25,1.19,1.87,1.79c-0.42,0.35-0.83,0.7-1.25,1.05c-0.13-0.95-0.25-1.9-0.42-2.86
		C164.03,311.1,163.87,311.13,163.87,311.13z"/>
	<path class="st0" d="M708.51,215.34c0.79-0.37,1.57-0.74,2.36-1.11c-0.76,0.31-1.52,0.62-2.3,0.95
		C708.54,215.21,708.51,215.34,708.51,215.34z"/>
	<path class="st0" d="M775.52,827.95c-0.49,0.49-0.98,0.98-1.46,1.47c-0.1-0.29-0.19-0.58-0.29-0.88c0.64-0.12,1.28-0.23,1.92-0.35
		C775.69,828.2,775.52,827.95,775.52,827.95z"/>
	<path class="st0" d="M228.7,856.87c0.69,0.72,1.38,1.43,2.07,2.15l0.13-0.06c-1.16-0.21-2.33-0.42-3.49-0.63
		c0.45-0.48,0.91-0.97,1.38-1.46C228.81,856.85,228.7,856.87,228.7,856.87z"/>
	<path class="st0" d="M230.78,859.01c-0.01,0.62-0.03,1.23-0.04,1.85c-0.29-0.11-0.59-0.23-0.88-0.34c0.33-0.51,0.66-1.03,1.02-1.56
		C230.91,858.95,230.78,859.01,230.78,859.01z"/>
	<path class="st0" d="M3449.36,686.41c-1.16,41.6-11.34,80.05-35.92,113.76c-28.09,38.52-66.6,59.22-113.86,64.07
		c-29.65,3.04-58.6,0.27-86.25-11.24c-37.6-15.65-65.7-42-82.23-79.12c-29.84-66.99-27.75-133.2,12.48-195.29
		c30.12-46.48,75.15-69.08,130.62-70.76c37.09-1.12,71.31,7.68,101.85,29.09c36.44,25.55,57.62,61.28,67.09,104.1
		C3446.42,655.88,3447.35,671.27,3449.36,686.41z"/>
	<path class="st0" d="M4289.38,687.07c-1.61,46.66-14.1,89.02-45.08,124.54c-27.53,31.56-62.85,48.41-104.39,52.61
		c-29.98,3.04-59.23,0.31-87.17-11.51c-44.33-18.77-73.93-51.78-89.2-96.88c-21.04-62.17-16.44-122.56,20.32-177.83
		c30.45-45.78,74.92-68.43,130-70.16c37.44-1.18,71.95,7.72,102.72,29.48c36.34,25.71,57.37,61.5,66.68,104.35
		C4286.49,656.54,4287.41,671.92,4289.38,687.07z"/>
	<path class="st0" d="M4785.58,744.79c-57.19,0-112.34,0-167.51,0c0.22-7.36,71.65-188.26,83.14-210.41
		c11.07,23.22,18.98,46.55,28.35,69.24c9.62,23.3,18.71,46.82,28,70.26C4766.69,696.95,4775.79,720.03,4785.58,744.79z"/>
</g>
</svg>
