<svg width="144" height="48" viewBox="0 0 144 48" fill="none" xmlns="http://www.w3.org/2000/svg">
<path d="M7.75234 23.9907C7.75234 23.5994 7.7431 23.2077 7.75388 22.8167C7.8681 18.6027 10.5179 14.8499 14.444 13.3314C15.8911 12.7717 17.3931 12.5567 18.9413 12.6622C19.9784 12.7329 20.9815 12.9639 21.9504 13.3382C22.2427 13.4512 22.551 13.5254 22.8515 13.6187C25.7775 14.5249 27.9029 16.3409 29.2624 19.0087C30.1576 20.7654 30.5172 22.6414 30.3255 24.5854C29.9608 28.2839 28.1429 31.1099 24.8283 32.9939C24.7182 33.0564 24.6125 33.1284 24.5119 33.2049C23.0884 34.2877 21.4899 34.9972 19.7005 35.2362C16.3831 35.6789 13.49 34.7617 11.0661 32.5182C9.33851 30.9189 8.30981 28.9409 7.90223 26.6544C7.76851 25.9042 7.73104 25.1497 7.75568 24.3902C7.76004 24.2572 7.75619 24.1239 7.75619 23.9907C7.75491 23.9907 7.75363 23.9907 7.75234 23.9907ZM12.9241 31.4747C12.9156 31.4874 12.9071 31.5004 12.8987 31.5132C12.9061 31.5159 12.9138 31.5189 12.9213 31.5217C12.9215 31.5062 12.922 31.4909 12.9223 31.4754C12.9046 31.4574 12.8869 31.4397 12.8692 31.4217C12.7501 31.3179 12.6215 31.2227 12.5134 31.1092C10.0515 28.5212 9.12292 25.4654 9.627 21.9919C9.83387 20.5664 10.3634 19.2442 11.1454 18.0202C11.1695 17.9824 11.1855 17.9394 11.2055 17.8989C11.1911 17.8884 11.1767 17.8779 11.1621 17.8677C11.1069 17.9242 11.0504 17.9797 10.9968 18.0377C9.67628 19.4654 8.84752 21.1294 8.49204 23.0164C8.4135 23.4327 8.32521 23.8529 8.38733 24.2814C8.42813 24.5614 8.46689 24.8424 8.52464 25.1197C9.06286 27.7057 10.4198 29.7837 12.6066 31.3447C12.6684 31.3889 12.7334 31.4304 12.8011 31.4647C12.8137 31.4712 12.8479 31.4372 12.8712 31.4222C12.8597 31.4342 12.8479 31.4464 12.8363 31.4584C12.8658 31.4632 12.8958 31.4684 12.9241 31.4747ZM11.205 17.7782C11.2263 17.7782 11.2476 17.7784 11.2691 17.7784C11.2491 17.7779 11.2291 17.7777 11.2114 17.7777C11.2147 17.8014 11.2178 17.8252 11.2211 17.8489C11.2319 17.8402 11.2424 17.8314 11.2532 17.8227C11.237 17.8079 11.2211 17.7932 11.205 17.7782ZM25.1859 15.3787C25.2054 15.3709 25.2249 15.3632 25.2444 15.3554C25.2241 15.3647 25.2041 15.3739 25.1838 15.3832C25.1792 15.3617 25.1746 15.3402 25.1815 15.3724C25.1676 15.3407 25.1761 15.3604 25.1859 15.3787ZM26.9037 30.6987C27.051 30.5517 27.2114 30.4149 27.3439 30.2562C29.5491 27.6137 30.2652 24.6169 29.487 21.3094C28.9231 18.9139 27.5764 16.9904 25.5367 15.5344C25.4666 15.4844 25.393 15.4387 25.3211 15.3912C25.3114 15.4049 25.3016 15.4187 25.2921 15.4324C25.3434 15.4862 25.3935 15.5409 25.4461 15.5937C27.6598 17.8109 28.6988 20.4714 28.6156 23.5564C28.6074 23.8642 28.6061 24.1727 28.6172 24.4802C28.6495 25.3919 28.5669 26.2927 28.3651 27.1834C28.0941 28.3804 27.6259 29.4989 26.9612 30.5399C26.9309 30.5872 26.9252 30.6494 26.9081 30.7047C26.8916 30.7077 26.8752 30.7104 26.8588 30.7134C26.8613 30.7207 26.8636 30.7279 26.8662 30.7354C26.8788 30.7232 26.8911 30.7109 26.9037 30.6987ZM10.0613 23.6807C10.0561 24.6819 10.2119 25.7789 10.5382 26.7552C11.4508 29.4879 13.2103 31.5147 15.8754 32.7757C15.982 32.8259 16.0972 32.8654 16.2129 32.8889C17.3366 33.1179 18.4685 33.1594 19.6032 32.9874C21.7707 32.6589 23.6179 31.7157 25.1435 30.1862C26.5821 28.7442 27.4753 27.0194 27.8659 25.0487C27.9468 24.6414 28.0309 24.2299 27.9899 23.8097C27.8377 22.2594 27.3554 20.8107 26.4969 19.4984C24.7062 16.7609 22.1606 15.1889 18.8204 14.9182C17.3597 14.7999 15.9427 15.0444 14.5813 15.5814C14.0952 15.7732 13.6278 15.9899 13.2657 16.3759C13.1446 16.5049 13.0098 16.6217 12.8876 16.7497C11.0207 18.7027 10.1103 21.0254 10.0613 23.6807ZM8.86395 27.8979C8.84803 27.9054 8.83212 27.9129 8.81621 27.9204C8.83469 27.9822 8.85111 28.0444 8.87216 28.1054C9.45247 29.7819 10.4185 31.2112 11.7722 32.3907C14.4351 34.7117 18.2064 35.4112 21.5169 34.1994C21.5728 34.1789 21.6249 34.1482 21.6788 34.1224C21.5112 34.1014 21.3603 34.1249 21.2086 34.1429C21.0474 34.1619 20.886 34.1807 20.7243 34.1914C19.105 34.2969 17.5386 34.0767 16.0361 33.4654C15.934 33.4239 15.8292 33.3857 15.7225 33.3584C12.7796 32.6029 10.5998 30.8942 9.1029 28.3324C9.01948 28.1894 8.94326 28.0427 8.86395 27.8979ZM27.5682 20.1352C27.5597 20.0914 27.5556 20.0462 27.5418 20.0039C27.34 19.3837 27.078 18.7882 26.7517 18.2204C25.7207 16.4252 24.2719 15.0537 22.3723 14.1452C22.1834 14.0549 21.9768 13.9819 21.7702 13.9484C21.3328 13.8772 20.8916 13.8174 20.4494 13.7882C19.0906 13.6977 17.7768 13.9122 16.5058 14.3839C16.4383 14.4089 16.3741 14.4424 16.3084 14.4722C18.623 14.1079 20.8295 14.4027 22.9064 15.4657C24.9767 16.5252 26.4994 18.1134 27.5682 20.1352ZM8.82134 20.1774C8.86369 20.0967 8.90553 20.0157 8.94865 19.9352C9.94526 18.0684 11.3695 16.6027 13.2585 15.5724C13.355 15.5197 13.4505 15.4622 13.537 15.3954C15.0243 14.2494 16.7003 13.5339 18.5845 13.2904C18.6484 13.2822 18.71 13.2577 18.7726 13.2407C13.4582 12.9417 9.76611 16.6732 8.82134 20.1774ZM27.5305 27.9657C25.7274 31.1674 23.0201 33.1024 19.2852 33.6262C20.8195 33.7262 22.2899 33.4889 23.6954 32.8974C23.96 32.7862 24.2429 32.6772 24.4582 32.4994C25.8799 31.3262 26.8773 29.8659 27.4843 28.1514C27.5056 28.0912 27.5153 28.0277 27.5305 27.9657ZM27.5905 20.2164C27.5887 20.2227 27.5869 20.2289 27.5854 20.2352C27.5928 20.2372 27.6005 20.2389 27.608 20.2409C27.6072 20.2339 27.6082 20.2262 27.6054 20.2199C27.6041 20.2174 27.5957 20.2177 27.5905 20.2164Z" fill="#F6F7EB"/>
<path d="M69.2037 32.7303C68.6434 32.7303 68.1075 32.7303 67.5441 32.7303C67.5441 32.6405 67.5441 32.5508 67.5441 32.461C67.5441 30.536 67.5477 28.611 67.5423 26.686C67.5402 25.985 67.4922 25.2865 67.2574 24.6158C67.1778 24.3883 67.0859 24.1623 66.9753 23.9478C66.6524 23.322 66.1342 22.9328 65.4307 22.78C64.8884 22.6623 64.3432 22.6543 63.803 22.7748C63.0078 22.952 62.4273 23.4178 62.0146 24.092C61.6434 24.6983 61.4756 25.367 61.4065 26.0603C61.3719 26.4078 61.3619 26.7585 61.3608 27.108C61.3565 28.883 61.3588 30.658 61.3588 32.433C61.3588 32.5243 61.3588 32.6158 61.3588 32.7248C60.807 32.7248 60.2659 32.7248 59.6974 32.7248C59.6974 32.6335 59.6974 32.5445 59.6974 32.4555C59.6974 30.3473 59.7002 28.2388 59.6956 26.1305C59.6943 25.5633 59.6468 24.998 59.4975 24.4473C59.2826 23.6558 58.8301 23.0558 57.9904 22.8255C56.6734 22.4645 55.4366 22.8128 54.5801 23.8933C54.1438 24.4438 53.8738 25.074 53.7606 25.7565C53.6887 26.1903 53.6499 26.6335 53.6469 27.073C53.6345 28.8645 53.6417 30.6563 53.6417 32.448C53.6417 32.5375 53.6417 32.6273 53.6417 32.7295C53.0822 32.7295 52.546 32.7295 51.9755 32.7295C51.9734 32.638 51.9691 32.542 51.9691 32.446C51.9688 29.746 51.9747 27.046 51.9652 24.346C51.9621 23.4883 51.9175 22.6308 51.8921 21.7733C51.8908 21.7323 51.8918 21.691 51.8918 21.6313C52.4098 21.6313 52.9254 21.6313 53.461 21.6313C53.5506 22.2358 53.5457 22.849 53.6104 23.4705C53.6456 23.4188 53.6825 23.3678 53.7159 23.315C54.527 22.038 55.7117 21.3883 57.2442 21.3463C57.592 21.3368 57.949 21.3583 58.2894 21.4255C59.4379 21.6528 60.2151 22.345 60.7241 23.3495C60.7692 23.439 60.8082 23.5315 60.8629 23.6498C60.9117 23.5768 60.9535 23.5205 60.9887 23.461C61.8151 22.059 63.0702 21.3733 64.7175 21.341C65.2321 21.331 65.7408 21.365 66.2438 21.4863C67.3028 21.7415 68.0777 22.3438 68.5938 23.2735C68.9028 23.8303 69.0807 24.4273 69.1487 25.053C69.1865 25.4 69.2013 25.751 69.2021 26.1003C69.2067 28.2168 69.2044 30.3335 69.2044 32.45C69.2037 32.5395 69.2037 32.629 69.2037 32.7303Z" fill="#F6F7EB"/>
<path d="M97.2735 26.9533C97.2524 28.7443 96.7558 30.1355 95.6301 31.283C94.8144 32.1145 93.8101 32.63 92.6603 32.8625C91.2622 33.1453 89.8847 33.0735 88.566 32.5043C86.7067 31.7015 85.6057 30.295 85.2196 28.3663C84.965 27.0938 85.081 25.8403 85.6416 24.653C86.4773 22.8825 87.9118 21.826 89.8591 21.458C91.3223 21.1815 92.7557 21.3158 94.1045 21.9823C95.7446 22.7928 96.7242 24.1053 97.1208 25.8363C97.2211 26.272 97.2437 26.725 97.2735 26.9533ZM95.5323 27.1598C95.4807 26.781 95.4568 26.3965 95.3724 26.025C95.1293 24.9545 94.5857 24.0613 93.6505 23.4225C92.8666 22.8873 91.9883 22.6673 91.0364 22.6953C89.6127 22.7373 88.4572 23.3023 87.6838 24.4643C86.651 26.0165 86.5977 27.6718 87.3635 29.3465C87.7878 30.2745 88.5093 30.9333 89.4741 31.3245C90.1837 31.6123 90.9268 31.6815 91.6878 31.6055C92.901 31.4845 93.8894 30.9668 94.6101 30.0038C95.2412 29.161 95.5028 28.1998 95.5323 27.1598Z" fill="#F6F7EB"/>
<path d="M118.83 27.0918C118.808 28.7528 118.309 30.1435 117.182 31.2893C116.365 32.1195 115.36 32.6345 114.21 32.8645C112.766 33.1533 111.348 33.0678 109.999 32.4508C108.215 31.635 107.157 30.2513 106.78 28.383C106.522 27.1023 106.637 25.8403 107.203 24.6455C108.041 22.8765 109.478 21.8265 111.425 21.456C112.735 21.2065 114.034 21.2942 115.275 21.8085C117.136 22.5795 118.247 23.9605 118.689 25.8685C118.732 26.0548 118.763 26.245 118.783 26.435C118.809 26.683 118.819 26.933 118.83 27.0918ZM117.09 27.1765C117.04 26.7978 117.016 26.4133 116.933 26.0415C116.694 24.9703 116.154 24.0753 115.222 23.4328C114.432 22.8887 113.546 22.6662 112.585 22.6957C111.172 22.739 110.03 23.3052 109.249 24.4498C108.305 25.8315 108.187 27.3413 108.727 28.8955C109.119 30.0233 109.879 30.8485 111.016 31.3175C111.734 31.6133 112.484 31.6813 113.254 31.6053C114.32 31.5 115.227 31.079 115.933 30.29C116.729 29.402 117.049 28.343 117.09 27.1765Z" fill="#F6F7EB"/>
<path d="M40.3361 21.6369C40.9005 21.6369 41.4364 21.6369 41.9926 21.6369C41.9926 21.7399 41.9926 21.8299 41.9926 21.9197C41.9941 23.9774 41.9887 26.0351 42.0008 28.0929C42.0047 28.7606 42.0883 29.4224 42.3506 30.0494C42.7243 30.9434 43.4071 31.4564 44.3826 31.6054C45.0728 31.7109 45.7468 31.6691 46.3897 31.3819C47.208 31.0161 47.7475 30.3931 48.1022 29.6029C48.4194 28.8961 48.5298 28.1521 48.529 27.3869C48.5275 25.5706 48.5285 23.7546 48.5285 21.9384C48.5285 21.8472 48.5285 21.7559 48.5285 21.6676C48.7187 21.6121 49.9381 21.6041 50.1922 21.6551C50.2415 25.3404 50.1314 29.0284 50.2676 32.7284C49.7674 32.7284 49.2574 32.7284 48.7115 32.7284C48.6299 32.1234 48.6188 31.5049 48.6091 30.8729C48.5773 30.8861 48.5467 30.8891 48.5385 30.9039C47.989 31.9051 47.1015 32.4984 46.0173 32.8144C44.8392 33.1576 43.6665 33.0934 42.5377 32.6009C41.7275 32.2474 41.1905 31.6214 40.8184 30.8531C40.4616 30.1166 40.3299 29.3309 40.3281 28.5241C40.323 26.2914 40.3263 24.0586 40.3269 21.8259C40.3269 21.7692 40.3322 21.7124 40.3361 21.6369Z" fill="#F6F7EB"/>
<path d="M74.2953 21.6326C74.8278 21.6326 75.3389 21.6326 75.8678 21.6326C75.9515 22.2474 75.9536 22.8606 75.9823 23.4896C76.0118 23.4696 76.036 23.4619 76.0449 23.4459C76.6427 22.3849 77.597 21.7741 78.7653 21.4816C79.8718 21.2049 80.9728 21.2796 82.0239 21.7419C82.9502 22.1494 83.5184 22.8816 83.8819 23.7794C84.1321 24.3976 84.2453 25.0449 84.2466 25.7079C84.2514 27.9903 84.2504 30.2731 84.2512 32.5558C84.2512 32.6116 84.244 32.6673 84.2396 32.7321C83.6888 32.7321 83.154 32.7321 82.5903 32.7321C82.5903 32.6351 82.5903 32.5461 82.5903 32.4571C82.5903 30.4661 82.5942 28.4748 82.588 26.4838C82.5862 25.8498 82.5308 25.2186 82.3411 24.6076C82.0685 23.7304 81.5278 23.0826 80.5968 22.8329C78.9611 22.3941 77.4235 22.9556 76.6093 24.4759C76.1748 25.2869 76.0421 26.1623 76.0398 27.0623C76.0352 28.8533 76.0385 30.6446 76.0385 32.4358C76.0385 32.5271 76.0385 32.6183 76.0385 32.7261C75.4926 32.7261 74.958 32.7261 74.3884 32.7261C74.3861 32.6396 74.3813 32.5438 74.3813 32.4483C74.3807 29.6991 74.3872 26.9501 74.3769 24.2009C74.3741 23.4186 74.3235 22.6366 74.2955 21.8546C74.2932 21.7889 74.2953 21.7229 74.2953 21.6326Z" fill="#F6F7EB"/>
<path d="M126.985 21.5684C127.471 21.5684 127.941 21.5684 128.43 21.5684C130.061 25.2661 131.695 28.9716 133.341 32.7034C133.255 32.7091 133.191 32.7166 133.128 32.7166C132.683 32.7176 132.238 32.7068 131.793 32.7223C131.613 32.7286 131.542 32.6608 131.479 32.5091C131.161 31.7394 130.83 30.9741 130.504 30.2076C130.472 30.1316 130.435 30.0574 130.399 29.9791C128.567 29.9791 126.748 29.9791 124.913 29.9791C124.714 30.4511 124.517 30.9181 124.321 31.3854C124.152 31.7846 123.981 32.1829 123.819 32.5843C123.782 32.6748 123.739 32.7193 123.636 32.7186C123.123 32.7143 122.61 32.7151 122.096 32.7129C122.082 32.7129 122.069 32.6979 122.037 32.6796C123.686 28.9774 125.335 25.2726 126.985 21.5684ZM129.826 28.6194C129.575 28.0004 129.341 27.4234 129.106 26.8469C128.868 26.2609 128.635 25.6729 128.388 25.0904C128.148 24.5231 127.945 23.9399 127.66 23.3594C127.365 23.9131 125.532 28.4354 125.526 28.6196C126.942 28.6194 128.358 28.6194 129.826 28.6194Z" fill="#F6F7EB"/>
<path d="M102.887 32.735C102.269 32.735 101.672 32.735 101.047 32.735C99.5036 29.052 97.957 25.3603 96.4016 21.6485C97.0268 21.6485 97.63 21.6485 98.2629 21.6485C99.49 24.761 100.722 27.8868 101.954 31.0123C101.97 31.013 101.987 31.014 102.003 31.0148C103.242 27.893 104.481 24.771 105.721 21.644C106.311 21.644 106.89 21.644 107.509 21.644C105.964 25.3508 104.425 29.043 102.887 32.735Z" fill="#F6F7EB"/>
<path d="M36.9767 14.8066C37.5216 14.8066 38.05 14.8066 38.5782 14.8066C38.6321 14.9924 38.6586 32.0459 38.6049 32.7266C38.0718 32.7266 37.5372 32.7266 37.0003 32.7266C36.9472 32.5496 36.921 15.4619 36.9767 14.8066Z" fill="#F6F7EB"/>
<path d="M72.5709 32.7377C72.0116 32.7377 71.4819 32.7377 70.954 32.7377C70.8993 32.5652 70.8787 22.0495 70.9321 21.646C71.4747 21.646 72.0186 21.646 72.5709 21.646C72.5709 25.343 72.5709 29.0292 72.5709 32.7377Z" fill="#F6F7EB"/>
<path d="M134.554 21.5732C135.07 21.5732 135.579 21.5732 136.101 21.5732C136.101 25.2862 136.101 28.9892 136.101 32.7052C135.58 32.7052 135.072 32.7052 134.554 32.7052C134.554 28.9897 134.554 25.2852 134.554 21.5732Z" fill="#F6F7EB"/>
<path d="M70.5787 17.3655C70.5813 16.731 71.0975 16.238 71.7556 16.2412C72.4095 16.2447 72.9182 16.7467 72.9141 17.385C72.91 18.0202 72.3954 18.5112 71.7355 18.5092C71.0833 18.507 70.5762 18.0055 70.5787 17.3655Z" fill="#F6F7EB"/>
<path d="M119.999 32.7875C119.482 32.782 119.067 32.3815 119.068 31.89C119.069 31.3707 119.499 30.9692 120.042 30.9822C120.571 30.995 120.978 31.3837 120.972 31.8795C120.966 32.3955 120.523 32.8222 119.999 32.7875Z" fill="#F6F7EB"/>
<path d="M27.5915 20.2168C27.5972 20.2182 27.6063 20.2179 27.6077 20.2209C27.6108 20.2279 27.61 20.2362 27.6106 20.2442C27.6023 20.242 27.5938 20.24 27.5856 20.2378C27.5878 20.2306 27.5898 20.2237 27.5915 20.2168Z" fill="#F6F7EB"/>
<path d="M25.1841 15.3794C25.1757 15.3597 25.1672 15.3399 25.1808 15.3717C25.1739 15.3394 25.1785 15.3609 25.1831 15.3824L25.1841 15.3794Z" fill="#F6F7EB"/>
<path d="M11.21 17.7778C11.23 17.7783 11.25 17.7786 11.2698 17.7791C11.2485 17.7791 11.2272 17.7788 11.2056 17.7788L11.21 17.7778Z" fill="#F6F7EB"/>
<path d="M11.205 17.7779C11.2209 17.7929 11.2371 17.8076 11.253 17.8226C11.2422 17.8314 11.2317 17.8401 11.2209 17.8489C11.2176 17.8251 11.2145 17.8014 11.2102 17.7774C11.2091 17.7771 11.205 17.7779 11.205 17.7779Z" fill="#F6F7EB"/>
<path d="M25.185 15.3827C25.2053 15.3735 25.2253 15.3642 25.2456 15.355C25.2261 15.3627 25.2066 15.3705 25.1865 15.3787C25.1858 15.3795 25.185 15.3827 25.185 15.3827Z" fill="#F6F7EB"/>
<path d="M26.9025 30.6992C26.8899 30.7115 26.8773 30.7237 26.865 30.736C26.8624 30.7287 26.8601 30.7215 26.8575 30.714C26.874 30.711 26.8904 30.7082 26.9068 30.7052C26.9068 30.7055 26.9025 30.6992 26.9025 30.6992Z" fill="#F6F7EB"/>
<path d="M12.8676 31.4226C12.8854 31.4406 12.9031 31.4583 12.9208 31.4763L12.9241 31.4748C12.8943 31.4696 12.8643 31.4643 12.8345 31.4591C12.8461 31.4471 12.8579 31.4348 12.87 31.4226C12.8705 31.4221 12.8676 31.4226 12.8676 31.4226Z" fill="#F6F7EB"/>
<path d="M12.9215 31.4749C12.9212 31.4904 12.9207 31.5057 12.9205 31.5212C12.913 31.5184 12.9053 31.5154 12.8979 31.5127C12.9064 31.4999 12.9148 31.4869 12.9241 31.4737C12.9248 31.4734 12.9215 31.4749 12.9215 31.4749Z" fill="#F6F7EB"/>
</svg>
