<svg width="144" height="48" viewBox="0 0 144 48" fill="none" xmlns="http://www.w3.org/2000/svg">
<path d="M7.75228 23.9907C7.75228 23.5994 7.74304 23.2077 7.75382 22.8167C7.86804 18.6027 10.5178 14.8499 14.444 13.3314C15.891 12.7717 17.393 12.5567 18.9412 12.6622C19.9784 12.7329 20.9814 12.9639 21.9503 13.3382C22.2426 13.4512 22.5509 13.5254 22.8514 13.6187C25.7774 14.5249 27.9028 16.3409 29.2624 19.0087C30.1576 20.7654 30.5172 22.6414 30.3254 24.5854C29.9607 28.2839 28.1428 31.1099 24.8283 32.9939C24.7182 33.0564 24.6124 33.1284 24.5118 33.2049C23.0883 34.2877 21.4899 34.9972 19.7004 35.2362C16.3831 35.6789 13.49 34.7617 11.066 32.5182C9.33845 30.9189 8.30975 28.9409 7.90217 26.6544C7.76845 25.9042 7.73098 25.1497 7.75562 24.3902C7.75998 24.2572 7.75613 24.1239 7.75613 23.9907C7.75485 23.9907 7.75357 23.9907 7.75228 23.9907ZM12.924 31.4747C12.9156 31.4874 12.9071 31.5004 12.8986 31.5132C12.9061 31.5159 12.9138 31.5189 12.9212 31.5217C12.9215 31.5062 12.922 31.4909 12.9222 31.4754C12.9045 31.4574 12.8868 31.4397 12.8691 31.4217C12.75 31.3179 12.6214 31.2227 12.5134 31.1092C10.0515 28.5212 9.12286 25.4654 9.62694 21.9919C9.83381 20.5664 10.3633 19.2442 11.1454 18.0202C11.1695 17.9824 11.1854 17.9394 11.2054 17.8989C11.191 17.8884 11.1767 17.8779 11.162 17.8677C11.1069 17.9242 11.0504 17.9797 10.9967 18.0377C9.67622 19.4654 8.84746 21.1294 8.49198 23.0164C8.41344 23.4327 8.32515 23.8529 8.38726 24.2814C8.42807 24.5614 8.46683 24.8424 8.52458 25.1197C9.0628 27.7057 10.4198 29.7837 12.6065 31.3447C12.6684 31.3889 12.7333 31.4304 12.8011 31.4647C12.8137 31.4712 12.8478 31.4372 12.8711 31.4222C12.8596 31.4342 12.8478 31.4464 12.8362 31.4584C12.8658 31.4632 12.8958 31.4684 12.924 31.4747ZM11.2049 17.7782C11.2262 17.7782 11.2475 17.7784 11.2691 17.7784C11.249 17.7779 11.229 17.7777 11.2113 17.7777C11.2147 17.8014 11.2177 17.8252 11.2211 17.8489C11.2318 17.8402 11.2424 17.8314 11.2532 17.8227C11.237 17.8079 11.2211 17.7932 11.2049 17.7782ZM25.1858 15.3787C25.2053 15.3709 25.2248 15.3632 25.2443 15.3554C25.224 15.3647 25.204 15.3739 25.1837 15.3832C25.1791 15.3617 25.1745 15.3402 25.1814 15.3724C25.1676 15.3407 25.176 15.3604 25.1858 15.3787ZM26.9036 30.6987C27.051 30.5517 27.2114 30.4149 27.3438 30.2562C29.549 27.6137 30.2651 24.6169 29.4869 21.3094C28.923 18.9139 27.5763 16.9904 25.5366 15.5344C25.4666 15.4844 25.3929 15.4387 25.3211 15.3912C25.3113 15.4049 25.3015 15.4187 25.292 15.4324C25.3434 15.4862 25.3934 15.5409 25.446 15.5937C27.6598 17.8109 28.6987 20.4714 28.6156 23.5564C28.6073 23.8642 28.6061 24.1727 28.6171 24.4802C28.6494 25.3919 28.5668 26.2927 28.3651 27.1834C28.094 28.3804 27.6259 29.4989 26.9611 30.5399C26.9308 30.5872 26.9252 30.6494 26.908 30.7047C26.8916 30.7077 26.8751 30.7104 26.8587 30.7134C26.8613 30.7207 26.8636 30.7279 26.8662 30.7354C26.8787 30.7232 26.8911 30.7109 26.9036 30.6987ZM10.0612 23.6807C10.0561 24.6819 10.2119 25.7789 10.5381 26.7552C11.4508 29.4879 13.2102 31.5147 15.8754 32.7757C15.9819 32.8259 16.0971 32.8654 16.2129 32.8889C17.3366 33.1179 18.4684 33.1594 19.6031 32.9874C21.7706 32.6589 23.6178 31.7157 25.1434 30.1862C26.582 28.7442 27.4752 27.0194 27.8659 25.0487C27.9467 24.6414 28.0309 24.2299 27.9898 23.8097C27.8376 22.2594 27.3554 20.8107 26.4968 19.4984C24.7061 16.7609 22.1605 15.1889 18.8203 14.9182C17.3597 14.7999 15.9426 15.0444 14.5813 15.5814C14.0952 15.7732 13.6278 15.9899 13.2656 16.3759C13.1445 16.5049 13.0097 16.6217 12.8876 16.7497C11.0206 18.7027 10.1102 21.0254 10.0612 23.6807ZM8.86389 27.8979C8.84797 27.9054 8.83206 27.9129 8.81615 27.9204C8.83463 27.9822 8.85105 28.0444 8.8721 28.1054C9.45241 29.7819 10.4185 31.2112 11.7721 32.3907C14.435 34.7117 18.2064 35.4112 21.5168 34.1994C21.5728 34.1789 21.6249 34.1482 21.6788 34.1224C21.5112 34.1014 21.3602 34.1249 21.2086 34.1429C21.0474 34.1619 20.8859 34.1807 20.7242 34.1914C19.105 34.2969 17.5385 34.0767 16.036 33.4654C15.9339 33.4239 15.8292 33.3857 15.7224 33.3584C12.7795 32.6029 10.5997 30.8942 9.10284 28.3324C9.01942 28.1894 8.94319 28.0427 8.86389 27.8979ZM27.5681 20.1352C27.5597 20.0914 27.5555 20.0462 27.5417 20.0039C27.34 19.3837 27.0779 18.7882 26.7517 18.2204C25.7207 16.4252 24.2718 15.0537 22.3723 14.1452C22.1834 14.0549 21.9767 13.9819 21.7701 13.9484C21.3328 13.8772 20.8916 13.8174 20.4493 13.7882C19.0906 13.6977 17.7767 13.9122 16.5057 14.3839C16.4382 14.4089 16.3741 14.4424 16.3084 14.4722C18.6229 14.1079 20.8295 14.4027 22.9064 15.4657C24.9766 16.5252 26.4994 18.1134 27.5681 20.1352ZM8.82128 20.1774C8.86363 20.0967 8.90546 20.0157 8.94858 19.9352C9.9452 18.0684 11.3694 16.6027 13.2585 15.5724C13.355 15.5197 13.4504 15.4622 13.5369 15.3954C15.0243 14.2494 16.7003 13.5339 18.5844 13.2904C18.6484 13.2822 18.71 13.2577 18.7726 13.2407C13.4581 12.9417 9.76605 16.6732 8.82128 20.1774ZM27.5304 27.9657C25.7273 31.1674 23.0201 33.1024 19.2851 33.6262C20.8195 33.7262 22.2899 33.4889 23.6954 32.8974C23.96 32.7862 24.2428 32.6772 24.4582 32.4994C25.8798 31.3262 26.8772 29.8659 27.4842 28.1514C27.5055 28.0912 27.5153 28.0277 27.5304 27.9657ZM27.5905 20.2164C27.5887 20.2227 27.5869 20.2289 27.5853 20.2352C27.5928 20.2372 27.6005 20.2389 27.6079 20.2409C27.6071 20.2339 27.6082 20.2262 27.6053 20.2199C27.6041 20.2174 27.5956 20.2177 27.5905 20.2164Z" fill="#F6F7EB"/>
<path d="M69.2036 32.7303C68.6433 32.7303 68.1074 32.7303 67.544 32.7303C67.544 32.6405 67.544 32.5508 67.544 32.461C67.544 30.536 67.5476 28.611 67.5422 26.686C67.5402 25.985 67.4922 25.2865 67.2573 24.6158C67.1778 24.3883 67.0859 24.1623 66.9753 23.9478C66.6524 23.322 66.1342 22.9328 65.4307 22.78C64.8883 22.6623 64.3432 22.6543 63.8029 22.7748C63.0078 22.952 62.4272 23.4178 62.0145 24.092C61.6434 24.6983 61.4755 25.367 61.4065 26.0603C61.3718 26.4078 61.3618 26.7585 61.3608 27.108C61.3564 28.883 61.3587 30.658 61.3587 32.433C61.3587 32.5243 61.3587 32.6158 61.3587 32.7248C60.8069 32.7248 60.2659 32.7248 59.6973 32.7248C59.6973 32.6335 59.6973 32.5445 59.6973 32.4555C59.6973 30.3473 59.7002 28.2388 59.6956 26.1305C59.6943 25.5633 59.6468 24.998 59.4974 24.4473C59.2826 23.6558 58.8301 23.0558 57.9903 22.8255C56.6734 22.4645 55.4365 22.8128 54.58 23.8933C54.1437 24.4438 53.8737 25.074 53.7605 25.7565C53.6886 26.1903 53.6499 26.6335 53.6468 27.073C53.6345 28.8645 53.6417 30.6563 53.6417 32.448C53.6417 32.5375 53.6417 32.6273 53.6417 32.7295C53.0821 32.7295 52.546 32.7295 51.9754 32.7295C51.9734 32.638 51.969 32.542 51.969 32.446C51.9687 29.746 51.9746 27.046 51.9652 24.346C51.9621 23.4883 51.9174 22.6308 51.892 21.7733C51.8907 21.7323 51.8917 21.691 51.8917 21.6313C52.4097 21.6313 52.9253 21.6313 53.461 21.6313C53.5506 22.2358 53.5457 22.849 53.6104 23.4705C53.6455 23.4188 53.6825 23.3678 53.7158 23.315C54.5269 22.038 55.7116 21.3883 57.2442 21.3463C57.592 21.3368 57.949 21.3583 58.2893 21.4255C59.4379 21.6528 60.215 22.345 60.724 23.3495C60.7692 23.439 60.8082 23.5315 60.8629 23.6498C60.9116 23.5768 60.9535 23.5205 60.9886 23.461C61.8151 22.059 63.0701 21.3733 64.7174 21.341C65.232 21.331 65.7407 21.365 66.2438 21.4863C67.3028 21.7415 68.0776 22.3438 68.5938 23.2735C68.9028 23.8303 69.0807 24.4273 69.1487 25.053C69.1864 25.4 69.2013 25.751 69.2021 26.1003C69.2067 28.2168 69.2044 30.3335 69.2044 32.45C69.2036 32.5395 69.2036 32.629 69.2036 32.7303Z" fill="#F6F7EB"/>
<path d="M97.2735 26.9533C97.2524 28.7443 96.7558 30.1355 95.6301 31.283C94.8144 32.1145 93.8101 32.63 92.6603 32.8625C91.2622 33.1453 89.8847 33.0735 88.566 32.5043C86.7067 31.7015 85.6057 30.295 85.2196 28.3663C84.965 27.0938 85.081 25.8403 85.6416 24.653C86.4773 22.8825 87.9118 21.826 89.8591 21.458C91.3223 21.1815 92.7557 21.3158 94.1045 21.9823C95.7446 22.7928 96.7242 24.1053 97.1208 25.8363C97.2211 26.272 97.2437 26.725 97.2735 26.9533ZM95.5323 27.1598C95.4807 26.781 95.4568 26.3965 95.3724 26.025C95.1293 24.9545 94.5857 24.0613 93.6505 23.4225C92.8666 22.8873 91.9883 22.6673 91.0364 22.6953C89.6127 22.7373 88.4572 23.3023 87.6838 24.4643C86.651 26.0165 86.5977 27.6718 87.3635 29.3465C87.7878 30.2745 88.5093 30.9333 89.4741 31.3245C90.1837 31.6123 90.9268 31.6815 91.6878 31.6055C92.901 31.4845 93.8894 30.9668 94.6101 30.0038C95.2412 29.161 95.5028 28.1998 95.5323 27.1598Z" fill="#F6F7EB"/>
<path d="M118.829 27.0918C118.808 28.7528 118.309 30.1435 117.182 31.2893C116.365 32.1195 115.36 32.6345 114.21 32.8645C112.766 33.1533 111.348 33.0678 109.999 32.4508C108.215 31.635 107.156 30.2513 106.78 28.383C106.522 27.1023 106.636 25.8403 107.203 24.6455C108.041 22.8765 109.478 21.8265 111.425 21.456C112.735 21.2065 114.034 21.2942 115.275 21.8085C117.136 22.5795 118.247 23.9605 118.689 25.8685C118.732 26.0548 118.763 26.245 118.783 26.435C118.809 26.683 118.819 26.933 118.829 27.0918ZM117.09 27.1765C117.039 26.7978 117.016 26.4133 116.933 26.0415C116.694 24.9703 116.154 24.0753 115.222 23.4328C114.432 22.8887 113.546 22.6662 112.585 22.6957C111.172 22.739 110.03 23.3052 109.248 24.4498C108.305 25.8315 108.187 27.3413 108.727 28.8955C109.119 30.0233 109.879 30.8485 111.016 31.3175C111.733 31.6133 112.484 31.6813 113.254 31.6053C114.32 31.5 115.226 31.079 115.933 30.29C116.728 29.402 117.049 28.343 117.09 27.1765Z" fill="#F6F7EB"/>
<path d="M40.336 21.6369C40.9004 21.6369 41.4363 21.6369 41.9925 21.6369C41.9925 21.7399 41.9925 21.8299 41.9925 21.9197C41.994 23.9774 41.9886 26.0351 42.0007 28.0929C42.0045 28.7606 42.0882 29.4224 42.3505 30.0494C42.7242 30.9434 43.4069 31.4564 44.3825 31.6054C45.0727 31.7109 45.7467 31.6691 46.3896 31.3819C47.2078 31.0161 47.7474 30.3931 48.1021 29.6029C48.4193 28.8961 48.5297 28.1521 48.5289 27.3869C48.5273 25.5706 48.5284 23.7546 48.5284 21.9384C48.5284 21.8472 48.5284 21.7559 48.5284 21.6676C48.7186 21.6121 49.938 21.6041 50.1921 21.6551C50.2413 25.3404 50.1312 29.0284 50.2675 32.7284C49.7673 32.7284 49.2573 32.7284 48.7114 32.7284C48.6298 32.1234 48.6187 31.5049 48.609 30.8729C48.5771 30.8861 48.5466 30.8891 48.5384 30.9039C47.9889 31.9051 47.1013 32.4984 46.0172 32.8144C44.8391 33.1576 43.6664 33.0934 42.5376 32.6009C41.7273 32.2474 41.1904 31.6214 40.8182 30.8531C40.4615 30.1166 40.3298 29.3309 40.328 28.5241C40.3229 26.2914 40.3262 24.0586 40.3267 21.8259C40.3267 21.7692 40.3321 21.7124 40.336 21.6369Z" fill="#F6F7EB"/>
<path d="M74.2953 21.6326C74.8278 21.6326 75.3389 21.6326 75.8678 21.6326C75.9515 22.2474 75.9536 22.8606 75.9823 23.4896C76.0118 23.4696 76.036 23.4619 76.0449 23.4459C76.6427 22.3849 77.597 21.7741 78.7653 21.4816C79.8718 21.2049 80.9728 21.2796 82.0239 21.7419C82.9502 22.1494 83.5184 22.8816 83.8819 23.7794C84.1321 24.3976 84.2453 25.0449 84.2466 25.7079C84.2514 27.9903 84.2504 30.2731 84.2512 32.5558C84.2512 32.6116 84.244 32.6673 84.2396 32.7321C83.6888 32.7321 83.154 32.7321 82.5903 32.7321C82.5903 32.6351 82.5903 32.5461 82.5903 32.4571C82.5903 30.4661 82.5942 28.4748 82.588 26.4838C82.5862 25.8498 82.5308 25.2186 82.3411 24.6076C82.0685 23.7304 81.5278 23.0826 80.5968 22.8329C78.9611 22.3941 77.4235 22.9556 76.6093 24.4759C76.1748 25.2869 76.0421 26.1623 76.0398 27.0623C76.0352 28.8533 76.0385 30.6446 76.0385 32.4358C76.0385 32.5271 76.0385 32.6183 76.0385 32.7261C75.4926 32.7261 74.958 32.7261 74.3884 32.7261C74.3861 32.6396 74.3813 32.5438 74.3813 32.4483C74.3807 29.6991 74.3872 26.9501 74.3769 24.2009C74.3741 23.4186 74.3235 22.6366 74.2955 21.8546C74.2932 21.7889 74.2953 21.7229 74.2953 21.6326Z" fill="#F6F7EB"/>
<path d="M126.985 21.5684C127.471 21.5684 127.941 21.5684 128.43 21.5684C130.061 25.2661 131.695 28.9716 133.341 32.7034C133.254 32.7091 133.191 32.7166 133.127 32.7166C132.683 32.7176 132.238 32.7068 131.793 32.7223C131.613 32.7286 131.542 32.6608 131.479 32.5091C131.16 31.7394 130.83 30.9741 130.504 30.2076C130.472 30.1316 130.435 30.0574 130.399 29.9791C128.567 29.9791 126.748 29.9791 124.913 29.9791C124.714 30.4511 124.517 30.9181 124.32 31.3854C124.152 31.7846 123.981 32.1829 123.819 32.5844C123.782 32.6748 123.739 32.7193 123.636 32.7186C123.123 32.7143 122.609 32.7151 122.096 32.7129C122.082 32.7129 122.069 32.6978 122.037 32.6796C123.685 28.9774 125.335 25.2726 126.985 21.5684ZM129.826 28.6194C129.574 28.0004 129.341 27.4234 129.106 26.8469C128.868 26.2609 128.635 25.6729 128.388 25.0904C128.147 24.5231 127.944 23.9399 127.66 23.3594C127.365 23.9131 125.532 28.4354 125.526 28.6196C126.942 28.6194 128.358 28.6194 129.826 28.6194Z" fill="#F6F7EB"/>
<path d="M102.887 32.735C102.269 32.735 101.672 32.735 101.047 32.735C99.5036 29.052 97.957 25.3603 96.4016 21.6485C97.0268 21.6485 97.63 21.6485 98.2629 21.6485C99.49 24.761 100.722 27.8868 101.954 31.0123C101.97 31.013 101.987 31.014 102.003 31.0148C103.242 27.893 104.481 24.771 105.721 21.644C106.311 21.644 106.89 21.644 107.509 21.644C105.964 25.3508 104.425 29.043 102.887 32.735Z" fill="#F6F7EB"/>
<path d="M36.9766 14.8066C37.5215 14.8066 38.05 14.8066 38.5782 14.8066C38.6321 14.9924 38.6585 32.0459 38.6049 32.7266C38.0718 32.7266 37.5372 32.7266 37.0002 32.7266C36.9471 32.5496 36.9209 15.4619 36.9766 14.8066Z" fill="#F6F7EB"/>
<path d="M72.5708 32.7377C72.0115 32.7377 71.4818 32.7377 70.9538 32.7377C70.8992 32.5652 70.8786 22.0495 70.932 21.646C71.4746 21.646 72.0184 21.646 72.5708 21.646C72.5708 25.343 72.5708 29.0292 72.5708 32.7377Z" fill="#F6F7EB"/>
<path d="M134.554 21.5732C135.07 21.5732 135.579 21.5732 136.101 21.5732C136.101 25.2862 136.101 28.9892 136.101 32.7052C135.58 32.7052 135.072 32.7052 134.554 32.7052C134.554 28.9897 134.554 25.2852 134.554 21.5732Z" fill="#F6F7EB"/>
<path d="M70.5786 17.3655C70.5812 16.731 71.0973 16.238 71.7554 16.2412C72.4094 16.2447 72.9181 16.7467 72.914 17.385C72.9099 18.0202 72.3953 18.5112 71.7354 18.5092C71.0832 18.507 70.5761 18.0055 70.5786 17.3655Z" fill="#F6F7EB"/>
<path d="M119.999 32.7875C119.482 32.782 119.067 32.3815 119.068 31.89C119.068 31.3707 119.499 30.9692 120.042 30.9822C120.571 30.995 120.978 31.3837 120.972 31.8795C120.966 32.3955 120.523 32.8222 119.999 32.7875Z" fill="#F6F7EB"/>
<path d="M27.5914 20.2168C27.5971 20.2182 27.6062 20.2179 27.6076 20.2209C27.6107 20.2279 27.6099 20.2362 27.6104 20.2442C27.6022 20.242 27.5937 20.24 27.5854 20.2378C27.5877 20.2306 27.5897 20.2237 27.5914 20.2168Z" fill="#F6F7EB"/>
<path d="M25.1841 15.3794C25.1756 15.3597 25.1671 15.3399 25.1807 15.3717C25.1738 15.3394 25.1784 15.3609 25.1831 15.3824L25.1841 15.3794Z" fill="#F6F7EB"/>
<path d="M11.2099 17.7778C11.2299 17.7783 11.25 17.7786 11.2697 17.7791C11.2484 17.7791 11.2271 17.7788 11.2056 17.7788L11.2099 17.7778Z" fill="#F6F7EB"/>
<path d="M11.2048 17.7779C11.2207 17.7929 11.2369 17.8076 11.2528 17.8226C11.242 17.8314 11.2315 17.8401 11.2207 17.8489C11.2174 17.8251 11.2143 17.8014 11.21 17.7774C11.2089 17.7771 11.2048 17.7779 11.2048 17.7779Z" fill="#F6F7EB"/>
<path d="M25.1851 15.3827C25.2053 15.3735 25.2254 15.3642 25.2456 15.355C25.2261 15.3627 25.2066 15.3705 25.1866 15.3787C25.1858 15.3795 25.1851 15.3827 25.1851 15.3827Z" fill="#F6F7EB"/>
<path d="M26.9023 30.6992C26.8898 30.7115 26.8772 30.7237 26.8649 30.736C26.8623 30.7287 26.86 30.7215 26.8574 30.714C26.8738 30.711 26.8903 30.7082 26.9067 30.7052C26.9067 30.7055 26.9023 30.6992 26.9023 30.6992Z" fill="#F6F7EB"/>
<path d="M12.8676 31.4226C12.8853 31.4406 12.903 31.4583 12.9207 31.4763L12.924 31.4748C12.8943 31.4696 12.8642 31.4643 12.8345 31.4591C12.846 31.4471 12.8578 31.4348 12.8699 31.4226C12.8704 31.4221 12.8676 31.4226 12.8676 31.4226Z" fill="#F6F7EB"/>
<path d="M12.9213 31.4749C12.9211 31.4904 12.9205 31.5057 12.9203 31.5212C12.9128 31.5184 12.9051 31.5154 12.8977 31.5127C12.9062 31.4999 12.9146 31.4869 12.9239 31.4737C12.9247 31.4734 12.9213 31.4749 12.9213 31.4749Z" fill="#F6F7EB"/>
</svg>
