<svg width="144" height="48" viewBox="0 0 144 48" fill="none" xmlns="http://www.w3.org/2000/svg">
<path fill-rule="evenodd" clip-rule="evenodd" d="M102.653 22.606L97.5767 31.5849L93.2458 31.6025L102.653 14.7026L112.024 31.6025H107.625L102.653 22.6052V22.606ZM88.9846 27.6937H93.8352L91.5834 31.6025H85.2615L85.2787 26.8432V14.8066H89.003L88.9858 27.6942L88.9846 27.6937ZM75.6819 14.8074C80.3068 14.825 84.0483 18.5761 84.0311 23.2129C84.014 27.833 80.2725 31.5849 75.6464 31.5849C71.0387 31.5673 67.2972 27.8162 67.2972 23.1785C67.3144 18.5585 71.0563 14.8074 75.6819 14.8074ZM75.6648 27.677C78.1415 27.677 80.1329 25.679 80.1329 23.2125C80.1509 20.7469 78.1415 18.7317 75.6819 18.7317C73.2215 18.7141 71.2122 20.7297 71.2122 23.1961C71.195 25.6618 73.2044 27.677 75.664 27.677H75.6648ZM60.4034 21.8788C60.352 21.183 60.1777 20.2628 59.918 19.3779C59.3832 17.5499 58.4539 15.8697 57.1988 14.4618C56.5403 13.7329 55.7957 13.0547 54.6861 12.2562C53.8402 11.8274 53.0086 11.37 52.1922 10.8843C51.6554 10.5719 51.0141 10.1886 50.1657 9.91135C49.1603 9.6677 48.1321 9.53379 47.0991 9.51249C46.0956 9.47728 45.0898 9.56532 44.1198 9.75533C43.0976 9.92896 42.2485 10.2062 41.1226 10.4843C38.5756 11.6133 36.6014 13.3152 34.9036 15.5736C28.9789 24.0667 34.332 35.9645 44.2235 37.3708C45.852 37.5972 47.4808 37.51 49.0215 37.1456L50.1131 36.8507C50.1474 36.8331 50.1996 36.8155 50.2339 36.8155L51.4819 36.3294C51.5505 36.2942 51.6027 36.2766 51.6721 36.2422L52.1918 35.9993C53.1889 35.494 54.125 34.8703 54.9805 34.1414C54.2015 34.8683 53.3544 35.5137 52.4515 36.069L52.5029 36.1042C52.6768 36.0514 52.8323 35.9993 53.0054 35.9649C53.0054 35.9649 53.0054 36.2422 52.9711 36.1902C52.694 36.399 53.1271 36.2078 53.6811 35.9121C54.2358 35.6173 54.7727 35.2516 55.2573 34.8351C55.9684 34.2274 56.5918 33.5673 57.4748 32.4911C58.3753 30.8752 59.502 29.4681 60.0217 27.575C60.1948 27.0713 60.3504 26.4812 60.4549 25.8731C60.5578 25.2654 60.628 24.6405 60.628 23.9975C60.6116 23.3546 60.5422 22.6941 60.4034 21.8788ZM47.5841 36.1558C50.6156 35.6689 53.1618 33.9502 55.2405 31.6053C55.8124 30.754 56.2627 29.9718 56.8167 29.1213C57.5095 27.3842 57.458 25.8387 57.683 24.7449C57.961 22.7637 57.3021 21.1666 56.7481 19.4643C55.899 17.4839 54.7731 16.0081 52.798 14.8619C47.8086 11.7009 41.0185 12.5858 37.7792 17.3107C37.762 17.3107 37.6747 17.4323 37.5012 17.6752C37.7269 16.703 38.2988 16.1297 38.87 15.5732C40.5678 14.1493 42.5428 13.0195 44.795 12.465C47.342 12.187 49.8702 12.465 52.1392 13.594C55.5352 15.5736 57.7871 18.6834 58.3582 22.364V25.7691C57.6487 31.3445 52.9715 35.5825 47.5841 36.1558ZM60.0397 23.4762C59.918 15.3136 52.0016 9.80775 44.2929 10.92C42.0411 11.4925 39.5807 12.6387 37.831 14.237C36.9819 14.8095 36.5843 15.8693 35.7351 16.7202C32.3391 21.8091 32.9289 28.3223 37.155 32.2831C37.697 32.8335 38.2761 33.3441 38.8871 33.8118C35.3543 31.6393 33.7601 28.3559 33.2061 24.3628C33.2061 22.9382 33.4833 21.5311 33.7773 20.1072C35.7531 13.8713 41.9713 9.33845 48.7455 10.4847C49.8714 10.7627 50.9973 11.058 52.1416 11.336C53.5618 11.9085 54.9649 12.7599 56.0908 13.8897C57.2167 15.0175 58.0658 16.4422 58.915 17.8484C59.4861 18.9782 59.7641 20.4021 60.0409 21.5307C60.0923 22.1736 60.0923 22.8337 60.0409 23.4767L60.0397 23.4762Z" fill="#F6F7EB"/>
<path fill-rule="evenodd" clip-rule="evenodd" d="M53.0055 23.5971C53.0055 27.1061 50.1299 29.9547 46.5787 29.9547C43.0282 29.9547 40.1519 27.1061 40.1519 23.5971C40.1519 20.0892 43.0274 17.2407 46.5787 17.2407C50.1299 17.2407 53.0055 20.0892 53.0055 23.5983V23.5971Z" fill="#F6F7EB"/>
<path fill-rule="evenodd" clip-rule="evenodd" d="M53.0405 22.5213C52.9539 22.0352 52.8147 21.6531 52.6767 21.115C52.122 19.9332 51.3079 19.013 50.2335 18.2313C46.2148 15.5052 40.6886 18.1273 40.1003 22.7825C39.8758 24.6237 40.5163 26.3952 41.6594 27.7506C41.3128 27.3854 40.9323 27.0041 40.6723 26.5688L40.638 26.604C40.6723 26.708 40.811 26.7777 40.8453 26.8813C40.8453 26.8813 40.7066 26.8813 40.7417 26.8637C40.638 26.7429 40.7245 26.9341 40.8796 27.1937C41.0184 27.4542 41.1919 27.6982 41.3993 27.9239C41.6945 28.2539 42.0056 28.5492 42.5252 28.9489C43.2886 29.3477 43.9634 29.869 44.8468 30.1119C45.0897 30.1823 45.3665 30.2511 45.6445 30.3031C45.9389 30.3559 46.2156 30.3735 46.5279 30.3735C46.8223 30.3735 47.1342 30.3383 47.515 30.2679C47.9075 30.2204 48.296 30.1393 48.6752 30.0259C49.5232 29.7638 50.3041 29.3129 50.9626 28.7052C51.292 28.3936 51.7602 27.9939 52.1228 27.4726C52.4179 26.8825 52.4522 26.5868 52.591 26.326C52.729 26.0655 52.9025 25.7703 53.0241 25.3706C53.1234 24.8964 53.1813 24.414 53.1972 23.9291C53.1801 23.4431 53.1458 22.9738 53.0413 22.5221L53.0405 22.5213ZM48.9173 19.2915C49.5064 19.6383 49.593 19.6903 49.2811 19.4651C49.7322 19.5691 50.0093 19.8296 50.2861 20.0904C50.9618 20.8722 51.5157 21.7923 51.7929 22.8517C51.9489 24.0499 51.8272 25.2486 51.3255 26.3088C50.4249 27.9235 48.9867 29.0005 47.2718 29.2957C47.0815 29.2957 46.8737 29.2957 46.6827 29.3133C47.1681 29.2261 47.4803 28.9136 48.3634 28.5832C49.3154 28.2363 50.3898 26.6212 50.9103 25.6826C52.4343 23.1286 50.6323 20.7669 48.9173 19.2915ZM45.6609 29.3293C43.0282 29.0521 41.0009 26.846 40.7237 24.2928C40.9654 25.7174 41.7974 26.8112 42.9233 27.7842C43.3221 28.0447 43.9104 28.4095 44.3092 28.67C44.9848 28.9304 45.3829 29.2089 46.0414 29.3305H45.6605L45.6609 29.3293ZM52.7453 24.6925C52.6253 25.2314 52.5037 25.7518 52.3816 26.2908C52.1216 26.9513 51.7411 27.6282 51.2214 28.1663C50.7017 28.7052 50.0432 29.1217 49.3852 29.5213C48.8655 29.7986 48.207 29.9378 47.6702 30.0762C47.3579 30.1114 46.9946 29.9722 46.6823 29.9554C50.5286 29.8506 53.1613 26.1867 52.5902 22.5565C52.3122 21.4971 51.7582 20.5761 51.0826 19.6559C50.8054 19.2563 50.2678 19.013 49.8702 18.6133C47.462 17.0679 44.2753 17.3807 42.4562 19.4127C42.201 19.6797 41.9637 19.9639 41.7451 20.2632C42.7159 18.8042 44.2749 17.78 46.1454 17.4843C46.8039 17.4667 47.4799 17.5892 48.1376 17.7108C51.0483 18.6133 53.2136 21.4971 52.7453 24.6933V24.6925Z" fill="#131112"/>
</svg>
