<?xml version="1.0" encoding="utf-8"?>
<!-- Generator: Adobe Illustrator 24.0.2, SVG Export Plug-In . SVG Version: 6.00 Build 0)  -->
<svg version="1.1" id="Layer_1" xmlns="http://www.w3.org/2000/svg" xmlns:xlink="http://www.w3.org/1999/xlink" x="0px" y="0px"
	 viewBox="0 0 533.71 187.37" style="enable-background:new 0 0 533.71 187.37;" xml:space="preserve">
<style type="text/css">
	.st0{fill-rule:evenodd;clip-rule:evenodd;fill:#FFFFFF;}
</style>
<g transform="matrix(.26458333 0 0 .26458333 .10983 .124)">
	<path class="st0" d="M1771.04,331.78l-127.27,219.26l-108.59,0.43l235.86-412.69l234.98,412.69h-110.31l-124.67-219.71
		L1771.04,331.78z M1428.34,456.02h121.62l-56.46,95.45h-158.51l0.43-116.22V141.32h93.38l-0.43,314.71L1428.34,456.02z
		 M1094.8,141.34c115.96,0.43,209.77,92.03,209.34,205.26c-0.43,112.82-94.24,204.44-210.23,204.44
		c-115.53-0.43-209.34-92.03-209.34-205.28C885,232.94,978.82,141.34,1094.8,141.34z M1094.37,455.61
		c62.1,0,112.03-48.79,112.03-109.02c0.45-60.21-49.93-109.42-111.6-109.42c-61.69-0.43-112.07,48.79-112.07,109.02
		c-0.43,60.21,49.95,109.42,111.62,109.42H1094.37z M711.72,314.02c-1.29-16.99-5.66-39.46-12.17-61.07
		c-13.41-44.64-36.71-85.67-68.18-120.05c-16.51-17.8-35.18-34.36-63-53.86c-21.21-10.47-42.06-21.64-62.53-33.5
		c-13.46-7.63-29.54-16.99-50.81-23.76c-25.21-5.95-50.99-9.22-76.89-9.74c-25.16-0.86-50.38,1.29-74.7,5.93
		c-25.63,4.24-46.92,11.01-75.15,17.8c-63.86,27.57-113.36,69.13-155.93,124.28C-76.19,367.45,58.03,657.99,306.04,692.33
		c40.83,5.53,81.67,3.4,120.3-5.5l27.37-7.2c0.86-0.43,2.17-0.86,3.03-0.86l31.29-11.87c1.72-0.86,3.03-1.29,4.77-2.13l13.03-5.93
		c25-12.34,48.47-27.57,69.92-45.37c-19.53,17.75-40.77,33.51-63.41,47.07l1.29,0.86c4.36-1.29,8.26-2.56,12.6-3.4
		c0,0,0,6.77-0.86,5.5c-6.95,5.1,3.91,0.43,17.8-6.79c13.91-7.2,27.37-16.13,39.52-26.3c17.83-14.84,33.46-30.96,55.6-57.24
		c22.58-39.46,50.83-73.82,63.86-120.05c4.34-12.3,8.24-26.71,10.86-41.56c2.58-14.84,4.34-30.1,4.34-45.8
		C716.94,350.06,715.2,333.93,711.72,314.02L711.72,314.02z M390.3,662.66c76.01-11.89,139.85-53.86,191.97-111.12
		c14.34-20.79,25.63-39.89,39.52-60.66c17.37-42.42,16.08-80.16,21.72-106.87c6.97-48.38-9.55-87.38-23.44-128.95
		c-21.29-48.36-49.52-84.4-99.04-112.39c-125.1-77.19-295.35-55.58-376.57,59.8c-0.43,0-2.62,2.97-6.97,8.9
		c5.66-23.74,20-37.74,34.32-51.33c42.57-34.77,92.09-62.36,148.56-75.9c63.86-6.79,127.25,0,184.14,27.57
		c85.15,48.34,141.61,124.28,155.93,214.16v83.15C642.65,545.17,525.38,648.66,390.3,662.66L390.3,662.66z M702.6,353.03
		C699.55,153.7,501.06,19.25,307.78,46.41c-56.46,13.98-118.15,41.97-162.02,81c-21.29,13.98-31.26,39.86-52.55,60.64
		C8.06,312.32,22.85,471.37,128.81,568.09c13.59,13.44,28.11,25.91,43.43,37.33C83.66,552.37,43.69,472.19,29.8,374.68
		c0-34.79,6.95-69.15,14.32-103.92C93.66,118.48,249.57,7.79,419.42,35.78c28.23,6.79,56.46,14,85.15,20.79
		c35.61,13.98,70.79,34.77,99.02,62.36c28.23,27.54,49.52,62.33,70.81,96.67c14.32,27.59,21.29,62.36,28.23,89.92
		c1.29,15.7,1.29,31.82,0,47.52L702.6,353.03z"/>
	<path class="st0" d="M526.24,355.99c0,85.69-72.1,155.25-161.14,155.25c-89.02,0-161.14-69.56-161.14-155.25
		c0-85.66,72.1-155.22,161.14-155.22s161.14,69.56,161.14,155.25V355.99z"/>
	<path class="st0" d="M527.12,329.7c-2.17-11.87-5.66-21.2-9.12-34.34c-13.91-28.86-34.32-51.33-61.26-70.42
		c-100.76-66.57-239.32-2.54-254.07,111.14c-5.63,44.96,10.43,88.22,39.09,121.32c-8.69-8.92-18.23-18.23-24.75-28.86l-0.86,0.86
		c0.86,2.54,4.34,4.24,5.2,6.77c0,0-3.48,0-2.6-0.43c-2.6-2.95-0.43,1.72,3.46,8.06c3.48,6.36,7.83,12.32,13.03,17.83
		c7.4,8.06,15.2,15.27,28.23,25.03c19.14,9.74,36.06,22.47,58.21,28.4c6.09,1.72,13.03,3.4,20,4.67c7.38,1.29,14.32,1.72,22.15,1.72
		c7.38,0,15.2-0.86,24.75-2.58c9.84-1.16,19.58-3.14,29.09-5.91c21.26-6.4,40.84-17.41,57.35-32.25c8.26-7.61,20-17.37,29.09-30.1
		c7.4-14.41,8.26-21.63,11.74-28c3.46-6.36,7.81-13.57,10.86-23.33c2.49-11.58,3.94-23.36,4.34-35.2
		c-0.43-11.87-1.29-23.33-3.91-34.36L527.12,329.7z M423.74,250.83c14.77,8.47,16.94,9.74,9.12,4.24
		c11.31,2.54,18.26,8.9,25.2,15.27c16.94,19.09,30.83,41.56,37.78,67.43c3.91,29.26,0.86,58.53-11.72,84.42
		c-22.58,39.43-58.64,65.73-101.64,72.94c-4.77,0-9.98,0-14.77,0.43c12.17-2.13,20-9.76,42.14-17.83
		c23.87-8.47,50.81-47.91,63.86-70.83C511.92,344.53,466.74,286.86,423.74,250.83L423.74,250.83z M342.09,495.95
		c-66.01-6.77-116.84-60.64-123.79-122.99c6.06,34.79,26.92,61.5,55.15,85.26c10,6.36,24.75,15.27,34.75,21.63
		c16.94,6.36,26.92,13.16,43.43,16.13h-9.55L342.09,495.95z M519.72,382.72c-3.01,13.16-6.06,25.87-9.12,39.03
		c-6.52,16.13-16.06,32.66-29.09,45.8c-13.03,13.16-29.54,23.33-46.04,33.09c-13.03,6.77-29.54,10.17-43,13.55
		c-7.83,0.86-16.94-2.54-24.77-2.95c96.44-2.56,162.45-92.03,148.13-180.68c-6.97-25.87-20.86-48.36-37.8-70.83
		c-6.95-9.76-20.43-15.7-30.4-25.46c-60.38-37.74-140.28-30.1-185.89,19.52c-6.4,6.52-12.35,13.46-17.83,20.77
		c24.34-35.63,63.43-60.64,110.33-67.86c16.51-0.43,33.46,2.56,49.95,5.53c72.98,22.04,127.27,92.46,115.53,170.51V382.72z"/>
</g>
</svg>
