<svg width="144" height="48" viewBox="0 0 144 48" fill="none" xmlns="http://www.w3.org/2000/svg">
<path d="M97.5765 31.5839L102.652 22.6051L107.625 31.6015H112.024L102.652 14.7016L93.2455 31.6015L97.5765 31.5839Z" fill="#F6F7EB"/>
<path fill-rule="evenodd" clip-rule="evenodd" d="M93.835 27.6928H88.9856L89.0027 14.8056H85.2784V26.8422L85.2613 31.6015H91.5832L93.835 27.6928Z" fill="#F6F7EB"/>
<path fill-rule="evenodd" clip-rule="evenodd" d="M84.0309 23.212C84.048 18.5751 80.3066 14.824 75.6817 14.8064C71.056 14.8064 67.3142 18.5575 67.297 23.1776C67.297 27.8152 71.0385 31.5663 75.6462 31.5839C80.2723 31.5839 84.0137 27.832 84.0309 23.212ZM80.1327 23.2115C80.1327 25.678 78.1413 27.676 75.6645 27.676C73.2049 27.676 71.1948 25.6608 71.212 23.1952C71.212 20.7287 73.2213 18.7131 75.6817 18.7307C78.1413 18.7307 80.1506 20.7459 80.1327 23.2115Z" fill="#F6F7EB"/>
<path d="M48.9586 19.315L48.9162 19.29C50.6312 20.7655 52.4332 23.1271 50.9092 25.6812C50.3887 26.6198 49.3143 28.2349 48.3623 28.5817C47.9465 28.7373 47.6573 28.8889 47.4169 29.0149C47.1468 29.1565 46.9384 29.2657 46.6816 29.3119C46.8726 29.2942 47.0804 29.2942 47.2707 29.2942C48.9856 28.999 50.4238 27.922 51.3244 26.3073C51.8261 25.2471 51.9478 24.0485 51.7918 22.8503C51.5146 21.7909 50.9607 20.8707 50.285 20.089C50.0082 19.8281 49.7311 19.5677 49.28 19.4636C49.5842 19.6834 49.5093 19.6393 48.9586 19.315Z" fill="#F6F7EB"/>
<path d="M40.7226 24.2913C40.9998 26.8446 43.0271 29.0506 45.6598 29.3278L45.6594 29.3291H46.0403C45.6089 29.2494 45.2894 29.1024 44.9303 28.9373C44.7412 28.8504 44.5412 28.7584 44.3081 28.6685C44.1087 28.5383 43.8619 28.382 43.6151 28.2256C43.3683 28.0693 43.1216 27.913 42.9222 27.7828C41.7963 26.8098 40.9643 25.716 40.7226 24.2913Z" fill="#F6F7EB"/>
<path d="M52.5255 25.6545C52.5988 25.3346 52.6718 25.0162 52.7442 24.691C53.2125 21.4948 51.0472 18.6119 48.1365 17.7093C47.4788 17.5877 46.8028 17.4653 46.1443 17.4829C44.2738 17.7785 42.7148 18.8027 41.744 20.2618C41.9626 19.9624 42.1999 19.6782 42.4551 19.4112C44.2742 17.3793 47.4609 17.0664 49.8691 18.6119C50.039 18.7827 50.2346 18.925 50.4245 19.0631C50.6788 19.2481 50.9228 19.4257 51.0815 19.6545C51.7571 20.5746 52.3111 21.4956 52.5891 22.555C53.1602 26.1853 50.5275 29.8491 46.6812 29.954C46.808 29.9608 46.9431 29.9878 47.0799 30.0151C47.2801 30.055 47.4836 30.0957 47.6691 30.0748C47.7476 30.0545 47.8286 30.0343 47.9115 30.0136C48.3955 29.8927 48.9404 29.7566 49.3841 29.5199C50.0421 29.1202 50.7006 28.7037 51.2203 28.1648C51.74 27.6267 52.1205 26.9498 52.3805 26.2893C52.4289 26.0756 52.4773 25.8647 52.5255 25.6545Z" fill="#F6F7EB"/>
<path fill-rule="evenodd" clip-rule="evenodd" d="M59.9178 19.3769C60.1774 20.2619 60.3517 21.182 60.4032 21.8778C60.542 22.6931 60.6114 23.3536 60.6277 23.9966C60.6277 24.6395 60.5575 25.2644 60.4546 25.8721C60.3501 26.4802 60.1946 27.0703 60.0215 27.574C59.648 28.9345 58.961 30.044 58.2698 31.1604C57.9992 31.5974 57.7279 32.0355 57.4745 32.4901C56.5915 33.5663 55.9681 34.2264 55.257 34.8341C54.7724 35.2506 54.2356 35.6163 53.6808 35.9111C53.1268 36.2068 52.6937 36.3981 52.9709 36.1892C53.0052 36.2412 53.0052 35.964 53.0052 35.964C52.8622 35.9924 52.7312 36.0328 52.5919 36.0758C52.5626 36.0849 52.5329 36.094 52.5027 36.1032L52.4512 36.068C53.3542 35.5127 54.2013 34.8673 54.9802 34.1404C54.1247 34.8694 53.1887 35.493 52.1916 35.9984L51.6719 36.2412C51.6392 36.2574 51.6103 36.2699 51.5818 36.2822C51.5497 36.2961 51.518 36.3098 51.4817 36.3284L50.2337 36.8145C50.1994 36.8145 50.1472 36.8321 50.1129 36.8497L49.0212 37.1446C47.4806 37.509 45.8517 37.5963 44.2233 37.3698C34.3318 35.9636 28.9787 24.0658 34.9033 15.5726C36.6012 13.3142 38.5754 11.6123 41.1223 10.4833C41.4924 10.3919 41.8326 10.3006 42.1588 10.213C42.8251 10.0342 43.4334 9.87091 44.1196 9.75435C45.0895 9.56434 46.0954 9.4763 47.0989 9.51152C48.1318 9.53281 49.16 9.66672 50.1655 9.91038C50.9782 10.176 51.6009 10.5389 52.1237 10.8436C52.1467 10.857 52.1694 10.8702 52.192 10.8834C53.0084 11.369 53.84 11.8265 54.6859 12.2552C55.7954 13.0537 56.5401 13.7319 57.1985 14.4608C58.4537 15.8687 59.3829 17.5489 59.9178 19.3769ZM55.2403 31.6044C53.1615 33.9492 50.6154 35.6679 47.5838 36.1548C52.9713 35.5815 57.6484 31.3435 58.3579 25.7681V22.363C57.7868 18.6824 55.535 15.5726 52.1389 13.5931C49.87 12.4641 47.3418 12.186 44.7948 12.4641C42.5426 13.0185 40.5676 14.1484 38.8697 15.5722C38.2986 16.1287 37.7267 16.702 37.5009 17.6742C37.6744 17.4314 37.7618 17.3097 37.7789 17.3097C41.0182 12.5849 47.8084 11.6999 52.7978 14.8609C54.7728 16.0071 55.8987 17.483 56.7479 19.4633C56.8122 19.6612 56.8781 19.8577 56.9437 20.0535C57.4423 21.5421 57.9284 22.993 57.6827 24.7439C57.6126 25.0848 57.5694 25.4695 57.5221 25.8903C57.4176 26.8196 57.2933 27.9245 56.8165 29.1203C56.5739 29.4926 56.3513 29.8518 56.1297 30.2095C55.8449 30.6689 55.5618 31.1257 55.2403 31.6044ZM44.2927 10.919C52.0013 9.80677 59.9178 15.3126 60.0394 23.4753L60.0406 23.4757C60.0921 22.8328 60.0921 22.1726 60.0406 21.5297C59.9967 21.3506 59.9527 21.164 59.9076 20.9724C59.6682 19.9565 59.3952 18.7979 58.9147 17.8474C58.8945 17.8139 58.8743 17.7804 58.8541 17.7469C58.025 16.3735 57.1897 14.9897 56.0906 13.8887C54.9647 12.7589 53.5616 11.9075 52.1413 11.335C51.501 11.1794 50.8664 11.0185 50.2344 10.8581C49.737 10.7319 49.2411 10.6061 48.7453 10.4837C41.9711 9.33748 35.7528 13.8703 33.777 20.1063C33.4831 21.5301 33.2059 22.9372 33.2059 24.3618C33.7599 28.3549 35.354 31.6384 38.8869 33.8108C38.2759 33.3431 37.6968 32.8325 37.1547 32.2821C32.9287 28.3214 32.3388 21.8082 35.7349 16.7192C36.1001 16.3532 36.3819 15.9485 36.6519 15.5606C37.0096 15.0467 37.3469 14.5622 37.8308 14.236C39.5805 12.6377 42.0409 11.4915 44.2927 10.919ZM52.8218 21.6432C52.9065 21.9384 52.9838 22.2077 53.0394 22.5198L53.0402 22.5206C53.1447 22.9723 53.179 23.4416 53.1961 23.9277C53.1802 24.4125 53.1223 24.8949 53.023 25.3691C52.9177 25.7152 52.7735 25.9829 52.6472 26.2176C52.6276 26.254 52.6084 26.2896 52.5899 26.3245C52.5314 26.4345 52.4914 26.5508 52.4426 26.6927C52.3758 26.8872 52.2923 27.1299 52.1217 27.4711C51.8157 27.9111 51.4344 28.2645 51.1248 28.5514C51.0676 28.6044 51.0128 28.6551 50.9615 28.7037C50.303 29.3114 49.5221 29.7623 48.6742 30.0244C48.2949 30.1378 47.9064 30.2189 47.5139 30.2664C47.1331 30.3368 46.8212 30.3721 46.5268 30.3721C46.2145 30.3721 45.9378 30.3545 45.6434 30.3016C45.3654 30.2496 45.0886 30.1808 44.8457 30.1104C44.2301 29.9412 43.7158 29.6367 43.2022 29.3327C42.9788 29.2005 42.7556 29.0683 42.5241 28.9474C42.0045 28.5477 41.6934 28.2525 41.3982 27.9224C41.1908 27.6968 41.0173 27.4527 40.8785 27.1923C40.7234 26.9326 40.6369 26.7414 40.7406 26.8622C40.7055 26.8798 40.8442 26.8798 40.8442 26.8798C40.8271 26.8281 40.784 26.7848 40.7407 26.7415C40.6974 26.6981 40.654 26.6546 40.6369 26.6026L40.6712 26.5673C40.9057 26.96 41.2383 27.3087 41.5556 27.6414C41.5901 27.6775 41.6243 27.7134 41.6583 27.7492C40.5152 26.3937 39.8747 24.6222 40.0992 22.7811C40.6875 18.1258 46.2137 15.5037 50.2324 18.2298C51.3069 19.0116 52.1209 19.9317 52.6756 21.1135C52.725 21.3061 52.7746 21.4787 52.8218 21.6432Z" fill="#F6F7EB"/>
</svg>
