<svg width="144" height="48" viewBox="0 0 144 48" fill="none" xmlns="http://www.w3.org/2000/svg">
<path fill-rule="evenodd" clip-rule="evenodd" d="M32.1999 33.3053L35.1213 38.3627L35.7356 38.0078L32.8143 32.9504L32.1999 33.3053Z" fill="white"/>
<path fill-rule="evenodd" clip-rule="evenodd" d="M35.5992 14.2875L32.8676 19.0188L32.2532 18.6641L34.9848 13.9328L35.5992 14.2875Z" fill="white"/>
<path d="M59.3101 23.8525C59.3101 28.0228 56.2513 31.2959 52.1288 31.2959C47.9395 31.2959 44.8806 28.0228 44.8806 23.8534C44.8806 19.7476 47.9395 16.4746 52.1288 16.4746C56.2513 16.41 59.3101 19.6822 59.3101 23.8525ZM56.5169 23.8525C56.5169 21.2227 54.5885 19.0407 52.1279 19.0407C49.6673 19.0407 47.7389 21.2227 47.7389 23.8525C47.7389 26.5469 49.6673 28.7289 52.1279 28.7289C54.5226 28.7281 56.5169 26.4832 56.5169 23.8525Z" fill="#F6F7EB"/>
<path d="M66.5566 22.7612C64.7611 22.4409 63.5647 23.4028 63.5647 24.8796V30.9745H60.7715V24.8787C60.7715 21.8622 62.8996 19.8094 66.5566 20.1943V22.7612Z" fill="#F6F7EB"/>
<path d="M78.2611 25.7141C78.2611 28.7951 75.9342 31.2329 72.6757 31.2329C69.3511 31.2329 67.0233 28.7951 67.0233 25.7141C67.0233 22.6985 69.3511 20.1961 72.2762 20.1961C73.5396 20.1961 74.604 20.581 75.4679 21.4154V15.7046H78.2611V25.7141ZM72.6748 22.6976C71.1449 22.6976 69.8816 23.9815 69.8816 25.7132C69.8816 27.382 71.1449 28.6651 72.6748 28.6651C74.2046 28.6651 75.4679 27.3183 75.4679 25.7132C75.4679 24.1081 74.2046 22.6976 72.6748 22.6976Z" fill="#F6F7EB"/>
<path d="M90.2283 27.6375C89.5633 29.8195 87.6349 31.2317 84.9086 31.2317C81.7829 31.2317 79.3231 28.794 79.3231 25.7129C79.3231 22.6327 81.8497 20.1304 84.9086 20.1304C87.568 20.1304 89.763 21.7346 90.2943 24.5582L82.5808 27.7029C83.1121 28.4073 83.9769 28.8577 84.9077 28.8577C85.8384 28.8577 86.7701 28.4728 87.2355 27.6375H90.2283ZM87.1044 23.5317C86.5731 22.9539 85.8411 22.569 84.9104 22.569C83.3145 22.569 81.9843 23.7884 81.9184 25.5846L87.1044 23.5317Z" fill="#F6F7EB"/>
<path d="M97.4793 22.7612C95.6828 22.4409 94.4864 23.4028 94.4864 24.8796V30.9745H91.6932V24.8787C91.6932 21.8622 93.8213 19.8094 97.4793 20.1943V22.7612Z" fill="#F6F7EB"/>
<path d="M108.516 31.0394H105.722V24.8799C105.722 24.2375 105.523 22.8899 103.66 22.8899C102.398 22.8899 101.533 23.7243 101.533 24.8799V31.0394H98.674V15.7686H101.533V21.0299C102.264 20.5167 103.063 20.1964 104.061 20.1964C106.72 20.1964 108.516 22.0572 108.516 24.8808V31.0394Z" fill="#F6F7EB"/>
<path d="M110.643 19.2978V17.7573C110.643 16.9875 111.308 16.4097 112.039 16.4097C112.838 16.4097 113.436 16.9875 113.436 17.7573V19.297L110.643 19.2978ZM113.502 31.0407H110.709V20.4534H113.502V31.0407Z" fill="#F6F7EB"/>
<path d="M121.548 31.0389H118.556L114.434 20.4517H117.358L120.085 28.3437L122.811 20.4517H125.671L121.548 31.0389Z" fill="#F6F7EB"/>
<path d="M136.508 27.6375C135.842 29.8195 133.914 31.2317 131.188 31.2317C128.062 31.2317 125.602 28.794 125.602 25.7129C125.602 22.6327 128.129 20.1304 131.188 20.1304C133.847 20.1304 136.041 21.7346 136.574 24.5582L128.861 27.7029C129.393 28.4073 130.257 28.8577 131.188 28.8577C132.119 28.8577 133.049 28.4728 133.515 27.6375H136.508ZM133.381 23.5317C132.85 22.9539 132.119 22.569 131.188 22.569C129.592 22.569 128.261 23.7884 128.195 25.5846L133.381 23.5317Z" fill="#F6F7EB"/>
<path fill-rule="evenodd" clip-rule="evenodd" d="M20.0149 25.6748L14.6681 25.6748V26.3843L20.0149 26.3843V25.6748Z" fill="white"/>
<path d="M31.1052 22.0389L30.4775 21.6846V21.7727C30.4775 21.7727 30.4775 21.9499 30.7468 22.0381C30.8359 22.1271 31.1052 22.0389 31.1052 22.0389Z" fill="#F6F7EB"/>
<path d="M35.0505 14.5946L32.5399 10.2532L35.0505 6H40.0707L42.5813 10.2532L40.0707 14.5946H35.0505Z" fill="#F6F7EB"/>
<path d="M35.0511 6L37.65 10.2532H42.581L40.0705 6H35.0511Z" fill="#F6F7EB"/>
<path d="M42.581 10.2529H37.65L35.0511 14.5943H40.0705L42.581 10.2529Z" fill="#F6F7EB"/>
<path d="M33.615 41.0001L31.7312 37.899L33.615 34.7979H37.1999L38.9928 37.899L37.2008 41.0001H33.615Z" fill="#F6F7EB"/>
<path d="M33.618 34.7964L35.5001 37.8975H38.9958L37.2029 34.7964H33.618Z" fill="#F6F7EB"/>
<path d="M38.9958 37.8984H35.5001L33.618 40.9996H37.2029L38.9958 37.8984Z" fill="#F6F7EB"/>
<path d="M9.94917 29.2151L8.06714 26.0259L9.94917 22.7476H13.715L15.6871 26.0259L13.715 29.2151H9.94917Z" fill="#F6F7EB"/>
<path d="M9.94971 22.7466L11.9218 26.0249H15.6876L13.7156 22.7466H9.94971Z" fill="#F6F7EB"/>
<path d="M15.6873 26.0254H11.9214L9.94934 29.2155H13.7152L15.6873 26.0254Z" fill="#F6F7EB"/>
<path d="M23.6659 26.3789H23.4867V25.582H23.6659C23.6659 25.582 23.8451 25.7592 23.8451 25.9364C23.8451 26.2907 23.6659 26.3789 23.6659 26.3789Z" fill="#F6F7EB"/>
<path fill-rule="evenodd" clip-rule="evenodd" d="M32.2491 18.6709H24.6172L28.7981 25.6708H36.7303L32.8934 18.9738L31.1776 21.9457L30.5632 21.591L32.2491 18.6709ZM20.0153 25.6745L23.9534 18.943L28.1813 26.0217L23.9088 32.9473L20.0224 26.3839H23.4868V25.6745H20.0153ZM31.3247 30.3717L32.8652 33.0386L36.7261 26.3803H28.7937L24.5301 33.2915H32.192L30.7104 30.7265L31.3247 30.3717Z" fill="#F6F7EB"/>
</svg>
