<?xml version="1.0" encoding="utf-8"?>
<!-- Generator: Adobe Illustrator 24.0.2, SVG Export Plug-In . SVG Version: 6.00 Build 0)  -->
<svg version="1.1"
	 id="svg131" xmlns:cc="http://creativecommons.org/ns#" xmlns:dc="http://purl.org/dc/elements/1.1/" xmlns:rdf="http://www.w3.org/1999/02/22-rdf-syntax-ns#" xmlns:svg="http://www.w3.org/2000/svg"
	 xmlns="http://www.w3.org/2000/svg" xmlns:xlink="http://www.w3.org/1999/xlink" x="0px" y="0px" viewBox="0 0 1443 401"
	 style="enable-background:new 0 0 1443 401;" xml:space="preserve">
<style type="text/css">
	.st0{fill:#FFFFFF;}
</style>
<g>
	<path id="path2" class="st0" d="M575.53,204.54c0,47.78-34.31,85.28-80.55,85.28c-46.99,0-81.3-37.5-81.3-85.27
		c0-47.04,34.31-84.54,81.3-84.54C541.22,119.27,575.53,156.76,575.53,204.54z M544.2,204.54c0-30.13-21.63-55.13-49.23-55.13
		c-27.6,0-49.23,25-49.23,55.13c0,30.87,21.63,55.87,49.23,55.87C521.83,260.4,544.2,234.68,544.2,204.54z"/>
	<path id="path4" class="st0" d="M656.82,192.04c-20.14-3.67-33.56,7.35-33.56,24.27v69.83h-31.33V216.3
		c0-34.56,23.87-58.08,64.89-53.67L656.82,192.04L656.82,192.04z"/>
	<path id="path6" class="st0" d="M788.09,225.87c0,35.3-26.1,63.23-62.65,63.23c-37.29,0-63.4-27.93-63.4-63.23
		c0-34.55,26.11-63.22,58.92-63.22c14.17,0,26.11,4.41,35.8,13.97v-65.43h31.33L788.09,225.87L788.09,225.87z M725.43,191.31
		c-17.16,0-31.33,14.71-31.33,34.55c0,19.12,14.17,33.82,31.33,33.82s31.33-15.43,31.33-33.82S742.59,191.31,725.43,191.31z"/>
	<path id="path8" class="st0" d="M922.32,247.91c-7.46,25-29.09,41.18-59.67,41.18c-35.06,0-62.65-27.93-62.65-63.23
		c0-35.29,28.34-63.96,62.65-63.96c29.83,0,54.45,18.38,60.41,50.73l-86.52,36.03c5.96,8.07,15.66,13.23,26.1,13.23
		c10.44,0,20.89-4.41,26.11-13.98L922.32,247.91L922.32,247.91z M887.28,200.87c-5.96-6.62-14.17-11.03-24.61-11.03
		c-17.9,0-32.82,13.97-33.56,34.55L887.28,200.87z"/>
	<path id="path10" class="st0" d="M1003.65,192.04c-20.15-3.67-33.57,7.35-33.57,24.27v69.83h-31.33V216.3
		c0-34.56,23.87-58.08,64.9-53.67L1003.65,192.04L1003.65,192.04z"/>
	<path id="path12" class="st0" d="M1127.45,286.88h-31.33v-70.57c0-7.36-2.24-22.8-23.13-22.8c-14.16,0-23.86,9.56-23.86,22.8v70.57
		h-32.07V111.92h32.07v60.28c8.2-5.88,17.16-9.55,28.35-9.55c29.83,0,49.97,21.32,49.97,53.67L1127.45,286.88L1127.45,286.88z"/>
	<path id="path14" class="st0" d="M1151.31,152.35v-17.65c0-8.82,7.46-15.44,15.66-15.44c8.96,0,15.67,6.62,15.67,15.44v17.64
		L1151.31,152.35L1151.31,152.35L1151.31,152.35z M1183.38,286.89h-31.32v-121.3h31.32V286.89z"/>
	<path id="path16" class="st0" d="M1273.63,286.88h-33.56l-46.24-121.3h32.8l30.59,90.42l30.58-90.42h32.07L1273.63,286.88z"/>
	<path id="path18" class="st0" d="M1441.44,247.91c-7.47,25-29.09,41.18-59.67,41.18c-35.06,0-62.66-27.93-62.66-63.23
		c0-35.29,28.35-63.96,62.66-63.96c29.83,0,54.44,18.38,60.41,50.73l-86.51,36.03c5.97,8.07,15.66,13.23,26.1,13.23
		c10.44,0,20.88-4.41,26.1-13.98L1441.44,247.91L1441.44,247.91z M1406.37,200.87c-5.96-6.62-14.16-11.03-24.6-11.03
		c-17.9,0-32.83,13.97-33.57,34.55L1406.37,200.87z"/>
	<path id="path20" class="st0" d="M180.74,312.68l-48.26-83.25l48.26-84.26h96.53l47.26,84.26l-47.26,83.25H180.74z"/>
	<path id="path22" class="st0" d="M324.54,229.43h-93.51l-50.28,83.25h96.53L324.54,229.43z"/>
	<path id="path24" class="st0" d="M80.2,225.37v8.12h93.51v-9.14L80.2,225.37z"/>
	<path id="path26" class="st0" d="M181.76,145.18l49.27,84.26h93.51l-47.26-84.26H181.76z"/>
	<path id="path28" class="st0" d="M262.2,281.21c0,0-2.02-1.02-4.03,0c-2.01,1.02-2.01,3.05-2.01,3.05l38.2,68.02l6.04-3.05
		L262.2,281.21z"/>
	<path id="path30" class="st0" d="M259.18,183.75l-7.04-4.06v1.01c0,0,0,2.03,3.02,3.04C256.16,184.76,259.18,183.75,259.18,183.75z
		"/>
	<path id="path32" class="st0" d="M252.14,179.69l8.05,3.05l49.27-87.31l-7.04-4.06L252.14,179.69z"/>
	<path id="path34" class="st0" d="M303.43,98.47l-28.16-49.74L303.43,0h56.31l28.16,48.73l-28.16,49.74H303.43z"/>
	<path id="path36" class="st0" d="M303.43,0l29.15,48.73h55.31L359.73,0H303.43z"/>
	<path id="path38" class="st0" d="M387.89,48.73h-55.31l-29.15,49.74h56.3L387.89,48.73z"/>
	<path id="path40" class="st0" d="M287.33,401l-21.13-35.53l21.13-35.53h40.21l20.11,35.53L327.55,401H287.33z"/>
	<path id="path42" class="st0" d="M287.34,329.93l21.11,35.53h39.21l-20.11-35.53H287.34z"/>
	<path id="path44" class="st0" d="M347.66,365.47h-39.21L287.34,401h40.21L347.66,365.47z"/>
	<path id="path46" class="st0" d="M21.87,265.98L0.76,229.44l21.11-37.56h42.24l22.12,37.56l-22.12,36.54H21.87z"/>
	<path id="path48" class="st0" d="M21.88,191.87l22.12,37.56h42.24l-22.12-37.56H21.88z"/>
	<path id="path50" class="st0" d="M86.23,229.43H43.99l-22.12,36.55h42.24L86.23,229.43z"/>
	<path id="path52" class="st0" d="M175.72,233.49h-2.01v-9.13h2.01c0,0,2.01,2.03,2.01,4.06
		C177.73,232.48,175.72,233.49,175.72,233.49z"/>
</g>
</svg>
