<svg width="144" height="48" viewBox="0 0 144 48" fill="none" xmlns="http://www.w3.org/2000/svg">
<path fill-rule="evenodd" clip-rule="evenodd" d="M32.1999 33.3053L35.1213 38.3627L35.7356 38.0078L32.8143 32.9504L32.1999 33.3053Z" fill="white"/>
<path fill-rule="evenodd" clip-rule="evenodd" d="M35.5992 14.2875L32.8676 19.0188L32.2532 18.6641L34.9848 13.9328L35.5992 14.2875Z" fill="white"/>
<path d="M59.3101 23.8525C59.3101 28.0228 56.2513 31.2959 52.1288 31.2959C47.9395 31.2959 44.8806 28.0228 44.8806 23.8534C44.8806 19.7476 47.9395 16.4746 52.1288 16.4746C56.2513 16.41 59.3101 19.6822 59.3101 23.8525ZM56.5169 23.8525C56.5169 21.2227 54.5885 19.0407 52.1279 19.0407C49.6673 19.0407 47.7389 21.2227 47.7389 23.8525C47.7389 26.5469 49.6673 28.7289 52.1279 28.7289C54.5226 28.7281 56.5169 26.4832 56.5169 23.8525Z" fill="#F6F7EB"/>
<path d="M66.5566 22.7612C64.7611 22.4409 63.5647 23.4028 63.5647 24.8796V30.9745H60.7715V24.8787C60.7715 21.8622 62.8996 19.8094 66.5566 20.1943V22.7612Z" fill="#F6F7EB"/>
<path d="M78.261 25.7141C78.261 28.7951 75.9341 31.2329 72.6755 31.2329C69.351 31.2329 67.0232 28.7951 67.0232 25.7141C67.0232 22.6985 69.351 20.1961 72.2761 20.1961C73.5394 20.1961 74.6039 20.581 75.4678 21.4154V15.7046H78.261V25.7141ZM72.6746 22.6976C71.1448 22.6976 69.8815 23.9815 69.8815 25.7132C69.8815 27.382 71.1448 28.6651 72.6746 28.6651C74.2045 28.6651 75.4678 27.3183 75.4678 25.7132C75.4678 24.1081 74.2045 22.6976 72.6746 22.6976Z" fill="#F6F7EB"/>
<path d="M90.2285 27.6375C89.5634 29.8195 87.635 31.2317 84.9087 31.2317C81.783 31.2317 79.3232 28.794 79.3232 25.7129C79.3232 22.6327 81.8498 20.1304 84.9087 20.1304C87.5681 20.1304 89.7631 21.7346 90.2944 24.5582L82.5809 27.7029C83.1123 28.4073 83.977 28.8577 84.9078 28.8577C85.8386 28.8577 86.7702 28.4728 87.2356 27.6375H90.2285ZM87.1045 23.5317C86.5732 22.9539 85.8412 22.569 84.9105 22.569C83.3146 22.569 81.9845 23.7884 81.9185 25.5846L87.1045 23.5317Z" fill="#F6F7EB"/>
<path d="M97.4792 22.7612C95.6827 22.4409 94.4863 23.4028 94.4863 24.8796V30.9745H91.6931V24.8787C91.6931 21.8622 93.8212 19.8094 97.4792 20.1943V22.7612Z" fill="#F6F7EB"/>
<path d="M108.515 31.0394H105.722V24.8799C105.722 24.2375 105.523 22.8899 103.66 22.8899C102.398 22.8899 101.533 23.7243 101.533 24.8799V31.0394H98.6738V15.7686H101.533V21.0299C102.264 20.5167 103.063 20.1964 104.06 20.1964C106.72 20.1964 108.515 22.0572 108.515 24.8808V31.0394Z" fill="#F6F7EB"/>
<path d="M110.643 19.2978V17.7573C110.643 16.9875 111.308 16.4097 112.039 16.4097C112.838 16.4097 113.436 16.9875 113.436 17.7573V19.297L110.643 19.2978ZM113.502 31.0407H110.709V20.4534H113.502V31.0407Z" fill="#F6F7EB"/>
<path d="M121.548 31.0389H118.556L114.434 20.4517H117.358L120.085 28.3437L122.812 20.4517H125.671L121.548 31.0389Z" fill="#F6F7EB"/>
<path d="M136.508 27.6375C135.842 29.8195 133.914 31.2317 131.188 31.2317C128.062 31.2317 125.602 28.794 125.602 25.7129C125.602 22.6327 128.129 20.1304 131.188 20.1304C133.847 20.1304 136.041 21.7346 136.574 24.5582L128.861 27.7029C129.393 28.4073 130.257 28.8577 131.188 28.8577C132.119 28.8577 133.049 28.4728 133.515 27.6375H136.508ZM133.381 23.5317C132.85 22.9539 132.119 22.569 131.188 22.569C129.592 22.569 128.261 23.7884 128.195 25.5846L133.381 23.5317Z" fill="#F6F7EB"/>
<path fill-rule="evenodd" clip-rule="evenodd" d="M20.015 25.6748L14.6682 25.6748V26.3843L20.015 26.3843V25.6748Z" fill="white"/>
<path d="M31.1052 22.0389L30.4775 21.6846V21.7727C30.4775 21.7727 30.4775 21.9499 30.7468 22.0381C30.8359 22.1271 31.1052 22.0389 31.1052 22.0389Z" fill="#F6F7EB"/>
<path d="M35.0504 14.5946L32.5398 10.2532L35.0504 6H40.0706L42.5812 10.2532L40.0706 14.5946H35.0504Z" fill="#F6F7EB"/>
<path d="M35.0513 6L37.6501 10.2532H42.5812L40.0706 6H35.0513Z" fill="#F6F7EB"/>
<path d="M42.5812 10.2529H37.6501L35.0513 14.5943H40.0706L42.5812 10.2529Z" fill="#F6F7EB"/>
<path d="M33.615 41.0001L31.7312 37.899L33.615 34.7979H37.1999L38.9928 37.899L37.2008 41.0001H33.615Z" fill="#F6F7EB"/>
<path d="M33.6182 34.7964L35.5002 37.8975H38.9959L37.203 34.7964H33.6182V34.7964Z" fill="#F6F7EB"/>
<path d="M38.9959 37.8984H35.5002L33.6182 40.9996H37.203L38.9959 37.8984Z" fill="#F6F7EB"/>
<path d="M9.94917 29.2151L8.06714 26.0259L9.94917 22.7476H13.715L15.6871 26.0259L13.715 29.2151H9.94917Z" fill="#F6F7EB"/>
<path d="M9.94971 22.7466L11.9218 26.0249H15.6876L13.7156 22.7466H9.94971Z" fill="#F6F7EB"/>
<path d="M15.6871 26.0254H11.9213L9.94922 29.2155H13.7151L15.6871 26.0254Z" fill="#F6F7EB"/>
<path d="M23.666 26.3789H23.4868V25.582H23.666C23.666 25.582 23.8452 25.7592 23.8452 25.9364C23.8452 26.2907 23.666 26.3789 23.666 26.3789Z" fill="#F6F7EB"/>
<path fill-rule="evenodd" clip-rule="evenodd" d="M32.2492 18.6709H24.6173L28.7983 25.6708H36.7304L32.8936 18.9738L31.1777 21.9457L30.5633 21.591L32.2492 18.6709ZM20.0154 25.6745L23.9535 18.943L28.1814 26.0217L23.9089 32.9473L20.0225 26.3839H23.4869V25.6745H20.0154ZM31.3248 30.3717L32.8653 33.0386L36.7262 26.3803H28.7938L24.5302 33.2915H32.1921L30.7105 30.7265L31.3248 30.3717Z" fill="#F6F7EB"/>
</svg>
