<svg width="144" height="48" viewBox="0 0 144 48" fill="none" xmlns="http://www.w3.org/2000/svg">
<path d="M40.2442 13.6073C41.2953 13.6073 41.7478 14.0482 41.7478 15.4704C41.746 16.9139 41.2935 17.3335 40.2407 17.3353H39.6438C39.5628 17.3353 39.5206 17.2962 39.5206 17.2162L39.5223 13.7282C39.5223 13.6482 39.5628 13.6073 39.6456 13.6073H40.2442Z" fill="#F6F7EB"/>
<path d="M68.4038 18.1246C68.4021 21.4313 68.3616 21.7726 68.2577 22.0926C68.1344 22.473 67.7841 22.7539 67.27 22.7522C66.7541 22.7522 66.4037 22.4713 66.2805 22.0908C66.1784 21.7708 66.1361 21.4295 66.1379 18.1228C66.1396 14.8162 66.1801 14.4748 66.284 14.1548C66.409 13.7744 66.7594 13.4935 67.2735 13.4935C67.7876 13.4935 68.138 13.7762 68.2612 14.1566C68.3633 14.4784 68.4038 14.8179 68.4038 18.1246Z" fill="#F6F7EB"/>
<path fill-rule="evenodd" clip-rule="evenodd" d="M34 27.8133H98.1223V8H34V27.8133ZM42.0119 24.7699C42.0524 24.889 42.114 24.9299 42.2372 24.9299L44.7127 24.9317C44.8148 24.9317 44.8571 24.8322 44.8148 24.7308L42.901 18.9584C43.8694 18.3184 44.468 17.1948 44.468 15.4722C44.468 12.4446 42.8623 11.3015 40.3692 11.3015L37.0328 11.2997C36.9096 11.2997 36.8268 11.3797 36.8268 11.5006L36.8215 24.729C36.8215 24.8499 36.9043 24.9299 37.0275 24.9299H39.3128C39.4361 24.9299 39.5188 24.8499 39.5188 24.729L39.5206 19.7193C39.5206 19.6375 39.5611 19.5984 39.6438 19.5984H40.4273L42.0119 24.7699ZM46.6107 11.3033C46.4874 11.3033 46.4047 11.3833 46.4047 11.5042L46.3994 24.7308C46.3994 24.8517 46.4821 24.9317 46.6054 24.9317L52.7254 24.9388C52.8486 24.9388 52.9313 24.8588 52.9313 24.7379V22.7735C52.9313 22.6526 52.8486 22.5726 52.7254 22.5726L49.2234 22.5708C49.1425 22.5708 49.1002 22.5299 49.1002 22.4499L49.102 19.3637C49.102 19.2837 49.1425 19.2428 49.2252 19.2428L52.2535 19.2446C52.3767 19.2446 52.4595 19.1646 52.4595 19.0437V17.0793C52.4595 16.9584 52.3767 16.8784 52.2535 16.8784L49.2252 16.8766C49.1425 16.8766 49.102 16.8375 49.102 16.7575L49.1037 13.7922C49.1037 13.7104 49.1442 13.6713 49.227 13.6713H52.7289C52.8521 13.6713 52.9349 13.5913 52.9349 13.4704V11.5059C52.9349 11.385 52.8521 11.305 52.7289 11.305L46.6107 11.3033ZM54.2501 21.4668C54.2906 23.8117 55.5054 25.1148 58.0389 25.1166C60.8208 25.1166 61.9123 23.6748 61.9123 20.8873C61.9141 18.5815 61.1729 17.5788 59.2573 16.857L58.4122 16.5353C57.3188 16.1139 57.0935 15.7939 57.0935 14.7717C57.0952 13.8508 57.4439 13.4099 58.1657 13.4099C58.9069 13.4099 59.2573 13.9113 59.2767 14.8926C59.2767 15.0135 59.3806 15.0722 59.5038 15.0526L61.606 14.7344C61.7292 14.7148 61.7909 14.6348 61.7909 14.5139C61.6905 12.3699 60.5355 11.1255 58.0847 11.1255C55.5934 11.1237 54.3768 12.4464 54.3751 14.9122C54.3751 17.0953 55.0547 18.1193 57.0319 18.8606L57.877 19.1824C58.9281 19.5842 59.1746 20.0055 59.1746 21.2073C59.1746 22.4499 58.8242 22.8304 58.0618 22.8304C57.2572 22.8304 56.8875 22.329 56.847 21.0668C56.847 20.9459 56.7642 20.8873 56.6199 20.9068L54.4156 21.2464C54.2923 21.2659 54.2501 21.3459 54.2501 21.4668ZM63.3983 18.1228C63.3983 21.6304 63.4599 22.1904 63.6853 22.8126C64.1994 24.3166 65.4354 25.1184 67.2682 25.1202C69.101 25.1219 70.337 24.3202 70.8529 22.8162C71.08 22.1957 71.1416 21.6339 71.1434 18.1264C71.1451 14.6188 71.0817 14.057 70.8564 13.4366C70.3423 11.9326 69.1063 11.129 67.2735 11.129C65.4407 11.129 64.2047 11.929 63.6888 13.433C63.4617 14.0553 63.4001 14.6153 63.3983 18.1228ZM73.2684 11.3122C73.1452 11.3122 73.0624 11.3922 73.0624 11.513L73.0589 24.7415C73.0589 24.8624 73.1417 24.9424 73.2649 24.9424L79.4236 24.9442C79.5469 24.9442 79.6296 24.8642 79.6296 24.7433V22.7788C79.6296 22.6579 79.5469 22.5779 79.4236 22.5779L75.8812 22.5797C75.8002 22.5797 75.758 22.5388 75.758 22.4588L75.7615 11.5148C75.7615 11.3939 75.6788 11.3139 75.5555 11.3139L73.2684 11.3122ZM81.8973 24.7433C81.9378 24.8642 81.9994 24.9442 82.1227 24.9442L84.3481 24.9477C84.4714 24.9477 84.533 24.8677 84.5541 24.7468L87.3606 11.5202C87.4028 11.3993 87.3412 11.3193 87.1968 11.3193L84.9098 11.3175C84.7848 11.3175 84.7038 11.3779 84.6826 11.5184L83.3199 20.1353H83.2583L81.841 11.5166C81.8199 11.3762 81.7371 11.3157 81.6139 11.3157L79.2863 11.3139C79.1419 11.3139 79.0785 11.3939 79.1208 11.5148L81.8973 24.7433ZM89.0279 11.3157C88.9046 11.3157 88.8219 11.3957 88.8219 11.5166L88.8201 24.7468C88.8201 24.8677 88.9029 24.9477 89.0261 24.9477L95.1443 24.9495C95.2676 24.9495 95.3503 24.8695 95.3503 24.7486V22.7859C95.3503 22.665 95.2676 22.585 95.1443 22.585L91.6424 22.5833C91.5597 22.5833 91.5192 22.5424 91.5192 22.4624L91.5209 19.3762C91.5209 19.2944 91.5614 19.2553 91.6442 19.2553L94.6725 19.257C94.7957 19.257 94.8785 19.177 94.8785 19.0562V17.0917C94.8785 16.9708 94.7957 16.8908 94.6725 16.8908L91.6442 16.889C91.5614 16.889 91.5209 16.8482 91.5209 16.7682V13.8028C91.5209 13.7228 91.5614 13.6837 91.6442 13.6837H95.1461C95.2693 13.6837 95.3521 13.6037 95.3521 13.4828V11.5184C95.3521 11.3975 95.2693 11.3175 95.1461 11.3175L89.0279 11.3157Z" fill="#F6F7EB"/>
<path d="M99.4084 27.8133H109.706V8H99.4084V27.8133Z" fill="#F6F7EB"/>
<path d="M65.747 34.4517C65.747 36.0375 65.7276 36.2028 65.6783 36.3557C65.6185 36.5388 65.4512 36.6739 65.2047 36.6739C64.9565 36.6739 64.7892 36.5388 64.7294 36.3557C64.6801 36.201 64.6607 36.0375 64.6607 34.4517C64.6607 32.8659 64.6801 32.7024 64.7294 32.5477C64.7892 32.3664 64.9582 32.2313 65.2047 32.2313C65.4512 32.2313 65.6185 32.3664 65.6783 32.5477C65.7259 32.7024 65.747 32.8659 65.747 34.4517Z" fill="#F6F7EB"/>
<path d="M76.3601 33.1753L76.7844 35.4437H75.8865L76.3302 33.1753H76.3601Z" fill="#F6F7EB"/>
<path fill-rule="evenodd" clip-rule="evenodd" d="M109.664 39.8397H56.7129V29.0664H109.664V39.8397ZM60.3225 37.625C60.3225 37.6837 60.3612 37.721 60.4211 37.721H61.518C61.5761 37.721 61.6166 37.6837 61.6166 37.625V32.377C61.6166 32.3397 61.6359 32.3202 61.6764 32.3202H62.7328C62.7909 32.3202 62.8314 32.281 62.8314 32.2242V31.2819C62.8314 31.2233 62.7927 31.1859 62.7328 31.1859H59.2062C59.1464 31.1859 59.1077 31.2233 59.1077 31.2819V32.2242C59.1077 32.281 59.1464 32.3202 59.2062 32.3202H60.2626C60.3031 32.3202 60.3225 32.3397 60.3225 32.377V37.625ZM63.3455 34.4535C63.3455 36.1353 63.3754 36.4037 63.4846 36.7024C63.7311 37.4224 64.3244 37.8082 65.203 37.8082C66.0815 37.8082 66.6749 37.4224 66.9214 36.7024C67.0305 36.4055 67.0604 36.1353 67.0604 34.4535C67.0604 32.7717 67.0305 32.5033 66.9214 32.2046C66.6749 31.4828 66.0815 31.0988 65.203 31.0988C64.3244 31.0988 63.7311 31.4846 63.4846 32.2046C63.3754 32.5015 63.3455 32.7717 63.3455 34.4535ZM69.9954 36.0588C70.0165 37.1842 70.5993 37.8082 71.8142 37.8082C73.1487 37.8082 73.6716 37.1148 73.6681 35.785C73.6681 34.6793 73.3125 34.1993 72.3934 33.8526L71.9885 33.6979C71.4656 33.4953 71.3564 33.3424 71.3564 32.8517C71.3564 32.409 71.5254 32.1975 71.8705 32.1975C72.2261 32.1975 72.3934 32.4375 72.404 32.9086C72.404 32.9655 72.4533 32.9939 72.5131 32.985L73.522 32.8304C73.5801 32.8197 73.61 32.7824 73.61 32.7237C73.5607 31.6944 73.0079 31.0988 71.8318 31.0988C70.6363 31.0988 70.0535 31.7335 70.0535 32.9157C70.0535 33.9628 70.3792 34.4535 71.3282 34.809L71.7332 34.9619C72.2385 35.1539 72.3564 35.3548 72.3564 35.9326C72.3564 36.5282 72.1874 36.7113 71.823 36.7113C71.4374 36.7113 71.2596 36.4695 71.2402 35.865C71.2402 35.8082 71.1997 35.7797 71.131 35.7886L70.0746 35.9522C70.0165 35.9628 69.9954 36.0002 69.9954 36.0588ZM75.7562 31.1859C75.6964 31.1859 75.6664 31.2233 75.6471 31.2819L74.184 37.6268C74.1734 37.6855 74.2033 37.7228 74.2632 37.7228H75.3601C75.4287 37.7228 75.4587 37.6837 75.4692 37.6268L75.6964 36.4446H76.9711L77.1876 37.6268C77.1982 37.6855 77.2281 37.7228 77.2968 37.7228H78.3937C78.4535 37.7228 78.4834 37.6837 78.4729 37.6268L77.0309 31.2819C77.0204 31.2233 76.9816 31.1859 76.9218 31.1859H75.7562ZM79.936 37.625C79.9571 37.6837 79.9853 37.721 80.0451 37.721H81.1121C81.1702 37.721 81.2001 37.6837 81.2107 37.625L82.554 31.2819C82.5734 31.2233 82.5435 31.1859 82.4748 31.1859H81.3779C81.3181 31.1859 81.2793 31.2144 81.2688 31.2819L80.6173 35.4153H80.5874L79.906 31.2819C79.8972 31.2144 79.8585 31.1859 79.7986 31.1859H78.6824C78.6137 31.1859 78.5838 31.2233 78.6032 31.2819L79.936 37.625ZM83.4432 31.1859C83.3851 31.1859 83.3446 31.2233 83.3446 31.2819V37.6268C83.3446 37.6855 83.3833 37.7228 83.4432 37.7228H86.3781C86.4362 37.7228 86.4767 37.6837 86.4767 37.6268V36.6846C86.4767 36.6277 86.438 36.5886 86.3781 36.5886H84.6985C84.658 36.5886 84.6386 36.569 84.6386 36.5317V35.0508C84.6386 35.0117 84.658 34.9922 84.6985 34.9922H86.151C86.2091 34.9922 86.2496 34.953 86.2496 34.8962V33.9539C86.2496 33.897 86.2109 33.8579 86.151 33.8579H84.6985C84.658 33.8579 84.6386 33.8384 84.6386 33.801V32.3788C84.6386 32.3397 84.658 32.3202 84.6985 32.3202H86.3781C86.4362 32.3202 86.4767 32.2828 86.4767 32.2242V31.2819C86.4767 31.2233 86.438 31.1859 86.3781 31.1859H83.4432ZM89.6195 31.1859C89.5614 31.1859 89.5209 31.2233 89.5209 31.2819H89.5191V37.625C89.5191 37.6837 89.5578 37.721 89.6177 37.721H92.572C92.6301 37.721 92.6706 37.6819 92.6706 37.625V36.6828C92.6706 36.6259 92.6319 36.5868 92.572 36.5868H90.873C90.8343 36.5868 90.8149 36.5673 90.8149 36.5299V31.2819C90.8149 31.2233 90.7762 31.1859 90.7163 31.1859H89.6195ZM93.6214 31.1859C93.5633 31.1859 93.5228 31.2233 93.5228 31.2819V37.6268C93.5228 37.6855 93.5615 37.7228 93.6214 37.7228H94.7183C94.7764 37.7228 94.8169 37.6837 94.8169 37.6268V31.2819C94.8169 31.2233 94.7781 31.1859 94.7183 31.1859H93.6214ZM96.9402 37.625C96.9613 37.6837 96.9895 37.721 97.0493 37.721H98.1145C98.1726 37.721 98.2026 37.6837 98.2131 37.625L99.5565 31.2819C99.5759 31.2233 99.5459 31.1859 99.4773 31.1859H98.3804C98.3223 31.1859 98.2835 31.2144 98.273 31.2819L97.6215 35.4153H97.5916L96.9103 31.2819C96.9015 31.2144 96.8627 31.1859 96.8029 31.1859H95.6866C95.6162 31.1859 95.588 31.2233 95.6074 31.2819L96.9402 37.625ZM100.449 31.1859C100.391 31.1859 100.351 31.2233 100.351 31.2819V37.6268C100.351 37.6855 100.389 37.7228 100.449 37.7228H103.384C103.442 37.7228 103.483 37.6837 103.483 37.6268V36.6846C103.483 36.6277 103.444 36.5886 103.384 36.5886H101.704C101.664 36.5886 101.645 36.569 101.645 36.5317V35.0508C101.645 35.0117 101.664 34.9922 101.704 34.9922H103.157C103.215 34.9922 103.256 34.953 103.256 34.8962V33.9539C103.256 33.897 103.215 33.8579 103.157 33.8579H101.704C101.664 33.8579 101.645 33.8384 101.645 33.801V32.3788C101.645 32.3397 101.664 32.3202 101.704 32.3202H103.384C103.442 32.3202 103.483 32.2828 103.483 32.2242V31.2819C103.483 31.2233 103.444 31.1859 103.384 31.1859H100.449ZM104.203 36.0588C104.224 37.1842 104.807 37.8082 106.022 37.8082C107.356 37.8082 107.879 37.1148 107.877 35.785C107.877 34.6793 107.522 34.1993 106.603 33.8526L106.198 33.6979C105.675 33.4953 105.566 33.3424 105.566 32.8517C105.566 32.409 105.735 32.1975 106.08 32.1975C106.435 32.1975 106.603 32.4375 106.613 32.9086C106.613 32.9655 106.661 32.9939 106.721 32.985L107.729 32.8304C107.787 32.8197 107.817 32.7824 107.817 32.7237C107.768 31.6944 107.215 31.0988 106.039 31.0988C104.844 31.0988 104.261 31.7335 104.261 32.9157C104.261 33.9628 104.587 34.4535 105.536 34.809L105.941 34.9619C106.446 35.1539 106.564 35.3548 106.564 35.9326C106.564 36.5282 106.395 36.7113 106.03 36.7113C105.645 36.7113 105.467 36.4695 105.448 35.865C105.448 35.8082 105.407 35.7797 105.338 35.7886L104.282 35.9522C104.222 35.9628 104.203 36.0002 104.203 36.0588Z" fill="#F6F7EB"/>
<path d="M34.2117 39.8397H55.5154V29.0664H34.2117V39.8397Z" fill="#F6F7EB"/>
</svg>
