<?xml version="1.0" encoding="utf-8"?>
<!-- Generator: Adobe Illustrator 24.0.2, SVG Export Plug-In . SVG Version: 6.00 Build 0)  -->
<svg version="1.1" id="Layer_1" xmlns="http://www.w3.org/2000/svg" xmlns:xlink="http://www.w3.org/1999/xlink" x="0px" y="0px"
	 viewBox="0 0 430 180" style="enable-background:new 0 0 430 180;" xml:space="preserve">
<style type="text/css">
	.st0{fill-rule:evenodd;clip-rule:evenodd;fill:#FFFFFF;}
	.st1{fill-rule:evenodd;clip-rule:evenodd;fill:#131112;}
</style>
<g>
	<path class="st0" d="M0,111.45h364.2V0H0V111.45z"/>
	<path class="st0" d="M371.51,111.45H430V0h-58.49V111.45z"/>
	<path class="st0" d="M129.01,179.1h300.75v-60.6H129.01V179.1z"/>
	<path class="st0" d="M1.2,179.1h121v-60.6H1.2V179.1z"/>
	<path class="st1" d="M150.07,167.18c-0.34,0-0.56-0.21-0.56-0.54v-29.52c0-0.21-0.11-0.32-0.34-0.32h-6
		c-0.34,0-0.56-0.22-0.56-0.54v-5.3c0-0.33,0.22-0.54,0.56-0.54h20.03c0.34,0,0.56,0.21,0.56,0.54v5.3c0,0.32-0.23,0.54-0.56,0.54
		h-6c-0.23,0-0.34,0.11-0.34,0.32v29.52c0,0.33-0.23,0.54-0.56,0.54H150.07z M167.47,161.45c-0.62-1.68-0.79-3.19-0.79-12.65
		c0-9.46,0.17-10.98,0.79-12.65c1.4-4.05,4.77-6.22,9.76-6.22c4.99,0,8.36,2.16,9.76,6.22c0.62,1.68,0.79,3.19,0.79,12.65
		c0,9.46-0.17,10.98-0.79,12.65c-1.4,4.05-4.77,6.22-9.76,6.22C172.24,167.67,168.87,165.5,167.47,161.45 M179.93,159.5
		c0.28-0.86,0.39-1.79,0.39-10.71c0-8.92-0.12-9.84-0.39-10.71c-0.34-1.02-1.29-1.78-2.69-1.78c-1.4,0-2.36,0.76-2.7,1.78
		c-0.28,0.87-0.39,1.79-0.39,10.71c0,8.92,0.11,9.84,0.39,10.71c0.34,1.03,1.29,1.79,2.7,1.79
		C178.64,161.29,179.59,160.53,179.93,159.5 M214.78,167.67c-6.9,0-10.21-3.51-10.33-9.84c0-0.33,0.12-0.54,0.45-0.6l6-0.92
		c0.39-0.05,0.62,0.11,0.62,0.43c0.11,3.4,1.12,4.76,3.31,4.76c2.07,0,3.03-1.03,3.03-4.38c0-3.25-0.67-4.38-3.54-5.46l-2.3-0.86
		c-5.39-2-7.24-4.76-7.24-10.65c0-6.65,3.31-10.22,10.1-10.22c6.68,0,9.82,3.35,10.1,9.14c0,0.33-0.17,0.54-0.5,0.6l-5.73,0.87
		c-0.34,0.05-0.62-0.11-0.62-0.43c-0.06-2.65-1.01-4-3.03-4c-1.96,0-2.92,1.19-2.92,3.68c0,2.76,0.62,3.62,3.59,4.76l2.3,0.87
		c5.22,1.95,7.24,4.65,7.24,10.87C225.33,163.77,222.36,167.67,214.78,167.67 M236.55,130.96c0.11-0.33,0.28-0.54,0.62-0.54h6.62
		c0.34,0,0.56,0.21,0.62,0.54l8.19,35.69c0.06,0.32-0.11,0.54-0.45,0.54h-6.23c-0.39,0-0.56-0.21-0.62-0.54l-1.23-6.65h-7.24
		l-1.29,6.65c-0.06,0.32-0.23,0.54-0.62,0.54h-6.23c-0.34,0-0.51-0.21-0.45-0.54L236.55,130.96L236.55,130.96z M243.01,154.37
		l-2.41-12.76h-0.17l-2.52,12.76H243.01L243.01,154.37z M261.53,167.18c-0.34,0-0.5-0.21-0.62-0.54l-7.57-35.68
		c-0.11-0.33,0.06-0.54,0.45-0.54h6.34c0.34,0,0.56,0.16,0.61,0.54l3.87,23.25h0.17l3.7-23.25c0.06-0.38,0.28-0.54,0.62-0.54h6.23
		c0.39,0,0.56,0.21,0.45,0.54l-7.63,35.68c-0.06,0.33-0.23,0.54-0.56,0.54H261.53L261.53,167.18z M280.27,130.96
		c0-0.33,0.23-0.54,0.56-0.54h16.67c0.34,0,0.56,0.21,0.56,0.54v5.3c0,0.33-0.23,0.54-0.56,0.54h-9.54c-0.23,0-0.34,0.11-0.34,0.33
		v8c0,0.21,0.11,0.32,0.34,0.32h8.25c0.34,0,0.56,0.22,0.56,0.54v5.3c0,0.32-0.23,0.54-0.56,0.54h-8.25c-0.23,0-0.34,0.11-0.34,0.33
		v8.33c0,0.21,0.11,0.32,0.34,0.32h9.54c0.34,0,0.56,0.22,0.56,0.54v5.3c0,0.32-0.23,0.54-0.56,0.54h-16.67
		c-0.34,0-0.56-0.21-0.56-0.54L280.27,130.96L280.27,130.96z M315.35,130.96c0-0.33,0.23-0.54,0.56-0.54h6.23
		c0.34,0,0.56,0.21,0.56,0.54v29.52c0,0.21,0.11,0.32,0.33,0.32h9.65c0.34,0,0.56,0.22,0.56,0.54v5.3c0,0.32-0.23,0.54-0.56,0.54
		h-16.78c-0.34,0-0.56-0.21-0.56-0.54V130.96z M338.08,130.96c0-0.33,0.23-0.54,0.56-0.54h6.23c0.34,0,0.56,0.21,0.56,0.54v35.69
		c0,0.32-0.23,0.54-0.56,0.54h-6.23c-0.34,0-0.56-0.21-0.56-0.54V130.96z M358.11,167.18c-0.34,0-0.5-0.21-0.62-0.54l-7.57-35.68
		c-0.11-0.33,0.05-0.54,0.45-0.54h6.34c0.34,0,0.56,0.16,0.61,0.54l3.87,23.25h0.17l3.7-23.25c0.06-0.38,0.28-0.54,0.61-0.54h6.23
		c0.39,0,0.56,0.21,0.45,0.54l-7.63,35.68c-0.06,0.33-0.23,0.54-0.56,0.54L358.11,167.18L358.11,167.18z M376.86,130.96
		c0-0.33,0.23-0.54,0.56-0.54h16.67c0.34,0,0.56,0.21,0.56,0.54v5.3c0,0.33-0.23,0.54-0.56,0.54h-9.54c-0.23,0-0.34,0.11-0.34,0.33
		v8c0,0.21,0.11,0.32,0.34,0.32h8.25c0.33,0,0.56,0.22,0.56,0.54v5.3c0,0.32-0.23,0.54-0.56,0.54h-8.25c-0.23,0-0.34,0.11-0.34,0.33
		v8.33c0,0.21,0.11,0.32,0.34,0.32h9.54c0.34,0,0.56,0.22,0.56,0.54v5.3c0,0.32-0.23,0.54-0.56,0.54h-16.67
		c-0.34,0-0.56-0.21-0.56-0.54V130.96z M409.07,167.67c-6.9,0-10.21-3.51-10.33-9.84c0-0.33,0.11-0.54,0.45-0.6l6-0.92
		c0.39-0.05,0.62,0.11,0.62,0.43c0.11,3.4,1.12,4.76,3.31,4.76c2.07,0,3.03-1.03,3.03-4.38c0-3.25-0.67-4.38-3.54-5.46l-2.3-0.86
		c-5.39-2-7.24-4.76-7.24-10.65c0-6.65,3.31-10.22,10.1-10.22c6.68,0,9.82,3.35,10.1,9.14c0,0.33-0.17,0.54-0.5,0.6l-5.73,0.87
		c-0.34,0.05-0.61-0.11-0.61-0.43c-0.06-2.65-1.01-4-3.03-4c-1.96,0-2.92,1.19-2.92,3.68c0,2.76,0.62,3.62,3.59,4.76l2.3,0.87
		c5.22,1.95,7.24,4.65,7.24,10.87C419.62,163.77,416.65,167.67,409.07,167.67 M46.79,95.23c-0.7,0-1.05-0.23-1.28-0.9l-9-29.09
		h-4.45c-0.47,0-0.7,0.22-0.7,0.68L31.35,94.1c0,0.68-0.47,1.13-1.17,1.13l-12.98,0c-0.7,0-1.17-0.45-1.17-1.13l0.03-74.41
		c0-0.68,0.47-1.13,1.17-1.13l18.95,0.01c14.16,0,23.28,6.43,23.28,23.46c0,9.69-3.4,16.01-8.9,19.61l10.87,32.47
		c0.24,0.57,0,1.13-0.58,1.13L46.79,95.23L46.79,95.23z M44.01,42.02c0-8-2.57-10.48-8.54-10.48l-3.4,0c-0.47,0-0.7,0.23-0.7,0.68
		l-0.01,19.62c0,0.45,0.24,0.67,0.7,0.67l3.39,0C41.43,52.5,44,50.14,44.01,42.02z M70.46,19.71c0-0.68,0.47-1.13,1.17-1.13
		l34.75,0.01c0.7,0,1.17,0.45,1.17,1.13l0,11.05c0,0.68-0.47,1.13-1.17,1.13l-19.89,0c-0.47,0-0.7,0.22-0.7,0.68l-0.01,16.68
		c0,0.45,0.23,0.67,0.7,0.67l17.2,0.01c0.7,0,1.17,0.45,1.17,1.13l0,11.05c0,0.68-0.47,1.13-1.17,1.13l-17.2-0.01
		c-0.47,0-0.7,0.23-0.7,0.68l-0.01,17.36c0,0.45,0.24,0.68,0.7,0.68l19.89,0.01c0.7,0,1.17,0.45,1.17,1.13l0,11.05
		c0,0.68-0.47,1.13-1.17,1.13L71.6,95.24c-0.7,0-1.17-0.45-1.17-1.13L70.46,19.71L70.46,19.71z M136.54,96.28
		c-14.39-0.01-21.29-7.34-21.52-20.53c0-0.68,0.24-1.13,0.94-1.24l12.52-1.91c0.82-0.11,1.29,0.22,1.29,0.9
		c0.23,7.1,2.33,9.92,6.9,9.92c4.33,0,6.32-2.14,6.32-9.13c0-6.76-1.4-9.13-7.37-11.39l-4.8-1.81
		c-11.23-4.17-15.09-9.93-15.09-22.21c0.01-13.87,6.92-21.31,21.07-21.3c13.92,0,20.48,7,21.05,19.06c0,0.68-0.35,1.13-1.05,1.24
		l-11.94,1.79c-0.7,0.11-1.29-0.22-1.29-0.9c-0.11-5.52-2.1-8.34-6.31-8.34c-4.1,0-6.08,2.48-6.09,7.66c0,5.75,1.28,7.55,7.49,9.92
		l4.8,1.81c10.88,4.06,15.09,9.7,15.08,22.67C158.54,88.17,152.34,96.28,136.54,96.28 M168.61,83.32c-1.28-3.5-1.63-6.65-1.63-26.38
		c0.01-19.73,0.36-22.88,1.65-26.38c2.93-8.46,9.95-12.96,20.36-12.96c10.41,0,17.43,4.52,20.35,12.98
		c1.28,3.49,1.64,6.65,1.63,26.38c-0.01,19.73-0.36,22.89-1.65,26.38c-2.93,8.46-9.95,12.97-20.36,12.96
		C178.55,96.29,171.53,91.78,168.61,83.32 M194.58,79.27c0.59-1.8,0.82-3.72,0.83-22.32c0-18.6-0.23-20.51-0.81-22.32
		c-0.7-2.14-2.69-3.73-5.61-3.73c-2.92,0-4.91,1.58-5.62,3.72c-0.59,1.8-0.82,3.72-0.83,22.32c-0.01,18.6,0.23,20.52,0.81,22.32
		c0.7,2.14,2.69,3.72,5.62,3.72C191.89,82.99,193.88,81.41,194.58,79.27 M221.87,19.76c0-0.68,0.47-1.13,1.17-1.13l12.99,0.01
		c0.7,0,1.17,0.45,1.17,1.13l-0.02,61.56c0,0.45,0.24,0.68,0.7,0.68L258,82c0.7,0,1.17,0.45,1.17,1.13l0,11.05
		c0,0.68-0.47,1.13-1.17,1.13l-34.98-0.01c-0.7,0-1.17-0.45-1.17-1.13L221.87,19.76L221.87,19.76z M273.33,95.31
		c-0.7,0-1.05-0.45-1.28-1.13l-15.77-74.41c-0.24-0.68,0.12-1.13,0.94-1.13l13.22,0.01c0.7,0,1.17,0.34,1.29,1.13l8.05,48.48h0.35
		l7.74-48.47c0.12-0.79,0.58-1.13,1.29-1.13l12.99,0.01c0.82,0,1.17,0.45,0.93,1.13l-15.94,74.4c-0.12,0.68-0.47,1.13-1.17,1.13
		L273.33,95.31L273.33,95.31z M311.38,19.78c0-0.68,0.47-1.13,1.17-1.13l34.75,0.01c0.7,0,1.17,0.45,1.17,1.13l0,11.05
		c0,0.68-0.47,1.13-1.17,1.13l-19.89,0c-0.47,0-0.7,0.22-0.7,0.67l0,16.68c0,0.45,0.23,0.68,0.7,0.68l17.2,0.01
		c0.7,0,1.17,0.45,1.17,1.13l0,11.05c0,0.68-0.47,1.13-1.17,1.13l-17.2-0.01c-0.47,0-0.7,0.22-0.7,0.68l-0.01,17.36
		c0,0.45,0.23,0.68,0.7,0.68l19.89,0.01c0.7,0,1.17,0.45,1.17,1.13l0,11.04c0,0.68-0.47,1.13-1.17,1.13l-34.75-0.01
		c-0.7,0-1.17-0.45-1.17-1.13L311.38,19.78L311.38,19.78z"/>
</g>
</svg>
