<svg width="144" height="48" viewBox="0 0 144 48" fill="none" xmlns="http://www.w3.org/2000/svg">
<path fill-rule="evenodd" clip-rule="evenodd" d="M34 27.8133H98.1223V8H34V27.8133Z" fill="#F6F7EB"/>
<path fill-rule="evenodd" clip-rule="evenodd" d="M99.4084 27.8133H109.706V8H99.4084V27.8133Z" fill="#F6F7EB"/>
<path fill-rule="evenodd" clip-rule="evenodd" d="M56.713 39.8397H109.664V29.0664H56.713V39.8397Z" fill="#F6F7EB"/>
<path fill-rule="evenodd" clip-rule="evenodd" d="M34.2117 39.8397H55.5154V29.0664H34.2117V39.8397Z" fill="#F6F7EB"/>
<path fill-rule="evenodd" clip-rule="evenodd" d="M60.4211 37.721C60.3612 37.721 60.3225 37.6837 60.3225 37.625V32.377C60.3225 32.3397 60.3031 32.3202 60.2626 32.3202H59.2062C59.1464 32.3202 59.1077 32.281 59.1077 32.2242V31.2819C59.1077 31.2233 59.1464 31.1859 59.2062 31.1859H62.7328C62.7927 31.1859 62.8314 31.2233 62.8314 31.2819V32.2242C62.8314 32.281 62.7909 32.3202 62.7328 32.3202H61.6764C61.6359 32.3202 61.6166 32.3397 61.6166 32.377V37.625C61.6166 37.6837 61.5761 37.721 61.518 37.721H60.4211ZM63.4846 36.7024C63.3754 36.4037 63.3455 36.1353 63.3455 34.4535C63.3455 32.7717 63.3754 32.5015 63.4846 32.2046C63.7311 31.4846 64.3244 31.0988 65.203 31.0988C66.0815 31.0988 66.6749 31.4828 66.9214 32.2046C67.0305 32.5033 67.0604 32.7717 67.0604 34.4535C67.0604 36.1353 67.0305 36.4055 66.9214 36.7024C66.6749 37.4224 66.0815 37.8082 65.203 37.8082C64.3244 37.8082 63.7311 37.4224 63.4846 36.7024ZM65.6783 36.3557C65.7276 36.2028 65.747 36.0375 65.747 34.4517C65.747 32.8659 65.7259 32.7024 65.6783 32.5477C65.6185 32.3664 65.4512 32.2313 65.2047 32.2313C64.9582 32.2313 64.7892 32.3664 64.7294 32.5477C64.6801 32.7024 64.6607 32.8659 64.6607 34.4517C64.6607 36.0375 64.6801 36.201 64.7294 36.3557C64.7892 36.5388 64.9565 36.6739 65.2047 36.6739C65.4512 36.6739 65.6185 36.5388 65.6783 36.3557ZM71.8142 37.8082C70.5993 37.8082 70.0165 37.1842 69.9954 36.0588C69.9954 36.0002 70.0165 35.9628 70.0746 35.9522L71.131 35.7886C71.1997 35.7797 71.2402 35.8082 71.2402 35.865C71.2596 36.4695 71.4374 36.7113 71.823 36.7113C72.1874 36.7113 72.3564 36.5282 72.3564 35.9326C72.3564 35.3548 72.2385 35.1539 71.7332 34.9619L71.3282 34.809C70.3792 34.4535 70.0535 33.9628 70.0535 32.9157C70.0535 31.7335 70.6363 31.0988 71.8318 31.0988C73.0079 31.0988 73.5607 31.6944 73.61 32.7237C73.61 32.7824 73.5801 32.8197 73.522 32.8304L72.5131 32.985C72.4533 32.9939 72.404 32.9655 72.404 32.9086C72.3934 32.4375 72.2261 32.1975 71.8705 32.1975C71.5254 32.1975 71.3564 32.409 71.3564 32.8517C71.3564 33.3424 71.4656 33.4953 71.9885 33.6979L72.3934 33.8526C73.3125 34.1993 73.6681 34.6793 73.6681 35.785C73.6716 37.1148 73.1487 37.8082 71.8142 37.8082ZM75.6471 31.2819C75.6664 31.2233 75.6964 31.1859 75.7562 31.1859H76.9218C76.9816 31.1859 77.0204 31.2233 77.0309 31.2819L78.4729 37.6268C78.4834 37.6837 78.4535 37.7228 78.3937 37.7228H77.2968C77.2281 37.7228 77.1982 37.6855 77.1876 37.6268L76.9711 36.4446H75.6964L75.4692 37.6268C75.4587 37.6837 75.4287 37.7228 75.3601 37.7228H74.2632C74.2033 37.7228 74.1734 37.6855 74.184 37.6268L75.6471 31.2819ZM76.7844 35.4437L76.3601 33.1753H76.3302L75.8865 35.4437H76.7844ZM80.0451 37.721C79.9853 37.721 79.9571 37.6837 79.936 37.625L78.6032 31.2819C78.5838 31.2233 78.6137 31.1859 78.6824 31.1859H79.7986C79.8585 31.1859 79.8972 31.2144 79.906 31.2819L80.5874 35.4153H80.6173L81.2688 31.2819C81.2793 31.2144 81.3181 31.1859 81.3779 31.1859H82.4748C82.5435 31.1859 82.5734 31.2233 82.554 31.2819L81.2107 37.625C81.2001 37.6837 81.1702 37.721 81.1121 37.721H80.0451ZM83.3446 31.2819C83.3446 31.2233 83.3851 31.1859 83.4432 31.1859H86.3781C86.438 31.1859 86.4767 31.2233 86.4767 31.2819V32.2242C86.4767 32.2828 86.4362 32.3202 86.3781 32.3202H84.6985C84.658 32.3202 84.6386 32.3397 84.6386 32.3788V33.801C84.6386 33.8384 84.658 33.8579 84.6985 33.8579H86.151C86.2109 33.8579 86.2496 33.897 86.2496 33.9539V34.8962C86.2496 34.953 86.2091 34.9922 86.151 34.9922H84.6985C84.658 34.9922 84.6386 35.0117 84.6386 35.0508V36.5317C84.6386 36.569 84.658 36.5886 84.6985 36.5886H86.3781C86.438 36.5886 86.4767 36.6277 86.4767 36.6846V37.6268C86.4767 37.6837 86.4362 37.7228 86.3781 37.7228H83.4432C83.3833 37.7228 83.3446 37.6855 83.3446 37.6268V31.2819ZM89.5209 31.2819C89.5209 31.2233 89.5614 31.1859 89.6195 31.1859H90.7163C90.7762 31.1859 90.8149 31.2233 90.8149 31.2819V36.5299C90.8149 36.5673 90.8343 36.5868 90.873 36.5868H92.572C92.6319 36.5868 92.6706 36.6259 92.6706 36.6828V37.625C92.6706 37.6819 92.6301 37.721 92.572 37.721H89.6177C89.5578 37.721 89.5191 37.6837 89.5191 37.625V31.2819H89.5209ZM93.5228 31.2819C93.5228 31.2233 93.5633 31.1859 93.6214 31.1859H94.7183C94.7781 31.1859 94.8169 31.2233 94.8169 31.2819V37.6268C94.8169 37.6837 94.7764 37.7228 94.7183 37.7228H93.6214C93.5615 37.7228 93.5228 37.6855 93.5228 37.6268V31.2819ZM97.0493 37.721C96.9895 37.721 96.9613 37.6837 96.9402 37.625L95.6074 31.2819C95.588 31.2233 95.6162 31.1859 95.6866 31.1859H96.8029C96.8627 31.1859 96.9015 31.2144 96.9103 31.2819L97.5916 35.4153H97.6215L98.273 31.2819C98.2835 31.2144 98.3223 31.1859 98.3804 31.1859H99.4773C99.5459 31.1859 99.5759 31.2233 99.5565 31.2819L98.2131 37.625C98.2026 37.6837 98.1726 37.721 98.1145 37.721H97.0493ZM100.351 31.2819C100.351 31.2233 100.391 31.1859 100.449 31.1859H103.384C103.444 31.1859 103.483 31.2233 103.483 31.2819V32.2242C103.483 32.2828 103.442 32.3202 103.384 32.3202H101.704C101.664 32.3202 101.645 32.3397 101.645 32.3788V33.801C101.645 33.8384 101.664 33.8579 101.704 33.8579H103.157C103.215 33.8579 103.256 33.897 103.256 33.9539V34.8962C103.256 34.953 103.215 34.9922 103.157 34.9922H101.704C101.664 34.9922 101.645 35.0117 101.645 35.0508V36.5317C101.645 36.569 101.664 36.5886 101.704 36.5886H103.384C103.444 36.5886 103.483 36.6277 103.483 36.6846V37.6268C103.483 37.6837 103.442 37.7228 103.384 37.7228H100.449C100.389 37.7228 100.351 37.6855 100.351 37.6268V31.2819ZM106.022 37.8082C104.807 37.8082 104.224 37.1842 104.203 36.0588C104.203 36.0002 104.222 35.9628 104.282 35.9522L105.338 35.7886C105.407 35.7797 105.448 35.8082 105.448 35.865C105.467 36.4695 105.645 36.7113 106.03 36.7113C106.395 36.7113 106.564 36.5282 106.564 35.9326C106.564 35.3548 106.446 35.1539 105.941 34.9619L105.536 34.809C104.587 34.4535 104.261 33.9628 104.261 32.9157C104.261 31.7335 104.844 31.0988 106.039 31.0988C107.215 31.0988 107.768 31.6944 107.817 32.7237C107.817 32.7824 107.787 32.8197 107.729 32.8304L106.721 32.985C106.661 32.9939 106.613 32.9655 106.613 32.9086C106.603 32.4375 106.435 32.1975 106.08 32.1975C105.735 32.1975 105.566 32.409 105.566 32.8517C105.566 33.3424 105.675 33.4953 106.198 33.6979L106.603 33.8526C107.522 34.1993 107.877 34.6793 107.877 35.785C107.879 37.1148 107.356 37.8082 106.022 37.8082ZM42.2372 24.9299C42.114 24.9299 42.0524 24.889 42.0119 24.7699L40.4273 19.5984H39.6438C39.5611 19.5984 39.5206 19.6375 39.5206 19.7193L39.5188 24.729C39.5188 24.8499 39.4361 24.9299 39.3128 24.9299H37.0275C36.9043 24.9299 36.8215 24.8499 36.8215 24.729L36.8268 11.5006C36.8268 11.3797 36.9096 11.2997 37.0328 11.2997L40.3692 11.3015C42.8623 11.3015 44.468 12.4446 44.468 15.4722C44.468 17.1948 43.8694 18.3184 42.901 18.9584L44.8148 24.7308C44.8571 24.8322 44.8148 24.9317 44.7127 24.9317L42.2372 24.9299ZM41.7478 15.4704C41.7478 14.0482 41.2953 13.6073 40.2442 13.6073H39.6456C39.5628 13.6073 39.5223 13.6482 39.5223 13.7282L39.5206 17.2162C39.5206 17.2962 39.5628 17.3353 39.6438 17.3353H40.2407C41.2935 17.3335 41.746 16.9139 41.7478 15.4704ZM46.4047 11.5042C46.4047 11.3833 46.4874 11.3033 46.6107 11.3033L52.7289 11.305C52.8521 11.305 52.9349 11.385 52.9349 11.5059V13.4704C52.9349 13.5913 52.8521 13.6713 52.7289 13.6713H49.227C49.1442 13.6713 49.1037 13.7104 49.1037 13.7922L49.102 16.7575C49.102 16.8375 49.1425 16.8766 49.2252 16.8766L52.2535 16.8784C52.3767 16.8784 52.4595 16.9584 52.4595 17.0793V19.0437C52.4595 19.1646 52.3767 19.2446 52.2535 19.2446L49.2252 19.2428C49.1425 19.2428 49.102 19.2837 49.102 19.3637L49.1002 22.4499C49.1002 22.5299 49.1425 22.5708 49.2234 22.5708L52.7254 22.5726C52.8486 22.5726 52.9313 22.6526 52.9313 22.7735V24.7379C52.9313 24.8588 52.8486 24.9388 52.7254 24.9388L46.6054 24.9317C46.4821 24.9317 46.3994 24.8517 46.3994 24.7308L46.4047 11.5042ZM58.0389 25.1166C55.5054 25.1148 54.2906 23.8117 54.2501 21.4668C54.2501 21.3459 54.2923 21.2659 54.4156 21.2464L56.6199 20.9068C56.7642 20.8873 56.847 20.9459 56.847 21.0668C56.8875 22.329 57.2572 22.8304 58.0618 22.8304C58.8242 22.8304 59.1746 22.4499 59.1746 21.2073C59.1746 20.0055 58.9281 19.5842 57.877 19.1824L57.0319 18.8606C55.0547 18.1193 54.3751 17.0953 54.3751 14.9122C54.3768 12.4464 55.5934 11.1237 58.0847 11.1255C60.5355 11.1255 61.6905 12.3699 61.7909 14.5139C61.7909 14.6348 61.7292 14.7148 61.606 14.7344L59.5038 15.0526C59.3806 15.0722 59.2767 15.0135 59.2767 14.8926C59.2573 13.9113 58.9069 13.4099 58.1657 13.4099C57.4439 13.4099 57.0952 13.8508 57.0935 14.7717C57.0935 15.7939 57.3188 16.1139 58.4122 16.5353L59.2573 16.857C61.1729 17.5788 61.9141 18.5815 61.9123 20.8873C61.9123 23.6748 60.8208 25.1166 58.0389 25.1166ZM63.6853 22.8126C63.4599 22.1904 63.3983 21.6304 63.3983 18.1228C63.4001 14.6153 63.4617 14.0553 63.6888 13.433C64.2047 11.929 65.4407 11.129 67.2735 11.129C69.1063 11.129 70.3423 11.9326 70.8564 13.4366C71.0817 14.057 71.1451 14.6188 71.1434 18.1264C71.1416 21.6339 71.08 22.1957 70.8529 22.8162C70.337 24.3202 69.101 25.1219 67.2682 25.1202C65.4354 25.1184 64.1994 24.3166 63.6853 22.8126ZM68.2577 22.0926C68.3616 21.7726 68.402 21.4313 68.4038 18.1246C68.4038 14.8179 68.3633 14.4784 68.2612 14.1566C68.138 13.7762 67.7876 13.4935 67.2735 13.4935C66.7594 13.4935 66.409 13.7744 66.284 14.1548C66.1801 14.4748 66.1396 14.8162 66.1379 18.1228C66.1361 21.4295 66.1784 21.7708 66.2805 22.0908C66.4037 22.4713 66.7541 22.7522 67.27 22.7522C67.7841 22.7539 68.1344 22.473 68.2577 22.0926ZM73.0624 11.513C73.0624 11.3922 73.1452 11.3122 73.2684 11.3122L75.5555 11.3139C75.6788 11.3139 75.7615 11.3939 75.7615 11.5148L75.758 22.4588C75.758 22.5388 75.8002 22.5797 75.8812 22.5797L79.4236 22.5779C79.5469 22.5779 79.6296 22.6579 79.6296 22.7788V24.7433C79.6296 24.8642 79.5469 24.9442 79.4236 24.9442L73.2649 24.9424C73.1417 24.9424 73.0589 24.8624 73.0589 24.7415L73.0624 11.513ZM82.1227 24.9442C81.9994 24.9442 81.9378 24.8642 81.8973 24.7433L79.1208 11.5148C79.0785 11.3939 79.1419 11.3139 79.2863 11.3139L81.6139 11.3157C81.7371 11.3157 81.8199 11.3762 81.841 11.5166L83.2583 20.1353H83.3199L84.6826 11.5184C84.7038 11.3779 84.7848 11.3175 84.9098 11.3175L87.1968 11.3193C87.3412 11.3193 87.4028 11.3993 87.3606 11.5202L84.5541 24.7468C84.533 24.8677 84.4714 24.9477 84.3481 24.9477L82.1227 24.9442ZM88.8219 11.5166C88.8219 11.3957 88.9046 11.3157 89.0279 11.3157L95.1461 11.3175C95.2693 11.3175 95.3521 11.3975 95.3521 11.5184V13.4828C95.3521 13.6037 95.2693 13.6837 95.1461 13.6837H91.6442C91.5614 13.6837 91.5209 13.7228 91.5209 13.8028V16.7682C91.5209 16.8482 91.5614 16.889 91.6442 16.889L94.6725 16.8908C94.7957 16.8908 94.8785 16.9708 94.8785 17.0917V19.0562C94.8785 19.177 94.7957 19.257 94.6725 19.257L91.6442 19.2553C91.5614 19.2553 91.5209 19.2944 91.5209 19.3762L91.5192 22.4624C91.5192 22.5424 91.5597 22.5833 91.6424 22.5833L95.1443 22.585C95.2676 22.585 95.3503 22.665 95.3503 22.7859V24.7486C95.3503 24.8695 95.2676 24.9495 95.1443 24.9495L89.0261 24.9477C88.9029 24.9477 88.8201 24.8677 88.8201 24.7468L88.8219 11.5166Z" fill="#131112"/>
</svg>
