<?xml version="1.0" encoding="utf-8"?>
<!-- Generator: Adobe Illustrator 24.0.2, SVG Export Plug-In . SVG Version: 6.00 Build 0)  -->
<svg version="1.1" id="svg4698" xmlns:svg="http://www.w3.org/2000/svg"
	 xmlns="http://www.w3.org/2000/svg" xmlns:xlink="http://www.w3.org/1999/xlink" x="0px" y="0px" viewBox="0 0 1024 251"
	 style="enable-background:new 0 0 1024 251;" xml:space="preserve">
<style type="text/css">
	.st0{fill:#FFFFFF;}
</style>
<path id="path4311" class="st0" d="M845.11,135.72c1.36,1.36,3.15,2.05,4.94,2.05c1.79,0,3.58-0.69,4.93-2.05
	c1.37-1.36,2.05-3.15,2.05-4.94c0-1.79-0.68-3.57-2.05-4.94c-1.36-1.36-3.15-2.04-4.93-2.04c-1.79,0-3.58,0.68-4.94,2.04
	c-1.36,1.37-2.05,3.16-2.05,4.94C843.06,132.57,843.75,134.35,845.11,135.72 M880.36,100.47c1.77,1.77,4.09,2.66,6.42,2.66
	c2.32,0,4.65-0.89,6.42-2.66c1.78-1.77,2.66-4.1,2.66-6.42c0-2.33-0.88-4.65-2.66-6.42c-1.77-1.77-4.1-2.66-6.42-2.66
	c-2.33,0-4.65,0.89-6.42,2.66c-1.77,1.77-2.66,4.09-2.66,6.42C877.7,96.37,878.59,98.7,880.36,100.47 M880.31,173.88
	c1.77,1.77,4.09,2.66,6.42,2.66c2.32,0,4.65-0.89,6.42-2.66c1.78-1.77,2.66-4.1,2.66-6.42c0-2.33-0.88-4.65-2.66-6.42
	c-1.77-1.77-4.1-2.66-6.42-2.66c-2.33,0-4.65,0.89-6.42,2.66c-1.77,1.77-2.66,4.09-2.66,6.42
	C877.65,169.78,878.54,172.11,880.31,173.88 M915.15,65.67c2.31,2.31,5.33,3.46,8.35,3.46c3.02,0,6.04-1.15,8.35-3.46
	c2.31-2.31,3.46-5.33,3.46-8.35c0-3.02-1.15-6.04-3.46-8.35c-2.31-2.31-5.33-3.46-8.35-3.46c-3.02,0-6.04,1.15-8.35,3.46
	c-2.31,2.31-3.46,5.33-3.46,8.35C911.69,60.35,912.84,63.37,915.15,65.67 M915.11,139.08c2.31,2.31,5.33,3.46,8.35,3.46
	c3.02,0,6.04-1.15,8.35-3.46s3.46-5.33,3.46-8.35c0-3.02-1.15-6.04-3.46-8.35c-2.31-2.31-5.33-3.46-8.35-3.46
	c-3.02,0-6.04,1.15-8.35,3.46c-2.31,2.31-3.46,5.33-3.46,8.35C911.65,133.75,912.8,136.77,915.11,139.08 M915.07,212.49
	c2.31,2.31,5.33,3.46,8.35,3.46c3.02,0,6.04-1.15,8.35-3.46c2.31-2.31,3.46-5.33,3.46-8.35c0-3.02-1.15-6.04-3.46-8.35
	c-2.31-2.31-5.33-3.46-8.35-3.46c-3.02,0-6.04,1.15-8.35,3.46s-3.46,5.33-3.46,8.35C911.61,207.16,912.76,210.18,915.07,212.49
	 M949.33,104.86c2.99,3,6.92,4.49,10.85,4.49c3.93,0,7.86-1.49,10.86-4.49c2.99-2.99,4.49-6.92,4.49-10.85
	c0-3.93-1.5-7.86-4.5-10.86c-3-3-6.93-4.5-10.86-4.5c-3.93,0-7.86,1.5-10.85,4.49c-3,3-4.5,6.93-4.5,10.86
	C944.83,97.94,946.33,101.87,949.33,104.86 M949.29,178.27c2.99,3,6.92,4.49,10.85,4.49c3.93,0,7.86-1.49,10.86-4.49
	c2.99-3,4.49-6.92,4.49-10.85s-1.5-7.86-4.5-10.86s-6.93-4.5-10.86-4.5c-3.93,0-7.86,1.49-10.85,4.49c-3,3-4.5,6.93-4.5,10.86
	C944.79,171.35,946.29,175.27,949.29,178.27 M982.76,144.8c3.9,3.9,9,5.85,14.11,5.85c5.11,0,10.21-1.95,14.1-5.85
	c3.9-3.9,5.85-9.01,5.85-14.11s-1.95-10.21-5.85-14.1c-3.9-3.9-9-5.85-14.1-5.85c-5.11,0-10.21,1.95-14.11,5.85s-5.85,9-5.85,14.1
	S978.86,140.9,982.76,144.8"/>
<path id="path4339" class="st0" d="M763.78,94.46V77.22c9.72,3.09,18.4,4.63,26.04,4.63c10.42,0,15.63-2.75,15.63-8.26
	c0-2.06-0.74-3.78-2.21-5.18c-1.56-1.49-5.56-3.54-12-6.16c-11.44-4.68-18.95-8.71-22.45-12.08c-4.51-4.36-6.78-9.93-6.78-16.7
	c0-8.58,3.28-15.14,9.87-19.65c6.48-4.48,14.96-6.72,25.41-6.72c5.86,0,13.47,0.94,22.8,2.81l2.16,0.37v16.58
	c-8.11-3.24-15.64-4.85-22.63-4.85c-9.74,0-14.61,2.69-14.61,8.08c0,2.01,0.99,3.65,2.95,4.93c1.56,0.98,6.11,3.16,13.62,6.53
	c10.57,4.72,17.65,8.83,21.2,12.33c4.2,4.15,6.3,9.51,6.3,16.1c0,9.45-4.1,16.66-12.27,21.63c-6.7,4.02-15.36,6.03-25.95,6.03
	C781.88,97.64,772.85,96.58,763.78,94.46 M729.3,8.62v58.41L699.35,8.62h-28.25v87.25h17.17V36.68l30.77,59.19h27.44V8.62H729.3z
	 M591.54,8.62v87.25h63.52V79.2h-40.03v-20.7H649V44.1h-33.97v-19.7h39.01V8.62C654.05,8.62,591.54,8.62,591.54,8.62z M539.18,8.62
	l-22.51,55.75L494.73,8.62h-31.6v87.25h17.17V34.1l25.1,62.65h15.11l25.59-62.65v61.77h23.1V8.62H539.18L539.18,8.62z M383.7,8.62
	v87.25h63.51V79.2h-40.02v-20.7h33.96V44.1h-33.96v-19.7h39.01V8.62C446.21,8.62,383.7,8.62,383.7,8.62z M336.98,95.87h12.18h12.19
	V52.24V8.61h-12.19h-12.18v43.63V95.87z M257.94,94.46V77.22c9.81,3.09,18.48,4.63,26.04,4.63c10.42,0,15.63-2.75,15.63-8.26
	c0-2.06-0.76-3.78-2.28-5.18c-1.56-1.49-5.53-3.54-11.94-6.16c-11.48-4.72-18.97-8.75-22.46-12.08c-4.5-4.4-6.76-9.94-6.76-16.65
	c0-8.62,3.29-15.2,9.87-19.71c6.49-4.48,14.96-6.72,25.4-6.72c5.76,0,14.08,1.06,24.97,3.18v16.58c-8.1-3.24-15.63-4.85-22.57-4.85
	c-9.79,0-14.68,2.69-14.68,8.08c0,2.01,0.99,3.65,2.96,4.93c1.64,1.02,6.16,3.2,13.55,6.53c10.64,4.72,17.74,8.83,21.26,12.33
	c4.19,4.15,6.3,9.51,6.3,16.1c0,9.45-4.11,16.66-12.34,21.63c-6.65,4.02-15.29,6.03-25.89,6.03
	C276.04,97.64,267.02,96.58,257.94,94.46"/>
<path id="path4391" class="st0" d="M330.36,181.75h19.7v-16.4h-19.7v-23.76h-20.9v23.77h-11.6v16.4h11.6v37.14
	c0,12.64,1.2,24.97,22.86,24.97c6.62,0,14.58-1.95,19.1-4.81l-4.52-14c-3.3,1.36-6.46,2.41-9.18,2.41c-5.56,0-7.36-3.31-7.36-11.58
	L330.36,181.75L330.36,181.75z M823.82,169.73l0.06-0.18c-6.66-4.36-15.38-6.98-24.9-6.48c-15.45,0.81-27.6,10.02-26.76,25.94
	c0.84,15.93,12.45,19.69,23.87,22.4c6.56,1.61,12.05,2.84,12.35,8.7c0.3,5.71-3.64,8.18-9.19,8.47c-6.8,0.35-15.4-2.67-20.94-5.52
	l-6.23,14.34c4.39,2.94,15.7,7.12,29.02,6.43c17.4-0.91,28.79-10.08,27.91-27.06c-0.82-15.63-13.32-19.04-24.46-21.92
	c-6.86-1.74-11.92-3.44-12.23-9.3c-0.26-4.96,3.7-7.13,8.66-7.39c5.13-0.26,10.66,1.99,16.53,6.1L823.82,169.73L823.82,169.73z
	 M739.11,194.23c0.3-7.96,5.11-13.08,12.63-13.08c3.91,0,7.53,1.05,10.67,2.71l3.76-18.05c-3.61-1.96-8.26-2.71-12.48-2.71
	c-7.06,0-14.43,4.21-18.04,13.08l-1.96-10.83h-17l1.51,13.24v63.01h20.9L739.11,194.23L739.11,194.23z M510.37,241.6v-48.88
	c0-7.22,5.12-13.53,13.08-13.53c7.98,0,9.32,6.16,9.32,14.43v47.98h20.9v-52.04c0-18.04-9.02-26.47-23.9-26.47
	c-10.08,0-17.6,4.22-22.71,11.28l-1.51-9.03h-17.45l1.36,14.14v62.11H510.37z M449.1,141.53c0,3.17,1.11,5.86,3.08,7.76
	c1.97,1.89,4.81,3,8.27,3c3.39,0,6.26-1.11,8.28-3c2.03-1.9,3.21-4.58,3.21-7.76c0-2.95-1.18-5.63-3.21-7.59
	c-2.02-1.95-4.9-3.16-8.28-3.16c-3.39,0-6.23,1.21-8.21,3.16C450.24,135.9,449.1,138.58,449.1,141.53 M450.06,241.61h10.46h10.45
	v-38.12v-38.13h-10.45h-10.46v38.13V241.61z M388.26,241.6v-49.18c0-7.07,5.11-13.23,12.78-13.23c7.97,0,9.62,6.01,9.62,13.83v48.58
	h20.9v-51.73c0-17.9-8.57-26.78-24.36-26.78c-7.37,0-14.13,2.71-18.95,7.82v-29.32h-20.9V241.6H388.26z M257.87,141.75v77.15
	c0,12.63,1.2,24.97,22.86,24.97c6.62,0,14.58-1.95,19.1-4.81l-4.51-13.99c-3.31,1.36-6.46,2.41-9.16,2.41
	c-5.58,0-7.38-3.31-7.38-11.58v-74.14H257.87L257.87,141.75z M240.43,241.6l-1.51-15.18v-57.76c-11.43-4.21-22.56-5.56-27.67-5.56
	c-26.61,0-39.85,17.3-39.85,43.77c0,20.3,7.37,36.84,29.17,36.84c8.13,0,15.64-3.01,20.15-9.93l0.76,0.16l1.05,7.66H240.43z
	 M218.17,217.24c0,5.56-4.51,11.28-12.33,11.28c-11.13,0-13.69-10.68-13.69-22.86c0-14.74,4.21-27.07,16.55-27.07
	c3.91,0,7.51,0.75,9.47,1.65V217.24z M59.36,141.6v39.85H28.68V141.6H7.18v100.01h21.5v-41.36h30.68v41.36h21.51V141.6H59.36z
	 M159.37,185.06c0-14.28-9.78-21.96-24.97-21.96c-24.66,0-37.44,20.16-37.44,42.26c0,22.56,10.23,38.5,35.79,38.5
	c15.2,0,25.72-6.92,27.52-8.42l-6.01-13.98c-4.21,2.85-10.68,6.46-18.8,6.46c-11.43,0-16.25-7.68-17.3-14.89
	C136.36,212.28,159.37,207.76,159.37,185.06 M141.02,185.22c0,10.37-13.99,12.78-23.76,13.08c0.44-10.38,5.86-20.46,16.09-20.46
	C138.01,177.84,141.02,180.69,141.02,185.22 M701.96,185.06c0-14.28-9.78-21.96-24.97-21.96c-24.66,0-37.44,20.16-37.44,42.26
	c0,22.56,10.23,38.5,35.79,38.5c15.2,0,25.72-6.92,27.52-8.42l-6.02-13.98c-4.21,2.85-10.67,6.46-18.79,6.46
	c-11.43,0-16.24-7.68-17.3-14.89C678.96,212.28,701.96,207.76,701.96,185.06 M683.62,185.22c0,10.37-13.99,12.78-23.76,13.08
	c0.44-10.38,5.86-20.46,16.09-20.46C680.6,177.84,683.62,180.69,683.62,185.22 M629.03,185.06c0-14.28-9.78-21.96-24.97-21.96
	c-24.66,0-37.44,20.16-37.44,42.26c0,22.56,10.23,38.5,35.79,38.5c15.2,0,25.72-6.92,27.52-8.42l-6.01-13.98
	c-4.21,2.85-10.68,6.46-18.8,6.46c-11.43,0-16.25-7.68-17.3-14.89C606.02,212.28,629.03,207.76,629.03,185.06 M610.68,185.22
	c0,10.37-13.99,12.78-23.76,13.08c0.44-10.38,5.86-20.46,16.09-20.46C607.67,177.84,610.68,180.69,610.68,185.22"/>
</svg>
