<svg width="144" height="48" viewBox="0 0 144 48" fill="none" xmlns="http://www.w3.org/2000/svg">
<path d="M109.671 25.1404C109.823 25.2921 110.023 25.3691 110.224 25.3691C110.424 25.3691 110.625 25.2921 110.776 25.1404C110.93 24.9887 111.006 24.789 111.006 24.5893C111.006 24.3897 110.93 24.1911 110.776 24.0383C110.624 23.8865 110.423 23.8107 110.224 23.8107C110.023 23.8107 109.823 23.8865 109.671 24.0383C109.518 24.1911 109.441 24.3908 109.441 24.5893C109.441 24.789 109.518 24.9876 109.671 25.1404ZM113.619 21.2081C113.818 21.4056 114.077 21.5049 114.338 21.5049C114.598 21.5049 114.859 21.4056 115.058 21.2081C115.257 21.0107 115.356 20.7508 115.356 20.492C115.356 20.232 115.257 19.9732 115.058 19.7758C114.859 19.5783 114.598 19.4791 114.338 19.4791C114.077 19.4791 113.818 19.5783 113.619 19.7758C113.421 19.9732 113.321 20.232 113.321 20.492C113.321 20.7508 113.421 21.0107 113.619 21.2081ZM113.614 29.3973C113.812 29.5948 114.072 29.694 114.333 29.694C114.593 29.694 114.854 29.5948 115.052 29.3973C115.251 29.1999 115.35 28.9399 115.35 28.6811C115.35 28.4212 115.251 28.1624 115.052 27.965C114.854 27.7675 114.593 27.6682 114.333 27.6682C114.072 27.6682 113.812 27.7675 113.614 27.965C113.415 28.1624 113.316 28.4212 113.316 28.6811C113.316 28.9399 113.415 29.1999 113.614 29.3973ZM117.517 17.3261C117.775 17.5838 118.114 17.712 118.452 17.712C118.79 17.712 119.129 17.5838 119.387 17.3261C119.646 17.0684 119.775 16.7315 119.775 16.3946C119.775 16.0577 119.646 15.7208 119.387 15.4631C119.129 15.2054 118.79 15.0771 118.452 15.0771C118.114 15.0771 117.775 15.2054 117.517 15.4631C117.258 15.7208 117.129 16.0577 117.129 16.3946C117.129 16.7326 117.258 17.0695 117.517 17.3261ZM117.512 25.5152C117.771 25.7729 118.109 25.9012 118.447 25.9012C118.786 25.9012 119.124 25.7729 119.383 25.5152C119.642 25.2575 119.77 24.9207 119.77 24.5838C119.77 24.2469 119.642 23.91 119.383 23.6523C119.124 23.3946 118.786 23.2663 118.447 23.2663C118.109 23.2663 117.771 23.3946 117.512 23.6523C117.253 23.91 117.124 24.2469 117.124 24.5838C117.124 24.9207 117.253 25.2575 117.512 25.5152ZM117.508 33.7044C117.766 33.9621 118.105 34.0904 118.443 34.0904C118.781 34.0904 119.12 33.9621 119.378 33.7044C119.637 33.4467 119.766 33.1098 119.766 32.7729C119.766 32.436 119.637 32.0991 119.378 31.8414C119.12 31.5838 118.781 31.4555 118.443 31.4555C118.105 31.4555 117.766 31.5838 117.508 31.8414C117.249 32.0991 117.12 32.436 117.12 32.7729C117.12 33.1098 117.249 33.4467 117.508 33.7044ZM121.345 21.6979C121.68 22.0325 122.121 22.1987 122.561 22.1987C123.001 22.1987 123.441 22.0325 123.777 21.6979C124.112 21.3643 124.28 20.9259 124.28 20.4875C124.28 20.0491 124.112 19.6107 123.776 19.276C123.44 18.9414 123 18.774 122.56 18.774C122.119 18.774 121.679 18.9414 121.344 19.2749C121.008 19.6096 120.84 20.048 120.84 20.4864C120.841 20.9259 121.009 21.3643 121.345 21.6979ZM121.341 29.887C121.676 30.2217 122.116 30.3879 122.556 30.3879C122.997 30.3879 123.437 30.2217 123.773 29.887C124.108 29.5524 124.276 29.1151 124.276 28.6767C124.276 28.2383 124.108 27.7999 123.772 27.4652C123.436 27.1305 122.995 26.9632 122.555 26.9632C122.115 26.9632 121.675 27.1294 121.34 27.4641C121.004 27.7987 120.836 28.2371 120.836 28.6756C120.837 29.1151 121.005 29.5524 121.341 29.887ZM125.09 26.1533C125.527 26.5884 126.098 26.8059 126.671 26.8059C127.243 26.8059 127.815 26.5884 128.25 26.1533C128.687 25.7183 128.906 25.1482 128.906 24.5793C128.906 24.0104 128.687 23.4403 128.25 23.0064C127.814 22.5713 127.242 22.3538 126.671 22.3538C126.098 22.3538 125.527 22.5713 125.09 23.0064C124.653 23.4415 124.435 24.0104 124.435 24.5793C124.435 25.1482 124.653 25.7183 125.09 26.1533Z" fill="#F6F7EB"/>
<path d="M100.559 20.5375V18.6143C101.648 18.959 102.62 19.1308 103.476 19.1308C104.643 19.1308 105.227 18.824 105.227 18.2093C105.227 17.9795 105.144 17.7877 104.979 17.6315C104.804 17.4653 104.356 17.2366 103.635 16.9443C102.353 16.4223 101.512 15.9727 101.12 15.5968C100.615 15.1104 100.361 14.489 100.361 13.7338C100.361 12.7767 100.728 12.0449 101.466 11.5418C102.192 11.042 103.142 10.7921 104.313 10.7921C104.969 10.7921 105.822 10.897 106.867 11.1056L107.109 11.1469V12.9964C106.2 12.635 105.357 12.4554 104.574 12.4554C103.483 12.4554 102.937 12.7555 102.937 13.3568C102.937 13.581 103.048 13.7639 103.268 13.9067C103.442 14.016 103.952 14.2592 104.793 14.6352C105.977 15.1617 106.77 15.6202 107.168 16.0106C107.639 16.4736 107.874 17.0715 107.874 17.8066C107.874 18.8608 107.415 19.6651 106.499 20.2195C105.749 20.668 104.779 20.8922 103.592 20.8922C102.586 20.8922 101.575 20.774 100.559 20.5375ZM96.6964 10.9617V17.4775L93.3413 10.9617H90.1767V20.6948H92.1002V14.0919L95.547 20.6948H98.6209V10.9617H96.6964ZM81.2643 10.9617V20.6948H88.3799V18.8352H83.8957V16.526H87.7011V14.9196H83.8957V12.722H88.2657V10.9617C88.2668 10.9617 81.2643 10.9617 81.2643 10.9617ZM75.3989 10.9617L72.8773 17.1808L70.4196 10.9617H66.8797V20.6948H68.8031V13.8041L71.6148 20.7929H73.3075L76.1741 13.8041V20.6948H78.7618V10.9617H75.3989ZM57.9819 10.9617V20.6948H65.0963V18.8352H60.6132V16.526H64.4175V14.9196H60.6132V12.722H64.9832V10.9617C64.9843 10.9617 57.9819 10.9617 57.9819 10.9617ZM52.7482 20.6948H54.1126H55.4782V15.8277V10.9606H54.1126H52.7482V15.8277V20.6948ZM43.8941 20.5375V18.6143C44.993 18.959 45.9642 19.1308 46.8111 19.1308C47.9784 19.1308 48.562 18.824 48.562 18.2093C48.562 17.9795 48.4769 17.7877 48.3066 17.6315C48.1318 17.4653 47.6871 17.2366 46.9691 16.9443C45.6831 16.4178 44.844 15.9682 44.4531 15.5968C43.949 15.1059 43.6958 14.4879 43.6958 13.7394C43.6958 12.7778 44.0643 12.0438 44.8014 11.5407C45.5285 11.0409 46.4773 10.791 47.6468 10.791C48.292 10.791 49.224 10.9093 50.444 11.1458V12.9953C49.5366 12.6339 48.6931 12.4543 47.9156 12.4543C46.8189 12.4543 46.2712 12.7544 46.2712 13.3556C46.2712 13.5799 46.3821 13.7628 46.6027 13.9056C46.7865 14.0194 47.2928 14.2626 48.1206 14.634C49.3125 15.1606 50.1079 15.6191 50.5022 16.0095C50.9716 16.4724 51.2079 17.0704 51.2079 17.8055C51.2079 18.8597 50.7475 19.664 49.8256 20.2184C49.0807 20.6669 48.1128 20.8911 46.9254 20.8911C45.9217 20.8922 44.9112 20.774 43.8941 20.5375Z" fill="#F6F7EB"/>
<path d="M52.0072 30.2753H54.214V28.4458H52.0072V25.7953H49.666V28.4469H48.3665V30.2764H49.666V34.4195C49.666 35.8295 49.8004 37.205 52.2268 37.205C52.9684 37.205 53.86 36.9874 54.3664 36.6684L53.86 35.1066C53.4904 35.2584 53.1364 35.3755 52.8317 35.3755C52.2088 35.3755 52.0072 35.0062 52.0072 34.0837V30.2753ZM107.285 28.9344L107.292 28.9143C106.546 28.4279 105.569 28.1357 104.503 28.1914C102.772 28.2818 101.411 29.3092 101.505 31.0851C101.599 32.8622 102.9 33.2816 104.179 33.5839C104.914 33.7635 105.529 33.9008 105.562 34.5545C105.596 35.1914 105.155 35.467 104.533 35.4993C103.771 35.5384 102.808 35.2015 102.187 34.8835L101.489 36.4832C101.981 36.8112 103.248 37.2775 104.74 37.2005C106.689 37.099 107.965 36.0761 107.867 34.1819C107.775 32.4383 106.374 32.0579 105.127 31.7366C104.358 31.5425 103.791 31.3529 103.757 30.6992C103.727 30.1459 104.171 29.9038 104.727 29.8748C105.301 29.8458 105.921 30.0968 106.578 30.5553L107.285 28.9344ZM97.7959 31.6674C97.8295 30.7795 98.3683 30.2083 99.2107 30.2083C99.6487 30.2083 100.054 30.3255 100.406 30.5106L100.827 28.4971C100.423 28.2784 99.9019 28.1948 99.4291 28.1948C98.6383 28.1948 97.8127 28.6644 97.4083 29.6539L97.1887 28.4458H95.2844L95.4535 29.9227V36.9517H97.7947L97.7959 31.6674ZM72.1721 36.9517V31.499C72.1721 30.6936 72.7457 29.9897 73.6374 29.9897C74.5313 29.9897 74.6814 30.6768 74.6814 31.5994V36.9517H77.0227V31.1465C77.0227 29.1341 76.0122 28.1937 74.3454 28.1937C73.2162 28.1937 72.3738 28.6644 71.8014 29.452L71.6322 28.4447H69.6774L69.8298 30.022V36.9506H72.1721V36.9517ZM65.3086 25.7886C65.3086 26.1422 65.4329 26.4423 65.6536 26.6542C65.8743 26.8651 66.1925 26.9889 66.58 26.9889C66.9598 26.9889 67.2813 26.8651 67.5076 26.6542C67.735 26.4423 67.8672 26.1433 67.8672 25.7886C67.8672 25.4595 67.735 25.1605 67.5076 24.9419C67.2813 24.7243 66.9587 24.5894 66.58 24.5894C66.2003 24.5894 65.8822 24.7243 65.6604 24.9419C65.4363 25.1605 65.3086 25.4595 65.3086 25.7886ZM65.4161 36.9529H66.5879H67.7585V32.7004V28.4469H66.5879H65.4161V32.7004V36.9529ZM58.4932 36.9517V31.4655C58.4932 30.6768 59.0657 29.9897 59.9249 29.9897C60.8177 29.9897 61.0025 30.6601 61.0025 31.5325V36.9517H63.3438V31.1811C63.3438 29.1843 62.3837 28.1937 60.6149 28.1937C59.7893 28.1937 59.0321 28.496 58.4921 29.066V25.7953H56.1509V36.9517H58.4932ZM43.8868 25.8131V34.4195C43.8868 35.8284 44.0212 37.205 46.4476 37.205C47.1892 37.205 48.0809 36.9874 48.5872 36.6684L48.082 35.1078C47.7112 35.2595 47.3583 35.3766 47.0559 35.3766C46.4308 35.3766 46.2292 35.0074 46.2292 34.0848V25.8142H43.8868V25.8131ZM41.9331 36.9517L41.764 35.2584V28.815C40.4836 28.3454 39.2368 28.1948 38.6644 28.1948C35.6835 28.1948 34.2003 30.1247 34.2003 33.0775C34.2003 35.342 35.0259 37.1871 37.468 37.1871C38.3787 37.1871 39.22 36.8513 39.7252 36.0794L39.8103 36.0972L39.928 36.9517H41.9331ZM39.4396 34.2343C39.4396 34.8545 38.9343 35.4926 38.0583 35.4926C36.8115 35.4926 36.5248 34.3012 36.5248 32.9425C36.5248 31.2982 36.9964 29.9227 38.3787 29.9227C38.8167 29.9227 39.22 30.0064 39.4396 30.1068V34.2343ZM21.6495 25.7964V30.2418H18.2127V25.7964H15.8042V36.9529H18.2127V32.339H21.6495V36.9529H24.059V25.7964H21.6495ZM32.8527 30.6445C32.8527 29.0515 31.7571 28.1948 30.0555 28.1948C27.2931 28.1948 25.8615 30.4437 25.8615 32.909C25.8615 35.4257 27.0074 37.2039 29.8707 37.2039C31.5734 37.2039 32.7519 36.4319 32.9535 36.2646L32.2803 34.7051C31.8087 35.023 31.0839 35.4257 30.1743 35.4257C28.8939 35.4257 28.3539 34.569 28.2363 33.7647C30.2751 33.681 32.8527 33.1768 32.8527 30.6445ZM30.7971 30.6623C30.7971 31.8192 29.2299 32.088 28.1355 32.1215C28.1848 30.9635 28.7919 29.8391 29.9379 29.8391C30.4599 29.8391 30.7971 30.157 30.7971 30.6623ZM93.6343 30.6445C93.6343 29.0515 92.5387 28.1948 90.8371 28.1948C88.0747 28.1948 86.643 30.4437 86.643 32.909C86.643 35.4257 87.789 37.2039 90.6523 37.2039C92.355 37.2039 93.5335 36.4319 93.7351 36.2646L93.0607 34.7051C92.5891 35.023 91.8655 35.4257 90.9559 35.4257C89.6755 35.4257 89.1366 34.569 89.0179 33.7647C91.0578 33.681 93.6343 33.1768 93.6343 30.6445ZM91.5798 30.6623C91.5798 31.8192 90.0126 32.088 88.9182 32.1215C88.9675 30.9635 89.5746 29.8391 90.7206 29.8391C91.2415 29.8391 91.5798 30.157 91.5798 30.6623ZM85.4646 30.6445C85.4646 29.0515 84.369 28.1948 82.6674 28.1948C79.905 28.1948 78.4733 30.4437 78.4733 32.909C78.4733 35.4257 79.6193 37.2039 82.4826 37.2039C84.1853 37.2039 85.3638 36.4319 85.5654 36.2646L84.8921 34.7051C84.4205 35.023 83.6958 35.4257 82.7862 35.4257C81.5057 35.4257 80.9658 34.569 80.8482 33.7647C82.887 33.681 85.4646 33.1768 85.4646 30.6445ZM83.409 30.6623C83.409 31.8192 81.8418 32.088 80.7474 32.1215C80.7967 30.9635 81.4038 29.8391 82.5498 29.8391C83.0718 29.8391 83.409 30.157 83.409 30.6623Z" fill="#F6F7EB"/>
</svg>
