<svg width="144" height="48" viewBox="0 0 144 48" fill="none" xmlns="http://www.w3.org/2000/svg">
<path d="M35.2307 34.6546C39.634 34.6546 43.2034 31.1803 43.2034 26.8944C43.2034 21.0741 35.2307 13.314 35.2307 13.314C35.2307 13.314 27.2581 21.0741 27.2581 26.8944C27.2581 31.1803 30.8275 34.6546 35.2307 34.6546Z" fill="#F6F7EB"/>
<path fill-rule="evenodd" clip-rule="evenodd" d="M30.6519 28.9169C31.0776 28.5985 31.6879 28.6763 32.0145 29.0899L32.1486 29.2592C33.7049 31.2285 36.756 31.2285 38.3123 29.2592L38.4464 29.0899C38.7736 28.6756 39.3839 28.5985 39.809 28.9169C40.2347 29.2353 40.3144 29.8289 39.9872 30.2432L39.853 30.4124C37.5186 33.3671 32.9416 33.3671 30.6072 30.4124L30.4731 30.2432C30.1465 29.8289 30.2262 29.2353 30.6519 28.9169Z" fill="#131112"/>
<path d="M56.2375 31.0115C59.7531 31.0115 61.7675 29.1951 61.7675 26.6272C61.7675 24.0173 59.7097 23.0571 56.6444 22.3889C54.308 21.8668 53.2149 21.4494 53.2149 20.2804C53.2149 19.2782 54.2224 18.4013 55.7016 18.4013C57.1595 18.4013 58.638 19.0068 59.9242 20.0924L61.382 18.1719C59.9028 16.9403 58.145 16.1675 55.8086 16.1675C52.7005 16.1675 50.5144 18.0046 50.5144 20.5098C50.5144 23.2031 52.6363 24.0586 55.6803 24.7481C58.0381 25.2909 59.0883 25.6876 59.0883 26.8779C59.0883 27.9008 58.145 28.7777 56.323 28.7777C54.3941 28.7777 52.8294 28.0262 51.4785 26.8359L49.9358 28.6943C51.5647 30.1767 53.7086 31.0115 56.2375 31.0115Z" fill="#F6F7EB"/>
<path d="M65.0963 18.3595C65.9107 18.3595 66.5755 17.6707 66.5755 16.8979C66.5755 16.1257 65.9107 15.4575 65.0963 15.4575C64.2605 15.4575 63.5957 16.1257 63.5957 16.8979C63.5957 17.6707 64.2598 18.3595 65.0963 18.3595ZM63.7668 30.7817H66.3818V19.9879H63.7668V30.7817Z" fill="#F6F7EB"/>
<path d="M81.7111 19.7373C80.0608 19.7373 78.6671 20.5308 78.1313 21.7831C77.4452 20.5095 76.159 19.7373 74.5943 19.7373C73.2013 19.7373 72.0648 20.4055 71.5076 21.449V19.9874H68.8926V30.7812H71.5076V24.1636C71.5076 22.848 72.5151 21.9091 73.9295 21.9091C75.2157 21.9091 76.0942 22.9113 76.0942 24.331V30.7818H78.6451V24.1636C78.6451 22.848 79.6312 21.9091 81.067 21.9091C82.3318 21.9091 83.2104 22.9113 83.2104 24.331V30.7818H85.7612V23.9129C85.7625 21.4704 84.0261 19.7373 81.7111 19.7373Z" fill="#F6F7EB"/>
<path d="M94.5586 19.7373C92.9077 19.7373 91.5788 20.4681 90.7002 21.6998V19.988H88.0852V34.3726H90.7002V29.0701C91.5788 30.3017 92.9077 31.0325 94.5586 31.0325C97.495 31.0325 99.6383 28.694 99.6383 25.3746C99.6383 22.0758 97.495 19.7373 94.5586 19.7373ZM93.8511 28.8607C92.0077 28.8607 90.7216 27.3991 90.7216 25.3746C90.7216 23.3494 92.0077 21.9091 93.8511 21.9091C95.7158 21.9091 97.0447 23.3494 97.0447 25.3746C97.0447 27.3997 95.7158 28.8607 93.8511 28.8607Z" fill="#F6F7EB"/>
<path d="M101.646 30.7813H104.261V16.188H101.646V30.7813Z" fill="#F6F7EB"/>
<path d="M111.961 28.7777C110.375 28.7777 109.217 27.7341 108.895 26.2518H117.255C117.255 22.2642 115.261 19.7383 111.832 19.7383C108.681 19.7383 106.194 22.1182 106.194 25.3542C106.194 28.6737 108.809 31.0329 111.982 31.0329C113.59 31.0329 115.518 30.3647 116.483 29.3625L114.833 27.6921C114.211 28.3183 112.99 28.7777 111.961 28.7777ZM111.939 21.9928C113.504 21.9928 114.447 22.953 114.747 24.31H108.917C109.302 22.8904 110.482 21.9928 111.939 21.9928Z" fill="#F6F7EB"/>
</svg>
