<svg width="144" height="48" viewBox="0 0 144 48" fill="none" xmlns="http://www.w3.org/2000/svg">
<path fill-rule="evenodd" clip-rule="evenodd" d="M43.2034 26.8939C43.2034 31.1799 39.634 34.6541 35.2307 34.6541C30.8275 34.6541 27.2581 31.1799 27.2581 26.8939C27.2581 21.0736 35.2307 13.3135 35.2307 13.3135C35.2307 13.3135 43.2034 21.0736 43.2034 26.8939ZM32.0143 29.0894C31.6878 28.6758 31.0775 28.598 30.6518 28.9165C30.2261 29.2349 30.1464 29.8284 30.4729 30.2427L30.6071 30.412C32.9415 33.3666 37.5184 33.3666 39.8529 30.412L39.987 30.2427C40.3142 29.8284 40.2345 29.2349 39.8089 28.9165C39.3838 28.598 38.7735 28.6751 38.4463 29.0894L38.3122 29.2587C36.7558 31.228 33.7048 31.228 32.1485 29.2587L32.0143 29.0894Z" fill="#F6F7EB"/>
<path d="M56.2375 31.011C59.7531 31.011 61.7675 29.1946 61.7675 26.6267C61.7675 24.0168 59.7097 23.0566 56.6444 22.3884C54.308 21.8663 53.2149 21.4489 53.2149 20.2799C53.2149 19.2777 54.2224 18.4008 55.7016 18.4008C57.1595 18.4008 58.638 19.0063 59.9242 20.0919L61.382 18.1714C59.9028 16.9398 58.145 16.167 55.8086 16.167C52.7005 16.167 50.5144 18.0041 50.5144 20.5093C50.5144 23.2026 52.6363 24.0582 55.6803 24.7476C58.0381 25.2904 59.0883 25.6872 59.0883 26.8774C59.0883 27.9003 58.145 28.7772 56.323 28.7772C54.3941 28.7772 52.8294 28.0257 51.4785 26.8354L49.9358 28.6938C51.5647 30.1762 53.7086 31.011 56.2375 31.011Z" fill="#F6F7EB"/>
<path d="M65.0963 18.3595C65.9107 18.3595 66.5755 17.6707 66.5755 16.8979C66.5755 16.1257 65.9107 15.4575 65.0963 15.4575C64.2605 15.4575 63.5957 16.1257 63.5957 16.8979C63.5957 17.6707 64.2598 18.3595 65.0963 18.3595ZM63.7668 30.7817H66.3818V19.9879H63.7668V30.7817Z" fill="#F6F7EB"/>
<path d="M81.7111 19.7373C80.0608 19.7373 78.6671 20.5308 78.1313 21.7831C77.4452 20.5095 76.159 19.7373 74.5943 19.7373C73.2013 19.7373 72.0648 20.4055 71.5076 21.449V19.9874H68.8926V30.7812H71.5076V24.1636C71.5076 22.848 72.5151 21.9091 73.9295 21.9091C75.2157 21.9091 76.0942 22.9113 76.0942 24.331V30.7818H78.6451V24.1636C78.6451 22.848 79.6312 21.9091 81.067 21.9091C82.3318 21.9091 83.2104 22.9113 83.2104 24.331V30.7818H85.7612V23.9129C85.7625 21.4704 84.0261 19.7373 81.7111 19.7373Z" fill="#F6F7EB"/>
<path d="M94.5586 19.7373C92.9077 19.7373 91.5788 20.4681 90.7002 21.6998V19.988H88.0852V34.3726H90.7002V29.0701C91.5788 30.3017 92.9077 31.0325 94.5586 31.0325C97.495 31.0325 99.6383 28.694 99.6383 25.3746C99.6383 22.0758 97.495 19.7373 94.5586 19.7373ZM93.8511 28.8607C92.0077 28.8607 90.7216 27.3991 90.7216 25.3746C90.7216 23.3494 92.0077 21.9091 93.8511 21.9091C95.7158 21.9091 97.0447 23.3494 97.0447 25.3746C97.0447 27.3997 95.7158 28.8607 93.8511 28.8607Z" fill="#F6F7EB"/>
<path d="M101.646 30.7808H104.261V16.1875H101.646V30.7808Z" fill="#F6F7EB"/>
<path d="M111.961 28.7772C110.375 28.7772 109.217 27.7336 108.896 26.2513H117.255C117.255 22.2637 115.261 19.7378 111.832 19.7378C108.681 19.7378 106.194 22.1177 106.194 25.3537C106.194 28.6732 108.809 31.0324 111.982 31.0324C113.59 31.0324 115.519 30.3642 116.483 29.362L114.833 27.6916C114.211 28.3178 112.99 28.7772 111.961 28.7772ZM111.939 21.9923C113.504 21.9923 114.447 22.9526 114.747 24.3095H108.917C109.302 22.8899 110.482 21.9923 111.939 21.9923Z" fill="#F6F7EB"/>
</svg>
