<?xml version="1.0" encoding="utf-8"?>
<!-- Generator: Adobe Illustrator 24.0.2, SVG Export Plug-In . SVG Version: 6.00 Build 0)  -->
<svg version="1.1" id="Layer_1" xmlns="http://www.w3.org/2000/svg" xmlns:xlink="http://www.w3.org/1999/xlink" x="0px" y="0px"
	 viewBox="0 0 1402 351" style="enable-background:new 0 0 1402 351;" xml:space="preserve">
<style type="text/css">
	.st0{clip-path:url(#SVGID_2_);}
	.st1{fill:#FFFFFF;}
	.st2{fill-rule:evenodd;clip-rule:evenodd;fill:#131112;}
</style>
<g>
	<defs>
		<rect id="SVGID_1_" width="1402" height="351"/>
	</defs>
	<use xlink:href="#SVGID_1_"  style="overflow:visible;fill:#FFFFFF;"/>
	<clipPath id="SVGID_2_">
		<use xlink:href="#SVGID_1_"  style="overflow:visible;"/>
	</clipPath>
	<g class="st0">
		<path class="st1" d="M127.05,345.48c67.96,0,123.05-55.43,123.05-123.81C250.1,128.81,127.05,5,127.05,5S4,128.81,4,221.67
			C4,290.05,59.09,345.48,127.05,345.48z"/>
		<path class="st2" d="M56.38,253.93c6.57-5.08,15.99-3.84,21.03,2.76l2.07,2.7c24.02,31.42,71.11,31.42,95.13,0l2.07-2.7
			c5.05-6.61,14.47-7.84,21.03-2.76c6.57,5.08,7.8,14.55,2.75,21.16l-2.07,2.7c-36.03,47.14-106.67,47.14-142.7,0l-2.07-2.7
			C48.58,268.48,49.81,259.01,56.38,253.93z"/>
		<path class="st1" d="M451.26,287.35c54.26,0,85.35-28.98,85.35-69.95c0-41.64-31.76-56.96-79.07-67.62
			c-36.06-8.33-52.93-14.99-52.93-33.64c0-15.99,15.55-29.98,38.38-29.98c22.5,0,45.32,9.66,65.17,26.98l22.5-30.64
			c-22.83-19.65-49.96-31.98-86.02-31.98c-47.97,0-81.71,29.31-81.71,69.28c0,42.97,32.75,56.62,79.73,67.62
			c36.39,8.66,52.6,14.99,52.6,33.98c0,16.32-14.56,30.31-42.68,30.31c-29.77,0-53.92-11.99-74.77-30.98L354,250.38
			C379.14,274.03,412.23,287.35,451.26,287.35z"/>
		<path class="st1" d="M588,85.5c12.57,0,22.83-10.99,22.83-23.32c0-12.32-10.26-22.98-22.83-22.98c-12.9,0-23.16,10.66-23.16,22.98
			C564.84,74.51,575.09,85.5,588,85.5z M567.48,283.69h40.36V111.48h-40.36V283.69z"/>
		<path class="st1" d="M844.44,107.48c-25.47,0-46.98,12.66-55.25,32.64c-10.59-20.32-30.44-32.64-54.59-32.64
			c-21.5,0-39.04,10.66-47.64,27.31v-23.32h-40.36v172.21h40.36V178.1c0-20.99,15.55-35.97,37.38-35.97
			c19.85,0,33.41,15.99,33.41,38.64v102.92h39.37V178.1c0-20.99,15.22-35.97,37.38-35.97c19.52,0,33.08,15.99,33.08,38.64v102.92
			h39.37V174.1C906.97,135.13,880.17,107.48,844.44,107.48z"/>
		<path class="st1" d="M1042.71,107.48c-25.48,0-45.99,11.66-59.55,31.31v-27.31H942.8v229.5h40.36v-84.6
			c13.56,19.65,34.07,31.31,59.55,31.31c45.32,0,78.4-37.31,78.4-90.27C1121.11,144.79,1088.03,107.48,1042.71,107.48z
			 M1031.79,253.04c-28.45,0-48.3-23.32-48.3-55.62c0-32.31,19.85-55.29,48.3-55.29c28.78,0,49.29,22.98,49.29,55.29
			C1081.08,229.73,1060.57,253.04,1031.79,253.04z"/>
		<path class="st1" d="M1152.1,283.69h40.36V50.86h-40.36V283.69z"/>
		<path class="st1" d="M1311.29,251.71c-24.48,0-42.35-16.65-47.31-40.3H1393c0-63.62-30.77-103.92-83.7-103.92
			c-48.63,0-87.01,37.97-87.01,89.6c0,52.96,40.36,90.6,89.33,90.6c24.81,0,54.58-10.66,69.47-26.65l-25.47-26.65
			C1346.02,244.38,1327.17,251.71,1311.29,251.71z M1310.96,143.46c24.15,0,38.7,15.32,43.33,36.97h-89.98
			C1270.26,157.78,1288.46,143.46,1310.96,143.46z"/>
	</g>
</g>
</svg>
