<svg width="144" height="48" viewBox="0 0 144 48" fill="none" xmlns="http://www.w3.org/2000/svg">
<mask id="mask0" style="mask-type:alpha" maskUnits="userSpaceOnUse" x="8" y="8" width="129" height="33">
<path fill-rule="evenodd" clip-rule="evenodd" d="M8 8H136.569V40.7525H8V8Z" fill="white"/>
</mask>
<g mask="url(#mask0)">
<path fill-rule="evenodd" clip-rule="evenodd" d="M134.429 23.1944C134.38 22.0088 133.408 20.9607 131.951 20.9607C130.348 20.9607 129.424 21.9596 129.277 23.1911L134.429 23.1944ZM131.998 19.1593C134.622 19.1593 136.568 21.0589 136.568 23.6726C136.568 23.8625 136.568 24.1933 136.518 24.3375C136.518 24.5733 136.275 24.7665 136.079 24.7665H129.128C129.128 26.0963 130.392 27.426 132.141 27.426C133.309 27.426 133.987 27.0002 134.619 26.6203C134.815 26.4762 135.008 26.4303 135.204 26.6662L135.787 27.5701C135.983 27.7601 136.029 27.9501 135.74 28.235C135.012 28.854 133.698 29.4698 131.998 29.4698C128.935 29.4698 126.992 27.1411 126.992 24.3407C126.992 21.5338 128.938 19.1593 131.998 19.1593ZM118.391 28.4675C118.244 28.3726 118.098 28.1826 118.194 27.9435L118.634 27.0428C118.73 26.8528 119.023 26.7579 119.265 26.902C119.851 27.2328 120.576 27.6127 121.743 27.6127C122.568 27.6127 123.057 27.2328 123.057 26.6629C123.057 25.998 122.279 25.5722 120.919 24.9532C119.362 24.2883 118.198 23.4826 118.198 21.8646C118.198 20.6299 119.073 19.2051 121.504 19.2051C122.914 19.2051 123.935 19.6342 124.421 19.9191C124.664 20.1091 124.764 20.3941 124.617 20.6299L124.278 21.2947C124.132 21.5797 123.839 21.5797 123.646 21.4847C122.968 21.1998 122.286 21.0098 121.507 21.0098C120.633 21.0098 120.243 21.4356 120.243 21.8646C120.243 22.4804 120.972 22.8603 121.943 23.2894C123.789 24.0492 125.199 24.7141 125.199 26.5188C125.199 28.0385 123.839 29.3682 121.6 29.3682C120.09 29.4632 118.973 28.8475 118.391 28.4675ZM111.343 27.7077C112.364 27.7077 113.385 26.997 113.678 26.522V24.9073C113.531 24.8124 112.753 24.5733 111.832 24.5733C110.664 24.5733 109.739 25.1923 109.739 26.188C109.786 27.0428 110.321 27.7077 111.343 27.7077ZM111.682 23.0044C112.703 23.0044 113.721 23.2894 113.721 23.2894C113.771 21.7238 113.382 21.0589 112.118 21.0589C110.95 21.0589 109.832 21.3897 109.3 21.5338C109.008 21.5797 108.815 21.393 108.718 21.1048L108.522 20.2958C108.475 19.9617 108.618 19.8209 108.861 19.7259C109.054 19.68 110.464 19.156 112.31 19.156C115.517 19.156 115.81 21.0557 115.81 23.4761V28.7001C115.793 28.9556 115.583 29.1586 115.324 29.175H114.596C114.399 29.175 114.303 29.08 114.206 28.8442L113.964 28.1793C113.139 28.985 112.018 29.4305 110.854 29.4141C108.958 29.4141 107.597 28.1793 107.597 26.1388C107.647 24.3833 109.107 23.0044 111.682 23.0044ZM102.252 19.1593C103.809 19.1593 104.973 19.7292 105.898 20.869C106.094 21.1081 106.041 21.393 105.801 21.583L105.023 22.297C104.73 22.5328 104.537 22.3428 104.391 22.202C103.955 21.7271 103.127 21.203 102.302 21.203C100.602 21.203 99.2387 22.5819 99.2387 24.2916C99.2387 26.0504 100.553 27.426 102.206 27.426C103.516 27.426 104.052 26.7153 104.587 26.1912C104.78 26.0013 105.026 26.0013 105.266 26.1421L105.948 26.6662C106.19 26.8561 106.287 27.0952 106.14 27.3769C105.316 28.6117 103.955 29.4174 102.206 29.4174C99.385 29.4174 97.0534 27.2328 97.0534 24.2883C97.0999 21.4356 99.4815 19.1593 102.252 19.1593ZM92.4367 14.7868C92.4367 14.551 92.6296 14.3119 92.9223 14.3119H94.1363C94.3958 14.3283 94.602 14.5314 94.622 14.7868V28.7525C94.6053 29.008 94.3958 29.2078 94.1363 29.2274H92.9223C92.6529 29.2274 92.4367 29.0145 92.4367 28.7525V14.7868ZM87.0882 14.7868C87.0882 14.551 87.2845 14.3119 87.5738 14.3119H88.7879C89.0473 14.3283 89.2535 14.5314 89.2735 14.7868V28.7525C89.2569 29.008 89.0473 29.2078 88.7879 29.2274H87.5738C87.3044 29.2274 87.0882 29.0145 87.0882 28.7525V14.7868ZM79.6043 27.7077C80.6255 27.7077 81.6433 26.997 81.936 26.522V24.9073C81.7896 24.8124 81.0113 24.5733 80.09 24.5733C78.9225 24.5733 78.0011 25.1923 78.0011 26.188C78.0011 27.0428 78.5333 27.7077 79.6043 27.7077ZM79.897 23.0044C80.9182 23.0044 81.936 23.2894 81.936 23.2894C81.9859 21.7238 81.5967 21.0589 80.3328 21.0589C79.1686 21.0589 78.051 21.3897 77.5155 21.5338C77.2228 21.5797 77.0299 21.393 76.9301 21.1048L76.7339 20.2958C76.6873 19.9617 76.8303 19.8209 77.0731 19.7259C77.2661 19.68 78.6763 19.156 80.5224 19.156C83.7288 19.156 84.0714 21.0557 84.0714 23.4761V28.7001C84.0548 28.9556 83.8452 29.1586 83.5858 29.175H82.8573C82.6644 29.175 82.568 29.08 82.4216 28.8442L82.1788 28.1793C81.3539 28.985 80.233 29.4272 79.0688 29.4141C77.1729 29.4141 75.8125 28.1793 75.8125 26.1388C75.8624 24.3833 77.3193 23.0044 79.897 23.0044ZM58.5098 19.87C58.5098 19.6342 58.7027 19.3951 58.9954 19.3951H59.4811C59.7239 19.3951 59.8702 19.4901 59.9201 19.68L60.2128 20.5349C60.4057 20.2991 61.4768 19.1593 63.4192 19.1593C64.8761 19.1593 65.7509 19.7292 66.4793 20.7281C66.772 20.4432 67.9362 19.1593 69.882 19.1593C72.9454 19.1593 73.7237 21.2489 73.7237 23.8134V28.7525C73.7237 29.0145 73.5042 29.2274 73.2381 29.2274H72.024C71.7313 29.2274 71.5384 29.0374 71.5384 28.7525V23.7184C71.5384 22.1496 70.9064 21.1998 69.546 21.1998C68.0393 21.1998 67.3108 22.1987 67.1146 22.3396C67.1645 22.5295 67.2111 23.1485 67.2111 23.6693V28.7525C67.2111 28.9883 67.0182 29.2274 66.7753 29.2274H65.5114C65.2187 29.2274 65.0258 29.0374 65.0258 28.7525V23.7184C65.0258 22.1037 64.4404 21.1998 63.0334 21.1998C61.5267 21.1998 60.7483 22.2937 60.6519 22.6278V28.7525C60.6352 29.008 60.4257 29.211 60.1663 29.2274H58.9522C58.6828 29.2274 58.4666 29.0145 58.4666 28.7525V19.87H58.5098ZM49.323 28.4675C49.1766 28.3726 49.0303 28.1826 49.1301 27.9435L49.5658 27.0428C49.6622 26.8528 49.9549 26.7579 50.1977 26.902C50.7798 27.2328 51.5083 27.6127 52.6757 27.6127C53.504 27.6127 53.9862 27.2328 53.9862 26.6629C53.9862 25.998 53.2079 25.5722 51.8475 24.9532C50.2909 24.2883 49.1267 23.4826 49.1267 21.8646C49.1267 20.6299 50.0015 19.2051 52.4329 19.2051C53.8432 19.2051 54.8644 19.6342 55.35 19.9191C55.5928 20.1091 55.6892 20.3941 55.5462 20.6299L55.2069 21.2947C55.0606 21.5797 54.7712 21.5797 54.575 21.4847C53.8964 21.1998 53.2146 21.0098 52.4363 21.0098C51.5615 21.0098 51.1723 21.4356 51.1723 21.8646C51.1723 22.4804 51.9007 22.8603 52.8753 23.2894C54.7213 24.0492 56.1316 24.7141 56.1316 26.5188C56.1316 28.0385 54.7712 29.3682 52.536 29.3682C51.026 29.4632 49.9084 28.8475 49.323 28.4675ZM22.4908 12.3828L28.0788 15.0357C28.3548 15.1668 28.4713 15.491 28.3349 15.7628C28.2817 15.8709 28.1952 15.9561 28.0888 16.0118L22.6671 18.7237C22.5075 18.8023 22.3179 18.8023 22.1582 18.7237L16.5703 16.0707C16.2942 15.9397 16.1778 15.6122 16.3108 15.3436C16.364 15.2355 16.4505 15.1504 16.5569 15.098L21.9786 12.3861C22.1416 12.3042 22.3312 12.3042 22.4908 12.3828ZM22.5307 22.4607L35.7589 15.8415C36.0316 15.7039 36.1381 15.3764 35.9984 15.1078C35.9451 15.003 35.8553 14.9178 35.7489 14.8687L22.6338 8.64245C22.4742 8.56384 22.2846 8.56384 22.1249 8.64245L8.8968 15.2585C8.62405 15.396 8.51429 15.7235 8.65399 15.9921C8.71053 16.0969 8.79701 16.1821 8.90678 16.2345L22.0285 22.4607C22.1881 22.5361 22.3744 22.5361 22.5307 22.4607ZM33.6468 27.2295C33.547 29.4894 32.2897 31.5463 30.304 32.7024C28.4613 33.6261 26.9678 32.6795 26.9712 30.5801C27.0709 28.3234 28.3249 26.2633 30.314 25.1039C32.1533 24.1835 33.6468 25.1333 33.6468 27.2295ZM37.5517 32.9121V18.1931C37.5484 17.8885 37.2956 17.6428 36.9829 17.6461C36.8931 17.6461 36.8066 17.669 36.7268 17.7083L23.3822 24.4193C23.196 24.511 23.0796 24.6977 23.0796 24.9008V39.6198C23.0829 39.9244 23.3357 40.17 23.6483 40.1667C23.7381 40.1667 23.8246 40.1438 23.9044 40.1045L37.2557 33.3935C37.4386 33.3018 37.5517 33.1151 37.5517 32.9121ZM16.9128 34.2058L10.9058 31.3629C10.6297 31.2319 10.5133 30.9076 10.6464 30.6358C10.6597 30.6128 10.6696 30.5899 10.6863 30.5703L13.6931 26.2174C13.8694 25.9653 14.222 25.8997 14.4814 26.0701C14.5712 26.129 14.6444 26.2142 14.6843 26.3157L17.6912 33.5082C17.8142 33.7833 17.6878 34.1043 17.4051 34.2254C17.2455 34.2942 17.0625 34.2844 16.9128 34.2058Z" fill="#F6F7EB"/>
</g>
</svg>
