<svg width="144" height="48" viewBox="0 0 144 48" fill="none" xmlns="http://www.w3.org/2000/svg">
<mask id="mask0" mask-type="alpha" maskUnits="userSpaceOnUse" x="8" y="8" width="129" height="33">
<path fill-rule="evenodd" clip-rule="evenodd" d="M8 8H136.569V40.7525H8V8Z" fill="white"/>
</mask>
<g mask="url(#mask0)">
<path fill-rule="evenodd" clip-rule="evenodd" d="M134.43 23.1944C134.38 22.0088 133.408 20.9607 131.952 20.9607C130.348 20.9607 129.424 21.9596 129.277 23.1911L134.43 23.1944ZM131.998 19.1593C134.622 19.1593 136.568 21.0589 136.568 23.6726C136.568 23.8625 136.568 24.1933 136.518 24.3375C136.518 24.5733 136.276 24.7665 136.079 24.7665H129.128C129.128 26.0963 130.392 27.426 132.141 27.426C133.309 27.426 133.987 27.0002 134.619 26.6203C134.815 26.4762 135.008 26.4303 135.205 26.6662L135.787 27.5701C135.983 27.7601 136.029 27.9501 135.74 28.235C135.012 28.854 133.698 29.4698 131.998 29.4698C128.935 29.4698 126.992 27.1411 126.992 24.3407C126.992 21.5338 128.938 19.1593 131.998 19.1593ZM118.391 28.4675C118.244 28.3726 118.098 28.1826 118.195 27.9435L118.634 27.0428C118.73 26.8528 119.023 26.7579 119.266 26.902C119.851 27.2328 120.576 27.6127 121.744 27.6127C122.568 27.6127 123.057 27.2328 123.057 26.6629C123.057 25.998 122.279 25.5722 120.919 24.9532C119.362 24.2883 118.198 23.4826 118.198 21.8646C118.198 20.6299 119.073 19.2051 121.504 19.2051C122.914 19.2051 123.936 19.6342 124.421 19.9191C124.664 20.1091 124.764 20.3941 124.617 20.6299L124.278 21.2947C124.132 21.5797 123.839 21.5797 123.646 21.4847C122.968 21.1998 122.286 21.0098 121.507 21.0098C120.633 21.0098 120.244 21.4356 120.244 21.8646C120.244 22.4804 120.972 22.8603 121.943 23.2894C123.789 24.0492 125.199 24.7141 125.199 26.5188C125.199 28.0385 123.839 29.3682 121.601 29.3682C120.091 29.4632 118.973 28.8475 118.391 28.4675ZM111.343 27.7077C112.364 27.7077 113.385 26.997 113.678 26.522V24.9073C113.531 24.8124 112.753 24.5733 111.832 24.5733C110.664 24.5733 109.739 25.1923 109.739 26.188C109.786 27.0428 110.322 27.7077 111.343 27.7077ZM111.682 23.0044C112.703 23.0044 113.721 23.2894 113.721 23.2894C113.771 21.7238 113.382 21.0589 112.118 21.0589C110.95 21.0589 109.833 21.3897 109.3 21.5338C109.008 21.5797 108.815 21.393 108.718 21.1048L108.522 20.2958C108.476 19.9617 108.619 19.8209 108.861 19.7259C109.054 19.68 110.465 19.156 112.311 19.156C115.517 19.156 115.81 21.0557 115.81 23.4761V28.7001C115.793 28.9556 115.584 29.1586 115.324 29.175H114.596C114.399 29.175 114.303 29.08 114.207 28.8442L113.964 28.1793C113.139 28.985 112.018 29.4305 110.854 29.4141C108.958 29.4141 107.597 28.1793 107.597 26.1388C107.647 24.3833 109.108 23.0044 111.682 23.0044ZM102.252 19.1593C103.809 19.1593 104.973 19.7292 105.898 20.869C106.094 21.1081 106.041 21.393 105.801 21.583L105.023 22.297C104.73 22.5328 104.537 22.3428 104.391 22.202C103.955 21.7271 103.127 21.203 102.302 21.203C100.603 21.203 99.2388 22.5819 99.2388 24.2916C99.2388 26.0504 100.553 27.426 102.206 27.426C103.516 27.426 104.052 26.7153 104.587 26.1912C104.78 26.0013 105.026 26.0013 105.266 26.1421L105.948 26.6662C106.19 26.8561 106.287 27.0952 106.141 27.3769C105.316 28.6117 103.955 29.4174 102.206 29.4174C99.3851 29.4174 97.0535 27.2328 97.0535 24.2883C97.1001 21.4356 99.4816 19.1593 102.252 19.1593ZM92.4368 14.7868C92.4368 14.551 92.6297 14.3119 92.9224 14.3119H94.1365C94.3959 14.3283 94.6021 14.5314 94.6221 14.7868V28.7525C94.6054 29.008 94.3959 29.2078 94.1365 29.2274H92.9224C92.653 29.2274 92.4368 29.0145 92.4368 28.7525V14.7868ZM87.0883 14.7868C87.0883 14.551 87.2846 14.3119 87.574 14.3119H88.788C89.0474 14.3283 89.2537 14.5314 89.2736 14.7868V28.7525C89.257 29.008 89.0474 29.2078 88.788 29.2274H87.574C87.3045 29.2274 87.0883 29.0145 87.0883 28.7525V14.7868ZM79.6045 27.7077C80.6256 27.7077 81.6434 26.997 81.9361 26.522V24.9073C81.7898 24.8124 81.0114 24.5733 80.0901 24.5733C78.9226 24.5733 78.0013 25.1923 78.0013 26.188C78.0013 27.0428 78.5334 27.7077 79.6045 27.7077ZM79.8972 23.0044C80.9183 23.0044 81.9361 23.2894 81.9361 23.2894C81.986 21.7238 81.5968 21.0589 80.3329 21.0589C79.1687 21.0589 78.0511 21.3897 77.5156 21.5338C77.2229 21.5797 77.03 21.393 76.9302 21.1048L76.734 20.2958C76.6874 19.9617 76.8304 19.8209 77.0733 19.7259C77.2662 19.68 78.6765 19.156 80.5225 19.156C83.7289 19.156 84.0715 21.0557 84.0715 23.4761V28.7001C84.0549 28.9556 83.8453 29.1586 83.5859 29.175H82.8575C82.6645 29.175 82.5681 29.08 82.4217 28.8442L82.1789 28.1793C81.354 28.985 80.2331 29.4272 79.069 29.4141C77.173 29.4141 75.8126 28.1793 75.8126 26.1388C75.8625 24.3833 77.3194 23.0044 79.8972 23.0044ZM58.5099 19.87C58.5099 19.6342 58.7029 19.3951 58.9956 19.3951H59.4812C59.724 19.3951 59.8703 19.4901 59.9202 19.68L60.2129 20.5349C60.4059 20.2991 61.4769 19.1593 63.4194 19.1593C64.8762 19.1593 65.751 19.7292 66.4794 20.7281C66.7721 20.4432 67.9363 19.1593 69.8821 19.1593C72.9455 19.1593 73.7238 21.2489 73.7238 23.8134V28.7525C73.7238 29.0145 73.5043 29.2274 73.2382 29.2274H72.0241C71.7314 29.2274 71.5385 29.0374 71.5385 28.7525V23.7184C71.5385 22.1496 70.9066 21.1998 69.5462 21.1998C68.0394 21.1998 67.311 22.1987 67.1147 22.3396C67.1646 22.5295 67.2112 23.1485 67.2112 23.6693V28.7525C67.2112 28.9883 67.0183 29.2274 66.7755 29.2274H65.5115C65.2188 29.2274 65.0259 29.0374 65.0259 28.7525V23.7184C65.0259 22.1037 64.4405 21.1998 63.0335 21.1998C61.5268 21.1998 60.7485 22.2937 60.652 22.6278V28.7525C60.6354 29.008 60.4258 29.211 60.1664 29.2274H58.9523C58.6829 29.2274 58.4667 29.0145 58.4667 28.7525V19.87H58.5099ZM49.3231 28.4675C49.1767 28.3726 49.0304 28.1826 49.1302 27.9435L49.5659 27.0428C49.6624 26.8528 49.9551 26.7579 50.1979 26.902C50.7799 27.2328 51.5084 27.6127 52.6759 27.6127C53.5041 27.6127 53.9864 27.2328 53.9864 26.6629C53.9864 25.998 53.208 25.5722 51.8476 24.9532C50.291 24.2883 49.1268 23.4826 49.1268 21.8646C49.1268 20.6299 50.0016 19.2051 52.433 19.2051C53.8433 19.2051 54.8645 19.6342 55.3501 19.9191C55.5929 20.1091 55.6894 20.3941 55.5463 20.6299L55.2071 21.2947C55.0607 21.5797 54.7713 21.5797 54.5751 21.4847C53.8966 21.1998 53.2147 21.0098 52.4364 21.0098C51.5616 21.0098 51.1724 21.4356 51.1724 21.8646C51.1724 22.4804 51.9009 22.8603 52.8754 23.2894C54.7215 24.0492 56.1317 24.7141 56.1317 26.5188C56.1317 28.0385 54.7713 29.3682 52.5362 29.3682C51.0261 29.4632 49.9085 28.8475 49.3231 28.4675ZM22.4909 12.3828L28.0789 15.0357C28.355 15.1668 28.4714 15.491 28.335 15.7628C28.2818 15.8709 28.1953 15.9561 28.0889 16.0118L22.6672 18.7237C22.5076 18.8023 22.318 18.8023 22.1583 18.7237L16.5704 16.0707C16.2943 15.9397 16.1779 15.6122 16.3109 15.3436C16.3642 15.2355 16.4506 15.1504 16.5571 15.098L21.9787 12.3861C22.1417 12.3042 22.3313 12.3042 22.4909 12.3828ZM22.5309 22.4607L35.759 15.8415C36.0317 15.7039 36.1382 15.3764 35.9985 15.1078C35.9453 15.003 35.8555 14.9178 35.749 14.8687L22.634 8.64245C22.4743 8.56384 22.2847 8.56384 22.1251 8.64245L8.89692 15.2585C8.62417 15.396 8.51441 15.7235 8.65411 15.9921C8.71065 16.0969 8.79713 16.1821 8.9069 16.2345L22.0286 22.4607C22.1883 22.5361 22.3745 22.5361 22.5309 22.4607ZM33.6469 27.2295C33.5471 29.4894 32.2898 31.5463 30.3041 32.7024C28.4614 33.6261 26.968 32.6795 26.9713 30.5801C27.0711 28.3234 28.325 26.2633 30.3141 25.1039C32.1534 24.1835 33.6469 25.1333 33.6469 27.2295ZM37.5518 32.9121V18.1931C37.5485 17.8885 37.2957 17.6428 36.983 17.6461C36.8932 17.6461 36.8067 17.669 36.7269 17.7083L23.3824 24.4193C23.1961 24.511 23.0797 24.6977 23.0797 24.9008V39.6198C23.083 39.9244 23.3358 40.17 23.6484 40.1667C23.7383 40.1667 23.8247 40.1438 23.9046 40.1045L37.2558 33.3935C37.4387 33.3018 37.5518 33.1151 37.5518 32.9121ZM16.913 34.2058L10.9059 31.3629C10.6298 31.2319 10.5134 30.9076 10.6465 30.6358C10.6598 30.6128 10.6698 30.5899 10.6864 30.5703L13.6932 26.2174C13.8695 25.9653 14.2221 25.8997 14.4815 26.0701C14.5714 26.129 14.6445 26.2142 14.6844 26.3157L17.6913 33.5082C17.8144 33.7833 17.688 34.1043 17.4052 34.2254C17.2456 34.2942 17.0626 34.2844 16.913 34.2058Z" fill="#F6F7EB"/>
</g>
</svg>
