<?xml version="1.0" encoding="utf-8"?>
<!-- Generator: Adobe Illustrator 24.0.2, SVG Export Plug-In . SVG Version: 6.00 Build 0)  -->
<svg version="1.1" id="Layer_1" xmlns="http://www.w3.org/2000/svg" xmlns:xlink="http://www.w3.org/1999/xlink" x="0px" y="0px"
	 viewBox="0 0 386 98" style="enable-background:new 0 0 386 98;" xml:space="preserve">
<style type="text/css">
	.st0{filter:url(#Adobe_OpacityMaskFilter);}
	.st1{fill-rule:evenodd;clip-rule:evenodd;fill:#FFFFFF;}
	.st2{mask:url(#mask-2_1_);fill-rule:evenodd;clip-rule:evenodd;fill:#FFFFFF;}
</style>
<title>smallcase_logo__standard_blue</title>
<desc>Created with Sketch.</desc>
<g id="Page-1">
	<g id="_standard_blue" transform="translate(-1.000000, -1.000000)">
		<g id="Group-3-Copy-6">
			<g id="Clip-2">
			</g>
			<defs>
				<filter id="Adobe_OpacityMaskFilter" filterUnits="userSpaceOnUse" x="1.79" y="1.79" width="384.75" height="96.43">
					<feColorMatrix  type="matrix" values="1 0 0 0 0  0 1 0 0 0  0 0 1 0 0  0 0 0 1 0"/>
				</filter>
			</defs>
			<mask maskUnits="userSpaceOnUse" x="1.79" y="1.79" width="384.75" height="96.43" id="mask-2_1_">
				<g class="st0">
					<polygon id="path-1_1_" class="st1" points="0,0 386.54,0 386.54,100 0,100 					"/>
				</g>
			</mask>
			<path id="Fill-1" class="st2" d="M380.11,46.39c-0.15-3.62-3.07-6.82-7.45-6.82c-4.82,0-7.6,3.05-8.04,6.81L380.11,46.39
				L380.11,46.39z M372.8,34.07c7.89,0,13.74,5.8,13.74,13.78c0,0.58,0,1.59-0.15,2.03c0,0.72-0.73,1.31-1.32,1.31h-20.9
				c0,4.06,3.8,8.12,9.06,8.12c3.51,0,5.55-1.3,7.45-2.46c0.59-0.44,1.17-0.58,1.76,0.14l1.75,2.76c0.59,0.58,0.73,1.16-0.14,2.03
				c-2.19,1.89-6.14,3.77-11.25,3.77c-9.21,0-15.05-7.11-15.05-15.66C357.75,41.32,363.6,34.07,372.8,34.07z M331.89,62.49
				c-0.44-0.29-0.88-0.87-0.59-1.6l1.32-2.75c0.29-0.58,1.17-0.87,1.9-0.43c1.76,1.01,3.94,2.17,7.45,2.17
				c2.48,0,3.95-1.16,3.95-2.9c0-2.03-2.34-3.33-6.43-5.22c-4.68-2.03-8.18-4.49-8.18-9.43c0-3.77,2.63-8.12,9.94-8.12
				c4.24,0,7.31,1.31,8.77,2.18c0.73,0.58,1.03,1.45,0.59,2.17l-1.02,2.03c-0.44,0.87-1.32,0.87-1.9,0.58
				c-2.04-0.87-4.09-1.45-6.43-1.45c-2.63,0-3.8,1.3-3.8,2.61c0,1.88,2.19,3.04,5.11,4.35c5.55,2.32,9.79,4.35,9.79,9.86
				c0,4.64-4.09,8.7-10.82,8.7C337,65.53,333.64,63.65,331.89,62.49L331.89,62.49z M310.7,60.17c3.07,0,6.14-2.17,7.02-3.62v-4.93
				c-0.44-0.29-2.78-1.02-5.55-1.02c-3.51,0-6.29,1.89-6.29,4.93C306.02,58.14,307.63,60.17,310.7,60.17z M311.72,45.81
				c3.07,0,6.13,0.87,6.13,0.87c0.15-4.78-1.02-6.81-4.82-6.81c-3.51,0-6.87,1.01-8.47,1.45c-0.88,0.14-1.46-0.43-1.75-1.31
				l-0.59-2.47c-0.14-1.02,0.29-1.45,1.02-1.74c0.58-0.14,4.82-1.74,10.37-1.74c9.64,0,10.52,5.8,10.52,13.19v15.95
				c-0.05,0.78-0.68,1.4-1.46,1.45h-2.19c-0.59,0-0.88-0.29-1.17-1.01l-0.73-2.03c-2.48,2.46-5.85,3.82-9.35,3.77
				c-5.7,0-9.79-3.77-9.79-10C299.59,50.02,303.98,45.81,311.72,45.81L311.72,45.81z M283.37,34.07c4.68,0,8.18,1.74,10.96,5.22
				c0.59,0.73,0.43,1.6-0.29,2.18l-2.34,2.18c-0.88,0.72-1.46,0.14-1.9-0.29c-1.31-1.45-3.8-3.05-6.28-3.05
				c-5.11,0-9.21,4.21-9.21,9.43c0,5.37,3.95,9.57,8.92,9.57c3.94,0,5.55-2.17,7.16-3.77c0.58-0.58,1.32-0.58,2.04-0.15l2.05,1.6
				c0.73,0.58,1.02,1.31,0.58,2.17c-2.48,3.77-6.57,6.23-11.83,6.23c-8.48,0-15.49-6.67-15.49-15.66
				C267.88,41.02,275.04,34.07,283.37,34.07L283.37,34.07z M253.86,20.72c0-0.72,0.58-1.45,1.46-1.45h3.65
				c0.78,0.05,1.4,0.67,1.46,1.45v42.64c-0.05,0.78-0.68,1.39-1.46,1.45h-3.65c-0.81,0-1.46-0.65-1.46-1.45V20.72z M237.78,20.72
				c0-0.72,0.59-1.45,1.46-1.45h3.65c0.78,0.05,1.4,0.67,1.46,1.45v42.64c-0.05,0.78-0.68,1.39-1.46,1.45h-3.65
				c-0.81,0-1.46-0.65-1.46-1.45V20.72z M215.28,60.17c3.07,0,6.13-2.17,7.01-3.62v-4.93c-0.44-0.29-2.78-1.02-5.55-1.02
				c-3.51,0-6.28,1.89-6.28,4.93C210.46,58.14,212.06,60.17,215.28,60.17z M216.16,45.81c3.07,0,6.13,0.87,6.13,0.87
				c0.15-4.78-1.02-6.81-4.82-6.81c-3.5,0-6.86,1.01-8.47,1.45c-0.88,0.14-1.46-0.43-1.76-1.31l-0.59-2.47
				c-0.14-1.02,0.29-1.45,1.02-1.74c0.58-0.14,4.82-1.74,10.37-1.74c9.64,0,10.67,5.8,10.67,13.19v15.95
				c-0.05,0.78-0.68,1.4-1.46,1.45h-2.19c-0.58,0-0.87-0.29-1.31-1.01l-0.73-2.03c-2.48,2.46-5.85,3.81-9.35,3.77
				c-5.7,0-9.79-3.77-9.79-10C204.03,50.02,208.41,45.81,216.16,45.81L216.16,45.81z M151.86,36.24c0-0.72,0.58-1.45,1.46-1.45h1.46
				c0.73,0,1.17,0.29,1.32,0.87l0.88,2.61c0.58-0.72,3.8-4.2,9.64-4.2c4.38,0,7.01,1.74,9.2,4.79c0.88-0.87,4.38-4.79,10.23-4.79
				c9.21,0,11.55,6.38,11.55,14.21v15.08c0,0.8-0.66,1.45-1.46,1.45h-3.65c-0.88,0-1.46-0.58-1.46-1.45V47.99
				c0-4.79-1.9-7.69-5.99-7.69c-4.53,0-6.72,3.05-7.31,3.48c0.15,0.58,0.29,2.47,0.29,4.06v15.52c0,0.72-0.58,1.45-1.31,1.45h-3.8
				c-0.88,0-1.46-0.58-1.46-1.45V47.99c0-4.93-1.76-7.69-5.99-7.69c-4.53,0-6.87,3.34-7.16,4.36v18.7c-0.05,0.78-0.68,1.4-1.46,1.45
				h-3.65c-0.81,0-1.46-0.65-1.46-1.45V36.24H151.86z M124.24,62.49c-0.44-0.29-0.88-0.87-0.58-1.6l1.31-2.75
				c0.29-0.58,1.17-0.87,1.9-0.43c1.75,1.01,3.94,2.17,7.45,2.17c2.49,0,3.94-1.16,3.94-2.9c0-2.03-2.34-3.33-6.43-5.22
				c-4.68-2.03-8.18-4.49-8.18-9.43c0-3.77,2.63-8.12,9.94-8.12c4.24,0,7.31,1.31,8.77,2.18c0.73,0.58,1.02,1.45,0.59,2.17
				l-1.02,2.03c-0.44,0.87-1.31,0.87-1.9,0.58c-2.04-0.87-4.09-1.45-6.43-1.45c-2.63,0-3.8,1.3-3.8,2.61c0,1.88,2.19,3.04,5.12,4.35
				c5.55,2.32,9.79,4.35,9.79,9.86c0,4.64-4.09,8.7-10.81,8.7C129.36,65.53,126,63.65,124.24,62.49z M43.57,13.38l16.8,8.1
				c0.83,0.4,1.18,1.39,0.77,2.22c-0.16,0.33-0.42,0.59-0.74,0.76l-16.3,8.28c-0.48,0.24-1.05,0.24-1.53,0l-16.8-8.1
				c-0.83-0.4-1.18-1.4-0.78-2.22c0.16-0.33,0.42-0.59,0.74-0.75l16.3-8.28C42.52,13.14,43.09,13.14,43.57,13.38z M43.69,44.15
				l39.77-20.21c0.82-0.42,1.14-1.42,0.72-2.24c-0.16-0.32-0.43-0.58-0.75-0.73L44,1.96c-0.48-0.24-1.05-0.24-1.53,0L2.7,22.16
				c-0.82,0.42-1.15,1.42-0.73,2.24c0.17,0.32,0.43,0.58,0.76,0.74l39.45,19.01C42.66,44.38,43.22,44.38,43.69,44.15L43.69,44.15z
				 M77.11,58.71c-0.3,6.9-4.08,13.18-10.05,16.71c-5.54,2.82-10.03-0.07-10.02-6.48c0.3-6.89,4.07-13.18,10.05-16.72
				C72.62,49.41,77.11,52.31,77.11,58.71L77.11,58.71z M88.85,76.06V31.12c-0.01-0.93-0.77-1.68-1.71-1.67
				c-0.27,0-0.53,0.07-0.77,0.19L46.25,50.13c-0.56,0.28-0.91,0.85-0.91,1.47v44.94c0.01,0.93,0.77,1.68,1.71,1.67
				c0.27,0,0.53-0.07,0.77-0.19l40.14-20.49C88.51,77.25,88.85,76.68,88.85,76.06z M26.8,80.01L8.74,71.33
				c-0.83-0.4-1.18-1.39-0.78-2.22c0.04-0.07,0.07-0.14,0.12-0.2l9.04-13.29c0.53-0.77,1.59-0.97,2.37-0.45
				c0.27,0.18,0.49,0.44,0.61,0.75l9.04,21.96c0.37,0.84-0.01,1.82-0.86,2.19C27.8,80.28,27.25,80.25,26.8,80.01L26.8,80.01z"/>
		</g>
	</g>
</g>
</svg>
