<svg width="144" height="48" viewBox="0 0 144 48" fill="none" xmlns="http://www.w3.org/2000/svg">
<path d="M93.1819 23.1801C93.1838 23.1789 93.1873 23.1789 93.1873 23.178L92.6046 21.7801C92.2801 21.8439 91.9376 21.8791 91.5769 21.8791H90.3235H90.1347H88.5833V27.5445H90.1347V23.3966H91.5769L93.3166 27.5445H95.001L93.1819 23.1801ZM61.17 26.0808V22.0022V21.8238V20.3878H55.4995L55.3131 21.8238H59.6989V26.0808H61.17ZM110.727 12.5257L110.941 11.006H98.7987L99.0141 12.5257H110.727ZM105.353 15.3551V27.5445H106.905V15.0188H110.38L110.596 13.5016H105.353V15.0188V15.3551ZM104.39 27.5445V15.3551V15.0188V13.5016H99.1471L99.3609 15.0188H102.838V27.5445H104.39ZM67.9379 18.0013H63.5778V13.9621H62.1074V18.0013V19.4388H67.7476L67.9379 18.0013ZM69.7725 27.4192H69.7698L75.6177 11.3788L75.7599 11L74.3261 11.006L68.0963 27.5445H69.7271L69.7725 27.4192ZM61.17 19.4388V18.0013V13.9621H59.6989V18.0013H55.794L55.6059 19.4388H61.17ZM51.6856 15.0188H55.1623L55.3768 13.5016H50.132V15.0188V15.7853V27.5445H51.6856V15.0188ZM44.4477 22.7179C44.4477 19.8606 42.6296 18.6334 40.4622 17.7254C38.6969 16.9784 37.9744 16.5779 37.9744 15.9113C37.9744 15.5109 38.2681 15.0188 39.1771 15.0188C39.1877 15.0188 41.6718 15.0203 41.6718 15.0203V15.0188H47.6188V27.5445H49.1697V15.7853V15.0188V13.5016H39.1481V13.5022C37.674 13.5366 36.4247 14.2669 36.4247 15.8305C36.4247 17.6995 37.8686 18.2319 39.34 18.8739C41.2381 19.7013 42.8965 20.5552 42.8965 22.7179C42.8965 25.0667 40.8911 26.2943 38.2166 26.2943C36.6385 26.2943 34.8734 25.7079 33.8573 24.773L33 25.9736C34.1238 27.1219 36.1838 27.8159 38.2166 27.8159C41.7738 27.8159 44.4477 25.9204 44.4477 22.7179ZM37.5193 20.7957C39.3659 21.5703 40.2492 21.9432 40.2492 22.6645C40.2492 23.438 39.6069 23.8391 38.5103 23.8391C37.4134 23.8391 36.0207 23.3042 35.3269 22.7179L34.4461 23.9456C35.3269 24.6928 36.9855 25.3076 38.2166 25.3076C40.1417 25.3076 41.8003 24.746 41.8003 22.7447C41.8003 20.875 40.1417 20.2882 38.6707 19.6474C36.7458 18.8206 35.3269 17.9924 35.3269 15.8305C35.3269 13.6951 36.9322 12.5257 39.1524 12.5257C39.3455 12.5257 39.5364 12.5251 39.7358 12.5257H39.8703H43.5006H55.5099L55.723 11.006H39.0692H39.0473H39.0249H38.9323L38.9335 11.0093C35.9933 11.0561 33.7766 12.9058 33.7766 15.8305C33.7766 18.686 35.4084 19.9136 37.5193 20.7957ZM63.5778 21.8238H67.4264L67.6144 20.3878H62.1074V21.8238V22.0022V26.0808H63.5778V21.8238ZM87.621 11.006H86.0699V27.5445H87.621V11.006ZM90.3235 20.9022H91.1258C93.4775 20.9022 95.1097 19.5202 95.1097 17.2152C95.1097 14.9109 93.4775 13.5016 91.1258 13.5016H91.0987V15.0188H91.1258C92.5689 15.0188 93.5588 15.8599 93.5588 17.2152C93.5588 18.5712 92.5689 19.3847 91.1258 19.3847H90.1347V15.2186V11.006H88.5833V20.9022H90.1347H90.3235ZM96.2053 17.2152C96.2053 19.1807 95.1792 20.7905 93.5314 21.4949L94.2706 23.2721L94.2671 23.2742L96.0449 27.5445H97.7301L95.4582 22.0674C96.8474 21.0923 97.756 19.3023 97.756 17.2152C97.756 13.7181 95.2689 11.006 91.6049 11.006H91.0987V12.5257H91.6049C94.3331 12.5257 96.2053 14.5859 96.2053 17.2152ZM84.3559 27.5445L78.1244 11.006H76.4926L82.7255 27.5445H84.3559ZM75.4223 14.9109L72.2696 23.4237H73.9266H78.5252H80.1564L79.5844 21.904H77.965V21.9055H74.4886L76.2003 17.0523L77.6082 20.9281H79.2161L76.1733 12.8507L75.4168 14.8908L75.4223 14.9109ZM72.4276 27.5445H70.7434L71.9074 24.3994H73.5789H78.8736H80.5247L81.7089 27.5445H80.0242L79.4358 25.9181H73.0184L72.4276 27.5445Z" fill="#F6F7EB"/>
<path d="M33.6755 30.0879H35.2563V35.8896H33.6755V30.0879Z" fill="#F6F7EB"/>
<path d="M36.3779 30.0879H37.6642L39.8556 33.1489V30.0879H41.3054V35.8896H40.0191L37.8279 32.8285V35.8896H36.3779V30.0879Z" fill="#F6F7EB"/>
<path d="M44.0231 34.3316H44.4155C45.1896 34.3316 45.713 33.7679 45.713 32.9722C45.713 32.2099 45.1896 31.6462 44.4155 31.6462H44.0231V34.3316ZM42.4424 30.0882H44.5136C46.1381 30.0882 47.3481 31.2926 47.3481 32.9722C47.3481 34.6962 46.1381 35.8896 44.5136 35.8896H42.4424V30.0882Z" fill="#F6F7EB"/>
<path d="M48.1021 30.0879H49.6828V35.8896H48.1021V30.0879Z" fill="#F6F7EB"/>
<path d="M52.3702 33.9888H53.7002L53.0133 32.0659L52.3702 33.9888ZM52.3156 30.0879H53.8093L56.0005 35.8896H54.3652L54.1582 35.2928H51.9341L51.7379 35.8896H50.1353L52.3156 30.0879Z" fill="#F6F7EB"/>
<path d="M58.8562 30.0879H62.105L61.9088 31.646H60.437V32.6074H61.8978V34.1657H60.437V35.8896H58.8562V30.0879Z" fill="#F6F7EB"/>
<path d="M66.8066 32.9722C66.8066 32.1874 66.2286 31.5687 65.4439 31.5687C64.6479 31.5687 64.0701 32.1874 64.0701 32.9722C64.0701 33.7788 64.6479 34.4088 65.4439 34.4088C66.2286 34.4088 66.8066 33.7788 66.8066 32.9722ZM62.4348 32.9722C62.4348 31.215 63.6778 29.9773 65.4439 29.9773C67.1989 29.9773 68.4417 31.215 68.4417 32.9722C68.4417 34.8175 66.9919 36 65.4439 36C63.8848 36 62.4348 34.8175 62.4348 32.9722Z" fill="#F6F7EB"/>
<path d="M69.1099 33.6904V30.0879H70.6906V33.6131C70.6906 34.1215 71.0286 34.4198 71.4864 34.4198C71.9552 34.4198 72.2932 34.1215 72.2932 33.6131V30.0879H73.874V35.8896H72.5221V35.3039C72.2168 35.6905 71.8134 36 71.0286 36C69.9821 36 69.1099 35.2377 69.1099 33.6904Z" fill="#F6F7EB"/>
<path d="M75.0107 30.0879H76.2972L78.4884 33.1489V30.0879H79.9384V35.8896H78.6519L76.4607 32.8285V35.8896H75.0107V30.0879Z" fill="#F6F7EB"/>
<path d="M82.6557 34.3316H83.0481C83.8222 34.3316 84.3454 33.7679 84.3454 32.9722C84.3454 32.2099 83.8222 31.6462 83.0481 31.6462H82.6557V34.3316ZM81.075 30.0882H83.1462C84.7707 30.0882 85.9807 31.2926 85.9807 32.9722C85.9807 34.6962 84.7707 35.8896 83.1462 35.8896H81.075V30.0882Z" fill="#F6F7EB"/>
<path d="M88.0735 33.9888H89.4035L88.7167 32.0659L88.0735 33.9888ZM88.019 30.0879H89.5127L91.7039 35.8896H90.0685L89.8615 35.2928H87.6374L87.4412 35.8896H85.8386L88.019 30.0879Z" fill="#F6F7EB"/>
<path d="M92.6193 31.6462H91.4093L91.2129 30.0882H95.6063L95.4101 31.6462H94.2001V35.8896H92.6193V31.6462Z" fill="#F6F7EB"/>
<path d="M96.0881 30.0879H97.6689V35.8896H96.0881V30.0879Z" fill="#F6F7EB"/>
<path d="M102.784 32.9722C102.784 32.1874 102.206 31.5687 101.421 31.5687C100.625 31.5687 100.047 32.1874 100.047 32.9722C100.047 33.7788 100.625 34.4088 101.421 34.4088C102.206 34.4088 102.784 33.7788 102.784 32.9722ZM98.4121 32.9722C98.4121 31.215 99.6549 29.9773 101.421 29.9773C103.176 29.9773 104.419 31.215 104.419 32.9722C104.419 34.8175 102.969 36 101.421 36C99.8621 36 98.4121 34.8175 98.4121 32.9722Z" fill="#F6F7EB"/>
<path d="M105.165 30.0879H106.451L108.642 33.1489V30.0879H110.092V35.8896H108.806L106.615 32.8285V35.8896H105.165V30.0879Z" fill="#F6F7EB"/>
</svg>
