<svg width="144" height="48" viewBox="0 0 144 48" fill="none" xmlns="http://www.w3.org/2000/svg">
<path d="M93.1819 23.1801C93.1837 23.1789 93.1872 23.1789 93.1872 23.178L92.6046 21.7801C92.28 21.8439 91.9375 21.8791 91.5768 21.8791H90.3234H90.1346H88.5833V27.5445H90.1346V23.3966H91.5768L93.3166 27.5445H95.0009L93.1819 23.1801ZM61.1699 26.0808V22.0022V21.8238V20.3878H55.4994L55.313 21.8238H59.6989V26.0808H61.1699ZM110.727 12.5257L110.941 11.006H98.7986L99.014 12.5257H110.727ZM105.353 15.3551V27.5445H106.905V15.0188H110.38L110.596 13.5016H105.353V15.0188V15.3551ZM104.39 27.5445V15.3551V15.0188V13.5016H99.1471L99.3608 15.0188H102.838V27.5445H104.39ZM67.9378 18.0013H63.5777V13.9621H62.1073V18.0013V19.4388H67.7476L67.9378 18.0013ZM69.7724 27.4192H69.7697L75.6176 11.3788L75.7598 11L74.326 11.006L68.0962 27.5445H69.727L69.7724 27.4192ZM61.1699 19.4388V18.0013V13.9621H59.6989V18.0013H55.7939L55.6059 19.4388H61.1699ZM51.6856 15.0188H55.1622L55.3768 13.5016H50.132V15.0188V15.7853V27.5445H51.6856V15.0188ZM44.4476 22.7179C44.4476 19.8606 42.6296 18.6334 40.4621 17.7254C38.6968 16.9784 37.9744 16.5779 37.9744 15.9113C37.9744 15.5109 38.268 15.0188 39.177 15.0188C39.1877 15.0188 41.6717 15.0203 41.6717 15.0203V15.0188H47.6187V27.5445H49.1696V15.7853V15.0188V13.5016H39.148V13.5022C37.674 13.5366 36.4247 14.2669 36.4247 15.8305C36.4247 17.6995 37.8685 18.2319 39.3399 18.8739C41.2381 19.7013 42.8965 20.5552 42.8965 22.7179C42.8965 25.0667 40.891 26.2943 38.2165 26.2943C36.6384 26.2943 34.8733 25.7079 33.8572 24.773L32.9999 25.9736C34.1237 27.1219 36.1837 27.8159 38.2165 27.8159C41.7737 27.8159 44.4476 25.9204 44.4476 22.7179ZM37.5192 20.7957C39.3659 21.5703 40.2491 21.9432 40.2491 22.6645C40.2491 23.438 39.6068 23.8391 38.5102 23.8391C37.4134 23.8391 36.0206 23.3042 35.3268 22.7179L34.446 23.9456C35.3268 24.6928 36.9854 25.3076 38.2165 25.3076C40.1416 25.3076 41.8003 24.746 41.8003 22.7447C41.8003 20.875 40.1416 20.2882 38.6706 19.6474C36.7457 18.8206 35.3268 17.9924 35.3268 15.8305C35.3268 13.6951 36.9321 12.5257 39.1523 12.5257C39.3454 12.5257 39.5363 12.5251 39.7358 12.5257H39.8703H43.5006H55.5098L55.723 11.006H39.0691H39.0473H39.0248H38.9322L38.9334 11.0093C35.9933 11.0561 33.7765 12.9058 33.7765 15.8305C33.7765 18.686 35.4084 19.9136 37.5192 20.7957ZM63.5777 21.8238H67.4263L67.6143 20.3878H62.1073V21.8238V22.0022V26.0808H63.5777V21.8238ZM87.6209 11.006H86.0698V27.5445H87.6209V11.006ZM90.3234 20.9022H91.1258C93.4774 20.9022 95.1097 19.5202 95.1097 17.2152C95.1097 14.9109 93.4774 13.5016 91.1258 13.5016H91.0986V15.0188H91.1258C92.5688 15.0188 93.5587 15.8599 93.5587 17.2152C93.5587 18.5712 92.5688 19.3847 91.1258 19.3847H90.1346V15.2186V11.006H88.5833V20.9022H90.1346H90.3234ZM96.2052 17.2152C96.2052 19.1807 95.1791 20.7905 93.5313 21.4949L94.2705 23.2721L94.2671 23.2742L96.0448 27.5445H97.73L95.4581 22.0674C96.8474 21.0924 97.756 19.3023 97.756 17.2152C97.756 13.7181 95.2689 11.006 91.6048 11.006H91.0986V12.5257H91.6048C94.3331 12.5257 96.2052 14.5859 96.2052 17.2152ZM84.3558 27.5445L78.1243 11.006H76.4925L82.7254 27.5445H84.3558ZM75.4222 14.9109L72.2695 23.4237H73.9265H78.5251H80.1563L79.5843 21.904H77.9649V21.9055H74.4885L76.2003 17.0523L77.6081 20.9281H79.2161L76.1733 12.8507L75.4167 14.8908L75.4222 14.9109ZM72.4275 27.5445H70.7433L71.9074 24.3994H73.5789H78.8735H80.5246L81.7089 27.5445H80.0241L79.4357 25.9181H73.0183L72.4275 27.5445Z" fill="#F6F7EB"/>
<path d="M33.6755 30.0879H35.2563V35.8896H33.6755V30.0879Z" fill="#F6F7EB"/>
<path d="M36.3779 30.0879H37.6642L39.8556 33.1489V30.0879H41.3054V35.8896H40.0191L37.8279 32.8285V35.8896H36.3779V30.0879Z" fill="#F6F7EB"/>
<path d="M44.023 34.3316H44.4153C45.1895 34.3316 45.7128 33.7679 45.7128 32.9722C45.7128 32.2099 45.1895 31.6462 44.4153 31.6462H44.023V34.3316ZM42.4422 30.0882H44.5134C46.1379 30.0882 47.348 31.2926 47.348 32.9722C47.348 34.6962 46.1379 35.8896 44.5134 35.8896H42.4422V30.0882Z" fill="#F6F7EB"/>
<path d="M48.102 30.0879H49.6827V35.8896H48.102V30.0879Z" fill="#F6F7EB"/>
<path d="M52.3701 33.9888H53.7001L53.0132 32.0659L52.3701 33.9888ZM52.3155 30.0879H53.8092L56.0004 35.8896H54.3651L54.158 35.2928H51.9339L51.7378 35.8896H50.1351L52.3155 30.0879Z" fill="#F6F7EB"/>
<path d="M58.8562 30.0879H62.105L61.9088 31.646H60.437V32.6074H61.8978V34.1657H60.437V35.8896H58.8562V30.0879Z" fill="#F6F7EB"/>
<path d="M66.8066 32.9722C66.8066 32.1874 66.2286 31.5687 65.4439 31.5687C64.6479 31.5687 64.0701 32.1874 64.0701 32.9722C64.0701 33.7788 64.6479 34.4088 65.4439 34.4088C66.2286 34.4088 66.8066 33.7788 66.8066 32.9722ZM62.4348 32.9722C62.4348 31.215 63.6778 29.9773 65.4439 29.9773C67.1989 29.9773 68.4417 31.215 68.4417 32.9722C68.4417 34.8175 66.9919 36 65.4439 36C63.8848 36 62.4348 34.8175 62.4348 32.9722Z" fill="#F6F7EB"/>
<path d="M69.1099 33.6904V30.0879H70.6907V33.6131C70.6907 34.1215 71.0287 34.4198 71.4865 34.4198C71.9553 34.4198 72.2933 34.1215 72.2933 33.6131V30.0879H73.8741V35.8896H72.5222V35.3039C72.2169 35.6905 71.8135 36 71.0287 36C69.9822 36 69.1099 35.2377 69.1099 33.6904Z" fill="#F6F7EB"/>
<path d="M75.0106 30.0879H76.2971L78.4883 33.1489V30.0879H79.9382V35.8896H78.6518L76.4606 32.8285V35.8896H75.0106V30.0879Z" fill="#F6F7EB"/>
<path d="M82.6557 34.3316H83.0481C83.8222 34.3316 84.3454 33.7679 84.3454 32.9722C84.3454 32.2099 83.8222 31.6462 83.0481 31.6462H82.6557V34.3316ZM81.075 30.0882H83.1462C84.7707 30.0882 85.9807 31.2926 85.9807 32.9722C85.9807 34.6962 84.7707 35.8896 83.1462 35.8896H81.075V30.0882Z" fill="#F6F7EB"/>
<path d="M88.0735 33.9888H89.4035L88.7167 32.0659L88.0735 33.9888ZM88.019 30.0879H89.5127L91.7039 35.8896H90.0685L89.8615 35.2928H87.6374L87.4412 35.8896H85.8386L88.019 30.0879Z" fill="#F6F7EB"/>
<path d="M92.6193 31.6462H91.4093L91.2129 30.0882H95.6063L95.4101 31.6462H94.2001V35.8896H92.6193V31.6462Z" fill="#F6F7EB"/>
<path d="M96.088 30.0879H97.6688V35.8896H96.088V30.0879Z" fill="#F6F7EB"/>
<path d="M102.784 32.9722C102.784 32.1874 102.206 31.5687 101.421 31.5687C100.625 31.5687 100.047 32.1874 100.047 32.9722C100.047 33.7788 100.625 34.4088 101.421 34.4088C102.206 34.4088 102.784 33.7788 102.784 32.9722ZM98.4121 32.9722C98.4121 31.215 99.6549 29.9773 101.421 29.9773C103.176 29.9773 104.419 31.215 104.419 32.9722C104.419 34.8175 102.969 36 101.421 36C99.8621 36 98.4121 34.8175 98.4121 32.9722Z" fill="#F6F7EB"/>
<path d="M105.164 30.0879H106.451L108.642 33.1489V30.0879H110.092V35.8896H108.806L106.614 32.8285V35.8896H105.164V30.0879Z" fill="#F6F7EB"/>
</svg>
