<svg width="144" height="48" viewBox="0 0 144 48" fill="none" xmlns="http://www.w3.org/2000/svg">
<path d="M31.804 23.9372C31.804 26.6059 32.8328 28.4872 35.8928 28.4872C38.0836 28.4872 39.3165 27.1572 39.3165 27.1572L39.5027 27.8134C39.5826 28.0672 39.689 28.2422 39.9728 28.2422H40.4695C40.7356 28.2422 40.9662 28.0147 40.9662 27.7609V18.6521C40.9662 18.3984 40.7267 18.1709 40.4695 18.1709H39.6535C39.3874 18.1709 39.1568 18.3984 39.1568 18.6521V25.3634C39.1568 25.3634 38.0215 26.7984 36.017 26.7984C34.5447 26.7984 33.6488 25.8709 33.6488 23.9547V18.6521C33.6488 18.3984 33.4093 18.1709 33.1521 18.1709H32.3095C32.0434 18.1709 31.8128 18.3984 31.8128 18.6521V23.9372H31.804Z" fill="#F6F7EB"/>
<path fill-rule="evenodd" clip-rule="evenodd" d="M59.5391 21.8467C56.825 21.8467 55.3171 23.2817 55.3171 25.1892C55.3171 27.2017 56.7185 28.4792 58.5634 28.4792C60.1954 28.4792 61.2775 27.7005 61.8363 27.1755L62.0491 27.858C62.129 28.0855 62.2088 28.2342 62.5015 28.2342H62.9982C63.2643 28.2342 63.4949 28.0067 63.4949 27.753V22.1705C63.4949 19.2305 62.8385 17.918 60.1511 17.918C58.1731 17.918 56.6476 18.4955 56.4879 18.5742C56.2484 18.6705 56.0888 18.828 56.1952 19.1255L56.4081 19.7555C56.4879 19.983 56.6476 20.1055 56.9048 20.0092C57.3749 19.8342 58.6166 19.458 60.0712 19.458C61.5702 19.458 61.8097 20.3155 61.7831 22.1705C61.7831 22.1705 60.6744 21.8467 59.5391 21.8467ZM58.8561 26.9742C57.7208 26.9742 57.0112 26.1955 57.0112 25.1892C57.0112 23.8855 58.0667 23.1767 59.5391 23.1767C60.701 23.1767 61.4371 23.4042 61.7565 23.5792V25.5655C61.3041 26.1955 60.1688 26.9742 58.8561 26.9742Z" fill="#F6F7EB"/>
<path d="M65.9519 23.2288C65.9519 26.2476 68.4265 28.4876 71.3535 28.4876C73.1451 28.4876 74.5997 27.5863 75.3891 26.3788C75.5488 26.1251 75.4689 25.8538 75.2029 25.6788L74.9102 25.4776C74.6175 25.2763 74.4401 25.2238 74.1208 25.5301C73.5176 26.0813 72.9056 26.8338 71.3269 26.8338C69.3489 26.8338 67.85 25.2238 67.85 23.2113C67.85 21.1988 69.3756 19.6413 71.3535 19.6413C72.3823 19.6413 73.2516 20.1226 73.7749 20.7001C74.0143 20.9013 74.1474 21.1551 74.5376 20.7963L75.0343 20.3938C75.2738 20.2188 75.327 19.9126 75.1408 19.6938C74.1917 18.5388 72.95 17.9351 71.3712 17.9351C68.5063 17.9263 65.9519 20.2626 65.9519 23.2288Z" fill="#F6F7EB"/>
<path fill-rule="evenodd" clip-rule="evenodd" d="M82.1387 21.8467C79.4246 21.8467 77.9167 23.2817 77.9167 25.1892C77.9167 27.2017 79.3181 28.4792 81.163 28.4792C82.795 28.4792 83.8771 27.7005 84.4359 27.1755L84.6487 27.858C84.7286 28.0855 84.8084 28.2342 85.1011 28.2342H85.5978C85.8639 28.2342 86.0945 28.0067 86.0945 27.753V22.1705C86.0945 19.2305 85.4381 17.918 82.7507 17.918C80.7727 17.918 79.2472 18.4955 79.0875 18.5742C78.8481 18.6705 78.6884 18.828 78.7948 19.1255L79.0077 19.7555C79.0875 19.983 79.2472 20.1055 79.5044 20.0092C79.9834 19.8342 81.2162 19.458 82.6708 19.458C84.1698 19.458 84.4093 20.3155 84.3827 22.1705C84.3827 22.1705 83.274 21.8467 82.1387 21.8467ZM81.4557 26.9742C80.3204 26.9742 79.6108 26.1955 79.6108 25.1892C79.6108 23.8855 80.6663 23.1767 82.1387 23.1767C83.3006 23.1767 84.0368 23.4042 84.3561 23.5792V25.5655C83.9037 26.1955 82.7684 26.9742 81.4557 26.9742Z" fill="#F6F7EB"/>
<path fill-rule="evenodd" clip-rule="evenodd" d="M93.607 17.9263C90.4406 17.9263 88.5425 20.2363 88.5425 23.185C88.5425 26.0725 90.6534 28.4875 93.3409 28.4875C95.3188 28.4875 96.5871 27.1575 96.5871 27.1575L96.7468 27.84C96.8 28.0675 96.9597 28.2425 97.1991 28.2425H97.7491C98.0151 28.2425 98.2458 28.015 98.2458 27.7613V13.4813C98.2458 13.2275 98.0063 13 97.7491 13H96.9331C96.667 13 96.4364 13.2275 96.4364 13.4813V18.5825C96.4275 18.5738 95.3454 17.9263 93.607 17.9263ZM93.5272 26.9038C91.6025 26.9038 90.3873 25.1713 90.3873 23.2113C90.3873 21.1988 91.5493 19.615 93.8376 19.615C95.2922 19.615 96.392 20.2188 96.392 20.2188V25.25C96.4009 25.2413 95.4252 26.9038 93.5272 26.9038Z" fill="#F6F7EB"/>
<path fill-rule="evenodd" clip-rule="evenodd" d="M105.865 17.9258C102.672 17.9258 100.694 20.367 100.694 23.2108C100.694 26.0983 102.672 28.4958 105.865 28.4958C107.684 28.4958 109.112 27.8133 109.741 27.3408C110.14 27.0608 110.034 26.912 109.848 26.6845C109.768 26.5883 109.697 26.492 109.626 26.3958C109.555 26.2995 109.484 26.2033 109.404 26.107C109.209 25.8533 109.058 25.9408 108.757 26.107C108.73 26.1245 108.695 26.142 108.668 26.1595C108.065 26.5095 107.169 26.912 106.06 26.912C104.189 26.912 102.637 25.3283 102.53 23.6395H110.123C110.362 23.6395 110.575 23.4645 110.602 23.2108C110.628 23.0358 110.655 22.712 110.655 22.5283C110.637 19.8858 108.633 17.9258 105.865 17.9258ZM108.819 22.222H102.548C102.734 20.6645 104.1 19.457 105.874 19.457C107.471 19.457 108.739 20.7608 108.819 22.222Z" fill="#F6F7EB"/>
<path d="M113.093 27.752C113.093 28.0058 113.333 28.2333 113.599 28.2333H114.415C114.681 28.2333 114.92 28.0058 114.92 27.752V21.0408C114.92 21.0408 116.056 19.6058 117.927 19.6058C119.533 19.6058 120.428 20.5333 120.428 22.4495V27.752C120.428 28.0058 120.668 28.2333 120.925 28.2333H121.768C122.034 28.2333 122.264 28.0058 122.264 27.752V22.4495C122.264 21.9245 122.211 21.4433 122.131 21.0145C122.504 20.6908 123.63 19.6058 125.351 19.6058C126.877 19.6058 127.719 20.5595 127.719 22.4495V27.752C127.719 28.0058 127.959 28.2333 128.225 28.2333H129.067C129.333 28.2333 129.564 28.0058 129.564 27.752V22.4495C129.564 19.8333 128.535 17.9258 125.475 17.9258C123.364 17.9258 121.679 19.457 121.546 19.562C120.863 18.5033 119.728 17.9258 118.176 17.9258C115.985 17.9258 114.752 19.2558 114.752 19.2558L114.512 18.477C114.459 18.2758 114.326 18.1795 114.087 18.1795H113.59C113.324 18.1795 113.084 18.407 113.084 18.6608V27.752H113.093Z" fill="#F6F7EB"/>
<path d="M136.988 28.2082L134.85 33.3707C134.664 33.7207 134.877 34.0007 135.267 34.0007H136.243C136.429 34.0007 136.615 33.8519 136.695 33.7032L143.552 18.7582C143.738 18.4344 143.552 18.1807 143.152 18.1807H142.15C141.964 18.1807 141.778 18.3032 141.707 18.4607L138.017 26.1519L134.088 18.4607C134.008 18.3119 133.848 18.1807 133.635 18.1807H132.473C132.074 18.1807 131.923 18.4082 132.074 18.7319L136.988 28.2082Z" fill="#F6F7EB"/>
<path d="M43.4319 27.752C43.4319 28.0058 43.6714 28.2333 43.9286 28.2333H44.7446C45.0107 28.2333 45.2413 28.0058 45.2413 27.752V21.0408C45.2413 21.0408 46.6604 19.6058 48.6383 19.6058C50.1107 19.6058 51.0065 20.5333 51.0065 22.4495V27.752C51.0065 28.0058 51.246 28.2333 51.5032 28.2333H52.3458C52.6119 28.2333 52.8425 28.0058 52.8425 27.752V22.4495C52.8425 19.8333 51.8136 17.9258 48.7536 17.9258C46.5628 17.9258 45.0639 19.2558 45.0639 19.2558L44.8244 18.477C44.7712 18.2758 44.6381 18.1795 44.3987 18.1795H43.9286C43.6625 18.1795 43.4319 18.407 43.4319 18.6608V27.752V27.752Z" fill="#F6F7EB"/>
<path d="M1.13269 14.9528C2.10834 20.8853 7.49217 25.4178 13.9936 25.4178C20.424 25.4178 25.7635 20.9728 26.819 15.1365C26.952 14.5853 27.0141 14.1478 26.9964 13.7715C26.9964 13.3428 26.677 13.0103 26.2247 13.0103H25.4974H2.61391H1.7713C1.32782 13.0103 0.999644 13.3428 0.999644 13.7715C0.999644 13.7803 0.999644 13.789 0.999644 13.7978C0.990774 14.1303 1.03512 14.4978 1.13269 14.9528Z" fill="#F6F7EB"/>
<path d="M20.389 33.0113C19.9012 30.0451 17.2049 27.7788 13.9586 27.7788C10.7478 27.7788 8.06921 30.0013 7.54591 32.9238C7.47495 33.1951 7.44834 33.4138 7.45721 33.6063C7.45721 33.8251 7.61686 33.9913 7.8386 33.9913H8.20226H19.644H20.0609C20.2826 33.9913 20.4423 33.8251 20.4423 33.6063C20.4423 33.5976 20.4423 33.5976 20.4423 33.5888C20.46 33.4226 20.4334 33.2388 20.389 33.0113Z" fill="#F6F7EB"/>
</svg>
