<?xml version="1.0" encoding="utf-8"?>
<!-- Generator: Adobe Illustrator 24.0.2, SVG Export Plug-In . SVG Version: 6.00 Build 0)  -->
<svg version="1.1" id="Layer_1" xmlns="http://www.w3.org/2000/svg" xmlns:xlink="http://www.w3.org/1999/xlink" x="0px" y="0px"
	 viewBox="0 0 161 24" style="enable-background:new 0 0 161 24;" xml:space="preserve">
<style type="text/css">
	.st0{fill:#FFFFFF;}
	.st1{fill-rule:evenodd;clip-rule:evenodd;fill:#FFFFFF;}
</style>
<path class="st0" d="M34.73,12.5c0,3.05,1.16,5.2,4.61,5.2c2.47,0,3.86-1.52,3.86-1.52l0.21,0.75c0.09,0.29,0.21,0.49,0.53,0.49
	h0.56c0.3,0,0.56-0.26,0.56-0.55V6.46c0-0.29-0.27-0.55-0.56-0.55h-0.92c-0.3,0-0.56,0.26-0.56,0.55v7.67c0,0-1.28,1.64-3.54,1.64
	c-1.66,0-2.67-1.06-2.67-3.25V6.46c0-0.29-0.27-0.55-0.56-0.55H35.3c-0.3,0-0.56,0.26-0.56,0.55V12.5z"/>
<path class="st1" d="M66,10.11c-3.06,0-4.76,1.64-4.76,3.82c0,2.3,1.58,3.76,3.66,3.76c1.84,0,3.06-0.89,3.69-1.49l0.24,0.78
	c0.09,0.26,0.18,0.43,0.51,0.43h0.56c0.3,0,0.56-0.26,0.56-0.55v-6.38c0-3.36-0.74-4.86-3.77-4.86c-2.23,0-3.95,0.66-4.13,0.75
	c-0.27,0.11-0.45,0.29-0.33,0.63l0.24,0.72c0.09,0.26,0.27,0.4,0.56,0.29c0.53-0.2,1.93-0.63,3.57-0.63c1.69,0,1.96,0.98,1.93,3.1
	C68.53,10.48,67.28,10.11,66,10.11z M65.23,15.97c-1.28,0-2.08-0.89-2.08-2.04c0-1.49,1.19-2.3,2.85-2.3c1.31,0,2.14,0.26,2.5,0.46
	v2.27C67.99,15.08,66.71,15.97,65.23,15.97z"/>
<path class="st0" d="M73.23,11.69c0,3.45,2.79,6.01,6.09,6.01c2.02,0,3.66-1.03,4.55-2.41c0.18-0.29,0.09-0.6-0.21-0.8l-0.33-0.23
	c-0.33-0.23-0.53-0.29-0.89,0.06c-0.68,0.63-1.37,1.49-3.15,1.49c-2.23,0-3.92-1.84-3.92-4.14c0-2.3,1.72-4.08,3.95-4.08
	c1.16,0,2.14,0.55,2.73,1.21c0.27,0.23,0.42,0.52,0.86,0.11l0.56-0.46c0.27-0.2,0.33-0.55,0.12-0.8c-1.07-1.32-2.47-2.01-4.25-2.01
	C76.11,5.63,73.23,8.3,73.23,11.69z"/>
<path class="st1" d="M91.48,10.11c-3.06,0-4.76,1.64-4.76,3.82c0,2.3,1.58,3.76,3.66,3.76c1.84,0,3.06-0.89,3.69-1.49l0.24,0.78
	c0.09,0.26,0.18,0.43,0.51,0.43h0.56c0.3,0,0.56-0.26,0.56-0.55v-6.38c0-3.36-0.74-4.86-3.77-4.86c-2.23,0-3.95,0.66-4.13,0.75
	c-0.27,0.11-0.45,0.29-0.33,0.63l0.24,0.72c0.09,0.26,0.27,0.4,0.56,0.29c0.54-0.2,1.93-0.63,3.57-0.63c1.69,0,1.96,0.98,1.93,3.1
	C94.01,10.48,92.76,10.11,91.48,10.11z M90.71,15.97c-1.28,0-2.08-0.89-2.08-2.04c0-1.49,1.19-2.3,2.85-2.3
	c1.31,0,2.14,0.26,2.5,0.46v2.27C93.47,15.08,92.19,15.97,90.71,15.97z"/>
<path class="st1" d="M104.41,5.63c-3.57,0-5.71,2.64-5.71,6.01c0,3.3,2.38,6.06,5.41,6.06c2.23,0,3.66-1.52,3.66-1.52l0.18,0.78
	c0.06,0.26,0.24,0.46,0.51,0.46h0.62c0.3,0,0.56-0.26,0.56-0.55V0.55c0-0.29-0.27-0.55-0.56-0.55h-0.92c-0.3,0-0.56,0.26-0.56,0.55
	v5.83C107.59,6.37,106.37,5.63,104.41,5.63z M104.32,15.89c-2.17,0-3.54-1.98-3.54-4.22c0-2.3,1.31-4.11,3.89-4.11
	c1.64,0,2.88,0.69,2.88,0.69v5.75C107.56,13.99,106.46,15.89,104.32,15.89z"/>
<path class="st1" d="M118.23,5.63c-3.6,0-5.83,2.79-5.83,6.04c0,3.3,2.23,6.04,5.83,6.04c2.05,0,3.66-0.78,4.37-1.32
	c0.45-0.32,0.33-0.49,0.12-0.75c-0.09-0.11-0.17-0.22-0.25-0.33c-0.08-0.11-0.16-0.22-0.25-0.33c-0.22-0.29-0.39-0.19-0.73,0
	c-0.03,0.02-0.07,0.04-0.1,0.06c-0.68,0.4-1.69,0.86-2.94,0.86c-2.11,0-3.86-1.81-3.98-3.74h8.56c0.27,0,0.51-0.2,0.54-0.49
	c0.03-0.2,0.06-0.57,0.06-0.78C123.61,7.87,121.35,5.63,118.23,5.63z M121.56,10.54h-7.07c0.21-1.78,1.75-3.16,3.75-3.16
	C120.04,7.38,121.47,8.87,121.56,10.54z"/>
<path class="st0" d="M126.38,16.86c0,0.29,0.27,0.55,0.57,0.55h0.92c0.3,0,0.57-0.26,0.57-0.55V9.19c0,0,1.28-1.64,3.39-1.64
	c1.81,0,2.82,1.06,2.82,3.25v6.06c0,0.29,0.27,0.55,0.56,0.55h0.95c0.3,0,0.56-0.26,0.56-0.55V10.8c0-0.6-0.06-1.15-0.15-1.64
	c0.42-0.37,1.69-1.61,3.63-1.61c1.72,0,2.67,1.09,2.67,3.25v6.06c0,0.29,0.27,0.55,0.57,0.55h0.95c0.3,0,0.56-0.26,0.56-0.55V10.8
	c0-2.99-1.16-5.17-4.61-5.17c-2.38,0-4.28,1.75-4.43,1.87c-0.77-1.21-2.05-1.87-3.8-1.87c-2.47,0-3.86,1.52-3.86,1.52l-0.27-0.89
	c-0.06-0.23-0.21-0.34-0.48-0.34h-0.56c-0.3,0-0.57,0.26-0.57,0.55V16.86z"/>
<path class="st0" d="M153.32,17.38l-2.41,5.9c-0.21,0.4,0.03,0.72,0.47,0.72h1.1c0.21,0,0.42-0.17,0.51-0.34l7.73-17.08
	c0.21-0.37,0-0.66-0.45-0.66h-1.13c-0.21,0-0.42,0.14-0.5,0.32l-4.16,8.79l-4.43-8.79c-0.09-0.17-0.27-0.32-0.51-0.32h-1.31
	c-0.45,0-0.62,0.26-0.45,0.63L153.32,17.38z"/>
<path class="st0" d="M47.84,16.86c0,0.29,0.27,0.55,0.56,0.55h0.92c0.3,0,0.56-0.26,0.56-0.55V9.19c0,0,1.6-1.64,3.83-1.64
	c1.66,0,2.67,1.06,2.67,3.25v6.06c0,0.29,0.27,0.55,0.56,0.55h0.95c0.3,0,0.56-0.26,0.56-0.55V10.8c0-2.99-1.16-5.17-4.61-5.17
	c-2.47,0-4.16,1.52-4.16,1.52l-0.27-0.89c-0.06-0.23-0.21-0.34-0.48-0.34H48.4c-0.3,0-0.56,0.26-0.56,0.55V16.86z"/>
<path class="st0" d="M0.15,2.23c1.1,6.78,7.17,11.96,14.5,11.96c7.25,0,13.27-5.08,14.46-11.75c0.15-0.63,0.22-1.13,0.2-1.56
	c0-0.49-0.36-0.87-0.87-0.87h-0.82H1.82H0.87C0.37,0.01,0,0.39,0,0.88c0,0,0,0,0,0C0,0.89,0,0.9,0,0.91
	C-0.01,1.29,0.04,1.71,0.15,2.23L0.15,2.23z"/>
<path class="st0" d="M21.86,22.87c-0.55-3.39-3.59-5.98-7.25-5.98c-3.62,0-6.64,2.54-7.23,5.88c-0.08,0.31-0.11,0.56-0.1,0.78
	c0,0.25,0.18,0.44,0.43,0.44h0.41h12.9h0.47c0.25,0,0.43-0.19,0.43-0.44c0,0,0,0,0,0c0-0.01,0-0.01,0-0.02
	C21.94,23.34,21.91,23.13,21.86,22.87z"/>
</svg>
