<svg width="144" height="48" viewBox="0 0 144 48" fill="none" xmlns="http://www.w3.org/2000/svg">
<path d="M41.498 17.5854H50.8609C50.8185 17.6698 50.7866 17.7389 50.7596 17.7972C50.7143 17.8953 50.683 17.9631 50.639 18.0226C49.0957 20.1407 47.5486 22.255 46.0015 24.3693L45.9983 24.3737C45.55 24.9863 45.1034 25.6003 44.6569 26.2143C43.431 27.8997 42.2048 29.5857 40.9422 31.2437C40.4379 31.9074 40.6873 32.5016 40.9226 33.0622L40.9365 33.0952C41.0256 33.31 41.6024 33.4127 41.9591 33.4127C44.7359 33.4211 47.5127 33.4119 50.2895 33.4027C51.2692 33.3994 52.2489 33.3961 53.2287 33.3937C53.8068 33.3924 54.3858 33.3928 54.9837 33.3932C55.29 33.3934 55.6022 33.3937 55.9209 33.3937C55.9701 32.7263 56.0187 32.0793 56.0682 31.418L56.1618 30.1678H46.3948C46.4435 30.0715 46.4826 29.9875 46.5173 29.9128C46.5814 29.775 46.6307 29.669 46.6984 29.5766C47.7692 28.1026 48.8426 26.6313 49.9163 25.1597C50.4251 24.4623 50.9347 23.7637 51.4434 23.0658C51.9037 22.435 52.3622 21.8028 52.8207 21.1706C53.976 19.5777 55.1312 17.9849 56.3155 16.4145C56.8031 15.7681 56.5375 15.1845 56.287 14.6542C56.1846 14.4356 55.6116 14.3557 55.253 14.3557C52.5307 14.3486 49.8073 14.3575 47.0845 14.3664C46.1775 14.3694 45.2697 14.3724 44.3629 14.3747C43.8058 14.376 43.2478 14.3756 42.672 14.3752C42.3773 14.375 42.0776 14.3747 41.7713 14.3747L41.6701 15.5625C41.6151 16.2065 41.5591 16.8631 41.498 17.5854Z" fill="#F6F7EB"/>
<path fill-rule="evenodd" clip-rule="evenodd" d="M94.932 31.9147C99.1552 31.9166 102.234 28.6622 102.21 24.2216C102.187 20.1897 99.2728 17.2585 95.2678 17.2357C91.1337 17.2109 88.0601 20.4711 88.0507 24.8926C88.0412 28.936 90.9572 31.9128 94.932 31.9147ZM91.9794 23.8381C92.0792 23.3166 92.1921 22.7267 92.403 22.1748C92.883 20.9164 93.9721 20.2891 95.3134 20.3309C96.5523 20.3689 97.4649 21.0419 97.9392 22.3003C98.4458 23.6461 98.4533 25.0262 98.0929 26.3987C97.6812 27.9689 96.5049 28.8927 95.0288 28.8794C93.6002 28.8661 92.589 28.0316 92.1678 26.4443C92.0667 26.0607 92.0169 25.6644 91.9586 25.1994C91.9293 24.9662 91.8978 24.7156 91.8566 24.4407C91.8993 24.2565 91.9382 24.053 91.9794 23.8381Z" fill="#F6F7EB"/>
<path fill-rule="evenodd" clip-rule="evenodd" d="M59.3287 23.9782C59.5113 23.9578 59.6964 23.9371 59.8823 23.9308C61.5745 23.8791 63.2666 23.8322 64.9588 23.7854L66.2286 23.7502C67.0653 23.7274 68.2985 22.8986 68.3061 22.2846C68.344 19.4826 67.0027 16.6331 63.857 15.9544C59.0969 14.9298 54.9533 18.4618 55.0823 23.5544C55.1544 26.3906 56.251 28.7021 59.0191 29.8104C61.8004 30.9262 64.54 30.5518 67.1393 29.1222C67.3802 28.9911 67.661 28.6869 67.68 28.4436C67.7267 27.8149 67.7197 27.1822 67.7123 26.5095C67.7094 26.2527 67.7065 25.99 67.7065 25.7196C67.5896 25.7806 67.4832 25.8415 67.3826 25.899C67.1796 26.015 67.0007 26.1173 66.8091 26.1796C66.4609 26.2922 66.114 26.4152 65.7669 26.5383C64.866 26.8579 63.9641 27.1778 63.0355 27.3164C60.7038 27.6699 58.8995 26.1016 59.057 24.0068C59.1468 23.9986 59.2374 23.9884 59.3287 23.9782ZM62.0676 18.6654C60.436 18.7016 59.161 19.9866 59.0795 21.6461H64.7541C64.5966 19.5779 63.6992 18.6293 62.0676 18.6654Z" fill="#F6F7EB"/>
<path d="M87.1191 18.8134C87.0985 18.538 87.0756 18.2729 87.0533 18.0151C87.0036 17.4401 86.9569 16.9006 86.9465 16.3612C86.9351 15.7567 86.6334 15.5514 86.087 15.4716C82.7251 14.9697 80.1562 16.8745 79.6895 20.2563C79.6172 20.7818 79.573 21.3109 79.5264 21.8687C79.5045 22.1299 79.4822 22.3978 79.4562 22.6743C79.3382 22.6743 79.224 22.6709 79.1128 22.6676C78.859 22.6602 78.6208 22.6532 78.3899 22.6876C78.1755 22.7199 77.8435 22.8377 77.798 22.9898C77.6116 23.6032 77.4646 24.229 77.305 24.9085C77.2484 25.1493 77.1903 25.3969 77.1282 25.653H79.5055V36.42H83.5409V25.5979H86.825V22.6457H83.539C83.281 20.0681 83.8843 18.1937 87.1191 18.8134Z" fill="#F6F7EB"/>
<path d="M68.6172 21.4462C68.8367 21.4462 69.0423 21.441 69.2376 21.436C69.6871 21.4246 70.0821 21.4146 70.467 21.4729C70.7023 21.509 71.0703 21.8378 71.0722 22.0374C71.0928 23.66 71.0797 25.2835 71.0665 26.9074C71.0615 27.5284 71.0564 28.1495 71.0533 28.7706C71.0492 29.5739 71.05 30.3781 71.0507 31.1998C71.0511 31.5327 71.0514 31.8697 71.0514 32.2094H75.0223V21.4196H78.3064V18.4751C78.0269 18.4751 77.7516 18.4735 77.4792 18.4719C76.8528 18.4684 76.2416 18.4649 75.6294 18.4808C75.1437 18.4941 74.9654 18.3078 74.9521 17.8192C74.8857 15.4412 75.7926 14.0326 78.2931 14.5743C78.3242 14.5812 78.3594 14.57 78.4236 14.5495C78.4654 14.5362 78.5196 14.5189 78.5929 14.5002C78.5753 14.2733 78.5591 14.0446 78.5429 13.8147C78.4964 13.1549 78.4492 12.4853 78.3633 11.8199C78.3406 11.6355 78.0882 11.3979 77.8928 11.3332C76.1777 10.7706 73.607 11.5747 72.4534 12.9966C71.446 14.2379 71.0684 15.6921 71.1178 17.2471C71.1462 18.1348 71.0001 18.6519 69.951 18.4979C69.7366 18.4656 69.3249 18.6975 69.2604 18.8933C69.0782 19.4463 68.9477 20.0169 68.8017 20.6547C68.7441 20.9069 68.6839 21.17 68.6172 21.4462Z" fill="#F6F7EB"/>
</svg>
