<svg width="200" height="200" viewBox="0 0 200 200" fill="none" xmlns="http://www.w3.org/2000/svg">
<path d="M100.009 93.595C100.248 91.5771 100.443 86.7384 100.356 84.612C100.139 84.5903 99.944 84.6554 99.4233 84.8941C97.0799 86.0007 94.1289 88.8866 92.5233 91.4686C92.0025 89.863 91.0044 87.8667 90.0063 86.4564C88.7912 84.7422 87.5978 84.2866 84.7119 84.6554C81.7393 85.0243 75.5119 87.1073 72.2789 88.7564C71.8016 88.995 71.6497 89.1903 71.6497 89.3856C72.2355 90.2318 72.778 91.3167 73.2987 92.5318C71.9318 92.7054 70.261 93.2262 69.4799 93.6167C66.095 96.9583 63.3827 102.318 63.3827 105.985C63.3827 108.35 64.1855 110.303 65.878 111.973C66.9846 113.08 68.2648 113.97 69.2195 114.425C72.0402 113.796 76.8789 110.78 79.5912 107.872C81.978 105.312 82.7157 103.229 82.7157 101.233C82.7157 98.7158 81.9563 95.6781 80.3723 92.6837C82.2384 91.4252 85.1242 90.1884 86.5346 90.0366C86.6214 90.6007 86.578 91.295 86.4044 92.3583C85.7101 96.9583 82.9327 107.178 81.1969 111.756C81.4572 112.017 81.9129 112.017 82.9327 111.735C84.9506 111.171 88.5525 109.63 89.5723 108.805C90.3318 106.397 91.6987 99.8875 92.2195 96.8715C94.4327 95.2007 97.8827 93.8337 100.009 93.595ZM70.9553 107.373C69.7403 105.312 71.4327 98.3035 73.9931 94.3762C74.6874 96.4158 75.2082 98.5639 75.4035 100.278C75.8374 104.184 75.0129 105.681 70.9553 107.373Z" fill="#F6F7EB"/>
<path d="M159.701 96.1754C161.632 92.6169 163.281 89.2103 164.192 86.6065C163.802 84.6537 161.979 80.9867 160.829 79.4245C156.099 79.2726 147.658 80.9867 143.926 82.5273C143.275 84.415 142.386 88.4075 142.104 90.3169C145.358 89.5358 151.13 88.4509 154.493 88.3641C153.669 90.8811 152.367 94.0056 150.826 97.282C148.591 97.7377 146.508 98.2584 145.185 98.7575C145.749 99.8424 147.116 101.795 148.027 102.924C145.445 107.849 142.668 112.557 140.455 115.595C140.628 115.899 140.932 115.899 141.756 115.834C143.145 115.704 145.966 115.183 147.268 114.727C149.589 112.427 153.56 106.699 157.162 100.624C158.855 100.168 160.439 99.799 161.784 99.5603C161.871 99.2782 161.762 98.9962 161.372 98.3669C161.003 97.7811 160.33 96.8697 159.701 96.1754Z" fill="#F6F7EB"/>
<path d="M118.17 101.97C118.127 100.516 117.91 99.7784 117.628 99.6916C113.7 103.142 107.104 106.049 105.021 106.353C105.52 104.465 108.037 101.558 111.509 99.0189C111.748 98.4765 112.051 97.3048 112.116 96.8057C112.16 96.5454 112.16 96.3284 112.116 96.2416C110.424 95.9595 108.189 95.2435 106.844 94.3539C108.905 93.0954 112.312 91.8152 114.373 91.468C114.915 89.4935 115.805 84.9803 116.022 82.9189C112.464 83.6567 107.104 86.3906 104.587 88.1699C103.112 89.2114 102.678 89.7539 102.005 91.0774C101.267 92.4661 100.573 94.4406 100.204 96.1548C100.833 96.8708 103.524 97.6954 105.737 98.0425C103.264 99.4746 100.399 101.601 99.1843 102.925C97.9041 104.335 97.4919 105.702 97.9909 107.481C98.4683 109.26 100.508 113.622 102.265 114.989C105.39 114.88 113.982 109.629 117.324 105.051C117.975 104.096 118.214 103.207 118.17 101.97Z" fill="#F6F7EB"/>
<path d="M136.656 95.1336C138.935 90.8807 140.931 86.693 142.124 83.3949C141.495 81.4638 140.041 78.5779 139.021 77.0373C135.832 76.777 126.697 78.5996 120.079 81.5722C119.558 83.6336 118.864 87.0836 118.56 89.6439C122.032 88.4072 128.303 86.7798 131.666 86.3892C130.906 88.8845 129.496 92.4864 127.717 96.4355C125.482 97.043 123.377 97.694 122.032 98.2798C122.401 98.9741 124.006 101.122 124.961 102.229C122.748 106.612 120.296 110.908 118.018 114.076C118.191 114.38 118.517 114.38 119.341 114.315C120.73 114.185 123.681 113.555 124.983 113.1C127.543 110.279 131.037 105.028 134.291 99.3864C135.875 98.9524 137.372 98.5836 138.674 98.3015C138.739 97.9977 138.631 97.7373 138.219 97.1081C137.871 96.5873 137.242 95.7845 136.656 95.1336Z" fill="#F6F7EB"/>
<path d="M65.9427 86.6482C64.5106 84.3916 59.4115 79.9435 56.7644 78.8369C45.6983 84.3265 36.8021 97.4322 34.6974 105.439C33.6342 109.453 33.7861 111.08 35.3266 114.096C37.2144 117.807 41.0115 122.06 43.4634 122.645C47.6078 122.428 56.0483 117.503 60.6917 112.252C61.9285 110.863 62.254 109.974 62.2757 108.26C62.2974 106.48 61.8851 105.113 61.538 105.027C53.4229 110.56 43.8974 113.923 40.9031 113.25C40.2955 108.325 50.971 94.7633 59.3464 89.469C59.6285 91.3567 58.37 95.5445 56.8729 98.1916C56.9814 98.5822 58.3266 98.886 59.5851 98.886C61.0823 98.886 61.82 98.4954 62.7747 97.6492C63.9031 96.6728 65.4653 94.3294 66.3549 92.3765C67.3747 90.0331 67.3748 88.8831 65.9427 86.6482Z" fill="#F6F7EB"/>
<rect x="0.5" y="0.5" width="199" height="199" stroke="#FDCCC4"/>
</svg>
