<svg width="200" height="200" viewBox="0 0 200 200" fill="none" xmlns="http://www.w3.org/2000/svg">
<path d="M136.453 118.933C136.453 117.314 136.956 116.756 137.793 116.756C138.631 116.756 139.301 117.091 140.082 118.933L144.828 129.708V136.52C144.828 138.139 144.158 138.585 142.315 138.809V139.255H151.08V138.809C149.182 138.585 148.568 138.083 148.568 136.52V129.708L153.146 119.324C154.039 117.314 154.933 116.868 156.273 116.644V116.198H149.852V116.644C152.03 116.868 152.811 117.482 152.197 118.933L148.177 128.145L144.046 118.71C143.488 117.426 143.823 117.035 146.223 116.7V116.254H132.434V116.7C134.611 117.035 135.281 117.426 135.281 118.989V131.607L125.176 116.254H120.207V116.7C121.826 116.924 122.328 117.426 122.328 118.989V136.575C122.328 138.194 121.882 138.753 121.323 138.753C120.821 138.753 120.542 138.529 119.816 136.575L112.335 116.142H111.888L104.686 135.682C103.905 137.859 102.677 138.585 101.448 138.864V139.311H108.036V138.864C105.747 138.641 105.021 137.748 105.524 136.296L107.143 131.83H113.954L115.517 136.017C116.187 137.915 115.796 138.474 113.842 138.809V139.255H126.348V138.809C124.171 138.474 123.501 138.083 123.501 136.52V120.776L135.727 139.311H136.453V118.933ZM48.2988 127.699C48.2988 120.552 51.7044 116.812 55.6683 116.812C58.0131 116.812 59.5205 117.314 60.4138 118.263C61.0837 118.933 61.5862 119.882 62.1445 121.39H62.5911V116.589C60.3021 116.142 58.2364 115.863 56.1708 115.863C50.197 115.863 44 119.715 44 127.699C44 135.682 50.197 139.534 55.78 139.534C58.2365 139.534 60.4138 139.144 62.4795 138.529L63.1494 134.007L62.7586 133.896C62.2562 134.845 61.642 135.682 60.9721 136.408C59.5205 137.859 57.5665 138.641 55.6125 138.641C51.8161 138.585 48.2988 134.956 48.2988 127.699ZM97.8194 128.369C97.3169 128.369 96.647 128.313 95.977 128.201V117.035H97.8194C100.89 117.035 102.23 118.654 102.23 122.674C102.23 126.749 100.834 128.369 97.8194 128.369ZM75.8227 139.311L82.4663 120.832L82.9688 136.575C83.0246 138.139 82.4105 138.585 80.5123 138.809V139.255H98.8243V138.809C96.647 138.474 95.977 138.083 95.977 136.52V129.094C96.7028 129.206 97.4286 129.262 97.9869 129.262C102.397 129.262 106.194 127.643 106.194 122.73C106.194 117.817 102.397 116.198 97.9869 116.198H90.1149V116.644C91.734 116.868 92.2365 117.37 92.2365 118.933V136.52C92.2365 138.139 91.5665 138.809 89.7241 138.809H89.6683C87.7143 138.809 86.8769 138.083 86.821 136.575L86.1511 118.989C86.0952 117.37 86.6535 116.868 88.3842 116.644V116.198H82.9688L77.0509 132.779L71.133 116.198H65.3268V116.644C67.0575 116.868 67.6158 117.426 67.5599 118.989L66.9458 135.85C66.89 137.525 65.9967 138.529 64.3777 138.809V139.255H70.5189V138.809C68.9557 138.585 68.0624 137.58 68.1182 135.85L68.6207 120.497L75.376 139.255L75.8227 139.311ZM58.0131 134.454C60.9721 134.454 64.7685 131.83 64.7685 127.699C64.7685 123.623 61.0279 120.943 58.0131 120.943C55.0542 120.943 51.2578 123.567 51.2578 127.699C51.2578 131.774 54.9984 134.454 58.0131 134.454ZM58.0131 121.892C59.9113 121.892 61.1954 123.456 61.1954 127.699C61.1954 131.997 59.8555 133.505 58.0131 133.505C56.1149 133.505 54.8309 131.942 54.8309 127.699C54.8309 123.4 56.1149 121.892 58.0131 121.892ZM113.675 130.881H107.478L110.548 122.395L113.675 130.881Z" fill="#F6F7EB"/>
<path d="M121.277 61.0584V73.4376H122.277C123.778 65.5599 126.904 63.0591 132.155 63.0591H134.656V106.574C134.656 110.2 133.156 111.201 129.029 111.701V112.701H148.661V111.701C144.41 111.201 143.034 110.075 143.034 106.574V62.934H145.535C150.787 62.934 153.913 65.4349 155.413 73.3126H156.414V60.9333H121.277V61.0584ZM105.646 113.326C114.149 113.326 123.152 108.45 123.152 98.4463C123.152 92.5693 120.026 87.6926 114.524 84.6915L104.771 79.3147C99.6442 76.4387 98.1437 73.8128 98.1437 70.0615C98.1437 65.81 101.27 62.4338 107.147 62.4338C110.023 62.4338 112.149 63.1841 113.899 64.8097C115.4 66.3102 116.9 68.811 118.276 73.3126H119.151V61.9337C115.65 60.9333 112.023 60.3081 107.772 60.3081C99.3941 60.3081 93.142 65.5599 93.142 74.438C93.142 80.0649 96.268 85.1917 101.395 88.1927L110.398 93.1945C115.525 96.0705 117.15 98.8214 117.15 102.948C117.15 107.825 112.149 111.326 106.647 111.326C103.02 111.326 100.019 110.075 97.8936 107.95C96.5181 106.574 95.0176 104.448 94.0173 101.697H99.8943V100.697C98.2687 100.322 97.2684 100.072 95.8929 96.8207L84.3889 69.4363H83.3886L72.1347 96.1955C70.6342 99.8218 69.6338 100.447 67.8832 100.697V101.697H77.8867V100.697C74.2604 100.322 73.2601 98.5713 74.1354 96.3205L75.886 92.0691H86.0145L88.2653 97.3209C89.2656 99.6967 87.7651 100.322 84.1389 100.572V101.572H92.1416V111.451C96.143 112.576 101.27 113.326 105.646 113.326ZM85.3893 90.0684H76.8864L81.1378 79.6898L85.3893 90.0684ZM69.1337 92.6943H70.134V77.1889H69.1337C67.5081 82.6908 65.8826 83.9413 62.8815 83.9413H57.1295V62.934H66.2577C71.5095 62.934 74.6356 65.4349 76.1361 73.3126H77.1364V60.9333H44V61.9337C47.6263 62.4338 48.7516 63.5592 48.7516 67.0604V106.449C48.7516 110.075 47.6263 111.076 44 111.576V112.576H63.5067V111.576C58.63 110.826 57.1295 109.95 57.1295 106.449V85.8169H62.8815C65.7575 85.942 67.5081 87.1924 69.1337 92.6943Z" fill="#F6F7EB"/>
<rect x="0.5" y="0.5" width="199" height="199" stroke="#FDCCC4"/>
</svg>
