<svg width="200" height="200" viewBox="0 0 200 200" fill="none" xmlns="http://www.w3.org/2000/svg">
<path d="M60 68.1455V76.3636L71.7818 88.1455L83.6364 100L71.7818 111.855L60 123.636V131.855V140H68.2182H76.3636L85.4545 130.909L94.5455 121.818L92.5091 119.855L90.5455 117.818L82.3273 126.036L74.1818 134.182H69.9636H65.8182V130.036V125.818L84.8727 106.764L104 87.6364L90.1818 73.8182L76.3636 60H68.2182H60V68.1455ZM85.0909 76.7273L96 87.6364L91.7818 91.7818L87.6364 96L76.7273 85.0909L65.8182 74.1818V70.0364V65.8182H70.0364H74.1818L85.0909 76.7273Z" fill="#F6F7EB"/>
<path d="M114.327 69.3091L105.091 78.6182L107.127 80.5818L109.164 82.5455L117.455 74.1818L125.818 65.8182H129.964H134.182V69.9636V74.1818L115.127 93.2364L96 112.364L109.818 126.182L123.636 140H131.782H140V131.855V123.636L128.218 111.855L116.364 100L128.218 88.1455L140 76.3636V68.1455V60H131.782H123.636L114.327 69.3091ZM123.418 115.055L134.182 125.818V129.964V134.182H129.964H125.818L114.909 123.273L104 112.364L108 108.364C110.182 106.182 112.145 104.364 112.364 104.364C112.509 104.364 117.527 109.164 123.418 115.055Z" fill="#F6F7EB"/>
<rect x="0.5" y="0.5" width="199" height="199" stroke="#FDCCC4"/>
</svg>
