<svg width="200" height="200" viewBox="0 0 200 200" fill="none" xmlns="http://www.w3.org/2000/svg">
<path d="M59.7979 72.3908C59.8221 89.2429 59.7898 88.1021 60.3057 90.2461C61.6198 95.6423 65.2393 99.3638 70.4793 100.699C72.2931 101.152 73.4459 101.281 75.7756 101.281C78.6294 101.281 80.2578 101.055 82.386 100.359C87.1422 98.7894 90.4393 95.2216 91.6485 90.3351C92.1564 88.2639 92.1242 89.4451 92.1564 72.5121L92.1806 57.0839H90.6973H89.2059L89.1737 72.3503C89.1414 89.0811 89.1737 88.0293 88.6739 89.9225C87.642 93.8463 85.0946 96.6131 81.3864 97.859C79.7983 98.393 78.2263 98.6195 76.0578 98.6114C71.7771 98.6034 68.6735 97.4869 66.2954 95.1003C64.3768 93.1667 63.2482 90.5778 62.9176 87.3497C62.8693 86.7996 62.837 81.4681 62.837 71.8002V57.0839H61.3054H59.7656L59.7979 72.3908Z" fill="#F6F7EB"/>
<path d="M100.339 58.2382L99.2754 59.3061L108.611 68.6747L117.938 78.0352L119.026 76.943L120.114 75.8508L110.803 66.5065C105.684 61.3691 101.476 57.1622 101.452 57.1622C101.428 57.1622 100.928 57.6476 100.339 58.2382Z" fill="#F6F7EB"/>
<path d="M130.473 66.5065L121.162 75.8508L122.25 76.943L123.339 78.0352L132.674 68.6666L142.001 59.3061L140.929 58.2301C140.34 57.6476 139.84 57.1622 139.824 57.1622C139.8 57.1622 135.592 61.3691 130.473 66.5065Z" fill="#F6F7EB"/>
<path d="M108.602 88.4551L99.2754 97.8156L100.364 98.9078L101.452 100L110.787 90.6314L120.114 81.2709L119.026 80.1787L117.938 79.0865L108.602 88.4551Z" fill="#F6F7EB"/>
<path d="M122.257 80.1221C121.7 80.6965 121.241 81.19 121.225 81.2305C121.209 81.279 125.392 85.5183 130.511 90.6557L139.822 100L140.911 98.9078L141.999 97.8156L132.672 88.4551C127.537 83.3016 123.321 79.0865 123.296 79.0865C123.272 79.0946 122.805 79.5558 122.257 80.1221Z" fill="#F6F7EB"/>
<path d="M93.0259 110.286C92.2601 110.448 91.2605 110.941 90.7606 111.394C89.9464 112.131 89.5353 113.037 89.4628 114.242C89.3821 115.618 89.761 116.685 90.672 117.624C91.3008 118.271 91.7038 118.53 93.6063 119.493C94.5334 119.962 95.2831 120.399 95.5249 120.609C96.1779 121.184 96.3553 121.831 96.057 122.502C95.533 123.667 93.6063 123.813 90.9783 122.899C90.5269 122.737 89.9626 122.527 89.7207 122.413L89.2773 122.219V123.781V125.342L89.8255 125.552C91.6152 126.256 94.0336 126.442 95.8071 126.014C97.7338 125.544 99.0317 124.307 99.3541 122.632C99.4912 121.936 99.4186 120.771 99.1929 120.124C98.7576 118.878 97.8789 118.134 95.2509 116.799C93.7273 116.014 93.4129 115.828 93.1146 115.48C92.7034 115.027 92.5906 114.606 92.7357 114.064C92.9372 113.32 93.4693 112.98 94.5253 112.924C95.3879 112.883 96.2505 113.045 97.4194 113.474C97.8789 113.652 98.29 113.765 98.3142 113.733C98.4512 113.579 99.3541 111.257 99.2977 111.208C99.1768 111.095 97.9031 110.642 97.1211 110.432C96.444 110.246 96.1376 110.213 94.9606 110.189C93.953 110.165 93.4451 110.197 93.0259 110.286Z" fill="#F6F7EB"/>
<path d="M116.268 110.277C113.084 110.811 110.932 112.858 110.263 115.981C110.037 117.041 110.061 119.597 110.311 120.754C110.617 122.218 111.222 123.424 112.093 124.322C112.971 125.22 113.995 125.762 115.398 126.069C116.22 126.247 118.566 126.263 119.711 126.11C120.485 125.997 121.879 125.689 122.516 125.479L122.895 125.349V121.272V117.194H119.791H116.688V118.61V120.026H118.179H119.67V121.636C119.67 123.513 119.823 123.286 118.421 123.432C115.317 123.739 113.681 122.194 113.487 118.772C113.326 115.932 114.511 113.837 116.688 113.101C117.034 112.979 117.373 112.947 118.26 112.947C119.493 112.947 120.13 113.06 121.162 113.481C121.468 113.61 121.75 113.683 121.774 113.651C121.847 113.578 122.814 111.24 122.814 111.143C122.814 110.965 121.347 110.495 120.122 110.277C119.251 110.131 117.155 110.123 116.268 110.277Z" fill="#F6F7EB"/>
<path d="M59.7734 118.164V126.012H62.5788C64.6425 126.012 65.5857 125.979 66.1823 125.89C67.9961 125.615 69.4068 124.992 70.5516 123.957C71.0514 123.504 71.793 122.42 72.0671 121.748C72.8732 119.758 72.9377 116.967 72.2364 114.912C71.6479 113.213 70.3097 111.789 68.641 111.077C67.1738 110.462 65.9969 110.317 62.337 110.317H59.7734V118.164ZM65.9969 113.18C67.6253 113.496 68.6813 114.54 69.1005 116.263C69.294 117.08 69.294 119.208 69.0924 119.984C68.641 121.724 67.5769 122.792 65.9404 123.14C65.5938 123.212 64.9247 123.261 64.2314 123.261H63.0786V118.164V113.067H64.2395C64.9086 113.067 65.6583 113.116 65.9969 113.18Z" fill="#F6F7EB"/>
<path d="M76.2188 118.164V126.012H80.6928H85.1669V124.636V123.261H82.3454H79.5239V121.238V119.216H82.1439H84.7639V117.881V116.546H82.1439H79.5239V114.807V113.067H82.3454H85.1669V111.692V110.317H80.6928H76.2188V118.164Z" fill="#F6F7EB"/>
<path d="M103.063 118.164V126.012H104.716H106.368V118.164V110.317H104.716H103.063V118.164Z" fill="#F6F7EB"/>
<path d="M127.489 118.164V126.012H128.981H130.472V122.225C130.472 118.779 130.392 115.721 130.263 114.621C130.238 114.394 130.246 114.2 130.287 114.2C130.327 114.2 131.875 116.853 133.737 120.106L137.123 126.012H139.243H141.355V118.164V110.317H139.856H138.356L138.405 115.794C138.429 118.811 138.477 121.449 138.501 121.659C138.526 121.878 138.517 122.047 138.485 122.047C138.445 122.039 136.889 119.402 135.035 116.182L131.657 110.317H129.569H127.489V118.164Z" fill="#F6F7EB"/>
<path d="M137.349 130.737C136.164 130.963 135.269 131.594 134.874 132.484C134.519 133.277 134.567 134.491 134.987 135.316C135.373 136.068 136.188 136.626 137.889 137.298C140.097 138.164 140.549 138.584 140.549 139.733C140.549 140.922 139.767 141.594 138.211 141.748C137.542 141.812 136.389 141.667 135.486 141.416C135.099 141.303 134.712 141.198 134.616 141.173C134.463 141.133 134.454 141.165 134.43 141.772L134.414 142.419L134.841 142.581C135.543 142.84 136.405 142.953 137.647 142.953C138.921 142.945 139.517 142.832 140.251 142.46C140.863 142.152 141.46 141.537 141.726 140.955C141.927 140.51 141.952 140.364 141.952 139.644C141.952 138.924 141.927 138.779 141.726 138.325C141.323 137.444 140.46 136.837 138.59 136.133C136.502 135.348 135.946 134.774 136.059 133.512C136.204 131.861 138.155 131.457 141.121 132.452C141.218 132.484 141.299 132.363 141.468 131.91C141.589 131.594 141.669 131.319 141.661 131.303C141.645 131.295 141.452 131.214 141.226 131.125C140.21 130.721 138.388 130.543 137.349 130.737Z" fill="#F6F7EB"/>
<path d="M62.6031 130.963C62.5628 131.068 61.6196 133.479 60.499 136.327C58.0887 142.46 58 142.694 58 142.775C58 142.816 58.3063 142.84 58.6772 142.84H59.3543L59.7251 141.885C59.9267 141.367 60.2491 140.518 60.4426 140.008L60.8054 139.078L63.2238 139.054L65.6422 139.037L65.8035 139.458C65.8921 139.693 66.2226 140.55 66.5451 141.359L67.1175 142.84H67.8511C68.3992 142.84 68.5685 142.816 68.5363 142.735C68.5121 142.686 67.448 139.968 66.1743 136.707L63.8607 130.785H63.2641C62.724 130.785 62.6676 130.801 62.6031 130.963ZM64.4733 135.842C64.8038 136.732 65.1021 137.525 65.1344 137.597C65.1908 137.735 65.0699 137.743 63.2883 137.743C62.2242 137.743 61.3858 137.711 61.3858 137.67C61.3858 137.63 61.7244 136.691 62.1436 135.591C62.5547 134.483 62.9578 133.358 63.0303 133.091C63.1029 132.824 63.1835 132.549 63.2077 132.484C63.2319 132.42 63.385 132.784 63.5543 133.293C63.7236 133.803 64.1347 134.952 64.4733 135.842Z" fill="#F6F7EB"/>
<path d="M71.9785 130.923C72.0027 131.003 72.4944 132.872 73.0829 135.073C73.6633 137.273 74.3647 139.911 74.6388 140.938L75.1305 142.799L75.7674 142.823C76.1221 142.84 76.4365 142.815 76.4687 142.783C76.5655 142.686 79.0161 134.32 79.2338 133.342L79.4192 132.541L79.5885 133.22C79.7255 133.77 80.8864 137.71 82.2326 142.176L82.4342 142.848L83.1274 142.823L83.8207 142.799L85.3766 136.95C86.2311 133.73 86.9566 131.028 86.9808 130.939C87.0292 130.785 86.9969 130.777 86.2875 130.801L85.5378 130.825L85.4733 131.068C85.0864 132.468 83.4741 138.924 83.3048 139.757C83.0791 140.833 82.9904 141.1 82.9904 140.728C82.9904 140.275 82.5309 138.6 81.4184 134.952C80.7735 132.816 80.2173 131.003 80.2012 130.923C80.1608 130.793 80.0722 130.785 79.4192 130.801L78.6775 130.825L78.4679 131.554C78.347 131.95 77.815 133.778 77.2749 135.607C76.7347 137.435 76.2107 139.361 76.0979 139.887C75.9931 140.412 75.8883 140.849 75.8802 140.866C75.8641 140.882 75.7996 140.59 75.7432 140.226C75.6626 139.684 74.8564 136.416 73.6069 131.513L73.4296 130.825L72.6798 130.801C71.9946 130.777 71.9382 130.793 71.9785 130.923Z" fill="#F6F7EB"/>
<path d="M92.8008 136.715C91.519 139.968 90.4549 142.686 90.4307 142.743C90.3985 142.816 90.5597 142.84 91.0998 142.84H91.8173L92.5428 140.939L93.2683 139.037H95.6868H98.1052L98.8307 140.922L99.5563 142.799L100.266 142.824C100.661 142.84 100.967 142.816 100.967 142.767C100.967 142.727 100.362 141.157 99.6288 139.272C98.8952 137.387 97.8956 134.839 97.42 133.617C96.9444 132.395 96.501 131.255 96.4284 131.085L96.2994 130.785H95.711H95.1225L92.8008 136.715ZM96.0898 133.504C96.2833 134.078 96.7106 135.259 97.0411 136.125L97.6376 137.702L95.7432 137.727C94.7033 137.735 93.8407 137.735 93.8246 137.719C93.8085 137.711 94.147 136.788 94.5662 135.68C94.9854 134.563 95.4127 133.374 95.5094 133.034C95.6062 132.695 95.6948 132.428 95.711 132.444C95.7271 132.452 95.8964 132.937 96.0898 133.504Z" fill="#F6F7EB"/>
<path d="M106.046 136.804V142.84H106.731H107.417V140.332V137.824H108.658H109.899L111.342 140.308L112.785 142.799L113.616 142.824C114.075 142.832 114.43 142.816 114.414 142.783C114.39 142.718 113.6 141.4 111.907 138.592L111.222 137.46L111.794 137.16C112.85 136.602 113.374 135.898 113.551 134.774C113.793 133.261 113.172 131.886 111.987 131.319C111.133 130.915 110.689 130.858 108.287 130.81L106.046 130.761V136.804ZM110.601 132.201C111.254 132.371 111.673 132.678 111.923 133.172C112.1 133.512 112.132 133.674 112.132 134.305C112.132 134.96 112.108 135.073 111.891 135.478C111.399 136.368 110.73 136.61 108.731 136.61H107.417V134.361C107.417 133.123 107.441 132.08 107.465 132.055C107.57 131.95 110.109 132.072 110.601 132.201Z" fill="#F6F7EB"/>
<path d="M119.912 136.813V142.84H121.709C123.693 142.84 124.652 142.759 125.555 142.508C127.409 142.007 128.674 140.696 129.198 138.754C129.448 137.808 129.448 135.648 129.198 134.717C128.586 132.5 126.925 131.141 124.466 130.866C124.071 130.826 122.878 130.785 121.83 130.785H119.912V136.813ZM124.902 132.201C126.063 132.484 126.965 133.196 127.441 134.207C127.82 135.017 127.933 135.583 127.925 136.813C127.917 138.423 127.602 139.369 126.796 140.243C125.877 141.238 124.628 141.626 122.322 141.626H121.282V136.804V131.975L122.838 132.023C123.838 132.055 124.571 132.112 124.902 132.201Z" fill="#F6F7EB"/>
<rect x="0.5" y="0.5" width="199" height="199" stroke="#FDCCC4"/>
</svg>
