<svg width="263" height="56" viewBox="0 0 263 56" fill="none" xmlns="http://www.w3.org/2000/svg">
<circle cx="27.9996" cy="28.0005" r="23.1724" fill="#141414"/>
<path fill-rule="evenodd" clip-rule="evenodd" d="M28 53.5862C42.1309 53.5862 53.5862 42.1309 53.5862 28C53.5862 13.8691 42.1309 2.41379 28 2.41379C13.8691 2.41379 2.41379 13.8691 2.41379 28C2.41379 42.1309 13.8691 53.5862 28 53.5862ZM28 56C43.464 56 56 43.464 56 28C56 12.536 43.464 0 28 0C12.536 0 0 12.536 0 28C0 43.464 12.536 56 28 56Z" fill="#141414"/>
<path d="M44.8966 28C44.8966 37.3317 37.3318 44.8966 28.0001 44.8966C18.6684 44.8966 11.1035 37.3317 11.1035 28" stroke="#F54936" stroke-width="2.5" stroke-linecap="round"/>
<path d="M11.1033 27.9996C21.2154 27.3177 28.9652 31.8617 27.9997 45.3789" stroke="#F54936" stroke-width="2.5" stroke-linecap="round" stroke-linejoin="bevel"/>
<path d="M27.9998 45.3789C27.0343 31.8617 34.7843 27.3177 44.8965 27.9996" stroke="#F54936" stroke-width="2.5" stroke-linecap="round" stroke-linejoin="bevel"/>
<path d="M16.4141 17.3789V27.9996C16.4141 34.3985 21.6014 39.5858 28.0003 39.5858C34.3992 39.5858 39.5865 34.3985 39.5865 27.9996V17.3789" stroke="#F54936" stroke-width="2.5"/>
<ellipse cx="28.0003" cy="17.8618" rx="11.5862" ry="6.27586" stroke="#F54936" stroke-width="2.5"/>
<path d="M27.9967 19.7926C30.8933 19.7926 34.2778 19.1803 34.2778 17.4585C34.2778 16.1415 30.2965 15.4492 28.6471 15.4492C26.716 15.4492 25.887 15.5729 25.4111 15.6681" stroke="#F54936" stroke-width="2.5" stroke-linecap="round"/>
<path d="M28.0003 19.7924C23.3021 19.7924 20.2725 18.3014 20.2725 15.6049C20.2725 12.7956 23.8413 11.5859 28.0003 11.5859" stroke="#F54936" stroke-width="2.5"/>
<path d="M28 44.4141V51.1727" stroke="#F54936" stroke-width="2.5"/>
<path d="M67.264 44V10.4H79.696C82.384 10.4 84.608 10.848 86.368 11.744C88.128 12.64 89.44 13.872 90.304 15.44C91.168 17.008 91.6 18.768 91.6 20.72C91.6 22.576 91.184 24.288 90.352 25.856C89.52 27.392 88.224 28.64 86.464 29.6C84.704 30.528 82.448 30.992 79.696 30.992H73.408V44H67.264ZM73.408 26H79.312C81.456 26 82.992 25.536 83.92 24.608C84.88 23.648 85.36 22.352 85.36 20.72C85.36 19.056 84.88 17.76 83.92 16.832C82.992 15.872 81.456 15.392 79.312 15.392H73.408V26ZM92.9162 44V20.192H98.3882L98.9643 24.656C99.8282 23.12 100.996 21.904 102.468 21.008C103.972 20.08 105.732 19.616 107.748 19.616V26.096H106.02C104.676 26.096 103.476 26.304 102.42 26.72C101.364 27.136 100.532 27.856 99.9242 28.88C99.3482 29.904 99.0602 31.328 99.0602 33.152V44H92.9162ZM119.59 44.576C117.286 44.576 115.206 44.048 113.35 42.992C111.526 41.936 110.07 40.48 108.982 38.624C107.926 36.736 107.398 34.56 107.398 32.096C107.398 29.632 107.942 27.472 109.03 25.616C110.118 23.728 111.574 22.256 113.398 21.2C115.254 20.144 117.334 19.616 119.638 19.616C121.91 19.616 123.958 20.144 125.782 21.2C127.638 22.256 129.094 23.728 130.15 25.616C131.238 27.472 131.782 29.632 131.782 32.096C131.782 34.56 131.238 36.736 130.15 38.624C129.094 40.48 127.638 41.936 125.782 42.992C123.926 44.048 121.862 44.576 119.59 44.576ZM119.59 39.248C121.19 39.248 122.582 38.656 123.766 37.472C124.95 36.256 125.542 34.464 125.542 32.096C125.542 29.728 124.95 27.952 123.766 26.768C122.582 25.552 121.206 24.944 119.638 24.944C118.006 24.944 116.598 25.552 115.414 26.768C114.262 27.952 113.686 29.728 113.686 32.096C113.686 34.464 114.262 36.256 115.414 37.472C116.598 38.656 117.99 39.248 119.59 39.248ZM133.915 54.56V20.192H139.387L140.059 23.6C140.827 22.544 141.835 21.616 143.083 20.816C144.363 20.016 146.011 19.616 148.027 19.616C150.267 19.616 152.267 20.16 154.027 21.248C155.787 22.336 157.179 23.824 158.203 25.712C159.227 27.6 159.739 29.744 159.739 32.144C159.739 34.544 159.227 36.688 158.203 38.576C157.179 40.432 155.787 41.904 154.027 42.992C152.267 44.048 150.267 44.576 148.027 44.576C146.235 44.576 144.667 44.24 143.323 43.568C141.979 42.896 140.891 41.952 140.059 40.736V54.56H133.915ZM146.731 39.2C148.683 39.2 150.299 38.544 151.579 37.232C152.859 35.92 153.499 34.224 153.499 32.144C153.499 30.064 152.859 28.352 151.579 27.008C150.299 25.664 148.683 24.992 146.731 24.992C144.747 24.992 143.115 25.664 141.835 27.008C140.587 28.32 139.963 30.016 139.963 32.096C139.963 34.176 140.587 35.888 141.835 37.232C143.115 38.544 144.747 39.2 146.731 39.2ZM161.867 44V9.44H168.011V23.84C168.811 22.528 169.883 21.504 171.227 20.768C172.603 20 174.171 19.616 175.931 19.616C178.875 19.616 181.147 20.544 182.747 22.4C184.379 24.256 185.195 26.976 185.195 30.56V44H179.099V31.136C179.099 29.088 178.683 27.52 177.851 26.432C177.051 25.344 175.771 24.8 174.011 24.8C172.283 24.8 170.843 25.408 169.691 26.624C168.571 27.84 168.011 29.536 168.011 31.712V44H161.867ZM199.279 44.576C196.879 44.576 194.751 44.064 192.895 43.04C191.039 42.016 189.583 40.576 188.527 38.72C187.471 36.864 186.943 34.72 186.943 32.288C186.943 29.824 187.455 27.632 188.479 25.712C189.535 23.792 190.975 22.304 192.799 21.248C194.655 20.16 196.831 19.616 199.327 19.616C201.663 19.616 203.727 20.128 205.519 21.152C207.311 22.176 208.703 23.584 209.695 25.376C210.719 27.136 211.231 29.104 211.231 31.28C211.231 31.632 211.215 32 211.183 32.384C211.183 32.768 211.167 33.168 211.135 33.584H193.039C193.167 35.44 193.807 36.896 194.959 37.952C196.143 39.008 197.567 39.536 199.231 39.536C200.479 39.536 201.519 39.264 202.351 38.72C203.215 38.144 203.855 37.408 204.271 36.512H210.511C210.063 38.016 209.311 39.392 208.255 40.64C207.231 41.856 205.951 42.816 204.415 43.52C202.911 44.224 201.199 44.576 199.279 44.576ZM199.327 24.608C197.823 24.608 196.495 25.04 195.343 25.904C194.191 26.736 193.455 28.016 193.135 29.744H204.991C204.895 28.176 204.319 26.928 203.263 26C202.207 25.072 200.895 24.608 199.327 24.608ZM224.702 44.576C222.27 44.576 220.126 44.048 218.27 42.992C216.414 41.936 214.942 40.464 213.854 38.576C212.798 36.688 212.27 34.528 212.27 32.096C212.27 29.664 212.798 27.504 213.854 25.616C214.942 23.728 216.414 22.256 218.27 21.2C220.126 20.144 222.27 19.616 224.702 19.616C227.742 19.616 230.302 20.416 232.382 22.016C234.462 23.584 235.79 25.76 236.366 28.544H229.886C229.566 27.392 228.926 26.496 227.966 25.856C227.038 25.184 225.934 24.848 224.654 24.848C222.958 24.848 221.518 25.488 220.334 26.768C219.15 28.048 218.558 29.824 218.558 32.096C218.558 34.368 219.15 36.144 220.334 37.424C221.518 38.704 222.958 39.344 224.654 39.344C225.934 39.344 227.038 39.024 227.966 38.384C228.926 37.744 229.566 36.832 229.886 35.648H236.366C235.79 38.336 234.462 40.496 232.382 42.128C230.302 43.76 227.742 44.576 224.702 44.576ZM239.995 54.56L245.515 42.416H244.075L234.811 20.192H241.483L248.155 36.944L255.115 20.192H261.643L246.523 54.56H239.995Z" fill="#141414"/>
</svg>
