<svg width="40" height="40" viewBox="0 0 40 40" fill="none" xmlns="http://www.w3.org/2000/svg">
<path d="M19.9987 36.6668C29.2034 36.6668 36.6654 29.2049 36.6654 20.0002C36.6654 10.7954 29.2034 3.3335 19.9987 3.3335C10.794 3.3335 3.33203 10.7954 3.33203 20.0002C3.33203 29.2049 10.794 36.6668 19.9987 36.6668Z" stroke="#F6F7EB" stroke-width="2" stroke-linecap="round" stroke-linejoin="round"/>
<path d="M20 30C25.5228 30 30 25.5228 30 20C30 14.4772 25.5228 10 20 10C14.4772 10 10 14.4772 10 20C10 25.5228 14.4772 30 20 30Z" stroke="#F6F7EB" stroke-width="2" stroke-linecap="round" stroke-linejoin="round"/>
<path d="M20.0013 23.3332C21.8423 23.3332 23.3346 21.8408 23.3346 19.9998C23.3346 18.1589 21.8423 16.6665 20.0013 16.6665C18.1604 16.6665 16.668 18.1589 16.668 19.9998C16.668 21.8408 18.1604 23.3332 20.0013 23.3332Z" stroke="#FF725C" stroke-width="2" stroke-linecap="round" stroke-linejoin="round"/>
</svg>
