<svg width="40" height="40" viewBox="0 0 40 40" fill="none" xmlns="http://www.w3.org/2000/svg">
<path d="M28.3346 35V31.6667C28.3346 29.8986 27.6323 28.2029 26.382 26.9526C25.1318 25.7024 23.4361 25 21.668 25H8.33464C6.56653 25 4.87083 25.7024 3.62059 26.9526C2.37035 28.2029 1.66797 29.8986 1.66797 31.6667V35" stroke="#F6F7EB" stroke-width="2" stroke-linecap="round" stroke-linejoin="round"/>
<path d="M14.9987 18.3333C18.6806 18.3333 21.6654 15.3486 21.6654 11.6667C21.6654 7.98477 18.6806 5 14.9987 5C11.3168 5 8.33203 7.98477 8.33203 11.6667C8.33203 15.3486 11.3168 18.3333 14.9987 18.3333Z" stroke="#F6F7EB" stroke-width="2" stroke-linecap="round" stroke-linejoin="round"/>
<path d="M38.332 35.0001V31.6668C38.3309 30.1897 37.8393 28.7548 36.9343 27.5873C36.0293 26.4199 34.7622 25.5861 33.332 25.2168" stroke="#FF725C" stroke-width="2" stroke-linecap="round" stroke-linejoin="round"/>
<path d="M26.668 5.2168C28.102 5.58397 29.373 6.41797 30.2807 7.58731C31.1884 8.75666 31.681 10.1948 31.681 11.6751C31.681 13.1554 31.1884 14.5936 30.2807 15.7629C29.373 16.9323 28.102 17.7663 26.668 18.1335" stroke="#FF725C" stroke-width="2" stroke-linecap="round" stroke-linejoin="round"/>
</svg>
